<?xml version="1.0" encoding="UTF-8"?><svg id="a" xmlns="http://www.w3.org/2000/svg" viewBox="0 0 588.02 448.01"><defs><style>.b{fill:#fff;stroke-width:0px;}</style></defs><path class="b" d="m498.51,37.83c-.17-.32-.46-.57-.8-.7C459.61,19.65,419.41,7.18,378.11.03c-.76-.14-1.53.22-1.9.9-5.48,9.94-10.45,20.16-14.9,30.6-44.54-6.76-89.86-6.76-134.4,0-4.47-10.47-9.51-20.69-15.1-30.6-.39-.65-1.14-1.01-1.9-.9-41.37,7.12-81.65,19.59-119.8,37.1-.33.14-.62.39-.8.7C13.11,151.73-7.79,262.73,2.41,372.43c.06.56.35,1.07.8,1.4,44.39,32.83,94.03,57.89,146.8,74.1.78.24,1.62-.04,2.1-.7,11.32-15.42,21.36-31.74,30-48.8.46-.94.07-2.08-.87-2.54-.04-.02-.09-.04-.13-.06-15.85-6.08-31.2-13.4-45.9-21.9-.89-.55-1.18-1.72-.63-2.61.11-.19.26-.35.43-.49,3.1-2.3,6.2-4.7,9.1-7.1.52-.46,1.26-.58,1.9-.3,96.2,43.9,200.4,43.9,295.5,0,.62-.3,1.36-.23,1.9.2,2.9,2.4,6,4.9,9.1,7.2.82.66.95,1.85.29,2.67-.14.17-.3.31-.49.43-14.66,8.55-30.01,15.84-45.9,21.8-.97.39-1.45,1.5-1.06,2.47.02.04.04.09.06.13,8.79,16.98,18.82,33.29,30,48.8.48.66,1.32.94,2.1.7,52.93-16.14,102.71-41.2,147.2-74.1.46-.32.75-.84.8-1.4,12.2-126.7-20.6-236.8-87-334.5ZM196.51,305.63c-29,0-52.8-26.6-52.8-59.2s23.4-59.3,52.8-59.3,53.3,26.8,52.8,59.2c0,32.7-23.4,59.3-52.8,59.3Zm195.4,0c-29,0-52.8-26.6-52.8-59.2s23.3-59.3,52.8-59.3,53.3,26.8,52.8,59.2c0,32.7-23.2,59.3-52.8,59.3Z"/></svg>