<?xml version="1.0" encoding="UTF-8"?><svg id="a" xmlns="http://www.w3.org/2000/svg" viewBox="0 0 214.36 84"><defs><style>.b,.c,.d{stroke-width:0px;}.c{fill:#fc0;}.d{fill:red;}</style></defs><path class="b" d="m19.42,11.42c.04-.31.06-.63.06-.95,0-.18,0-.38-.02-.62,2.75-.04,5.15-2.02,5.15-4.29,0-1.16-.75-2.03-1.18-2.55.09-.02.19-.04.29-.07.4.35,1.54,1.59,1.54,3.16,0,2.73-2.73,5.26-5.84,5.32m-2.76-9.5c-.05-.3-.17-.58-.34-.82.01-.28.12-.54.57-.32-.24.25-.06.69-.06.69,0,0,.5-.23.39-.56.74.18.21,1.16-.57,1.01m-.64,1.4c-.1-.42-.3-.81-.57-1.14-.24-.29-.64-.63-1.18-.63-.25,0-.66.12-.92.23-.1-.18-.29-.61-.29-.8s.34-.4.98-.4c1.42,0,2.27.64,2.27,1.72,0,.38-.15.72-.29,1.03m3.65,18.31c.12,0,.23.02.34.06.41,1.11,1.99,3.21,2.05,3.3v.02s.04,0,.04,0c.39-.06,1.37-.21,2.2-.21h.02c.09,0,.19,0,.26.06.05.05.08.15.08.28,0,.21-.09.56-.19.71-.29-.32-.76-.46-1.51-.46-.23,0-.49.07-.64.11h-.06s-.07.03-.07.03l.43.43c.67.67,1.25,1.25,1.25,1.63,0,.23-.23.53-.43.67-.05-.7-.76-1.65-1.45-2.17l-.06-.04v.25c-.02.17-.04.42-.04.69,0,1.34-.14,1.54-.6,1.54-.08,0-.17-.02-.25-.05.26-.32.37-.75.37-1.5v-.35s0-.28,0-.28c0-.31.03-.53.06-.72v-.1s-.06,0-.06,0c-.31-.05-.62-.08-.93-.09-.66,0-1.11.06-1.44.37-.21-.17-.43-.47-.43-.66,0-.28.17-.3.4-.3.12,0,.22.02.37.03.28.04.71.11,1.59.11h.06l-.02-.05c-.22-.64-.84-1.57-1.82-2.77.09-.32.17-.53.48-.53m-8.5,3.3l-.02.05h.06c.88,0,1.31-.06,1.6-.11.15-.02.26-.03.37-.03.23,0,.4.02.4.3,0,.19-.22.49-.43.66-.33-.31-.78-.37-1.44-.37-.31,0-.71.05-.93.09h-.03s-.04,0-.04,0v.1c.04.18.07.41.07.72v.28s0,.35,0,.35c0,.75.1,1.18.37,1.5-.08.03-.16.04-.25.05-.47,0-.6-.2-.6-1.54,0-.27-.01-.52-.02-.69v-.25s-.07.05-.07.05c-.69.53-1.4,1.47-1.45,2.17-.21-.13-.43-.43-.43-.67,0-.38.58-.96,1.25-1.63l.43-.43-.13-.03c-.21-.06-.42-.1-.64-.11-.75,0-1.22.14-1.51.46-.1-.15-.19-.5-.19-.71,0-.13.03-.23.08-.28.06-.06.17-.06.26-.06h.02c.83,0,1.82.15,2.2.21h.02s.01-.01.01-.01c.07-.09,1.64-2.19,2.05-3.3.11-.04.22-.07.34-.06.31,0,.4.21.49.53-.99,1.2-1.6,2.13-1.82,2.77M6.9,6.11c0-1.57,1.14-2.81,1.54-3.16.1.02.19.05.29.07-.43.52-1.18,1.39-1.18,2.55,0,2.3,2.45,4.29,5.23,4.29-.02.2-.03.41-.03.62,0,.34.02.65.05.95-3.14-.02-5.91-2.57-5.91-5.32m21.08,4.84c1.41,2.23,2.51,2.19,4.18,2.19-1.38-1.06-2.29-2.41-2.73-3.1l-2.57-4.12c-.25-1.29-.92-2.46-1.89-3.35.33-.13.61-.26.77-.38-1.68,0-3.35-.85-4.27-.85-.59,0-.97.35-.97.82.04.52.57,1.05,1.56,1.05.22,0,.51-.03.82-.08.53.74.97,1.42.97,2.38,0,1.8-2.16,3.21-4.33,3.21-.12,0-.24,0-.36-.01-.2-.45-.85-1.2-.85-2.05,0-1.43.93-2.6.93-4.02,0-.88-.43-1.43-.59-1.66.27-.25.56-.55.63-.76-.16.07-.34.07-.61.07-1.04,0-1.89-.27-2.72-.27-.47,0-.6.15-.6.29,0,.05,0,.1.02.13-.17-.07-.35-.12-.54-.15-.26-.05-.52-.07-.79-.07-1.01,0-1.37.42-1.37.78,0,.31.24.87.51,1.29.39-.2.86-.33,1.08-.33.53,0,1.01.51,1.26,1.11-.36.04-.43.06-.79.06-.98,0-1.65-.35-1.79-.35-.01,0-.04,0-.04.03,0,.14.28.5.83.7.72.26,1.81.37,1.99.41,0,.03-.18.37-.39.44-.04.01-.09.01-.13,0-.75-.15-.97-.21-1.92-.57-.03-.01-.05,0-.05.04,0,.38.98,1.21,1.86,1.54-.73.94-1.65,1.89-2.08,3.36-.12,0-.24.01-.36.01-2.18,0-4.33-1.41-4.33-3.21,0-.96.43-1.63.97-2.38.31.05.6.08.82.08.99,0,1.52-.53,1.56-1.05,0-.47-.38-.82-.97-.82-.92,0-2.58.85-4.27.85.17.13.44.26.77.38-.98.88-1.64,2.06-1.89,3.35l-2.58,4.12c-.43.69-1.35,2.05-2.73,3.1,1.67,0,2.77.04,4.18-2.19l1.32-2.11c.1.27.22.54.36.8l-2.63,4.2c-.44.7-1.34,2.04-2.73,3.1,1.67,0,2.77.04,4.18-2.19l2.26-3.62c.17.18.35.36.53.53l-3.19,5.11c-.44.7-1.34,2.04-2.73,3.1,1.67,0,2.77.04,4.18-2.19l3.11-4.98c.21.13.41.25.63.37l-3.8,6.07c-.44.7-1.34,2.03-2.73,3.1,1.67,0,2.77.04,4.18-2.19l3.91-6.26c.23.09.47.17.7.25l-4.42,7.07c-.43.69-1.35,2.05-2.72,3.1,1.67,0,2.77.04,4.18-2.19l4.71-7.53s.09.01.14.03c.13.41.22.79.22,1.17,0,2.37-1.55,4.46-3.42,6.07.12.05.33.07.52.07.38,0,.63-.02.81-.05-.43.98-1.36,2.25-1.83,2.91-.69-.12-1.38-.18-2.08-.2-.61,0-.68.35-.68.67,0,.55.26.99.56,1.24.11-.28.34-.66,1.46-.66h.11c-.33.37-1.36,1.2-1.36,1.87,0,.44.49,1.11,1.13,1.11-.04-.14-.03-.27-.03-.37,0-.54.48-1.18.89-1.62-.01.13,0,.12,0,.27,0,1.28.12,1.87.93,1.87.4,0,.67-.22.77-.28-.53-.49-.56-.87-.56-1.59v-.62c.01-.18,0-.36-.02-.54.29-.04.41-.04.63-.04,0,0,1.15-.09,1.43.51.31-.29.77-.69.77-1.14,0-.3-.14-.63-.74-.63-.23,0-.94.14-1.53.14.16-.35.87-1.39,1.49-2.15.09.29.24.61.56.87.05-.49.33-2.02,1.09-2.91.09.61.21,1.23.21,2.54,0,3.19-.77,5.54-2.39,5.99.21.37.66.7,1.12.7.6,0,.92-.67,1.25-1.31.17.47.65,1.62,1.12,1.62s.95-1.15,1.13-1.62c.33.63.65,1.31,1.25,1.31.46,0,.91-.33,1.12-.7-1.63-.45-2.39-2.8-2.39-5.99,0-1.31.12-1.93.21-2.54.76.9,1.04,2.43,1.09,2.91.27-.22.47-.53.56-.87.61.75,1.33,1.79,1.49,2.15-.59,0-1.3-.14-1.53-.14-.59,0-.73.33-.73.63,0,.45.46.85.77,1.14.28-.6,1.43-.51,1.43-.51.22,0,.34,0,.63.04-.03.16-.03.37-.03.54v.62c0,.72-.02,1.1-.55,1.59.09.07.37.29.77.29.81,0,.93-.59.93-1.87,0-.15,0-.14,0-.27.41.44.89,1.08.89,1.62,0,.1,0,.23-.03.37.64,0,1.13-.67,1.13-1.11,0-.67-1.03-1.5-1.36-1.87h.11c1.12,0,1.35.37,1.46.65.36-.31.57-.76.56-1.24,0-.32-.07-.67-.68-.67s-1.47.09-2.08.2c-.47-.66-1.39-1.92-1.83-2.91.17.03.42.05.81.05.19,0,.4-.02.52-.07-1.87-1.61-3.42-3.7-3.42-6.07,0-.38.09-.76.22-1.17.05-.01.09-.02.14-.03l4.71,7.53c1.41,2.23,2.51,2.19,4.18,2.19-1.37-1.05-2.29-2.41-2.72-3.1l-4.42-7.07c.24-.07.47-.16.71-.25l3.91,6.26c1.41,2.23,2.51,2.19,4.18,2.19-1.39-1.07-2.29-2.4-2.73-3.1l-3.79-6.08c.21-.12.43-.24.63-.37l3.11,4.98c1.41,2.23,2.51,2.19,4.18,2.19-1.39-1.06-2.29-2.4-2.73-3.1l-3.19-5.11c.19-.17.37-.34.53-.52l2.26,3.62c1.41,2.23,2.51,2.19,4.18,2.19-1.39-1.06-2.29-2.4-2.73-3.1l-2.63-4.2c.14-.26.26-.53.36-.8l1.32,2.11ZM40.52,1.38h4.82v27.54h-4.82V1.38Z"/><path class="d" d="m40.52,28.92h4.82v27.54h-4.82v-27.54Z"/><path class="c" d="m40.52,56.46h4.82v27.54h-4.82v-27.54Z"/><path class="b" d="m62.27,3.88c0-1.77-1.07-2.91-3.79-2.91h-2.2v11.4h2.33c2.73,0,3.95-1.31,3.95-3.09,0-1.52-.98-2.51-2.15-2.74v-.03c.99-.26,1.85-1.04,1.85-2.63h0Zm-1.45.05c0,1.31-.81,2.11-2.35,2.11h-.74v-3.93h.76c1.6,0,2.33.78,2.33,1.82Zm.21,5.25c0,1.31-.73,2-2.41,2h-.89v-4h.98c1.49,0,2.33.78,2.33,2h0Zm7.6,2.3h.03v.89h1.22v-7.93h-1.34v6.07c-.26.33-.79.87-1.6.87-.89,0-1.32-.53-1.32-1.83v-5.11h-1.34v5.21c0,2.15.87,2.93,2.28,2.93,1.21,0,1.92-.81,2.07-1.09h0Zm6.26-6.1c.93,0,1.37.54,1.37,1.88v5.11h1.34v-5.21c0-2.15-.89-2.93-2.31-2.93-1.24,0-1.95.81-2.1,1.09h-.03v-.89h-1.22v7.93h1.34v-6.11c.26-.33.81-.87,1.62-.87h0Zm7.49,6c-.93,0-1.75-.73-1.75-2.91s.97-3.04,2.21-3.04c.48,0,.79.13,1.03.28v4.89c-.33.49-.89.78-1.49.78Zm1.57.15h.03v.84h1.22V.55l-1.34.15v3.8c-.36-.14-.74-.2-1.12-.2-1.69,0-3.5,1.02-3.5,4.23,0,2.89,1.27,4.05,2.78,4.05,1.26,0,1.78-.79,1.93-1.04Zm5.88-6.2c.84,0,1.29.65,1.29,1.74,0,.25-.02.46-.03.58h-2.87c.07-1.49.68-2.31,1.62-2.31Zm2.68,6.3l-.5-.94c-.18.18-.73.69-1.67.69-1.34,0-2.07-.87-2.15-2.73h4.05c.05-.38.1-.86.1-1.54,0-1.9-.93-2.88-2.43-2.88-1.65,0-3.02,1.26-3.02,4.07,0,2.99,1.26,4.26,3.26,4.26,1.5,0,2.15-.71,2.36-.94h0Zm5.62-6.54c-.27-.26-.79-.84-2.02-.84-1.29,0-2.3.88-2.3,2.05,0,1.09.59,1.73,1.59,2.36l.5.31c.76.48,1.16.74,1.16,1.5,0,.51-.43.91-1.22.91-.86,0-1.35-.51-1.6-.78l-.65,1.06c.31.33.96.91,2.23.91,1.62,0,2.53-.97,2.53-2.23,0-1.17-.66-1.82-1.74-2.46l-.49-.3c-.71-.43-1.04-.76-1.04-1.35,0-.46.38-.84,1.09-.84s1.21.46,1.39.66l.58-.96Zm4.76.35c.83,0,1.19.55,1.19,1.83v5.11h1.34v-5.32c0-.28-.02-.55-.07-.83.3-.35.79-.79,1.52-.79.89,0,1.37.55,1.37,1.83v5.11h1.34v-5.32c0-1.89-.83-2.81-2.41-2.81-1.02,0-1.75.61-2.1,1.06-.36-.71-1.02-1.06-1.92-1.06-1.09,0-1.77.73-1.98,1.09h-.03v-.89h-1.22v7.93h1.34v-6.11c.23-.28.74-.83,1.64-.83h0Zm9.37-2.91c.53,0,.89-.4.89-.96s-.36-.94-.89-.94-.91.4-.91.94.36.96.91.96h0Zm.66,1.92h-1.34v7.93h1.34v-7.93Zm5.01.94c.93,0,1.37.54,1.37,1.88v5.11h1.34v-5.21c0-2.15-.89-2.93-2.31-2.93-1.24,0-1.95.81-2.1,1.09h-.03v-.89h-1.22v7.93h1.34v-6.11c.26-.33.81-.87,1.62-.87h0Zm5.39-2.86c.53,0,.89-.4.89-.96s-.36-.94-.89-.94-.91.4-.91.94.36.96.91.96h0Zm.66,1.92h-1.34v7.93h1.34v-7.93Zm6.05.64c-.26-.26-.79-.84-2.02-.84-1.29,0-2.3.88-2.3,2.05,0,1.09.59,1.73,1.59,2.36l.49.31c.76.48,1.16.74,1.16,1.5,0,.51-.43.91-1.22.91-.86,0-1.36-.51-1.6-.78l-.64,1.06c.31.33.96.91,2.23.91,1.62,0,2.53-.97,2.53-2.23,0-1.17-.66-1.82-1.73-2.46l-.5-.3c-.71-.43-1.04-.76-1.04-1.35,0-.46.38-.84,1.09-.84.74,0,1.21.46,1.39.66l.58-.96Zm5.39,7.14l-.18-1.07c-.13.08-.43.23-.83.23-.68,0-.94-.33-.94-1.45v-4.4h1.74l.16-1.09h-1.9v-2.21h-1.19l-.15,2.21-.96.2v.89h.96v4.58c0,1.75.69,2.46,2.05,2.46.71,0,1.12-.27,1.24-.35h0Zm3.77-6.89c.84,0,1.29.65,1.29,1.74,0,.25-.02.46-.03.58h-2.87c.07-1.49.68-2.31,1.62-2.31Zm2.68,6.3l-.5-.94c-.18.18-.73.69-1.67.69-1.34,0-2.07-.87-2.15-2.73h4.05c.05-.38.1-.86.1-1.54,0-1.9-.93-2.88-2.43-2.88-1.65,0-3.02,1.26-3.02,4.07,0,2.99,1.26,4.26,3.26,4.26,1.5,0,2.15-.71,2.36-.94Zm5.27-7.2c-.13-.05-.35-.13-.73-.13-1.01,0-1.44.6-1.67,1.22h-.03v-1.07h-1.22v7.93h1.34v-5.82c.2-.53.64-1.07,1.49-1.07.36,0,.59.1.66.13l.17-1.19Zm1.83-1.9c.53,0,.89-.4.89-.96s-.36-.94-.89-.94-.91.4-.91.94.36.96.91.96Zm.66,1.92h-1.34v7.93h1.34v-7.93Zm6.35,7.04h.03v.89h1.22v-7.93h-1.34v6.07c-.26.33-.79.87-1.6.87-.89,0-1.32-.53-1.32-1.83v-5.11h-1.34v5.21c0,2.15.88,2.93,2.28,2.93,1.21,0,1.92-.81,2.07-1.09h0Zm6.28-6.05c.83,0,1.19.55,1.19,1.83v5.11h1.34v-5.32c0-.28-.02-.55-.07-.83.3-.35.79-.79,1.52-.79.89,0,1.37.55,1.37,1.83v5.11h1.34v-5.32c0-1.89-.83-2.81-2.41-2.81-1.02,0-1.75.61-2.1,1.06-.36-.71-1.03-1.06-1.92-1.06-1.09,0-1.77.73-1.98,1.09h-.03v-.89h-1.22v7.93h1.34v-6.11c.23-.28.74-.83,1.64-.83h0ZM59.34,22.06l.17-1.09h-1.79v-1.42c0-1.04.35-1.39.98-1.39.35,0,.59.13.73.21l.28-1.11c-.34-.2-.73-.3-1.12-.3-1.17,0-2.2.69-2.2,2.43v1.59l-.96.18v.89h.96v6.84h1.34v-6.84h1.62Zm6.13-3.37c0-.51-.35-.84-.79-.84s-.79.33-.79.84.35.84.79.84.79-.33.79-.84Zm-2.55,0c0-.51-.35-.84-.79-.84s-.79.33-.79.84.35.84.79.84.79-.33.79-.84Zm2.03,9.32h.03v.89h1.22v-7.93h-1.34v6.07c-.27.33-.79.87-1.6.87-.89,0-1.32-.53-1.32-1.83v-5.11h-1.34v5.21c0,2.15.88,2.92,2.28,2.92,1.21,0,1.92-.81,2.07-1.09h0Zm6.96-7.06c-.13-.05-.35-.13-.73-.13-1.01,0-1.44.59-1.67,1.22h-.03v-1.07h-1.22v7.93h1.34v-5.82c.2-.53.65-1.07,1.49-1.07.36,0,.59.1.66.13l.16-1.19Zm6,7.95v-4.91h3.75v-1.14h-3.75v-4.21h4.07l.1-1.14h-5.6v11.4h1.44Zm5.17-3.97c0,2.97,1.34,4.16,3.09,4.16s3.17-1.21,3.17-4.16-1.34-4.16-3.09-4.16-3.17,1.24-3.17,4.16h0Zm4.87,0c0,2.1-.65,2.97-1.74,2.97s-1.75-.88-1.75-2.97.64-3.03,1.73-3.03,1.75.93,1.75,3.02Zm6.73-3.98c-.13-.05-.35-.13-.73-.13-1.01,0-1.44.59-1.67,1.22h-.03v-1.07h-1.22v7.93h1.34v-5.82c.2-.53.64-1.07,1.49-1.07.36,0,.59.1.66.13l.17-1.19Zm5.09.66c-.26-.26-.79-.84-2.02-.84-1.29,0-2.3.88-2.3,2.05,0,1.09.59,1.73,1.59,2.36l.5.31c.76.48,1.16.74,1.16,1.5,0,.51-.43.91-1.22.91-.86,0-1.35-.51-1.6-.78l-.64,1.06c.31.33.96.91,2.23.91,1.62,0,2.53-.97,2.53-2.23,0-1.17-.66-1.82-1.73-2.46l-.5-.3c-.71-.43-1.04-.76-1.04-1.35,0-.46.38-.84,1.09-.84s1.21.46,1.39.66l.58-.96Zm6.76-.05c-.25-.28-.81-.79-2.02-.79-1.57,0-3.32,1.11-3.32,4.15s1.4,4.18,3.17,4.18c1.24,0,1.85-.58,2.07-.83l-.55-.92c-.16.18-.58.56-1.39.56-1.14,0-1.92-.76-1.92-3.09,0-2.1.89-2.91,2.03-2.91.79,0,1.21.45,1.36.59l.56-.94Zm4.36.35c.93,0,1.37.55,1.37,1.88v5.11h1.34v-5.21c0-2.1-.87-2.93-2.26-2.93-1.27,0-1.87.76-2.03,1.01h-.03v-4.71l-1.34.15v11.68h1.34v-6.11c.27-.33.81-.88,1.62-.88h0Zm9.01,6.1h.03v.89h1.22v-7.93h-1.34v6.07c-.26.33-.79.87-1.6.87-.89,0-1.32-.53-1.32-1.83v-5.11h-1.34v5.21c0,2.15.88,2.92,2.28,2.92,1.21,0,1.92-.81,2.07-1.09h0Zm6.26-6.1c.93,0,1.37.55,1.37,1.88v5.11h1.34v-5.21c0-2.15-.89-2.93-2.31-2.93-1.24,0-1.95.81-2.1,1.09h-.03v-.89h-1.22v7.93h1.34v-6.11c.26-.33.81-.88,1.62-.88h0Zm8.48,1.52c0,1.14-.63,1.59-1.39,1.59s-1.37-.45-1.37-1.59.64-1.59,1.4-1.59,1.36.45,1.36,1.59Zm1.95,6.08c0-1.5-1.12-2.1-2.63-2.1h-1.01c-.58,0-.81-.23-.81-.56,0-.41.38-.63.64-.74.13.02.27.02.41.02,1.55,0,2.74-1.01,2.74-2.69,0-.53-.13-1.02-.38-1.42h.99l.18-1.04h-2.41c-.34-.13-.7-.2-1.06-.2-1.49,0-2.69.88-2.69,2.66,0,1.26.55,2.05,1.35,2.43v.03c-.2.1-.96.43-.96,1.29,0,.49.18.86.51,1.11v.03c-.36.2-1.32.76-1.32,1.93,0,1.37.91,2.15,2.59,2.15,2.35,0,3.83-1.19,3.83-2.89h0Zm-3.73,1.75c-.94,0-1.4-.43-1.4-1.27,0-.79.43-1.17.81-1.39.18.03.4.05.61.05h1.01c.81,0,1.34.3,1.34,1.06,0,.81-.74,1.55-2.36,1.55h0Zm5.04-.05c.88-.31,1.92-1.03,1.92-2.53,0-1.09-.45-1.62-1.09-1.62-.46,0-.86.3-.86.89s.4.94.91.94h.05c0,.96-.51,1.39-1.21,1.73l.28.58Zm13.15-13.72h-7.62v1.14h3.04v10.26h1.44v-10.26h3.04l.1-1.14Zm2.51,4.36c.84,0,1.29.64,1.29,1.73,0,.25-.02.46-.03.58h-2.87c.07-1.49.68-2.31,1.62-2.31Zm2.68,6.3l-.5-.94c-.18.18-.73.69-1.67.69-1.34,0-2.07-.88-2.15-2.73h4.05c.05-.38.1-.86.1-1.54,0-1.9-.93-2.87-2.43-2.87-1.65,0-3.02,1.26-3.02,4.07,0,2.99,1.26,4.26,3.26,4.26,1.5,0,2.15-.71,2.36-.94Zm6.59-6.59c-.25-.28-.81-.79-2.02-.79-1.57,0-3.32,1.11-3.32,4.15s1.4,4.18,3.17,4.18c1.24,0,1.85-.58,2.07-.83l-.55-.92c-.16.18-.58.56-1.39.56-1.14,0-1.92-.76-1.92-3.09,0-2.1.89-2.91,2.03-2.91.79,0,1.21.45,1.36.59l.56-.94Zm4.36.35c.93,0,1.37.55,1.37,1.88v5.11h1.34v-5.21c0-2.1-.87-2.93-2.26-2.93-1.27,0-1.87.76-2.03,1.01h-.03v-4.71l-1.34.15v11.68h1.34v-6.11c.27-.33.81-.88,1.62-.88h0Zm7.67,0c.93,0,1.37.55,1.37,1.88v5.11h1.34v-5.21c0-2.15-.89-2.93-2.31-2.93-1.24,0-1.95.81-2.1,1.09h-.03v-.89h-1.22v7.93h1.34v-6.11c.26-.33.81-.88,1.62-.88h0Zm4.35,3.02c0,2.97,1.34,4.16,3.09,4.16s3.17-1.21,3.17-4.16-1.34-4.16-3.09-4.16-3.17,1.24-3.17,4.16Zm4.87,0c0,2.1-.64,2.97-1.73,2.97s-1.75-.88-1.75-2.97.64-3.03,1.73-3.03,1.75.93,1.75,3.02Zm4.4-7.87l-1.34.15v9.95c0,1.41.61,1.88,1.5,1.88.59,0,.94-.15,1.07-.21l-.11-.99c-.08.03-.25.1-.5.1-.46,0-.63-.23-.63-.89v-9.98Zm2.08,7.87c0,2.97,1.34,4.16,3.09,4.16s3.17-1.21,3.17-4.16-1.34-4.16-3.09-4.16-3.17,1.24-3.17,4.16Zm4.88,0c0,2.1-.65,2.97-1.74,2.97s-1.75-.88-1.75-2.97.64-3.03,1.73-3.03,1.75.93,1.75,3.02Zm6.84-1.5c0,1.14-.63,1.59-1.39,1.59s-1.37-.45-1.37-1.59.65-1.59,1.41-1.59,1.36.45,1.36,1.59h0Zm1.95,6.08c0-1.5-1.12-2.1-2.63-2.1h-1.01c-.58,0-.81-.23-.81-.56,0-.41.38-.63.64-.74.13.02.27.02.41.02,1.55,0,2.74-1.01,2.74-2.69,0-.53-.13-1.02-.38-1.42h.99l.18-1.04h-2.41c-.34-.13-.7-.2-1.06-.2-1.49,0-2.69.88-2.69,2.66,0,1.26.55,2.05,1.35,2.43v.03c-.2.1-.96.43-.96,1.29,0,.49.18.86.51,1.11v.03c-.36.2-1.32.76-1.32,1.93,0,1.37.91,2.15,2.59,2.15,2.35,0,3.83-1.19,3.83-2.89Zm-3.73,1.75c-.94,0-1.4-.43-1.4-1.27,0-.79.43-1.17.81-1.39.18.03.4.05.61.05h1.01c.81,0,1.34.3,1.34,1.06,0,.81-.74,1.55-2.36,1.55h0Zm5.9-12.21c.53,0,.89-.4.89-.96s-.36-.94-.89-.94-.91.4-.91.94.36.96.91.96h0Zm.66,1.92h-1.34v7.93h1.34v-7.93Zm4.63.89c.84,0,1.29.64,1.29,1.73,0,.25-.02.46-.03.58h-2.87c.07-1.49.68-2.31,1.62-2.31h0Zm2.68,6.3l-.5-.94c-.18.18-.73.69-1.67.69-1.34,0-2.07-.88-2.15-2.73h4.05c.05-.38.1-.86.1-1.54,0-1.9-.93-2.87-2.43-2.87-1.65,0-3.02,1.26-3.02,4.07,0,2.99,1.26,4.26,3.26,4.26,1.5,0,2.15-.71,2.36-.94ZM60.3,44.53h.03v.89h1.22v-7.93h-1.34v6.07c-.27.33-.79.88-1.6.88-.89,0-1.32-.53-1.32-1.83v-5.11h-1.34v5.21c0,2.15.88,2.93,2.28,2.93,1.21,0,1.92-.81,2.07-1.09h0Zm6.26-6.1c.93,0,1.37.55,1.37,1.88v5.11h1.34v-5.21c0-2.15-.89-2.92-2.31-2.92-1.24,0-1.95.81-2.1,1.09h-.03v-.89h-1.22v7.93h1.34v-6.11c.27-.33.81-.88,1.62-.88h0Zm7.49,6c-.93,0-1.75-.73-1.75-2.91s.98-3.04,2.21-3.04c.48,0,.79.13,1.03.28v4.89c-.33.49-.89.78-1.49.78Zm1.57.15h.03v.84h1.22v-11.83l-1.34.15v3.8c-.36-.14-.74-.2-1.12-.2-1.69,0-3.5,1.02-3.5,4.23,0,2.89,1.27,4.05,2.78,4.05,1.25,0,1.78-.79,1.93-1.04h0Zm11.72-7.29c0,1.49-.83,2.35-2.56,2.35h-.63v-4.48h.69c1.7,0,2.5.69,2.5,2.13Zm-3.19,3.49h.63c.27,0,.53-.02.78-.03l2.36,4.68h1.69l-2.68-5.02c1.31-.56,1.95-1.7,1.95-3.19,0-2.1-1.29-3.19-4.03-3.19h-2.13v11.4h1.44v-4.64Zm10.05.18h-.41c-1.8,0-3.31.61-3.31,2.45,0,1.29.91,2.21,2.12,2.21,1.01,0,1.49-.68,1.67-1.07h.03c.02.4.03.65.05.88h1.27c-.06-.55-.1-1.1-.1-1.65v-3.62c0-2-.86-2.86-2.48-2.86-1.27,0-2.03.61-2.38.96l.56.89c.3-.27.83-.71,1.62-.71.86,0,1.35.43,1.35,1.77v.76Zm0,.99v1.75c-.17.25-.55.78-1.32.78-.66,0-1.06-.41-1.06-1.22,0-.88.68-1.24,1.95-1.29l.43-.02Zm7.63,2.58h.03v.89h1.22v-7.93h-1.34v6.07c-.26.33-.79.88-1.6.88-.89,0-1.32-.53-1.32-1.83v-5.11h-1.34v5.21c0,2.15.88,2.93,2.28,2.93,1.21,0,1.92-.81,2.07-1.09h0Zm6.28-6.05c.83,0,1.19.55,1.19,1.83v5.11h1.34v-5.32c0-.28-.02-.55-.07-.83.3-.35.79-.79,1.52-.79.89,0,1.37.55,1.37,1.83v5.11h1.34v-5.32c0-1.88-.83-2.81-2.41-2.81-1.02,0-1.75.61-2.1,1.06-.36-.71-1.02-1.06-1.92-1.06-1.09,0-1.77.73-1.98,1.09h-.03v-.89h-1.22v7.93h1.34v-6.11c.23-.28.74-.83,1.64-.83h0Zm12.03.1l.17-1.09h-1.79v-1.42c0-1.04.35-1.39.98-1.39.35,0,.59.13.73.21l.28-1.11c-.34-.2-.73-.3-1.12-.3-1.17,0-2.2.69-2.2,2.43v1.59l-.96.18v.89h.96v6.84h1.34v-6.84h1.62Zm4.49,2.38h-.41c-1.8,0-3.31.61-3.31,2.45,0,1.29.91,2.21,2.12,2.21,1.01,0,1.49-.68,1.67-1.07h.03c.02.4.03.65.05.88h1.27c-.06-.55-.1-1.1-.1-1.65v-3.62c0-2-.86-2.86-2.48-2.86-1.27,0-2.03.61-2.38.96l.56.89c.3-.27.83-.71,1.62-.71.86,0,1.35.43,1.35,1.77v.76Zm0,.99v1.75c-.17.25-.55.78-1.32.78-.66,0-1.06-.41-1.06-1.22,0-.88.68-1.24,1.95-1.29l.43-.02Zm6.3-3.52c.93,0,1.37.55,1.37,1.88v5.11h1.34v-5.21c0-2.1-.88-2.92-2.26-2.92-1.27,0-1.87.76-2.03,1.01h-.03v-4.71l-1.34.15v11.68h1.34v-6.11c.27-.33.81-.88,1.62-.88h0Zm8.36-.96c-.13-.05-.35-.13-.73-.13-1.01,0-1.44.59-1.67,1.22h-.03v-1.07h-1.22v7.93h1.34v-5.82c.2-.53.64-1.07,1.49-1.07.36,0,.6.1.66.13l.17-1.19Zm4.76,7.8l-.18-1.07c-.13.08-.43.23-.83.23-.68,0-.94-.33-.94-1.45v-4.4h1.73l.17-1.09h-1.9v-2.21h-1.19l-.15,2.21-.96.2v.89h.96v4.58c0,1.75.69,2.46,2.05,2.46.71,0,1.12-.26,1.24-.35h0Z"/></svg>