<svg xmlns="http://www.w3.org/2000/svg" enable-background="new 0 0 2500 2500" viewBox="0 0 2500 2500" id="hackers-stealing-personal-data">
  <g>
    <path fill="#f1f5fb" fill-rule="evenodd" d="M1289.13,1816.02c206.43,0,396.39,3.09,547.14,8.26c368.92-210.87,241.18-621.91,108.72-854.41
		c-184.36-323.58-619.98-439.88-800.17-181.7c-244.57,350.42-480.51,228.14-607.91,494.28c-127.4,266.13,66.08,521.27,205.07,541.83
		C892.74,1819.11,1082.71,1816.02,1289.13,1816.02L1289.13,1816.02z M965.88,918.69c-94.43,71.87-250.62,127.57-302.49,51.16
		c-38.75-57.08,8.99-164.19,102.47-245.39c93.42-81.15,218.58-130.26,286.8-70.52C1133.62,724.85,1038.6,863.35,965.88,918.69z" clip-rule="evenodd"></path>
  </g>
  <g>
    <path fill="#e8effa" fill-rule="evenodd" d="M1289.13,1816.02c490.12,0,887.43,17.4,887.43,38.86c0,21.47-397.32,38.87-887.43,38.87
		s-887.43-17.4-887.43-38.87C401.7,1833.42,799.01,1816.02,1289.13,1816.02z" clip-rule="evenodd"></path>
  </g>
  <g>
    <path fill="#fff" fill-rule="evenodd" d="M1575.32,743.15c221.63,49.38,362.68,253.21,376.5,351.62c5.67,40.38-4.84-54.12-117.91-140.16
		c-101.05-76.9-179.72-91.15-299.93-100.44c-84.96-6.56-173.92-17.01-167.6-67.68C1371.38,746.47,1432.22,711.27,1575.32,743.15
		L1575.32,743.15z M995.75,660.7c38.16,2.29,61.39,33.63,62.99,69.77c0.68,15.36-11.39-24.82-53.69-30.42
		c-26.24-3.46-30.18,4.27-39.58-6.56C956.05,682.66,964.99,658.85,995.75,660.7z" clip-rule="evenodd"></path>
  </g>
  <g>
    <path fill="#fff" fill-rule="evenodd" d="M1224.69,885.2c-3.17,43.6-9.61,49.6-51.17,52.96c41.56,3.36,48,9.38,51.17,52.96
		c3.18-43.59,9.61-49.6,51.17-52.96C1234.3,934.81,1227.87,928.8,1224.69,885.2L1224.69,885.2z M1393.64,1000.17
		c-1.7,23.28-5.13,26.49-27.32,28.28c22.19,1.79,25.62,5,27.32,28.27c1.69-23.28,5.12-26.49,27.32-28.27
		C1398.77,1026.66,1395.34,1023.45,1393.64,1000.17L1393.64,1000.17z M1319.65,821.05c-1.71,23.57-5.2,26.82-27.67,28.64
		c22.47,1.81,25.96,5.06,27.67,28.63c1.71-23.57,5.2-26.82,27.67-28.63C1324.85,847.87,1321.37,844.63,1319.65,821.05z" clip-rule="evenodd"></path>
  </g>
  <g>
    <path fill="#fff" fill-rule="evenodd" d="M1163.44,1599.92c2.57,35.31,7.78,40.19,41.44,42.91c-33.67,2.71-38.87,7.59-41.44,42.9
		c-2.58-35.31-7.79-40.19-41.45-42.9C1155.65,1640.11,1160.86,1635.23,1163.44,1599.92L1163.44,1599.92z M1026.57,1693.06
		c1.37,18.86,4.15,21.46,22.12,22.91c-17.97,1.46-20.76,4.05-22.12,22.91c-1.38-18.86-4.16-21.46-22.13-22.91
		C1022.41,1714.51,1025.19,1711.92,1026.57,1693.06L1026.57,1693.06z M1086.5,1547.95c1.39,19.1,4.2,21.73,22.42,23.19
		c-18.21,1.47-21.03,4.11-22.42,23.21c-1.39-19.1-4.2-21.73-22.41-23.21C1082.3,1569.68,1085.11,1567.05,1086.5,1547.95z" clip-rule="evenodd"></path>
  </g>
  <g>
    <path fill="#fff" fill-rule="evenodd" d="M1701.33,1512.86c-1.97,27.04-5.96,30.78-31.74,32.85c25.78,2.08,29.77,5.81,31.74,32.85
		c1.97-27.03,5.96-30.77,31.73-32.85C1707.28,1543.64,1703.29,1539.9,1701.33,1512.86L1701.33,1512.86z M1806.12,1584.18
		c-1.05,14.43-3.18,16.43-16.95,17.53c13.77,1.11,15.89,3.11,16.95,17.54c1.06-14.43,3.18-16.43,16.95-17.54
		C1809.3,1600.61,1807.17,1598.61,1806.12,1584.18L1806.12,1584.18z M1760.23,1473.07c-1.07,14.62-3.22,16.64-17.16,17.77
		c13.94,1.12,16.09,3.14,17.16,17.77c1.06-14.63,3.23-16.64,17.16-17.77C1763.45,1489.71,1761.29,1487.69,1760.23,1473.07z" clip-rule="evenodd"></path>
  </g>
  <g>
    <rect width="620.08" height="250.32" x="1300.75" y="814.05" fill="#1e77d1" fill-rule="evenodd" clip-rule="evenodd"></rect>
  </g>
  <g>
    <rect width="940.6" height="229.22" x="1140.49" y="814.05" fill="#4f8ecc" fill-rule="evenodd" clip-rule="evenodd"></rect>
  </g>
  <g>
    <path fill="#c3dffa" fill-rule="evenodd" d="M1173.03,828.88h875.51c8.88,0,16.14,7.74,16.14,17.21v165.14c0,9.46-7.26,17.21-16.14,17.21h-875.51
		c-8.87,0-16.14-7.74-16.14-17.21V846.09C1156.89,836.63,1164.16,828.88,1173.03,828.88z" clip-rule="evenodd"></path>
  </g>
  <g>
    <path fill="#fff" fill-rule="evenodd" d="M1212.6,880.04c10.94,0,19.8,8.87,19.8,19.8c0,10.93-8.86,19.79-19.8,19.79c-10.93,0-19.79-8.86-19.79-19.79
		C1192.81,888.91,1201.68,880.04,1212.6,880.04L1212.6,880.04z M1212.6,937.67c10.94,0,19.8,8.87,19.8,19.8
		c0,10.94-8.86,19.79-19.8,19.79c-10.93,0-19.79-8.86-19.79-19.79C1192.81,946.54,1201.68,937.67,1212.6,937.67L1212.6,937.67z
		 M1418.92,937.67c10.93,0,19.8,8.87,19.8,19.8c0,10.94-8.87,19.79-19.8,19.79c-10.94,0-19.79-8.86-19.79-19.79
		C1399.12,946.54,1407.98,937.67,1418.92,937.67L1418.92,937.67z M1350.14,937.67c10.94,0,19.8,8.87,19.8,19.8
		c0,10.94-8.86,19.79-19.8,19.79c-10.93,0-19.79-8.86-19.79-19.79C1330.35,946.54,1339.22,937.67,1350.14,937.67L1350.14,937.67z
		 M1281.38,937.67c10.93,0,19.79,8.87,19.79,19.8c0,10.94-8.87,19.79-19.79,19.79c-10.94,0-19.8-8.86-19.8-19.79
		C1261.58,946.54,1270.44,937.67,1281.38,937.67L1281.38,937.67z M1418.92,880.04c10.93,0,19.8,8.87,19.8,19.8
		c0,10.93-8.87,19.79-19.8,19.79c-10.94,0-19.79-8.86-19.79-19.79C1399.12,888.91,1407.98,880.04,1418.92,880.04L1418.92,880.04z
		 M1350.14,880.04c10.94,0,19.8,8.87,19.8,19.8c0,10.93-8.86,19.79-19.8,19.79c-10.93,0-19.79-8.86-19.79-19.79
		C1330.35,888.91,1339.22,880.04,1350.14,880.04L1350.14,880.04z M1281.38,880.04c10.93,0,19.79,8.87,19.79,19.8
		c0,10.93-8.87,19.79-19.79,19.79c-10.94,0-19.8-8.86-19.8-19.79C1261.58,888.91,1270.44,880.04,1281.38,880.04z" clip-rule="evenodd"></path>
  </g>
  <g>
    <rect width="26.72" height="132.6" x="1504.34" y="861.72" fill="#4f8ecc" fill-rule="evenodd" clip-rule="evenodd"></rect>
  </g>
  <g>
    <rect width="26.71" height="132.6" x="1551.08" y="861.72" fill="#fff" fill-rule="evenodd" clip-rule="evenodd"></rect>
  </g>
  <g>
    <rect width="26.71" height="132.6" x="1597.83" y="861.72" fill="#4f8ecc" fill-rule="evenodd" clip-rule="evenodd"></rect>
  </g>
  <g>
    <rect width="26.71" height="132.6" x="1644.58" y="861.72" fill="#fff" fill-rule="evenodd" clip-rule="evenodd"></rect>
  </g>
  <g>
    <rect width="26.72" height="132.6" x="1691.32" y="861.72" fill="#4f8ecc" fill-rule="evenodd" clip-rule="evenodd"></rect>
  </g>
  <g>
    <rect width="26.71" height="132.6" x="1738.07" y="861.72" fill="#fff" fill-rule="evenodd" clip-rule="evenodd"></rect>
  </g>
  <g>
    <rect width="26.71" height="132.6" x="1784.81" y="861.72" fill="#4f8ecc" fill-rule="evenodd" clip-rule="evenodd"></rect>
  </g>
  <g>
    <rect width="26.71" height="132.6" x="1831.55" y="861.72" fill="#fff" fill-rule="evenodd" clip-rule="evenodd"></rect>
  </g>
  <g>
    <rect width="26.72" height="132.6" x="1878.3" y="861.72" fill="#4f8ecc" fill-rule="evenodd" clip-rule="evenodd"></rect>
  </g>
  <g>
    <rect width="26.71" height="132.6" x="1925.04" y="861.72" fill="#fff" fill-rule="evenodd" clip-rule="evenodd"></rect>
  </g>
  <g>
    <rect width="26.71" height="132.6" x="1971.79" y="861.72" fill="#4f8ecc" fill-rule="evenodd" clip-rule="evenodd"></rect>
  </g>
  <g>
    <rect width="620.08" height="250.32" x="1300.75" y="1064.37" fill="#1e77d1" fill-rule="evenodd" clip-rule="evenodd"></rect>
  </g>
  <g>
    <rect width="940.6" height="229.22" x="1140.49" y="1064.37" fill="#4f8ecc" fill-rule="evenodd" clip-rule="evenodd"></rect>
  </g>
  <g>
    <path fill="#c3dffa" fill-rule="evenodd" d="M1173.03,1079.21h875.51c8.88,0,16.14,7.74,16.14,17.21v165.14c0,9.46-7.26,17.2-16.14,17.2h-875.51
		c-8.87,0-16.14-7.74-16.14-17.2v-165.14C1156.89,1086.95,1164.16,1079.21,1173.03,1079.21z" clip-rule="evenodd"></path>
  </g>
  <g>
    <path fill="#fff" fill-rule="evenodd" d="M1212.6,1130.38c10.94,0,19.8,8.85,19.8,19.79c0,10.93-8.86,19.79-19.8,19.79c-10.93,0-19.79-8.86-19.79-19.79
		C1192.81,1139.23,1201.68,1130.38,1212.6,1130.38L1212.6,1130.38z M1212.6,1188c10.94,0,19.8,8.87,19.8,19.8
		c0,10.94-8.86,19.79-19.8,19.79c-10.93,0-19.79-8.86-19.79-19.79C1192.81,1196.86,1201.68,1188,1212.6,1188L1212.6,1188z
		 M1418.92,1188c10.93,0,19.8,8.87,19.8,19.8c0,10.94-8.87,19.79-19.8,19.79c-10.94,0-19.79-8.86-19.79-19.79
		C1399.12,1196.86,1407.98,1188,1418.92,1188L1418.92,1188z M1350.14,1188c10.94,0,19.8,8.87,19.8,19.8
		c0,10.94-8.86,19.79-19.8,19.79c-10.93,0-19.79-8.86-19.79-19.79C1330.35,1196.86,1339.22,1188,1350.14,1188L1350.14,1188z
		 M1281.38,1188c10.93,0,19.79,8.87,19.79,19.8c0,10.94-8.87,19.79-19.79,19.79c-10.94,0-19.8-8.86-19.8-19.79
		C1261.58,1196.86,1270.44,1188,1281.38,1188L1281.38,1188z M1418.92,1130.38c10.93,0,19.8,8.85,19.8,19.79
		c0,10.93-8.87,19.79-19.8,19.79c-10.94,0-19.79-8.86-19.79-19.79C1399.12,1139.23,1407.98,1130.38,1418.92,1130.38L1418.92,1130.38
		z M1350.14,1130.38c10.94,0,19.8,8.85,19.8,19.79c0,10.93-8.86,19.79-19.8,19.79c-10.93,0-19.79-8.86-19.79-19.79
		C1330.35,1139.23,1339.22,1130.38,1350.14,1130.38L1350.14,1130.38z M1281.38,1130.38c10.93,0,19.79,8.85,19.79,19.79
		c0,10.93-8.87,19.79-19.79,19.79c-10.94,0-19.8-8.86-19.8-19.79C1261.58,1139.23,1270.44,1130.38,1281.38,1130.38z" clip-rule="evenodd"></path>
  </g>
  <g>
    <rect width="26.72" height="132.59" x="1504.34" y="1112.05" fill="#4f8ecc" fill-rule="evenodd" clip-rule="evenodd"></rect>
  </g>
  <g>
    <rect width="26.71" height="132.59" x="1551.08" y="1112.05" fill="#fff" fill-rule="evenodd" clip-rule="evenodd"></rect>
  </g>
  <g>
    <rect width="26.71" height="132.59" x="1597.83" y="1112.05" fill="#4f8ecc" fill-rule="evenodd" clip-rule="evenodd"></rect>
  </g>
  <g>
    <rect width="26.71" height="132.59" x="1644.58" y="1112.05" fill="#fff" fill-rule="evenodd" clip-rule="evenodd"></rect>
  </g>
  <g>
    <rect width="26.72" height="132.59" x="1691.32" y="1112.05" fill="#4f8ecc" fill-rule="evenodd" clip-rule="evenodd"></rect>
  </g>
  <g>
    <rect width="26.71" height="132.59" x="1738.07" y="1112.05" fill="#fff" fill-rule="evenodd" clip-rule="evenodd"></rect>
  </g>
  <g>
    <rect width="26.71" height="132.59" x="1784.81" y="1112.05" fill="#4f8ecc" fill-rule="evenodd" clip-rule="evenodd"></rect>
  </g>
  <g>
    <rect width="26.71" height="132.59" x="1831.55" y="1112.05" fill="#fff" fill-rule="evenodd" clip-rule="evenodd"></rect>
  </g>
  <g>
    <rect width="26.72" height="132.59" x="1878.3" y="1112.05" fill="#4f8ecc" fill-rule="evenodd" clip-rule="evenodd"></rect>
  </g>
  <g>
    <rect width="26.71" height="132.59" x="1925.04" y="1112.05" fill="#fff" fill-rule="evenodd" clip-rule="evenodd"></rect>
  </g>
  <g>
    <rect width="26.71" height="132.59" x="1971.79" y="1112.05" fill="#4f8ecc" fill-rule="evenodd" clip-rule="evenodd"></rect>
  </g>
  <g>
    <rect width="620.08" height="250.32" x="1300.75" y="1314.69" fill="#1e77d1" fill-rule="evenodd" clip-rule="evenodd"></rect>
  </g>
  <g>
    <rect width="940.6" height="229.22" x="1140.49" y="1314.69" fill="#4f8ecc" fill-rule="evenodd" clip-rule="evenodd"></rect>
  </g>
  <g>
    <path fill="#c3dffa" fill-rule="evenodd" d="M1173.03,1329.53h875.51c8.88,0,16.14,7.75,16.14,17.2v165.14c0,9.46-7.26,17.2-16.14,17.2h-875.51
		c-8.87,0-16.14-7.74-16.14-17.2v-165.14C1156.89,1337.28,1164.16,1329.53,1173.03,1329.53z" clip-rule="evenodd"></path>
  </g>
  <g>
    <path fill="#fff" fill-rule="evenodd" d="M1212.6,1380.69c10.94,0,19.8,8.86,19.8,19.8c0,10.93-8.86,19.79-19.8,19.79c-10.93,0-19.79-8.87-19.79-19.79
		C1192.81,1389.55,1201.68,1380.69,1212.6,1380.69L1212.6,1380.69z M1212.6,1438.32c10.94,0,19.8,8.87,19.8,19.81
		c0,10.93-8.86,19.79-19.8,19.79c-10.93,0-19.79-8.87-19.79-19.79C1192.81,1447.18,1201.68,1438.32,1212.6,1438.32L1212.6,1438.32z
		 M1418.92,1438.32c10.93,0,19.8,8.87,19.8,19.81c0,10.93-8.87,19.79-19.8,19.79c-10.94,0-19.79-8.87-19.79-19.79
		C1399.12,1447.18,1407.98,1438.32,1418.92,1438.32L1418.92,1438.32z M1350.14,1438.32c10.94,0,19.8,8.87,19.8,19.81
		c0,10.93-8.86,19.79-19.8,19.79c-10.93,0-19.79-8.87-19.79-19.79C1330.35,1447.18,1339.22,1438.32,1350.14,1438.32L1350.14,1438.32
		z M1281.38,1438.32c10.93,0,19.79,8.87,19.79,19.81c0,10.93-8.87,19.79-19.79,19.79c-10.94,0-19.8-8.87-19.8-19.79
		C1261.58,1447.18,1270.44,1438.32,1281.38,1438.32L1281.38,1438.32z M1418.92,1380.69c10.93,0,19.8,8.86,19.8,19.8
		c0,10.93-8.87,19.79-19.8,19.79c-10.94,0-19.79-8.87-19.79-19.79C1399.12,1389.55,1407.98,1380.69,1418.92,1380.69L1418.92,1380.69
		z M1350.14,1380.69c10.94,0,19.8,8.86,19.8,19.8c0,10.93-8.86,19.79-19.8,19.79c-10.93,0-19.79-8.87-19.79-19.79
		C1330.35,1389.55,1339.22,1380.69,1350.14,1380.69L1350.14,1380.69z M1281.38,1380.69c10.93,0,19.79,8.86,19.79,19.8
		c0,10.93-8.87,19.79-19.79,19.79c-10.94,0-19.8-8.87-19.8-19.79C1261.58,1389.55,1270.44,1380.69,1281.38,1380.69z" clip-rule="evenodd"></path>
  </g>
  <g>
    <rect width="26.72" height="132.6" x="1504.34" y="1362.38" fill="#4f8ecc" fill-rule="evenodd" clip-rule="evenodd"></rect>
  </g>
  <g>
    <rect width="26.71" height="132.6" x="1551.08" y="1362.38" fill="#eee5f4" fill-rule="evenodd" clip-rule="evenodd"></rect>
  </g>
  <g>
    <rect width="26.71" height="132.6" x="1597.83" y="1362.38" fill="#4f8ecc" fill-rule="evenodd" clip-rule="evenodd"></rect>
  </g>
  <g>
    <rect width="26.71" height="132.6" x="1644.58" y="1362.38" fill="#fff" fill-rule="evenodd" clip-rule="evenodd"></rect>
  </g>
  <g>
    <rect width="26.72" height="132.6" x="1691.32" y="1362.38" fill="#4f8ecc" fill-rule="evenodd" clip-rule="evenodd"></rect>
  </g>
  <g>
    <rect width="26.71" height="132.6" x="1738.07" y="1362.38" fill="#fff" fill-rule="evenodd" clip-rule="evenodd"></rect>
  </g>
  <g>
    <rect width="26.71" height="132.6" x="1784.81" y="1362.38" fill="#4f8ecc" fill-rule="evenodd" clip-rule="evenodd"></rect>
  </g>
  <g>
    <rect width="26.71" height="132.6" x="1831.55" y="1362.38" fill="#fff" fill-rule="evenodd" clip-rule="evenodd"></rect>
  </g>
  <g>
    <rect width="26.72" height="132.6" x="1878.3" y="1362.38" fill="#4f8ecc" fill-rule="evenodd" clip-rule="evenodd"></rect>
  </g>
  <g>
    <rect width="26.71" height="132.6" x="1925.04" y="1362.38" fill="#fff" fill-rule="evenodd" clip-rule="evenodd"></rect>
  </g>
  <g>
    <rect width="26.71" height="132.6" x="1971.79" y="1362.38" fill="#4f8ecc" fill-rule="evenodd" clip-rule="evenodd"></rect>
  </g>
  <g>
    <rect width="620.08" height="250.33" x="1300.75" y="1565.01" fill="#1e77d1" fill-rule="evenodd" clip-rule="evenodd"></rect>
  </g>
  <g>
    <rect width="940.6" height="229.22" x="1140.49" y="1565.01" fill="#4f8ecc" fill-rule="evenodd" clip-rule="evenodd"></rect>
  </g>
  <g>
    <path fill="#c3dffa" fill-rule="evenodd" d="M1173.03,1579.85h875.51c8.88,0,16.14,7.75,16.14,17.21v165.13c0,9.46-7.26,17.2-16.14,17.2h-875.51
		c-8.87,0-16.14-7.74-16.14-17.2v-165.13C1156.89,1587.6,1164.16,1579.85,1173.03,1579.85z" clip-rule="evenodd"></path>
  </g>
  <g>
    <path fill="#fff" fill-rule="evenodd" d="M1212.6,1631.02c10.94,0,19.8,8.86,19.8,19.8c0,10.93-8.86,19.79-19.8,19.79c-10.93,0-19.79-8.87-19.79-19.79
		C1192.81,1639.87,1201.68,1631.02,1212.6,1631.02L1212.6,1631.02z M1212.6,1688.64c10.94,0,19.8,8.87,19.8,19.8
		c0,10.93-8.86,19.8-19.8,19.8c-10.93,0-19.79-8.87-19.79-19.8C1192.81,1697.51,1201.68,1688.64,1212.6,1688.64L1212.6,1688.64z
		 M1418.92,1688.64c10.93,0,19.8,8.87,19.8,19.8c0,10.93-8.87,19.8-19.8,19.8c-10.94,0-19.79-8.87-19.79-19.8
		C1399.12,1697.51,1407.98,1688.64,1418.92,1688.64L1418.92,1688.64z M1350.14,1688.64c10.94,0,19.8,8.87,19.8,19.8
		c0,10.93-8.86,19.8-19.8,19.8c-10.93,0-19.79-8.87-19.79-19.8C1330.35,1697.51,1339.22,1688.64,1350.14,1688.64L1350.14,1688.64z
		 M1281.38,1688.64c10.93,0,19.79,8.87,19.79,19.8c0,10.93-8.87,19.8-19.79,19.8c-10.94,0-19.8-8.87-19.8-19.8
		C1261.58,1697.51,1270.44,1688.64,1281.38,1688.64L1281.38,1688.64z M1418.92,1631.02c10.93,0,19.8,8.86,19.8,19.8
		c0,10.93-8.87,19.79-19.8,19.79c-10.94,0-19.79-8.87-19.79-19.79C1399.12,1639.87,1407.98,1631.02,1418.92,1631.02L1418.92,1631.02
		z M1350.14,1631.02c10.94,0,19.8,8.86,19.8,19.8c0,10.93-8.86,19.79-19.8,19.79c-10.93,0-19.79-8.87-19.79-19.79
		C1330.35,1639.87,1339.22,1631.02,1350.14,1631.02L1350.14,1631.02z M1281.38,1631.02c10.93,0,19.79,8.86,19.79,19.8
		c0,10.93-8.87,19.79-19.79,19.79c-10.94,0-19.8-8.87-19.8-19.79C1261.58,1639.87,1270.44,1631.02,1281.38,1631.02z" clip-rule="evenodd"></path>
  </g>
  <g>
    <rect width="26.72" height="132.6" x="1504.34" y="1612.7" fill="#4f8ecc" fill-rule="evenodd" clip-rule="evenodd"></rect>
  </g>
  <g>
    <rect width="26.71" height="132.6" x="1551.08" y="1612.7" fill="#eee5f4" fill-rule="evenodd" clip-rule="evenodd"></rect>
  </g>
  <g>
    <rect width="26.71" height="132.6" x="1597.83" y="1612.7" fill="#4f8ecc" fill-rule="evenodd" clip-rule="evenodd"></rect>
  </g>
  <g>
    <rect width="26.71" height="132.6" x="1644.58" y="1612.7" fill="#fff" fill-rule="evenodd" clip-rule="evenodd"></rect>
  </g>
  <g>
    <rect width="26.72" height="132.6" x="1691.32" y="1612.7" fill="#4f8ecc" fill-rule="evenodd" clip-rule="evenodd"></rect>
  </g>
  <g>
    <rect width="26.71" height="132.6" x="1738.07" y="1612.7" fill="#fff" fill-rule="evenodd" clip-rule="evenodd"></rect>
  </g>
  <g>
    <rect width="26.71" height="132.6" x="1784.81" y="1612.7" fill="#4f8ecc" fill-rule="evenodd" clip-rule="evenodd"></rect>
  </g>
  <g>
    <rect width="26.71" height="132.6" x="1831.55" y="1612.7" fill="#fff" fill-rule="evenodd" clip-rule="evenodd"></rect>
  </g>
  <g>
    <rect width="26.72" height="132.6" x="1878.3" y="1612.7" fill="#4f8ecc" fill-rule="evenodd" clip-rule="evenodd"></rect>
  </g>
  <g>
    <rect width="26.71" height="132.6" x="1925.04" y="1612.7" fill="#fff" fill-rule="evenodd" clip-rule="evenodd"></rect>
  </g>
  <g>
    <rect width="26.71" height="132.6" x="1971.79" y="1612.7" fill="#4f8ecc" fill-rule="evenodd" clip-rule="evenodd"></rect>
  </g>
  <path fill="#61a0e0" fill-rule="evenodd" d="M885.32,1817.69h-91.57l52.67-256.82H716.44l-52.68,256.82h-91.27c-12.87,0-27.23,10.42-32.08,23.3h359.44
	C904.7,1828.11,898.19,1817.69,885.32,1817.69z" clip-rule="evenodd"></path>
  <path fill="#87bef5" fill-rule="evenodd" d="M1166.34,1719.65l-8.27-59.79l-51.67-373.06c-2.44-17.73-18.79-32.1-36.53-32.1H346.52h-7.84
	c-13.97,3.53-22.91,16.58-20.76,32.1l59.93,432.86c1.79,12.94,11.89,23.45,22.55,23.45h750.83l-0.13-0.93
	C1161.23,1742.16,1168.06,1732.09,1166.34,1719.65z" clip-rule="evenodd"></path>
  <polygon fill="#87bef5" fill-rule="evenodd" points="810.16 1833.22 680.17 1833.22 736.04 1560.87 866.03 1560.87" clip-rule="evenodd"></polygon>
  <path fill="#a4d0fc" fill-rule="evenodd" d="m1181.16 1659.85-51.64-373.06c-2.45-17.73-18.81-32.1-36.53-32.1H369.62c-17.72 0-30.1 14.37-27.64 32.1l51.64 373.06H1181.16zM393.61 1659.85l8.28 59.78c1.72 12.45 11.33 22.53 21.48 22.53h750.83c10.14 0 16.95-10.08 15.23-22.52l-8.28-59.79H393.61z" clip-rule="evenodd"></path>
  <path fill="#eaf3fc" fill-rule="evenodd" d="M1160.49,1643.67l-49.27-355.89c-1.29-9.33-10.18-16.89-19.83-16.89H375.7c-9.65,0-16.44,7.56-15.14,16.89
	l49.25,355.89H1160.49z" clip-rule="evenodd"></path>
  <path fill="#eaf3fc" fill-rule="evenodd" d="M1101.45,1618.77H471.21c-12.01,0-23.16-9.86-24.88-22.03l-38.45-269.87c-1.74-12.17,6.58-22.04,18.59-22.04
	h630.24c12.01,0,23.14,9.87,24.87,22.04l38.46,269.87C1121.78,1608.9,1113.44,1618.77,1101.45,1618.77L1101.45,1618.77z
	 M1005.96,1373.49l26.32,184.65h30.06l-26.31-184.65H1005.96L1005.96,1373.49z M956.11,1322.42l33.6,235.72h30.04l-33.59-235.72
	H956.11L956.11,1322.42z M924.18,1392.99l23.35,163.82h30.06l-23.35-163.82H924.18L924.18,1392.99z M878.19,1364.9l27.36,191.91
	h30.06l-27.36-191.91H878.19L878.19,1364.9z M844.32,1421.8l19.24,135.01h30.06l-19.24-135.01H844.32z" clip-rule="evenodd"></path>
  <polygon fill="#a4d0fc" fill-rule="evenodd" points="1019.75 1558.14 989.71 1558.14 956.11 1322.42 986.17 1322.42" clip-rule="evenodd"></polygon>
  <polygon fill="#a4d0fc" fill-rule="evenodd" points="977.59 1556.82 947.53 1556.82 924.18 1392.99 954.24 1392.99" clip-rule="evenodd"></polygon>
  <polygon fill="#a4d0fc" fill-rule="evenodd" points="1062.34 1558.14 1032.28 1558.14 1005.96 1373.49 1036.03 1373.49" clip-rule="evenodd"></polygon>
  <polygon fill="#a4d0fc" fill-rule="evenodd" points="935.61 1556.82 905.55 1556.82 878.19 1364.9 908.25 1364.9" clip-rule="evenodd"></polygon>
  <polygon fill="#a4d0fc" fill-rule="evenodd" points="893.62 1556.82 863.56 1556.82 844.32 1421.8 874.38 1421.8" clip-rule="evenodd"></polygon>
  <polygon fill="#fff" fill-rule="evenodd" points="1019.75 1558.14 989.71 1558.14 963.66 1375.42 993.71 1375.42" clip-rule="evenodd"></polygon>
  <polygon fill="#fff" fill-rule="evenodd" points="977.59 1556.82 947.53 1556.82 929.55 1430.75 959.61 1430.75" clip-rule="evenodd"></polygon>
  <polygon fill="#fff" fill-rule="evenodd" points="1062.34 1558.14 1032.28 1558.14 1011.85 1414.72 1041.91 1414.72" clip-rule="evenodd"></polygon>
  <polygon fill="#fff" fill-rule="evenodd" points="935.61 1556.82 905.55 1556.82 884.51 1409.13 914.55 1409.13" clip-rule="evenodd"></polygon>
  <polygon fill="#fff" fill-rule="evenodd" points="893.62 1556.82 863.56 1556.82 848.75 1452.92 878.82 1452.92" clip-rule="evenodd"></polygon>
  <polygon fill="#87bef5" fill-rule="evenodd" points="1042.47 1360.79 1020.65 1377.54 1028.83 1378.94 993.67 1450.35 958.77 1404.44 924.2 1517.06 891.92 1486.38 875.62 1529.82 863.23 1520.7 849.36 1558.29 856.69 1561.88 867.43 1532.77 879.78 1541.85 895.58 1499.79 928.38 1530.97 962.17 1420.87 995.65 1464.89 1035.93 1383.09 1041.59 1390.04" clip-rule="evenodd"></polygon>
  <path fill="#a4d0fc" fill-rule="evenodd" d="M488.78 1592.88H481l-5.8-40.6h7.8L488.78 1592.88 488.78 1592.88zM601.68 1596.62h-7.8l-6.86-48.09h7.8L601.68 1596.62 601.68 1596.62zM586.75 1590.47h-7.79l-5.11-35.79h7.8L586.75 1590.47 586.75 1590.47zM658.19 1596.62h-7.8l-6.86-48.09h7.8L658.19 1596.62 658.19 1596.62zM642.88 1587.8h-7.79l-4.35-30.44h7.8L642.88 1587.8 642.88 1587.8zM571.76 1583.79h-7.8l-3.2-22.43h7.8L571.76 1583.79 571.76 1583.79zM558.28 1587.8h-7.79l-4.35-30.44h7.81L558.28 1587.8 558.28 1587.8zM629.53 1600.61h-7.8l-7.98-56.09h7.78L629.53 1600.61 629.53 1600.61zM616.86 1610.32l-10.93-76.74h-7.8l10.95 76.74H616.86L616.86 1610.32zM473.74 1581.39h-7.8l-2.85-20.03h7.79L473.74 1581.39 473.74 1581.39zM801 1578.28h-7.78l-1.97-13.8h7.8L801 1578.28 801 1578.28zM788.96 1583.06h-7.81l-3.32-23.36h7.8L788.96 1583.06 788.96 1583.06zM777.36 1594.21h-7.79l-6.51-45.69h7.79L777.36 1594.21 777.36 1594.21zM767.2 1611.57l-11.12-77.99h-7.78l11.12 77.99H767.2L767.2 1611.57zM752.23 1596.62h-7.8l-6.86-48.09h7.8L752.23 1596.62 752.23 1596.62zM737.17 1587.8h-7.79l-4.35-30.44h7.8L737.17 1587.8 737.17 1587.8zM726.91 1609.33l-10.48-73.51h-7.79l10.48 73.51H726.91L726.91 1609.33zM711.3 1590.47h-7.8l-5.1-35.79h7.8L711.3 1590.47 711.3 1590.47zM697.7 1583.79h-7.79l-3.21-22.43h7.8L697.7 1583.79 697.7 1583.79zM686.45 1596.62h-7.8l-6.85-48.09h7.8L686.45 1596.62 686.45 1596.62zM674.37 1610.32l-10.94-76.74h-7.79l10.95 76.74H674.37L674.37 1610.32zM546.08 1600.61h-7.81l-7.99-56.09h7.8L546.08 1600.61 546.08 1600.61zM533.4 1610.32l-10.94-76.74h-7.8l10.94 76.74H533.4L533.4 1610.32zM516.87 1592.88h-7.79l-5.8-40.6h7.8L516.87 1592.88 516.87 1592.88zM502.1 1587.8h-7.79l-4.34-30.44h7.8L502.1 1587.8zM716.45 1467.38c-34.48-2.14-65.82-29.38-73.72-63.75h64.63L716.45 1467.38 716.45 1467.38zM641.4 1396.14c-4.6-36.7 19.6-66.52 55.1-68.76l9.8 68.76H641.4z" clip-rule="evenodd"></path>
  <path fill="#fff" fill-rule="evenodd" d="m714.96 1396.14 51.51-32.86c-14.06-20.29-36.89-34.39-61.3-35.9L714.96 1396.14zM716.4 1406.28l8.72 61.1c35.9-2.27 60.24-32.74 54.93-70.01-1.3-9.24-4.36-18.06-8.71-26.14L716.4 1406.28z" clip-rule="evenodd"></path>
  <g>
    <path fill="#fc9774" fill-rule="evenodd" d="M1391.05,759.01c-13.88,204.56-63.12,431.24-288.53,489.88l-5.6,1.46l-5.6-1.46
		c-225.41-58.65-274.65-285.33-288.54-489.88l-1.34-19.7l19.42-3.64c94-17.63,180.2-52.85,266.78-92.6l9.27-4.25l9.27,4.25
		c86.59,39.75,172.78,74.98,266.79,92.6l19.42,3.64L1391.05,759.01z" clip-rule="evenodd"></path>
  </g>
  <g>
    <path fill="#f06a30" fill-rule="evenodd" d="M1368.88,756.75c-92.89-17.41-175.75-50.08-271.95-94.24c-96.2,44.16-179.07,76.83-271.95,94.24
		c18.96,279.39,101.81,425.63,271.95,469.89C1267.07,1182.38,1349.91,1036.15,1368.88,756.75z" clip-rule="evenodd"></path>
  </g>
  <g>
    <path fill="#fbbfa8" fill-rule="evenodd" d="M1325.68,789.07c-79.54-18.62-154.06-48.27-228.76-82c-74.69,33.73-149.22,63.37-228.76,82
		c11.18,124.27,41.47,277.91,143.57,353.91c25.78,19.21,54.56,32.59,85.19,41.61c30.63-9.02,59.41-22.4,85.19-41.61
		C1284.21,1066.98,1314.5,913.34,1325.68,789.07z" clip-rule="evenodd"></path>
  </g>
  <g>
    <path fill="#fc9774" fill-rule="evenodd" d="M1325.68,789.07c-79.54-18.62-154.06-48.27-228.76-82v477.51c30.63-9.02,59.41-22.41,85.19-41.61
		C1284.21,1066.98,1314.49,913.34,1325.68,789.07z" clip-rule="evenodd"></path>
  </g>
  <g>
    <path fill="#fff" fill-rule="evenodd" d="M1044.54,894.58h104.77c0-13.71,0-27.43,0-41.15c0-14.39-5.89-27.48-15.39-36.98
		c-9.5-9.5-22.6-15.4-36.99-15.4c-14.39,0-27.48,5.9-36.99,15.4c-9.5,9.5-15.39,22.59-15.39,36.98V894.58L1044.54,894.58z
		 M1174.1,894.58v0.37c12.35,2.11,21.83,12.95,21.83,25.88v121.51c0,14.44-11.81,26.26-26.25,26.26h-145.52
		c-14.44,0-26.26-11.81-26.26-26.26V920.84c0-12.94,9.48-23.77,21.83-25.88v-41.53c0-21.23,8.68-40.54,22.67-54.52
		c13.98-13.98,33.27-22.66,54.51-22.66s40.53,8.68,54.52,22.66c13.98,13.98,22.66,33.29,22.66,54.52
		C1174.1,867.15,1174.1,880.87,1174.1,894.58z" clip-rule="evenodd"></path>
  </g>
  <g>
    <path fill="#fbbfa8" fill-rule="evenodd" d="M1096.92,931.97c15.46,0,27.99,12.53,27.99,27.98c0,12.56-8.28,23.19-19.68,26.73v33.82
		c0,4.57-3.74,8.31-8.31,8.31l0,0c-4.57,0-8.31-3.74-8.31-8.31v-33.82c-11.4-3.54-19.67-14.17-19.67-26.73
		C1068.94,944.5,1081.47,931.97,1096.92,931.97z" clip-rule="evenodd"></path>
  </g>
  <path fill="#fff" fill-rule="evenodd" d="M549.19,1332.11c-5.67-3.26-11.71-5.45-17.82-6.58l-0.86-7.79c-0.28-2.49-2.54-4.48-5.04-4.4l-3.21,0.09
	l-6.6,0.17l-3.21,0.09c-2.5,0.07-4.32,2.16-4.05,4.64l0.86,7.8c-5.82,1.45-11.35,3.95-16.28,7.49l-6.13-5.35
	c-1.96-1.72-4.84-1.63-6.41,0.17l-2.03,2.33l-4.15,4.78l-2.03,2.33c-1.57,1.8-1.26,4.68,0.7,6.39l6.14,5.37
	c-2.83,5.37-4.55,11.2-5.19,17.19l-7.82,0.21c-2.5,0.06-4.31,2.15-4.04,4.64l0.36,3.2l0.72,6.58l0.35,3.21
	c0.28,2.49,2.54,4.46,5.04,4.4l7.82-0.21c1.95,5.92,4.93,11.62,8.92,16.81l-4.92,5.66c-1.57,1.81-1.26,4.69,0.71,6.4l2.52,2.2
	l5.18,4.53l2.53,2.2c1.95,1.71,4.84,1.63,6.41-0.18l4.92-5.65c5.68,3.26,11.72,5.45,17.83,6.57l0.86,7.8
	c0.27,2.49,2.54,4.46,5.03,4.4l3.22-0.09l6.59-0.18l3.22-0.09c2.49-0.06,4.31-2.15,4.03-4.64l-0.86-7.8
	c5.83-1.46,11.36-3.95,16.28-7.5l6.13,5.37c1.97,1.71,4.85,1.63,6.42-0.17l2.03-2.33l4.15-4.77l2.03-2.33
	c1.57-1.8,1.25-4.69-0.71-6.39l-6.13-5.36c2.84-5.38,4.55-11.21,5.2-17.2l7.82-0.2c2.49-0.07,4.31-2.16,4.03-4.64l-0.35-3.22
	l-0.72-6.57l-0.36-3.21c-0.27-2.49-2.54-4.47-5.03-4.4l-7.82,0.2c-1.95-5.91-4.94-11.62-8.93-16.81l4.92-5.66
	c1.57-1.8,1.26-4.68-0.7-6.39l-2.53-2.2l-5.18-4.53l-2.52-2.2c-1.96-1.71-4.85-1.63-6.42,0.17L549.19,1332.11L549.19,1332.11z
	 M436.28,1311.94c2.44-0.31,4.86,1.43,5.38,3.88l0.92,4.32c3.08,0.62,6.03,1.82,8.69,3.48l3.27-2.64c1.85-1.5,4.72-1.12,6.39,0.84
	l4.64,5.46c1.66,1.96,1.52,4.79-0.33,6.29l-3.27,2.65c0.58,1.41,1.05,2.89,1.38,4.43c0.32,1.54,0.5,3.06,0.54,4.55l4.19,1.68
	c2.37,0.94,3.68,3.59,2.91,5.87l-2.14,6.33c-0.77,2.28-3.33,3.36-5.7,2.42l-4.19-1.68c-1.83,2.24-4.11,4.12-6.77,5.49l0.92,4.32
	c0.52,2.46-1.05,4.72-3.48,5.04l-6.77,0.88c-2.43,0.32-4.86-1.43-5.37-3.87l-0.92-4.32c-3.08-0.64-6.03-1.83-8.69-3.49l-3.27,2.65
	c-1.85,1.49-4.73,1.12-6.39-0.85l-4.64-5.46c-1.67-1.97-1.52-4.79,0.33-6.29l3.27-2.65c-0.59-1.42-1.05-2.9-1.37-4.43
	c-0.33-1.54-0.5-3.06-0.54-4.55l-4.19-1.68c-2.37-0.95-3.68-3.59-2.91-5.87l2.13-6.33c0.76-2.28,3.33-3.37,5.7-2.41l4.19,1.68
	c1.84-2.25,4.13-4.13,6.78-5.5l-0.92-4.32c-0.52-2.44,1.05-4.71,3.48-5.03L436.28,1311.94L436.28,1311.94z M438.36,1332.69
	c-6.13,0.16-10.55,5.25-9.87,11.35c0.67,6.11,6.18,10.92,12.3,10.76c6.12-0.17,10.55-5.25,9.87-11.36
	C449.99,1337.34,444.48,1332.52,438.36,1332.69L438.36,1332.69z M451.41,1381.63c2.49,0.27,4.48,2.49,4.42,4.95l-0.11,4.33
	c2.9,1.32,5.54,3.14,7.79,5.34l3.86-1.77c2.19-1,4.96,0.04,6.15,2.3l3.31,6.27c1.2,2.26,0.37,4.93-1.81,5.93l-3.86,1.77
	c0.24,1.48,0.36,3,0.31,4.54c-0.03,1.53-0.22,3.03-0.54,4.45l3.75,2.56c2.13,1.46,2.8,4.29,1.51,6.28l-3.61,5.54
	c-1.3,2-4.11,2.44-6.23,0.98l-3.76-2.57c-2.34,1.72-5.06,2.97-8.01,3.67l-0.11,4.33c-0.06,2.46-2.15,4.25-4.64,3.99l-6.92-0.73
	c-2.49-0.27-4.47-2.49-4.41-4.95l0.11-4.33c-2.9-1.32-5.54-3.14-7.79-5.34l-3.86,1.77c-2.19,1-4.95-0.03-6.15-2.3l-3.3-6.27
	c-1.2-2.26-0.38-4.93,1.8-5.93l3.87-1.77c-0.24-1.48-0.36-3-0.31-4.55c0.03-1.53,0.22-3.03,0.54-4.45l-3.75-2.57
	c-2.12-1.46-2.8-4.28-1.51-6.27l3.61-5.54c1.3-2,4.1-2.44,6.23-0.98l3.75,2.57c2.35-1.72,5.06-2.97,8.02-3.67l0.11-4.33
	c0.06-2.46,2.15-4.25,4.64-3.99L451.41,1381.63L451.41,1381.63z M445.95,1401.66c-6.12,0.16-10.55,5.24-9.87,11.35
	c0.67,6.11,6.18,10.93,12.3,10.76c6.13-0.16,10.55-5.24,9.87-11.35C457.59,1406.31,452.08,1401.49,445.95,1401.66L445.95,1401.66z
	 M521.76,1339.01c10.38-0.29,20.23,3.66,27.78,10.25c7.53,6.6,12.78,15.86,13.91,26.2c1.13,10.35-2.04,19.82-8.1,26.78
	c-6.05,6.96-14.99,11.41-25.36,11.69c-10.37,0.28-20.22-3.66-27.77-10.26c-7.54-6.6-12.77-15.85-13.92-26.2
	c-1.13-10.34,2.04-19.82,8.1-26.78C502.46,1343.73,511.39,1339.29,521.76,1339.01L521.76,1339.01z M504.45,1357.73
	c4.4-5.06,10.89-8.29,18.44-8.49c7.54-0.2,14.71,2.66,20.19,7.46c5.48,4.79,9.29,11.52,10.11,19.03c0.83,7.52-1.48,14.41-5.88,19.47
	c-4.4,5.05-10.89,8.28-18.43,8.49c-7.54,0.2-14.7-2.66-20.19-7.46c-5.48-4.8-9.29-11.52-10.11-19.04
	C497.75,1369.68,500.05,1362.79,504.45,1357.73z" clip-rule="evenodd"></path>
  <g>
    <rect width="241" height="127.62" x="1377.7" y="1429.29" fill="#fff" fill-rule="evenodd" clip-rule="evenodd"></rect>
  </g>
  <g>
    <rect width="241" height="54.75" x="1377.7" y="1593.35" fill="#fff" fill-rule="evenodd" clip-rule="evenodd"></rect>
  </g>
  <g>
    <path fill="#4f8ecc" fill-rule="evenodd" d="M1505.59,1442.67c-4.94-7.87-9.44-13.52-13.48-16.95c19.18-10.39,29.81-21.81,31.9-34.26
		c2.81,2.47,5.18,5.45,7.11,8.93C1523.99,1417.36,1515.49,1431.46,1505.59,1442.67z" clip-rule="evenodd"></path>
  </g>
  <g>
    <path fill="#4f8ecc" fill-rule="evenodd" d="M1478.63,1442.67c4.95-7.87,9.44-13.52,13.48-16.95c-19.17-10.39-29.8-21.81-31.9-34.26
		c-2.8,2.47-5.17,5.45-7.1,8.93C1460.23,1417.36,1468.74,1431.46,1478.63,1442.67z" clip-rule="evenodd"></path>
  </g>
  <g>
    <path fill="#8bbae9" fill-rule="evenodd" d="M1648.11,1459.06c-20.68-28.6-59.68-48.16-116.99-58.68c-7.12,16.98-15.63,31.08-25.53,42.28
		c-4.94-7.87-9.44-13.52-13.48-16.95c-4.04,3.44-8.54,9.09-13.48,16.95c-9.89-11.21-18.4-25.3-25.52-42.28
		c-57.32,10.52-96.31,30.08-117,58.68c-15.82,46.31-26.27,83.01-31.34,110.08c16.78,3.61,36.11,7.86,57.96,12.76
		c-2.93,52.26-3.69,96.89-2.27,133.9c30.55,8.9,73.25,24.74,124.1,46.02c2.64-0.09,5.15-0.21,7.54-0.38c2.39,0.17,4.9,0.3,7.54,0.38
		c50.86-21.28,93.55-37.11,124.1-46.02c1.41-37.01,0.65-81.64-2.28-133.9c21.86-4.9,41.19-9.15,57.97-12.76
		C1674.38,1542.07,1663.94,1505.37,1648.11,1459.06z" clip-rule="evenodd"></path>
  </g>
  <g>
    <path fill="#61a0e0" fill-rule="evenodd" d="M1612.31,1494.41c4.06,26.18,7.12,55.34,9.17,87.48c2.77-0.61,5.49-1.22,8.18-1.83
		C1626.09,1560.16,1620.31,1531.61,1612.31,1494.41z" clip-rule="evenodd"></path>
  </g>
  <g>
    <path fill="#61a0e0" fill-rule="evenodd" d="M1371.91,1494.41c-4.05,26.18-7.12,55.34-9.17,87.48c-2.76-0.61-5.48-1.22-8.17-1.83
		C1358.13,1560.16,1363.92,1531.61,1371.91,1494.41z" clip-rule="evenodd"></path>
  </g>
  <g>
    <path fill="#4567c6" fill-rule="evenodd" d="M1610.65,1818c6.16,15.68-5.16,40.98-12.85,46.05c-139.98-14.05-227.38-33.73-281.3-60.99
		c-16.07-8.9-44.13-12.73-61.24-24.06c-41.36-43.63-10.38-100.86,30.62-98.04c28.67,5.52,42.19,13.72,55.77,29.88
		C1390.72,1722.04,1490.59,1761.66,1610.65,1818z" clip-rule="evenodd"></path>
  </g>
  <g>
    <path fill="#284191" fill-rule="evenodd" d="M1759.58,1841.39c5.63,38.22-42.06,44.27-140.18,27.62c41.25-13.62,46.7-25.64,15.98-44.8
		C1720.74,1808.74,1759.71,1808.88,1759.58,1841.39L1759.58,1841.39z M1224.65,1841.39c-5.63,38.22,42.07,44.27,140.18,27.62
		c-41.25-13.62-46.7-25.64-15.98-44.8C1263.49,1808.74,1224.52,1808.88,1224.65,1841.39z" clip-rule="evenodd"></path>
  </g>
  <g>
    <path fill="#ffb27d" fill-rule="evenodd" d="M1599.62,1862.54c8.23,1.57,14.82,3.73,19.78,6.47c41.25-13.62,46.7-25.64,15.98-44.8
		c-6.96,0.34-14.84-0.56-23.66-2.7C1614.93,1835.9,1606.54,1855.74,1599.62,1862.54L1599.62,1862.54z M1384.61,1862.54
		c-8.22,1.57-14.82,3.73-19.78,6.47c-41.25-13.62-46.7-25.64-15.98-44.8c6.95,0.34,14.85-0.56,23.67-2.7
		C1369.3,1835.9,1377.7,1855.74,1384.61,1862.54z" clip-rule="evenodd"></path>
  </g>
  <g>
    <path fill="#ffb27d" fill-rule="evenodd" d="M1674.35,1656.39c3.37-27.59,2.54-56.12-2.53-85.61c-12.72,2.76-26.78,5.85-42.16,9.29
		c-2.69,0.61-5.41,1.22-8.18,1.83c2.84,50.62,3.63,94.1,2.4,130.41C1648.95,1692.09,1665.78,1673.46,1674.35,1656.39z" clip-rule="evenodd"></path>
  </g>
  <g>
    <path fill="#ffb27d" fill-rule="evenodd" d="M1309.88,1656.39c-3.38-27.59-2.53-56.12,2.54-85.61c12.71,2.76,26.77,5.85,42.16,9.29
		c2.69,0.61,5.41,1.22,8.17,1.83c-2.83,50.62-3.63,94.1-2.39,130.41C1335.28,1692.09,1318.46,1673.46,1309.88,1656.39z" clip-rule="evenodd"></path>
  </g>
  <g>
    <path fill="#f08261" fill-rule="evenodd" d="M1636.06,1649.1c-0.23-19.76-0.95-43.09-2.15-69.99c-1.4,0.31-2.82,0.63-4.25,0.94
		c-2.69,0.61-5.41,1.22-8.18,1.83c1.75,31.21,2.72,59.7,2.93,85.48c2.28-2.67,4.95-5.78,7.99-9.34c8.69-3.69,17.37-5.52,26.06-5.46
		C1648.47,1649.47,1641.01,1648.31,1636.06,1649.1L1636.06,1649.1z M1348.16,1649.1c0.24-19.76,0.95-43.09,2.15-69.99
		c1.41,0.31,2.83,0.63,4.26,0.94c2.69,0.61,5.41,1.22,8.17,1.83c-1.75,31.21-2.72,59.7-2.92,85.48c-2.29-2.67-4.95-5.78-8-9.34
		c-8.69-3.69-17.37-5.52-26.06-5.46C1335.76,1649.47,1343.22,1648.31,1348.16,1649.1z" clip-rule="evenodd"></path>
  </g>
  <g>
    <path fill="#fc9774" fill-rule="evenodd" d="M1364.26,1596.13h255.71c2.44,0,4.45,2.01,4.45,4.46v115c-30.52,8.84-73.33,24.7-124.4,46.05h-15.84
		c-51.05-21.35-93.86-37.21-124.39-46.05v-115C1359.8,1598.14,1361.81,1596.13,1364.26,1596.13z" clip-rule="evenodd"></path>
  </g>
  <g>
    <path fill="#f06a30" fill-rule="evenodd" d="M1371.71,1719.2c29.36,9.25,67.76,23.74,112.49,42.45l0.38,0.16l3.08-0.16h4.46h4.45l3.08,0.16
		c44.9-18.78,83.44-33.33,112.87-42.61v-94.99c-74.4,97.47-127.23,31.8-183.49,31.8c-19.11,0-37.49,6.95-57.33,24.69V1719.2z" clip-rule="evenodd"></path>
  </g>
  <g>
    <path fill="#ffb27d" fill-rule="evenodd" d="M1465.38,1261.95c17.25,23.98,44.62,45.06,82.09,63.23c-9.37,28.08-23.52,55.5-54.44,60.6
		c-29.64-4.75-46.03-26.17-52.71-56.6C1456.24,1311.46,1464.59,1289.04,1465.38,1261.95z" clip-rule="evenodd"></path>
  </g>
  <g>
    <path fill="#125aa3" fill-rule="evenodd" d="M1502.74,1308.78c21.02-5.24,18.26-4.55,34.58,5.28c-5.56-10.52-15.46-14.12-26.5-11.99
		C1505.66,1303.05,1504.76,1302.84,1502.74,1308.78z" clip-rule="evenodd"></path>
  </g>
  <g>
    <path fill="#284191" fill-rule="evenodd" d="M1577.75,1277.18c0-47.32-38.7-86.02-86.02-86.02c-47.31,0-86.01,38.7-86.01,86.02v135.37
		c14.09-4.9,29.88-8.95,47.4-12.17c1.93-3.48,4.3-6.46,7.1-8.93c2.1,12.45,12.73,23.87,31.9,34.26
		c19.18-10.39,29.81-21.81,31.9-34.26c2.81,2.47,5.18,5.45,7.11,8.93c17.2,3.15,32.73,7.12,46.63,11.9V1277.18L1577.75,1277.18z
		 M1465.38,1261.95c17.25,23.98,44.62,45.06,82.09,63.23c-9.37,28.08-23.52,55.5-54.44,60.6c-29.64-4.75-46.03-26.17-52.71-56.6
		C1456.24,1311.46,1464.59,1289.04,1465.38,1261.95z" clip-rule="evenodd"></path>
  </g>
  <g>
    <path fill="#ffb27d" fill-rule="evenodd" d="M1524.01,1391.45c-2.15-3.37-3.67-9.36-4.55-17.97c-7.15,6.15-15.8,10.55-26.44,12.3
		c-12.43-1.99-22.53-6.91-30.56-14.21c-0.27,7.88-1.02,14.51-2.26,19.87c2.1,12.45,12.73,23.87,31.9,34.26
		C1511.29,1415.32,1521.92,1403.9,1524.01,1391.45z" clip-rule="evenodd"></path>
  </g>
  <g>
    <path fill="#f08261" fill-rule="evenodd" d="M1520.33,1379.99c-0.33-1.97-0.62-4.15-0.87-6.51c-7.15,6.15-15.8,10.55-26.44,12.3
		c-12.43-1.99-22.53-6.91-30.56-14.21c-0.09,2.8-0.25,5.44-0.47,7.92c7.4,5.03,17.82,9.31,31.3,12.86
		C1501.83,1390.05,1510.81,1386.88,1520.33,1379.99z" clip-rule="evenodd"></path>
  </g>
  <g>
    <path fill="#284191" fill-rule="evenodd" d="M1405.71,1350.89h38.85l-4.97,158.68h-18.17l3.42-51.59l-9.01,51.59h-24.58
		C1400.31,1472.35,1408.81,1390.53,1405.71,1350.89z" clip-rule="evenodd"></path>
  </g>
  <g>
    <path fill="#284191" fill-rule="evenodd" d="M1539.21,1352.8l36.44-3.11c-0.87,56.92-0.06,123.5,6.34,162.05h-18.35l-1.41-4.83l-2.17,4.83h-6.54
		l-4.51-33.15l-1.24,33.15h-13.52L1539.21,1352.8z" clip-rule="evenodd"></path>
  </g>
  <g>
    <path fill="#4567c6" fill-rule="evenodd" d="M1373.58,1818c-6.17,15.68,5.16,40.98,12.85,46.05c139.99-14.05,227.38-33.73,281.29-60.99
		c16.07-8.9,44.14-12.73,61.24-24.06c41.37-43.63,10.39-100.86-30.61-98.04c-28.68,5.52-42.18,13.72-55.77,29.88
		C1593.51,1722.04,1493.64,1761.66,1373.58,1818z" clip-rule="evenodd"></path>
  </g>
  <g>
    <path fill="#3b5bb3" fill-rule="evenodd" d="M1482.77,1761.06c-76.52,29.8-136.78,41.76-180.8,35.88c5.39,1.85,10.36,3.81,14.53,6.12
		c14.08,7.12,30.45,13.72,49.44,19.84c2.13-0.38,4.33-0.85,6.58-1.39c0.27-1.22,0.61-2.38,1.06-3.5
		c42.49-19.94,82.45-37.79,118.53-53.03c-2.53-1.07-5.05-2.12-7.54-3.17c-0.12-0.05-0.25-0.11-0.38-0.16
		C1483.72,1761.45,1483.26,1761.25,1482.77,1761.06z" clip-rule="evenodd"></path>
  </g>
  <g>
    <path fill="#3b5bb3" fill-rule="evenodd" d="M1612.24,1824.8c-32.27,9.94-71.81,18.58-120.13,26.06c31.38,4.86,66.47,9.24,105.69,13.18
		c0.59-0.38,1.2-0.89,1.81-1.5C1606.02,1856.25,1613.69,1838.78,1612.24,1824.8z" clip-rule="evenodd"></path>
  </g>
  <g>
    <path fill="#125aa3" fill-rule="evenodd" d="M1469.44,1317.48c-2.26,0.11-4.2-2.23-4.35-5.24c-0.15-3,1.55-5.52,3.8-5.64c2.26-0.11,4.2,2.23,4.35,5.24
		C1473.4,1314.84,1471.69,1317.37,1469.44,1317.48z" clip-rule="evenodd"></path>
  </g>
  <g>
    <path fill="#125aa3" fill-rule="evenodd" d="M1514.87,1319.5c2.21,0.19,4.2-2.09,4.47-5.08c0.25-3-1.33-5.59-3.54-5.78c-2.2-0.19-4.2,2.09-4.46,5.09
		C1511.08,1316.73,1512.66,1319.31,1514.87,1319.5z" clip-rule="evenodd"></path>
  </g>
  <g>
    <path fill="#125aa3" fill-rule="evenodd" d="M1482.76,1308.04c-18.88-8.66-16.41-7.52-33.37-0.54c6.97-9.45,16.87-11.35,26.89-7.42
		C1480.97,1301.91,1481.84,1301.84,1482.76,1308.04z" clip-rule="evenodd"></path>
  </g>
  <g>
    <path fill="#fff" fill-rule="evenodd" d="M1512.81,1358.18c-25.18,2.22-44.54,0.03-38.28,1.01C1481.18,1362.31,1498.48,1362.08,1512.81,1358.18z" clip-rule="evenodd"></path>
  </g>
  <g>
    <path fill="#a4d0fc" fill-rule="evenodd" d="M1469.63,1312.36c0.41,0.03,0.67,0.98,0.57,2.11c-0.1,1.13-0.51,2.02-0.92,1.98c-0.4-0.03-0.66-0.98-0.56-2.11
		C1468.82,1313.22,1469.23,1312.33,1469.63,1312.36z" clip-rule="evenodd"></path>
  </g>
  <g>
    <path fill="#a4d0fc" fill-rule="evenodd" d="M1514.31,1313.6c0.41,0.03,0.66,0.98,0.56,2.11c-0.09,1.12-0.51,2.02-0.91,1.98
		c-0.41-0.03-0.66-0.98-0.57-2.11C1513.49,1314.46,1513.9,1313.56,1514.31,1313.6z" clip-rule="evenodd"></path>
  </g>
  <g>
    <path fill="#284191" fill-rule="evenodd" d="M1453.39,1255.05c14.69-10.67,26.17-11.24,34.44-1.72c0.7,26.26-7.63,47.39-24.99,63.41
		C1467.27,1304.41,1464.11,1283.85,1453.39,1255.05z" clip-rule="evenodd"></path>
  </g>
</svg>
