<svg xmlns="http://www.w3.org/2000/svg" enable-background="new 0 0 3000 3000" viewBox="0 0 3000 3000" id="blockchain-analytics">
  <switch>
    <g>
      <g>
        <g>
          <g>
            <g>
              <polygon points="2320.998 1980.698 812.973 2857.118 612.336 2742.17 2120.36 1865.75" opacity=".1"></polygon>
              <g>
                <path fill="#f0ead1" d="M770.818,1101.38l0.077,27.279l1470.648-849.078l3.079,1086.065
								c0.147,51.969-36.399,115.269-81.625,141.38L856.161,2261.527c-45.255,26.128-82.04,5.165-82.187-46.803l-3.079-1086.065
								L770.818,1101.38z"></path>
              </g>
              <g>
                <path fill="#3d3d3d" d="M2159.307,205.482c45.227-26.111,82.011-5.149,82.159,46.82l0.077,27.279L770.895,1128.658
								l-0.077-27.279c-0.147-51.968,36.399-115.269,81.653-141.396L2159.307,205.482z"></path>
              </g>
              <g>
                <path fill="#fe0" d="M865.902,996.256c5.941-3.43,10.728-0.599,10.747,6.125l0.077,27.205
								c0.019,6.723-4.736,14.96-10.678,18.39l-38.618,22.296c-5.851,3.378-10.728,0.703-10.747-6.021l-0.077-27.205
								c-0.019-6.723,4.826-15.116,10.677-18.494L865.902,996.256z"></path>
                <path fill="#ff472e" d="M956.477,943.896c5.941-3.43,10.728-0.599,10.747,6.125l0.077,27.205
								c0.019,6.724-4.736,14.96-10.678,18.391l-38.529,22.244c-5.941,3.43-10.728,0.703-10.747-6.021l-0.077-27.205
								c-0.019-6.723,4.736-15.064,10.677-18.494L956.477,943.896z"></path>
                <path fill="#b585ff" d="M1049.959,890.544c5.851-3.378,10.728-0.599,10.747,6.125l0.077,27.205
								c0.019,6.723-4.827,15.012-10.678,18.39l-38.618,22.296c-5.941,3.43-10.728,0.703-10.747-6.021l-0.077-27.205
								c-0.019-6.724,4.736-15.064,10.677-18.494L1049.959,890.544z"></path>
              </g>
              <path fill="#545454" d="M2130.258,148.409c-14.89-8.653-35.512-7.434-58.27,5.705L765.152,908.615
							c-45.255,26.128-81.801,89.428-81.653,141.397l0.077,27.279l87.319,51.368l-0.077-27.279
							c-0.147-51.968,36.399-115.269,81.654-141.396l1306.835-754.501c22.758-13.14,43.379-14.359,58.27-5.706L2130.258,148.409z"></path>
              <path fill="#ccc6b2" d="M773.974,2214.724l-3.079-1086.065l-87.319-51.368l3.079,1086.065
							c0.073,25.813,9.186,43.977,23.885,52.52l87.319,51.368C783.16,2258.7,774.047,2240.537,773.974,2214.724z"></path>
            </g>
            <g>
              <g>
                <polygon fill="#ff6c63" points="1261.407 1826.12 851.603 2062.72 851.634 2073.521 1261.407 1836.939"></polygon>
              </g>
              <g>
                <polygon fill="#b3b3b3" points="1192.213 1941.735 1192.244 1952.55 957.942 2087.823 957.912 2077.008"></polygon>
              </g>
              <g>
                <polygon fill="#b3b3b3" points="932.749 2091.536 932.78 2102.351 851.848 2149.077 851.817 2138.262"></polygon>
              </g>
              <g>
                <polygon fill="#34a2d1" points="1067.676 1975.803 1067.706 1986.619 851.741 2111.306 851.71 2100.491"></polygon>
              </g>
              <g>
                <polygon fill="#34a2d1" points="1261.407 1863.952 1100.773 1956.695 1100.803 1967.51 1261.407 1874.785"></polygon>
              </g>
            </g>
            <g>
              <g>
                <polygon fill="#ff6c63" points="1734.263 1554.854 1324.459 1791.454 1324.489 1802.256 1734.263 1565.673"></polygon>
              </g>
              <g>
                <polygon fill="#b3b3b3" points="1665.068 1670.469 1665.099 1681.284 1430.798 1816.558 1430.767 1805.743"></polygon>
              </g>
              <g>
                <polygon fill="#b3b3b3" points="1405.605 1820.27 1405.635 1831.085 1324.703 1877.811 1324.673 1866.996"></polygon>
              </g>
              <g>
                <polygon fill="#34a2d1" points="1540.531 1704.538 1540.562 1715.353 1324.596 1840.04 1324.566 1829.225"></polygon>
              </g>
              <g>
                <polygon fill="#34a2d1" points="1734.263 1592.687 1573.628 1685.429 1573.659 1696.244 1734.263 1603.52"></polygon>
              </g>
            </g>
            <g>
              <g>
                <polygon fill="#ff6c63" points="2200.44 1284.32 1790.636 1520.921 1790.667 1531.722 2200.44 1295.14"></polygon>
              </g>
              <g>
                <polygon fill="#b3b3b3" points="2131.246 1399.936 2131.277 1410.751 1896.975 1546.024 1896.945 1535.209"></polygon>
              </g>
              <g>
                <polygon fill="#b3b3b3" points="1871.782 1549.737 1871.813 1560.552 1790.881 1607.278 1790.85 1596.463"></polygon>
              </g>
              <g>
                <polygon fill="#34a2d1" points="2006.709 1434.004 2006.739 1444.819 1790.774 1569.507 1790.743 1558.692"></polygon>
              </g>
              <g>
                <polygon fill="#34a2d1" points="2200.44 1322.153 2039.806 1414.896 2039.836 1425.711 2200.44 1332.986"></polygon>
              </g>
            </g>
            <g>
              <g>
                <path fill="gray" d="M908.365,1772.739c2.442-1.41,4.691-1.739,6.473-1.145l-7.411,12.513l1.943,1.194
								l7.411-12.513c1.269,1.251,2.024,3.262,2.031,5.904c0.019,6.604-4.632,14.66-10.38,17.978
								c-5.76,3.326-10.429,0.651-10.447-5.954C897.967,1784.113,902.605,1776.065,908.365,1772.739z"></path>
              </g>
              <g>
                <path fill="gray" d="M1050.108,1818.469c5.452-2.756,9.78-0.059,9.798,6.304
								c0.019,6.604-4.632,14.66-10.392,17.985c-5.747,3.318-10.429,0.651-10.447-5.954c-0.016-5.783,3.532-12.651,8.262-16.507
								l0.769,11.409l2.779-1.836L1050.108,1818.469z"></path>
              </g>
              <g>
                <path fill="gray" d="M1183.922,1623.75c5.76-3.326,10.441-0.672,10.46,5.946
								c0.019,6.604-4.632,14.66-10.392,17.985c-5.748,3.318-10.429,0.651-10.447-5.953c-0.007-2.376,0.588-4.936,1.62-7.394
								l7.892,3.133l1.804-3.502l-7.888-3.131C1178.81,1627.863,1181.247,1625.295,1183.922,1623.75z"></path>
              </g>
              <g>
                <path fill="gray" d="M1178.105,1429.19c5.747-3.318,10.429-0.651,10.447,5.954
								c0.019,6.619-4.632,14.674-10.38,17.993c-4.218,2.435-7.862,1.646-9.51-1.563l9.883-9.104l-0.814-2.614l-9.877,9.098
								c-0.084-0.558-0.128-1.154-0.13-1.786C1167.707,1440.564,1172.357,1432.508,1178.105,1429.19z"></path>
              </g>
              <g>
                <path fill="gray" d="M886.906,1566.192c5.76-3.326,10.441-0.672,10.46,5.946c0.004,1.308-0.177,2.674-0.512,4.049
								l-9.302,0.17l-1.212,3.595l9.296-0.17c-1.86,4.293-5.042,8.252-8.662,10.342c-5.747,3.318-10.429,0.651-10.447-5.954
								C876.508,1577.552,881.158,1569.511,886.906,1566.192z"></path>
              </g>
              <g>
                <g>
                  <path fill="gray" d="M1034.456,1586.002l-0.521-7.737l5.349,2.123
									C1037.946,1582.552,1036.292,1584.503,1034.456,1586.002z"></path>
                </g>
                <g>
                  <path fill="gray" d="M1042.577,1567.717c0.083,0.555,0.126,1.146,0.128,1.773c0.007,2.38-0.588,4.944-1.621,7.407
									l-5.922-2.35L1042.577,1567.717z"></path>
                </g>
                <g>
                  <path fill="gray" d="M1025.846,1588.624l5.272-8.902l0.547,8.117
									C1029.476,1588.945,1027.467,1589.168,1025.846,1588.624z"></path>
                </g>
                <g>
                  <polygon fill="gray" points="887.552 1576.357 896.854 1576.187 1023.607 1573.872 1032.419 1573.711 1032.904 1573.702 1032.293 1575.514 1031.692 1577.296 1030.955 1577.31 1029.884 1577.329 1022.39 1577.466 895.636 1579.782 886.34 1579.952"></polygon>
                </g>
                <g>
                  <polygon fill="gray" points="1032.293 1575.514 1032.698 1576.817 1035.162 1574.547 1041.084 1576.898 1176.97 1630.834 1184.858 1633.965 1183.054 1637.467 1175.162 1634.334 1039.284 1580.388 1033.935 1578.265 1031.505 1577.3"></polygon>
                </g>
                <g>
                  <polygon fill="gray" points="1030.955 1577.31 1031.505 1577.3 1033.935 1578.265 1034.456 1586.002 1050.108 1818.469 1050.875 1829.871 1048.097 1831.707 1047.328 1820.298 1031.665 1587.84 1031.118 1579.722"></polygon>
                </g>
                <g>
                  <polygon fill="gray" points="1177.732 1439.856 1178.546 1442.47 1168.663 1451.573 1042.577 1567.717 1035.162 1574.547 1032.698 1576.817 1032.293 1575.514 1032.904 1573.702 1032.419 1573.711 1041.771 1565.096 1167.855 1448.954"></polygon>
                </g>
                <g>
                  <polygon fill="gray" points="1029.884 1577.329 1030.955 1577.31 1031.118 1579.722 1025.846 1588.624 916.781 1772.789 909.371 1785.302 907.427 1784.108 914.838 1771.595 1023.905 1587.426"></polygon>
                </g>
                <g>
                  <path fill="gray" d="M1022.39,1577.466l7.495-0.137l-5.979,10.096c-1.267-1.253-2.02-3.266-2.027-5.911
									C1021.874,1580.206,1022.055,1578.841,1022.39,1577.466z"></path>
                </g>
                <g>
                  <path fill="gray" d="M1033.144,1563.068c3.846-1.848,7.099-0.953,8.627,2.028l-9.352,8.615l-8.812,0.161
									c1.525-3.52,3.937-6.815,6.749-9.037l0.538,6.567l2.779-1.879L1033.144,1563.068z"></path>
                </g>
                <g>
                  <polygon fill="gray" points="1012.051 1305.503 1012.977 1316.81 1033.144 1563.069 1033.673 1569.523 1030.894 1571.402 1030.356 1564.835 1010.198 1318.688 1009.272 1307.382"></polygon>
                </g>
              </g>
              <g>
                <path fill="gray" d="M1010.634,1294.465c5.747-3.318,10.429-0.651,10.447,5.954
								c0.016,5.719-3.453,12.509-8.104,16.39l-0.926-11.307l-2.779,1.879l0.926,11.306c-5.526,2.889-9.926,0.18-9.944-6.245
								C1000.235,1305.839,1004.874,1297.791,1010.634,1294.465z"></path>
              </g>
            </g>
            <g>
              <g>
                <path fill="gray" d="M1289.983,1235.796l1.399,5.341l-4.621,0.541
								C1287.551,1239.612,1288.656,1237.596,1289.983,1235.796z"></path>
              </g>
              <g>
                <polygon fill="gray" points="1292.469 1245.29 1292.26 1244.492 1293.554 1244.341"></polygon>
              </g>
              <g>
                <path fill="gray" d="M1669.565,1377.197l-1.628-3.66l4.974-1.783
								C1672.036,1373.695,1670.893,1375.556,1669.565,1377.197z"></path>
              </g>
              <g>
                <polygon fill="gray" points="1664.126 1374.903 1664.284 1373.834 1664.672 1374.707"></polygon>
              </g>
              <g>
                <polygon fill="gray" points="1664.073 1373.363 1664.177 1373.594 1663.509 1374.941 1663.399 1374.903"></polygon>
              </g>
              <g>
                <path fill="gray" d="M1606.03,1491.055c1.666-0.962,3.24-1.421,4.637-1.429l-5.763,13.167l2.319,0.456
								l5.758-13.156c2.137,0.962,3.485,3.373,3.495,6.916c0.019,6.619-4.62,14.652-10.38,17.978
								c-5.748,3.318-10.429,0.665-10.447-5.954C1595.631,1502.429,1600.282,1494.373,1606.03,1491.055z"></path>
              </g>
              <g>
                <path fill="gray" d="M1744.64,1332.414c5.76-3.326,10.441-0.658,10.46,5.946
								c0.019,6.619-4.632,14.66-10.392,17.985c-5.747,3.318-10.428,0.665-10.447-5.954c-0.001-0.211,0.004-0.423,0.013-0.637
								l10.154-3.64l0.507-3.463l-10.149,3.64C1736.152,1340.746,1740.045,1335.067,1744.64,1332.414z"></path>
              </g>
              <g>
                <path fill="gray" d="M1692.728,1421.632c5.76-3.326,10.429-0.651,10.448,5.968
								c0.019,6.604-4.619,14.652-10.38,17.978c-5.747,3.318-10.429,0.651-10.447-5.954c-0.013-4.456,2.091-9.563,5.221-13.437
								l3.899,8.765l2.587-2.695l-3.901-8.77C1690.978,1422.771,1691.84,1422.145,1692.728,1421.632z"></path>
              </g>
              <g>
                <path fill="gray" d="M1237.502,1363.601c1.474-0.851,2.878-1.309,4.151-1.409l-7.696,17.41l2.319,0.485
								l7.782-17.609c2.371,0.831,3.892,3.317,3.903,7.084c0.019,6.604-4.632,14.66-10.392,17.985
								c-5.747,3.318-10.429,0.651-10.447-5.954C1227.104,1374.974,1231.755,1366.919,1237.502,1363.601z"></path>
              </g>
              <g>
                <g>
                  <polygon fill="gray" points="1734.785 1346.292 1744.934 1342.651 1744.427 1346.114 1734.273 1349.755 1672.911 1371.754 1667.938 1373.537 1666.684 1370.719 1674.231 1368.012"></polygon>
                </g>
                <g>
                  <path fill="gray" d="M1664.126,1374.903l0.546-0.196l2.307,5.186c-0.822,0.714-1.682,1.339-2.569,1.851
									c-1.663,0.96-3.236,1.421-4.633,1.433l3.622-8.275l0.11,0.038l0.668-1.346l0.107,0.239L1664.126,1374.903z"></path>
                </g>
                <g>
                  <polygon fill="gray" points="1720.496 1280.564 1722.364 1281.874 1716.765 1290.886 1674.012 1359.706 1668.479 1368.612 1666.611 1367.302 1672.58 1357.695 1714.932 1289.52"></polygon>
                </g>
                <g>
                  <polygon fill="gray" points="1665.67 1368.439 1666.684 1370.72 1667.937 1373.537 1669.565 1377.197 1690.155 1423.487 1694.056 1432.257 1691.468 1434.953 1687.57 1426.187 1666.979 1379.895 1664.672 1374.708 1664.283 1373.834 1664.177 1373.595 1664.073 1373.363 1665.536 1370.022 1664.376 1369.787"></polygon>
                </g>
                <g>
                  <polygon fill="gray" points="1303.692 1245.721 1655.699 1368.111 1662.771 1370.57 1661.208 1374.141 1654.452 1371.792 1301.554 1249.093 1297.953 1247.841 1297.227 1243.947 1295.856 1245.042 1296.624 1243.493"></polygon>
                </g>
                <g>
                  <polygon fill="gray" points="1663.216 1369.552 1664.376 1369.787 1665.536 1370.022 1664.073 1373.363 1663.399 1374.903 1659.777 1383.178 1612.981 1490.093 1607.223 1503.249 1604.904 1502.793 1610.666 1489.626 1657.455 1382.717 1661.208 1374.141 1662.771 1370.57"></polygon>
                </g>
                <g>
                  <path fill="gray" d="M1654.452,1371.792l6.756,2.349l-3.753,8.575c-2.141-0.957-3.495-3.366-3.505-6.917
									C1653.946,1374.504,1654.123,1373.152,1654.452,1371.792z"></path>
                </g>
                <g>
                  <path fill="gray" d="M1674.012,1359.706c0.496,1.106,0.773,2.469,0.777,4.062
									c0.004,1.372-0.193,2.806-0.559,4.245l-7.546,2.707l-1.014-2.28l-1.294,1.348l-1.16-0.235l-0.446,1.018l-7.072-2.459
									c1.52-3.49,3.913-6.754,6.703-8.969l0.57,8.553l2.779-1.836l-0.566-8.493c2.998-1.454,5.643-1.242,7.395,0.328l-5.968,9.607
									l1.868,1.31L1674.012,1359.706z"></path>
                </g>
                <g>
                  <path fill="gray" d="M1584.232,1160.883c1.038-0.599,2.042-1.002,2.989-1.223l-6.429,14.268l2.294,0.528
									l6.727-14.932c2.913,0.445,4.854,3.064,4.866,7.312c0.019,6.619-4.632,14.674-10.379,17.992
									c-5.76,3.326-10.441,0.658-10.46-5.961C1573.822,1172.264,1578.472,1164.208,1584.232,1160.883z"></path>
                </g>
                <g>
                  <path fill="gray" d="M1644.722,1050.12l-0.476-7.143l4.477,2.784
									C1647.552,1047.423,1646.195,1048.918,1644.722,1050.12z"></path>
                </g>
                <g>
                  <path fill="gray" d="M1637.794,1053.019l3.666-8.139l0.472,7.075
									C1640.448,1052.704,1639.047,1053.046,1637.794,1053.019z"></path>
                </g>
                <g>
                  <polygon fill="gray" points="1642.74 1042.04 1644.247 1042.977 1644.722 1050.12 1665.185 1357.366 1665.75 1365.86 1662.972 1367.695 1662.402 1359.142 1641.932 1051.955 1641.46 1044.88"></polygon>
                </g>
                <g>
                  <path fill="gray" d="M1651.09,1027.846c1.184,1.261,1.883,3.222,1.89,5.771c0.008,2.819-0.835,5.903-2.251,8.769
									l-6.173-3.838L1651.09,1027.846z"></path>
                </g>
                <g>
                  <polygon fill="gray" points="1642.566 1039.622 1643.513 1040.255 1644.555 1038.548 1650.729 1042.386 1701.568 1073.992 1708.724 1078.441 1706.718 1081.828 1699.557 1077.375 1648.723 1045.761 1644.247 1042.977 1642.74 1042.04 1641.563 1041.308"></polygon>
                </g>
                <g>
                  <polygon fill="gray" points="1641.048 1040.188 1641.209 1040.803 1642.566 1039.622 1641.563 1041.308 1642.74 1042.04 1641.46 1044.88 1637.794 1053.019 1589.814 1159.524 1583.087 1174.456 1580.793 1173.928 1587.221 1159.659 1635.508 1052.485 1639.865 1042.816"></polygon>
                </g>
                <g>
                  <polygon fill="gray" points="1695.976 949.951 1697.87 951.232 1693.002 959.204 1651.09 1027.846 1644.555 1038.548 1643.513 1040.255 1642.566 1039.622 1643.924 1038.44 1643.333 1036.183 1649.199 1026.574 1691.798 956.795"></polygon>
                </g>
                <g>
                  <path fill="gray" d="M1632.261,1047.261l7.604-4.446l-4.357,9.67
									C1633.792,1051.647,1632.609,1049.849,1632.261,1047.261z"></path>
                </g>
                <g>
                  <path fill="gray" d="M1642.533,1027.649c2.531-1.462,4.856-1.761,6.666-1.074l-5.866,9.609l-2.027-7.742
									C1641.708,1028.154,1642.117,1027.889,1642.533,1027.649z"></path>
                </g>
                <g>
                  <path fill="gray" d="M1638.595,1030.812l2.16,8.255l-8.52,4.982
									C1632.707,1039.43,1635.199,1034.376,1638.595,1030.812z"></path>
                </g>
                <g>
                  <polygon fill="gray" points="1625.356 967.535 1627.972 977.527 1641.305 1028.441 1643.333 1036.183 1643.924 1038.44 1642.566 1039.622 1641.209 1040.803 1641.048 1040.188 1640.755 1039.067 1638.595 1030.812 1625.271 979.89 1622.654 969.891"></polygon>
                </g>
                <g>
                  <path fill="gray" d="M1312.439,1322.073c5.747-3.318,10.429-0.651,10.447,5.954
									c0.019,6.619-4.632,14.66-10.38,17.978c-5.76,3.326-10.441,0.672-10.46-5.946c-0.015-5.276,2.95-11.478,7.08-15.455
									l1.247,6.681l2.74-2.19l-1.245-6.674C1312.057,1322.3,1312.247,1322.183,1312.439,1322.073z"></path>
                </g>
                <g>
                  <path fill="gray" d="M1298.762,1252.177l-0.809-4.336l3.6,1.252
									C1300.702,1250.225,1299.763,1251.268,1298.762,1252.177z"></path>
                </g>
                <g>
                  <path fill="gray" d="M1306.155,1234.707l-5.714,3.341l4.722-6.412
									C1305.653,1232.479,1305.993,1233.508,1306.155,1234.707z"></path>
                </g>
                <g>
                  <path fill="gray" d="M1296.869,1243.35l9.313-5.445c-0.263,2.579-1.158,5.298-2.491,7.817L1296.869,1243.35z"></path>
                </g>
                <g>
                  <polygon fill="gray" points="1297.226 1243.947 1297.953 1247.841 1298.762 1252.177 1311.868 1322.42 1313.114 1329.095 1310.374 1331.285 1309.127 1324.603 1295.998 1254.237 1294.487 1246.137 1295.855 1245.043"></polygon>
                </g>
                <g>
                  <polygon fill="gray" points="1640.755 1039.067 1641.049 1040.188 1639.865 1042.815 1632.261 1047.261 1306.182 1237.905 1296.87 1243.349 1295.854 1243.943 1295.843 1242.343 1296.632 1243.219 1300.441 1238.047 1306.155 1234.707 1632.235 1044.048"></polygon>
                </g>
                <g>
                  <path fill="gray" d="M1296.624,1243.493l-0.769,1.55l-1.369,1.094l1.511,8.1
									c-0.038,0.023-0.077,0.046-0.115,0.068c-1.669,0.964-3.248,1.423-4.648,1.43l2.657-6.013l-2.307-0.492l-2.668,6.036
									c-2.136-0.962-3.484-3.37-3.494-6.908c-0.003-1.007,0.103-2.047,0.305-3.1l6.532-0.766l0.209,0.797l1.085-0.949l1.772-0.208
									l0.518-1.79l0.011,1.6L1296.624,1243.493z"></path>
                </g>
                <g>
                  <polygon fill="gray" points="1291.585 1249.23 1293.892 1249.723 1291.235 1255.736 1244.059 1362.477 1236.277 1380.086 1233.958 1379.601 1241.653 1362.192 1288.917 1255.267"></polygon>
                </g>
                <g>
                  <polygon fill="gray" points="1299.23 1239.374 1295.845 1242.336 1296.36 1240.553 1291.381 1241.136 1289.983 1235.796 1276.39 1183.886 1273.901 1174.385 1280.662 1168.469 1283.149 1177.969 1296.744 1229.885 1298.538 1236.735"></polygon>
                </g>
                <g>
                  <polygon fill="gray" points="1207.655 1250.947 1220.401 1249.454 1286.76 1241.678 1291.381 1241.137 1296.36 1240.553 1295.845 1242.336 1295.325 1244.133 1293.553 1244.341 1292.26 1244.493 1285.728 1245.259 1219.566 1253.022 1206.62 1254.542"></polygon>
                </g>
              </g>
              <g>
                <path fill="gray" d="M1544.301,894.251l7.143-0.918l-6.329,8.594c-0.697-1.203-1.091-2.784-1.097-4.695
								C1544.015,896.263,1544.114,895.263,1544.301,894.251z"></path>
              </g>
              <g>
                <polygon fill="gray" points="1612.784 798.66 1614.602 800.071 1606.732 812.269 1563.214 879.721 1557.808 888.101 1554.59 889.536 1554.438 891.217 1553.535 890.507 1555.207 887.915 1561.404 878.309 1604.919 810.852"></polygon>
              </g>
              <g>
                <path fill="gray" d="M1564.854,884.959l-7.046,3.142l5.406-8.38
								C1564.212,880.939,1564.808,882.713,1564.854,884.959z"></path>
              </g>
              <g>
                <path fill="gray" d="M1303.585,1229.883l-5.047,6.853l-1.794-6.85
								C1299.451,1228.599,1301.865,1228.674,1303.585,1229.883z"></path>
              </g>
              <g>
                <path fill="gray" d="M1535.842,808.342c5.748-3.318,10.429-0.651,10.448,5.954
								c0.015,5.322-2.989,11.562-7.154,15.529l-1.904-6.883l-2.689,2.392l1.84,6.655c-0.156,0.098-0.314,0.194-0.472,0.285
								c-5.748,3.318-10.429,0.665-10.447-5.954C1525.444,819.715,1530.095,811.66,1535.842,808.342z"></path>
              </g>
              <g>
                <path fill="gray" d="M1643.084,840.036c5.747-3.318,10.429-0.651,10.447,5.968
								c0.019,6.604-4.632,14.66-10.38,17.978c-5.76,3.326-10.429,0.651-10.447-5.954c0-0.029,0.001-0.059,0.001-0.088l12.782-5.7
								l0.318-3.383l-12.717,5.671C1634.309,848.79,1638.312,842.792,1643.084,840.036z"></path>
              </g>
              <g>
                <g>
                  <path fill="gray" d="M1546.691,903.683l8.099-10.997l9.757-4.351c-1.128,5.851-5.206,12.05-10.069,14.858
									C1551.387,904.978,1548.607,905.035,1546.691,903.683z"></path>
                </g>
                <g>
                  <polygon fill="gray" points="1554.59 889.536 1557.808 888.101 1564.854 884.959 1633.088 854.53 1645.805 848.859 1645.487 852.241 1632.705 857.941 1564.547 888.335 1554.79 892.686 1554.285 892.911 1554.438 891.224"></polygon>
                </g>
                <g>
                  <path fill="gray" d="M1561.404,878.309l-6.197,9.607l-2.153-7.784c0.444-0.323,0.897-0.619,1.356-0.884
									C1557.097,877.696,1559.551,877.453,1561.404,878.309z"></path>
                </g>
                <g>
                  <path fill="gray" d="M1550.354,882.531l2,7.236l-7.045,0.905C1546.43,887.696,1548.206,884.818,1550.354,882.531z
									"></path>
                </g>
                <g>
                  <polygon fill="gray" points="1554.438 891.224 1554.285 892.911 1546.691 903.684 1305.163 1231.636 1300.441 1238.048 1296.632 1243.219 1295.843 1242.343 1299.229 1239.375 1298.538 1236.735 1303.585 1229.883 1545.115 901.927 1551.444 893.333 1553.933 893.014"></polygon>
                </g>
                <g>
                  <polygon fill="gray" points="1537.232 822.941 1539.136 829.824 1553.054 880.131 1555.207 887.915 1553.535 890.507 1554.438 891.216 1553.087 892.416 1552.354 889.766 1550.354 882.531 1536.382 831.988 1534.543 825.333"></polygon>
                </g>
                <g>
                  <polygon fill="gray" points="1469.225 900.448 1478.857 899.21 1545.31 890.672 1552.354 889.766 1553.087 892.416 1554.438 891.216 1553.933 893.014 1551.444 893.333 1544.301 894.251 1477.848 902.79 1468.215 904.028"></polygon>
                </g>
                <g>
                  <path fill="gray" d="M1468.692,890.261c5.748-3.318,10.429-0.651,10.447,5.968
									c0.003,0.969-0.096,1.969-0.283,2.981l-9.632,1.238l-1.01,3.58l9.633-1.238c-1.768,4.7-5.173,9.157-9.088,11.417
									c-5.76,3.326-10.429,0.651-10.448-5.954C1458.294,901.635,1462.932,893.587,1468.692,890.261z"></path>
                </g>
              </g>
              <g>
                <path fill="gray" d="M1613.659,787.385c5.748-3.318,10.429-0.651,10.447,5.968
								c0.019,6.604-4.632,14.66-10.38,17.978c-2.687,1.551-5.141,1.794-6.995,0.938l7.87-12.198l-1.818-1.411l-7.865,12.192
								c-1.031-1.261-1.633-3.117-1.64-5.474C1603.261,798.759,1607.911,790.703,1613.659,787.385z"></path>
              </g>
              <g>
                <path fill="gray" d="M1277.247,1159.469c5.747-3.318,10.428-0.665,10.447,5.954
								c0.012,4.118-1.792,8.8-4.546,12.547l-2.488-9.499l-6.76,5.915l2.488,9.502c-5.316,2.529-9.504-0.195-9.521-6.44
								C1266.849,1170.828,1271.5,1162.787,1277.247,1159.469z"></path>
              </g>
              <g>
                <path fill="gray" d="M1210.097,1241.388c5.748-3.318,10.429-0.651,10.447,5.954
								c0.002,0.691-0.047,1.397-0.143,2.112l-12.746,1.493l-1.035,3.594l12.946-1.519c-1.656,5.02-5.241,9.896-9.401,12.297
								c-5.747,3.318-10.429,0.665-10.447-5.954C1199.699,1252.762,1204.349,1244.706,1210.097,1241.388z"></path>
              </g>
              <g>
                <path fill="gray" d="M1701.781,935.801c5.76-3.326,10.441-0.672,10.46,5.946
								c0.019,6.604-4.632,14.66-10.392,17.985c-3.722,2.149-6.996,1.786-8.847-0.529l4.868-7.972l-1.893-1.281l-4.178,6.844
								c-0.255-0.885-0.393-1.893-0.396-3.016C1691.383,947.161,1696.034,939.12,1701.781,935.801z"></path>
              </g>
              <g>
                <path fill="gray" d="M1623.965,956.743c5.76-3.326,10.441-0.658,10.46,5.946
								c0.014,5.016-2.653,10.855-6.452,14.837l-2.616-9.992l-2.702,2.356l2.616,9.999c-0.406,0.29-0.819,0.557-1.238,0.799
								c-5.747,3.318-10.429,0.651-10.447-5.968C1613.567,968.117,1618.217,960.062,1623.965,956.743z"></path>
              </g>
              <g>
                <path fill="gray" d="M1707.687,1068.169c5.747-3.318,10.429-0.651,10.447,5.953
								c0.019,6.619-4.632,14.66-10.38,17.978c-5.76,3.326-10.428,0.665-10.447-5.954c-0.008-2.821,0.834-5.905,2.25-8.772
								l7.161,4.453l2.006-3.387l-7.156-4.449C1703.282,1071.563,1705.395,1069.492,1707.687,1068.169z"></path>
              </g>
              <g>
                <path fill="gray" d="M1723.591,1265.952c5.748-3.318,10.429-0.651,10.447,5.968
								c0.019,6.604-4.632,14.66-10.38,17.978c-2.642,1.525-5.054,1.787-6.893,0.987l5.598-9.012l-1.868-1.31l-5.564,8.956
								c-1.081-1.263-1.714-3.155-1.72-5.576C1713.193,1277.326,1717.831,1269.278,1723.591,1265.952z"></path>
              </g>
            </g>
            <g>
              <g>
                <path fill="gray" d="M2118.968,810.545l8.156-7.513l0.288,9.627
								C2123.649,814.386,2120.474,813.475,2118.968,810.545z"></path>
              </g>
              <g>
                <path fill="gray" d="M2129.821,787.454c5.091-2.153,9.034,0.593,9.051,6.667c0.017,5.934-3.737,13.04-8.668,16.828
								l-0.349-11.679L2129.821,787.454z"></path>
              </g>
              <g>
                <path fill="gray" d="M2126.191,493.492c-3.113,1.318-5.796,0.81-7.417-1.164l7.391-8.191L2126.191,493.492z"></path>
              </g>
              <g>
                <path fill="gray" d="M2127.519,468.862c5.748-3.318,10.429-0.651,10.448,5.954
								c0.017,6.061-3.897,13.342-8.984,17.065l-0.033-11.858l-1.402,0.81l-0.589-1.122l-9.366,10.379
								c-0.298-0.938-0.461-2.022-0.465-3.241C2117.109,480.243,2121.759,472.187,2127.519,468.862z"></path>
              </g>
              <g>
                <g>
                  <path fill="gray" d="M2136.154,1163.858c5.091-2.153,9.034,0.592,9.051,6.652
									c0.019,6.619-4.632,14.674-10.38,17.992c-4.908,2.833-9.037,1.302-10.151-3.327l5.532-3.844l3.249-0.318l0.729-2.446
									l0.75-0.521l-0.143-1.517l1.396-0.813L2136.154,1163.858z"></path>
                </g>
                <g>
                  <polygon fill="gray" points="2133.456 1181.013 2130.207 1181.331 2134.185 1178.567"></polygon>
                </g>
                <g>
                  <path fill="gray" d="M2124.39,1181.901l0.401-0.039l-0.409,0.284
									C2124.385,1182.064,2124.387,1181.982,2124.39,1181.901z"></path>
                </g>
                <g>
                  <path fill="gray" d="M2133.362,1165.47l0.019,6.845l-6.323,0.62
									C2128.663,1169.967,2130.872,1167.292,2133.362,1165.47z"></path>
                </g>
                <g>
                  <path fill="gray" d="M2132.913,1007.343c-2.326,0.983-4.412,0.945-5.994,0.035l5.97-8.66L2132.913,1007.343z"></path>
                </g>
                <g>
                  <polygon fill="gray" points="2135.672 993.873 2135.705 1005.731 2136.154 1163.858 2136.187 1175.716 2134.794 1176.52 2136.126 1172.046 2133.381 1172.315 2133.362 1165.47 2132.913 1007.343 2132.889 998.718 2132.88 995.485 2134.276 994.679"></polygon>
                </g>
                <g>
                  <path fill="gray" d="M2135.323,982.153c5.242-2.404,9.349,0.328,9.367,6.513
									c0.017,6.061-3.897,13.342-8.984,17.064l-0.033-11.858l-1.396,0.806l1.396-0.849L2135.323,982.153z"></path>
                </g>
                <g>
                  <path fill="gray" d="M2125.485,993.298l6.552,2.601l-6.817,9.89c-0.858-1.243-1.351-2.965-1.357-5.098
									C2123.856,998.318,2124.452,995.758,2125.485,993.298z"></path>
                </g>
                <g>
                  <path fill="gray" d="M2132.531,983.863l0.243,8.11l-5.481-2.176
									C2128.731,987.474,2130.534,985.397,2132.531,983.863z"></path>
                </g>
                <g>
                  <polygon fill="gray" points="2133.429 993.879 2134.276 994.679 2132.88 995.485 2132.889 998.718 2126.919 1007.378 2008.856 1178.645 2004.511 1184.948 2001.524 1185.241 2007.163 1177.061 2125.22 1005.789 2132.037 995.899 2132.855 994.712"></polygon>
                </g>
                <g>
                  <polygon fill="gray" points="2000.427 1177.432 2000.989 1185.768 1999.821 1187.712 1998.166 1187.152 1997.636 1179.271 1981.984 946.803 1981.438 938.698 1981.277 936.294 1981.876 936.283 1984.254 937.227 1984.775 944.964"></polygon>
                </g>
                <g>
                  <polygon fill="gray" points="2000.355 1187.893 1999.821 1187.712 2000.858 1186.207"></polygon>
                </g>
                <g>
                  <polygon fill="gray" points="2134.648 1175.012 2134.792 1176.529 2134.934 1178.046 2134.185 1178.567 2130.207 1181.331 2124.674 1185.176 1837.65 1384.622 1828.255 1391.151 1828.106 1389.636 1827.956 1388.124 1829.773 1386.862 1838.437 1380.841 2124.383 1182.146"></polygon>
                </g>
                <g>
                  <polygon fill="gray" points="2133.381 1172.315 2136.126 1172.046 2134.794 1176.52 2134.648 1175.012 2124.792 1181.861 2124.39 1181.901 2007.535 1193.344 1998.464 1194.232 1999.001 1192.434 1999.799 1189.756 2000.664 1187.997 2000.355 1187.893 2000.858 1186.207 2000.989 1185.769 2001.135 1185.279 2001.524 1185.241 2004.511 1184.948 2010.2 1184.391 2127.058 1172.934"></polygon>
                </g>
                <g>
                  <path fill="gray" d="M1999.001,1192.434l-0.536,1.798l9.071-0.888c-1.899,3.512-4.645,6.613-7.702,8.378
									c-3.665,2.116-6.895,1.803-8.76-0.416L1999.001,1192.434z"></path>
                </g>
                <g>
                  <path fill="gray" d="M2001.135,1185.279l-0.146,0.489l-0.561-8.336c2.624-1.325,4.988-1.381,6.735-0.372
									l-5.639,8.18L2001.135,1185.279z"></path>
                </g>
                <g>
                  <path fill="gray" d="M1990.845,1188.775l6.323,2.141l-7.296,8.165c-0.312-0.954-0.482-2.062-0.486-3.313
									C1989.38,1193.523,1989.913,1191.111,1990.845,1188.775z"></path>
                </g>
                <g>
                  <path fill="gray" d="M1997.636,1179.271l0.531,7.881l-5.585-1.891
									C1993.957,1182.947,1995.697,1180.855,1997.636,1179.271z"></path>
                </g>
                <g>
                  <path fill="gray" d="M1836.889,1373.841c1.022,1.263,1.618,3.115,1.624,5.466
									c0.001,0.504-0.025,1.016-0.076,1.533l-8.664,6.021l0.731-5.875L1836.889,1373.841z"></path>
                </g>
                <g>
                  <polygon fill="gray" points="1826.728 1390.18 1827.446 1384.408 1830.504 1380.986 1829.773 1386.862 1827.956 1388.124 1828.106 1389.636"></polygon>
                </g>
                <g>
                  <path fill="gray" d="M1831.621,1372.004c1.261-0.201,2.411-0.064,3.394,0.378l-3.998,4.474L1831.621,1372.004z"></path>
                </g>
                <g>
                  <polygon fill="gray" points="1997.168 1190.916 1998.935 1191.514 1999.799 1189.756 1999.001 1192.434 1991.073 1201.305 1836.889 1373.842 1830.504 1380.986 1827.446 1384.408 1822.394 1390.062 1821.204 1387.839 1827.96 1380.278 1831.018 1376.856 1835.015 1372.383 1989.872 1199.081"></polygon>
                </g>
                <g>
                  <path fill="gray" d="M1828.106,1389.636l0.149,1.515l9.395-6.528c-1.601,5.144-5.257,10.204-9.516,12.664
									c-5.76,3.326-10.429,0.651-10.448-5.954c-0.019-6.619,4.619-14.667,10.38-17.993c0.273-0.157,0.544-0.302,0.811-0.432
									l-0.917,7.371l-6.756,7.561l1.19,2.222l5.052-5.653l-0.718,5.771L1828.106,1389.636z"></path>
                </g>
                <g>
                  <polygon fill="gray" points="2129.854 799.27 2130.204 810.949 2135.323 982.153 2135.672 993.83 2134.276 994.679 2133.429 993.879 2132.855 994.712 2132.774 991.973 2132.531 983.863 2127.412 812.659 2127.124 803.033 2127.079 801.542 2127.38 801.784 2128.46 800.125"></polygon>
                </g>
                <g>
                  <path fill="gray" d="M1984.775,944.965l-0.521-7.737l5.348,2.123
									C1988.263,941.515,1986.608,943.466,1984.775,944.965z"></path>
                </g>
                <g>
                  <path fill="gray" d="M1992.895,926.682c0.084,0.558,0.128,1.154,0.13,1.786c0.007,2.373-0.589,4.932-1.622,7.393
									l-5.921-2.35L1992.895,926.682z"></path>
                </g>
                <g>
                  <path fill="gray" d="M1976.169,947.594l5.269-8.896l0.546,8.105
									C1979.794,947.91,1977.788,948.134,1976.169,947.594z"></path>
                </g>
                <g>
                  <polygon fill="gray" points="1837.872 935.32 1847.163 935.152 1973.918 932.855 1982.715 932.695 1983.211 932.687 1982.61 934.469 1981.999 936.281 1981.277 936.294 1980.191 936.314 1972.705 936.45 1845.943 938.753 1836.647 938.922"></polygon>
                </g>
                <g>
                  <polygon fill="gray" points="1982.604 934.487 1983.018 935.78 1985.482 933.51 1991.403 935.861 2127.292 989.798 2132.774 991.973 2132.855 994.712 2132.037 995.899 2125.485 993.298 1989.602 939.35 1984.254 937.227 1981.876 936.283"></polygon>
                </g>
                <g>
                  <polygon fill="gray" points="1982.608 934.475 1982.611 934.473 1982.604 934.487"></polygon>
                </g>
                <g>
                  <polygon fill="gray" points="1982.609 934.472 1982.611 934.473 1982.608 934.475"></polygon>
                </g>
                <g>
                  <polygon fill="gray" points="1982.609 934.472 1982.61 934.469 1982.611 934.473"></polygon>
                </g>
                <g>
                  <path fill="gray" d="M1858.519,1155.765l1.408-11.318l6.794,2.3c-1.905,3.721-4.77,7.04-7.981,8.894
									C1858.666,1155.684,1858.593,1155.725,1858.519,1155.765z"></path>
                </g>
                <g>
                  <polygon fill="gray" points="2126.021 800.69 2127.079 801.542 2127.124 803.033 2118.968 810.545 1992.895 926.682 1985.482 933.51 1983.018 935.78 1982.611 934.473 1983.211 932.687 1982.715 932.695 1992.087 924.063 2118.162 807.929"></polygon>
                </g>
                <g>
                  <path fill="gray" d="M1867.096,1131.748c1.273,1.25,2.029,3.263,2.036,5.908c0.005,1.769-0.324,3.64-0.918,5.495
									l-6.557-2.22L1867.096,1131.748z"></path>
                </g>
                <g>
                  <polygon fill="gray" points="1858.225 1143.871 1859.927 1144.447 1858.519 1155.765 1831.621 1372.004 1831.018 1376.856 1827.96 1380.278 1828.877 1372.907 1855.761 1156.863 1857.301 1144.49"></polygon>
                </g>
                <g>
                  <polygon fill="gray" points="1980.191 936.314 1981.277 936.294 1981.438 938.698 1976.169 947.594 1867.096 1131.748 1861.657 1140.931 1859.819 1140.309 1859.745 1139.684 1865.15 1130.557 1974.221 946.394"></polygon>
                </g>
                <g>
                  <polygon fill="gray" points="1859.364 1140.155 1859.819 1140.309 1861.657 1140.931 1868.214 1143.151 1992.581 1185.261 1998.166 1187.152 1999.821 1187.712 2000.355 1187.893 1999.799 1189.756 1998.935 1191.514 1997.168 1190.916 1990.845 1188.775 1866.721 1146.748 1859.927 1144.447 1858.225 1143.871 1857.635 1143.671"></polygon>
                </g>
                <g>
                  <path fill="gray" d="M1972.705,936.45l7.486-0.136l-5.97,10.08c-1.265-1.252-2.016-3.263-2.023-5.902
									C1972.194,939.185,1972.373,937.821,1972.705,936.45z"></path>
                </g>
                <g>
                  <path fill="gray" d="M1865.15,1130.557l-5.405,9.127l-0.957-8.039
									C1861.188,1130.289,1863.396,1129.976,1865.15,1130.557z"></path>
                </g>
                <g>
                  <path fill="gray" d="M1983.451,922.038c3.843-1.851,7.103-0.96,8.636,2.025l-9.372,8.633l-8.798,0.16
									c1.521-3.524,3.931-6.821,6.746-9.048l0.537,6.566l2.779-1.879L1983.451,922.038z"></path>
                </g>
                <g>
                  <path fill="gray" d="M1847.163,935.152l-9.291,0.168l-1.224,3.602l9.296-0.169
									c-1.859,4.291-5.037,8.248-8.65,10.334c-0.075,0.043-0.15,0.085-0.224,0.126l-1.287-10.808l6.782-14.64
									c3.047,0.334,5.096,2.979,5.109,7.344C1847.677,932.416,1847.497,933.779,1847.163,935.152z"></path>
                </g>
                <g>
                  <path fill="gray" d="M1833.195,938.513l1.128,0.304l-1.389,1.005l1.252,10.517
									c-4.237,0.924-7.324-1.843-7.34-7.205c-0.019-6.604,4.632-14.66,10.379-17.978c0.929-0.536,1.83-0.916,2.689-1.148
									L1833.195,938.513z"></path>
                </g>
                <g>
                  <polygon fill="gray" points="1835.712 937.812 1835.783 938.405 1837.069 949.213 1858.788 1131.645 1859.745 1139.684 1859.819 1140.309 1859.364 1140.155 1857.635 1143.671 1858.225 1143.871 1857.335 1144.221 1856.01 1133.644 1834.186 950.338 1832.934 939.821 1834.323 938.816"></polygon>
                </g>
                <g>
                  <path fill="gray" d="M1963.296,675.771l-0.525-6.409l3.752,3.019
									C1965.546,673.65,1964.458,674.801,1963.296,675.771z"></path>
                </g>
                <g>
                  <path fill="gray" d="M1956.041,678.801l3.884-8.384l0.592,7.235
									C1958.903,678.497,1957.384,678.865,1956.041,678.801z"></path>
                </g>
                <g>
                  <path fill="gray" d="M1970.938,656.154c0.298,0.939,0.46,2.023,0.463,3.243c0.009,3.124-1.027,6.572-2.731,9.691
									l-5.448-4.383L1970.938,656.154z"></path>
                </g>
                <g>
                  <polygon fill="gray" points="1961.054 667.98 1962.771 669.362 1963.296 675.771 1983.451 922.038 1983.98 928.493 1981.201 930.373 1980.664 923.807 1960.517 677.652 1959.925 670.417"></polygon>
                </g>
                <g>
                  <polygon fill="gray" points="1963.221 664.705 1968.67 669.088 2122.903 793.163 2127.05 796.499 2129.525 798.49 2128.46 800.125 2127.38 801.784 2126.021 800.69 2120.759 796.458 1966.524 672.381 1962.771 669.362 1961.054 667.98 1961.886 666.184"></polygon>
                </g>
                <g>
                  <polygon fill="gray" points="1959.853 665.108 1960.977 665.404 1962.109 665.702 1961.054 667.98 1959.925 670.417 1956.041 678.801 1842.564 923.765 1835.783 938.405 1835.712 937.812 1834.323 938.816 1833.195 938.513 1839.914 924.007 1953.785 678.206"></polygon>
                </g>
                <g>
                  <path fill="gray" d="M1969.759,653.91l-9.367,10.38l0.585,1.114l-1.124-0.296l-6.068,13.098
									c-1.977-1.04-3.214-3.391-3.224-6.778c-0.019-6.619,4.632-14.674,10.38-17.993
									C1964.644,651.298,1967.9,651.637,1969.759,653.91z"></path>
                </g>
                <g>
                  <polygon fill="gray" points="2126.958 479.709 2127.547 480.831 2128.136 481.953 2126.165 484.138 2118.773 492.329 1970.938 656.154 1963.221 664.705 1961.886 666.184 1960.977 665.404 1960.392 664.29 1969.759 653.91 2117.592 490.088"></polygon>
                </g>
              </g>
              <g>
                <path fill="gray" d="M1848.293,1149.688c-0.016-5.547,3.262-12.116,7.717-16.044l1.291,10.846l-1.54,12.373
								C1851.459,1157.875,1848.308,1155.115,1848.293,1149.688z"></path>
              </g>
              <g>
                <g>
                  <path fill="gray" d="M2127.029,789.066l0.021,7.433l-4.147-3.336
									C2124.129,791.57,2125.528,790.164,2127.029,789.066z"></path>
                </g>
                <g>
                  <path fill="gray" d="M2120.759,796.458l5.262,4.233l-7.859,7.239c-0.083-0.555-0.128-1.148-0.129-1.777
									C2118.024,803.025,2119.058,799.576,2120.759,796.458z"></path>
                </g>
              </g>
              <g>
                <path fill="gray" d="M2008.856,1178.645c0.858,1.243,1.351,2.965,1.357,5.098c0.001,0.214-0.004,0.43-0.013,0.647
								l-5.689,0.558L2008.856,1178.645z"></path>
              </g>
              <g>
                <polygon fill="gray" points="2128.949 480.022 2128.983 491.88 2129.821 787.454 2129.854 799.27 2128.46 800.125 2129.525 798.49 2127.05 796.499 2127.029 789.066 2126.191 493.492 2126.165 484.138 2128.136 481.953 2127.547 480.831"></polygon>
              </g>
            </g>
          </g>
          <g>
            <ellipse cx="1722.262" cy="2547.284" opacity=".1" rx="268.192" ry="172.941" transform="rotate(-4.704 1721.921 2546.827)"></ellipse>
            <g>
              <g>
                <g>
                  <path fill="#edc3aa" d="M1671.366,1116.784c6.563,2.364,14.795,10.218,17.381,9.887
									c0.256-0.2-0.082-8.826-5.962-16.499c-5.94-7.751-17.418-14.579-16.343-20.238c2.492-13.116,28.211-21.467,32.24-22.243
									c14.988-2.887,27.09,8.145,35.289,16.464c9.188,9.322,13.12,25.303,13.778,34.017c0.433,5.74,3.798,24.124,11.022,29.502
									c15.526,11.557-24.628,22.394-32.234,19.273c-7.225-2.964-11.049-5.212-15.239-5.502
									c-14.494-1.001-30.343-13.889-32.176-17.313c-4.015-7.5-16.021-16.156-21.399-18.734c-1.416-0.679-2.086-2.382-1.384-3.787
									C1658.503,1117.279,1663.066,1113.794,1671.366,1116.784z"></path>
                </g>
                <g>
                  <path fill="#d15151" d="M1855.861,1323.953c-5.495,18.607-38.598,33.905-57.077,19.796
									c-14.394-10.99-94.203-171.042-94.203-171.042c-0.308-24.43,37.191-40.039,55.45-32.066
									C1760.031,1140.642,1858.984,1313.38,1855.861,1323.953z"></path>
                </g>
                <g>
                  <path fill="#d15151" d="M1923.252,1572.481c-2.873,17.147-62.449,7.798-73.374-22.523
									c-17.248-47.872-51.675-193.275-50.441-204.727c2.491-23.116,34.029-36.685,54.419-25.515
									C1862.593,1324.502,1927.539,1546.891,1923.252,1572.481z"></path>
                </g>
              </g>
              <g>
                <g>
                  <g>
                    <g>
                      <g>
                        <path fill="#594432" d="M1856.345,2534.656c-0.892,1.761-1.416,7.553-1.888,10.292
												c21.796,17.562,48.877,31.019,70.065,25.123c18.367-5.111,21.121-20.626,17.798-35.603L1856.345,2534.656z"></path>
                        <path fill="#594432" d="M1925.684,2566.442c-26.616,7.406-68.789-27.28-88.932-45.486
												c-19.486-17.613-38.337-24.641-49.073-38.501c-9.001-11.621-10.11-25.266-6.859-39.994
												c8.578-38.853,47.233-5.492,96.14,29.944c31.411,22.759,52.077,24.725,61.873,43.493
												C1946.973,2531.493,1949.828,2559.723,1925.684,2566.442z"></path>
                        <path fill="#211913" d="M1925.825,2557.65c-26.616,7.406-64.884-23.526-85.964-41.339
												c-20.063-16.953-40.287-27.529-51.023-41.39c-9.001-11.621-10.822-22.456-7.571-37.184
												c8.578-38.853,48.801-7.315,97.708,28.12c31.411,22.759,52.077,24.725,61.873,43.493
												C1948.987,2524.947,1949.968,2550.931,1925.825,2557.65z"></path>
                      </g>
                      <path fill="#005a8c" d="M1858.559,2489.292c10.179,54.755,79.285,70.493,88.096,29.966
											c1.119-5.147-3.11-507.192-3.11-507.192l-123.895,23.289C1819.65,2035.355,1855.115,2470.765,1858.559,2489.292z"></path>
                      <g>
                        <path fill="#594432" d="M1608.953,2636.092c7.399,6.65,66.299,27.23,82.997-0.99
												c2.501-4.226,1.573-17.982,1.573-17.982l-86.573,3.827L1608.953,2636.092z"></path>
                        <path fill="#594432" d="M1686.921,2629.436c-16.576,20.418-43.171,7.375-84.456-0.444
												c-46.951-8.893-67.824-6.088-96.297-30.876c-18.337-15.963-30.626-51.813-13.053-51.777
												c37.501,0.079,45.967,12.811,103.701,26.594c37.73,9.007,61.028-2.451,79.764,7.408
												C1691.214,2588.04,1700.562,2612.635,1686.921,2629.436z"></path>
                        <path fill="#211913" d="M1683.06,2630.369c-24.35,13.05-46.135,1.462-84.926-8.007
												c-46.911-11.451-57.172-9.241-88.419-30.425c-21.524-14.592-38.477-49.527-14.762-50.297
												c37.482-1.218,44.753,3.528,102.488,17.311c37.73,9.007,70.728,5.816,85.647,20.837
												C1695.487,2592.27,1700.437,2621.057,1683.06,2630.369z"></path>
                      </g>
                      <path fill="#0074b3" d="M1593.979,2571.001c-1.128,42.308,74.041,68.293,98.193,34.578
											c3.657-5.105,49.661-278.406,49.661-278.406l135.853-256.779l-130.099-46.015c0,0-96.708,225.808-105.62,270.369
											C1633.909,2335.033,1594.211,2562.307,1593.979,2571.001z"></path>
                      <g>
                        <path fill="#f7cdb3" d="M1849.347,1532.278c15.637-26.333,46.181-37.768,61.414-74.172
												c26.502-63.331,21.364-76.563-20.486-94.075c-35.314-14.778-104.83-4.348-122.268,46.252
												c-10.646,30.893-29.93,89.104-11.957,108.157c11.172,11.843,30.839-1.98,33.421,4.184
												C1791.552,1527.585,1845.714,1538.396,1849.347,1532.278z"></path>
                        <path fill="#e3bba3" d="M1778.425,1521.938c4.478,2.582,0.28,24.919,0.066,34.259
												c-0.161,7.032-0.246,13.793,0.438,17.518l90.477-4.487c4.001-3.606,2.915-27.883-7.977-29.446
												c0.426-3.199,6.465-52.4,13.409-92.54c-23.17,24.091-45.231,9.785-54.558,38.337
												C1810.1,1516.742,1787.716,1518.138,1778.425,1521.938z"></path>
                        <path fill="#4f3824" d="M1931.702,1405.091c-7.968-86.058-133.716-91.492-147.24-71.039
												c-21.324,32.25-7.198,21.301-6.773,37.192c-1.795,8.044,2.628,15.156,5.186,17.503c8.127,7.459,9.699-12.062,21.849-4.76
												c6.536,3.927-0.851,26.127-2.592,44.526l9.948,11.227c1.963-5.536,14.877-13.785,16.424-5.489
												c1.031,5.528-5.907,20.711-3.784,32.675c4.431,24.973,20.055,43.029,24.397,55.442
												c8.848-7.023,23.883-12.987,31.515-21.096C1896.833,1484.058,1934.455,1434.823,1931.702,1405.091z"></path>
                      </g>
                      <path fill="#fff" d="M1866.196,1507.14c-25.571-2.885-70.375,32.028-89.187,49.586
											c-8.669,8.091-20.947,41.361-18.494,65.884c13.255-17.939,31.335-50.504,49.124-54.903
											c34.947-8.642,64.115-24.112,72.422-33.062c2.052-2.21,2.802-5.165,0.174-6.643
											C1876.7,1526.012,1870.791,1507.658,1866.196,1507.14z"></path>
                      <path fill="#e65959" d="M1905.493,1529.007c66.687,16.097,65.467,211.867,41.349,330.848
											c-16.771,82.738,3.214,135.816,2.404,147.081c-8.182,18.055-12.268,46.547-54.734,57.585
											c-85.337,22.18-138.569-15.07-156.751-42.544c-0.85-21.806,17.295-52.953,16.771-120.753
											c-0.567-73.288-2.286-112.92-11.181-149.823c-11.383-47.227-24.871-109.141-5.998-136.271
											C1754.144,1590.993,1852.519,1516.22,1905.493,1529.007z"></path>
                    </g>
                  </g>
                </g>
              </g>
              <g>
                <g>
                  <path fill="#edc3aa" d="M1417.317,1333.273c-0.611,6.865,3.004,17.51,1.632,19.691
									c-0.575,0.293-4.352-33.93-15.335-36.696c-12.792-3.222-30.973,16.355-33.345,19.643
									c-8.821,12.232-12.281,29.093-8.235,39.901c4.533,12.112,17.222,22.284,24.758,26.498
									c4.965,2.776,20.042,13.438,21.857,22.151c3.901,18.723,32.212-13.421,32.579-21.536c0.349-7.708-1.974-11.409-0.491-15.284
									c5.131-13.407,0.172-32.973-2.135-36.04c-5.052-6.719-7.816-21.079-7.89-26.971c-0.019-1.551-1.268-2.86-2.818-2.816
									C1423.11,1321.95,1418.089,1324.59,1417.317,1333.273z"></path>
                </g>
                <g>
                  <path fill="#d15151" d="M1528.343,1579.951c19.305,1.938,45.97-22.937,39.884-45.375
									c-4.74-17.478-114.995-141.496-114.995-141.496c-22.504-9.511-51.118,19.317-50.631,39.235
									C1402.601,1432.315,1517.373,1578.849,1528.343,1579.951z"></path>
                </g>
                <g>
                  <path fill="#d15151" d="M1752.762,1688.352c17.381-0.411,29.728-67.099,1.263-82.214
									c-44.942-23.865-183.99-78.57-195.501-78.973c-23.235-0.813-41.142,28.481-32.977,50.249
									C1529.045,1586.742,1726.823,1688.966,1752.762,1688.352z"></path>
                </g>
              </g>
            </g>
          </g>
        </g>
      </g>
    </g>
  </switch>
</svg>
