<svg xmlns="http://www.w3.org/2000/svg" xmlns:xlink="http://www.w3.org/1999/xlink" viewBox="0 0 1159 771" id="cyber-security">
  <defs>
    <linearGradient id="a" x1="684.33" x2="903.43" y1="335.43" y2="335.43" gradientUnits="userSpaceOnUse">
      <stop offset="0" stop-color="#fe597d"></stop>
      <stop offset=".68" stop-color="#ff7693"></stop>
      <stop offset="1" stop-color="#ff869f"></stop>
    </linearGradient>
    <linearGradient id="l" x1="696.87" x2="904.86" y1="335.43" y2="335.43" gradientUnits="userSpaceOnUse">
      <stop offset="0" stop-color="#ff869f"></stop>
      <stop offset=".32" stop-color="#ff7693"></stop>
      <stop offset="1" stop-color="#fe597d"></stop>
    </linearGradient>
    <linearGradient xlink:href="#a" id="m" x1="720.82" x2="881.02" y1="335.43" y2="335.43"></linearGradient>
    <linearGradient id="b" x1="781.08" x2="824.71" y1="299.31" y2="299.31" gradientUnits="userSpaceOnUse">
      <stop offset="0" stop-color="#f2f2f2"></stop>
      <stop offset="1" stop-color="#fff"></stop>
    </linearGradient>
    <linearGradient id="c" x1="783.34" x2="826.97" y1="299.32" y2="299.32" gradientUnits="userSpaceOnUse">
      <stop offset="0" stop-color="#fff"></stop>
      <stop offset="1" stop-color="#f2f2f2"></stop>
    </linearGradient>
    <linearGradient xlink:href="#b" id="n" x1="765.9" x2="831.6" y1="338.16" y2="338.16"></linearGradient>
    <linearGradient xlink:href="#c" id="o" x1="772.01" x2="837.71" y1="338.21" y2="338.21"></linearGradient>
    <linearGradient id="d" x1="217.69" x2="514.49" y1="326.67" y2="326.67" gradientUnits="userSpaceOnUse">
      <stop offset="0" stop-color="#7937d2"></stop>
      <stop offset="1" stop-color="#c66bec"></stop>
    </linearGradient>
    <linearGradient id="e" x1="239.39" x2="536.19" y1="326.67" y2="326.67" gradientUnits="userSpaceOnUse">
      <stop offset="0" stop-color="#c66bec"></stop>
      <stop offset="1" stop-color="#7937d2"></stop>
    </linearGradient>
    <linearGradient xlink:href="#d" id="p" x1="217.69" x2="514.49" y1="438.09" y2="438.09"></linearGradient>
    <linearGradient xlink:href="#e" id="q" x1="239.39" x2="536.19" y1="438.09" y2="438.09"></linearGradient>
    <linearGradient xlink:href="#d" id="u" x1="217.69" x2="514.49" y1="544.99" y2="544.99"></linearGradient>
    <linearGradient xlink:href="#e" id="v" x1="239.39" x2="536.19" y1="544.99" y2="544.99"></linearGradient>
    <linearGradient xlink:href="#d" id="z" x1="217.69" x2="514.49" y1="656.41" y2="656.41"></linearGradient>
    <linearGradient xlink:href="#e" id="A" x1="239.39" x2="536.19" y1="656.41" y2="656.41"></linearGradient>
    <linearGradient xlink:href="#e" id="E" x1="-958.87" x2="-926.73" y1="230.54" y2="121.38" gradientTransform="matrix(.71 -.67 .66 .74 1204.91 -277.08)"></linearGradient>
    <linearGradient xlink:href="#e" id="F" x1="661.86" x2="571.76" y1="549.65" y2="753.62" gradientTransform="rotate(10.14 1208.86 449.738)"></linearGradient>
    <linearGradient id="G" x1="-1589.35" x2="-1598.9" y1="655.07" y2="676.67" gradientTransform="matrix(-1.09 -.06 -.06 1 -1108.13 -337.8)" gradientUnits="userSpaceOnUse">
      <stop offset="0" stop-color="#ee5f56"></stop>
      <stop offset="1" stop-color="#fd8b71"></stop>
    </linearGradient>
    <linearGradient id="j" x1="-1069.22" x2="-1001.1" y1="947.32" y2="947.32" gradientTransform="matrix(-.96 .27 .27 .96 -605.68 76.74)" gradientUnits="userSpaceOnUse">
      <stop offset="0" stop-color="#ff7c42"></stop>
      <stop offset="1" stop-color="#ffb905"></stop>
    </linearGradient>
    <linearGradient xlink:href="#h" id="J" x1="614.97" x2="679.25" y1="714.37" y2="714.37"></linearGradient>
    <linearGradient id="i" x1="-1060.68" x2="-1004.57" y1="952.25" y2="952.25" gradientTransform="matrix(-.96 .27 .27 .96 -605.68 76.74)" gradientUnits="userSpaceOnUse">
      <stop offset="0" stop-color="#fff"></stop>
      <stop offset="1" stop-color="#e6e5ea"></stop>
    </linearGradient>
    <linearGradient xlink:href="#i" id="K" x1="-1046.59" x2="-1037.21" y1="945.19" y2="945.19"></linearGradient>
    <linearGradient xlink:href="#i" id="L" x1="-1053.91" x2="-1044.54" y1="942.97" y2="942.97"></linearGradient>
    <linearGradient xlink:href="#j" id="M" x1="738.71" x2="806.83" y1="710.21" y2="710.21"></linearGradient>
    <linearGradient xlink:href="#h" id="N" x1="736.45" x2="803.22" y1="710.89" y2="710.89"></linearGradient>
    <linearGradient xlink:href="#i" id="O" x1="747.25" x2="803.36" y1="715.14" y2="715.14"></linearGradient>
    <linearGradient xlink:href="#i" id="P" x1="761.34" x2="770.72" y1="708.08" y2="708.08"></linearGradient>
    <linearGradient xlink:href="#i" id="Q" x1="754.02" x2="763.39" y1="705.87" y2="705.87"></linearGradient>
    <linearGradient xlink:href="#e" id="R" x1="-530.24" x2="-498.1" y1="614.89" y2="505.73" gradientTransform="matrix(.98 .01 -.03 .99 1068.11 -69.28)"></linearGradient>
    <linearGradient id="S" x1="1120.16" x2="1168.38" y1="647.39" y2="647.39" gradientTransform="matrix(-.98 -.19 -.21 1.13 1898.25 73.47)" gradientUnits="userSpaceOnUse">
      <stop offset="0" stop-color="#fd8b71"></stop>
      <stop offset="1" stop-color="#ee5f56"></stop>
    </linearGradient>
    <linearGradient id="T" x1="942.26" x2="1127.74" y1="565.94" y2="565.94" gradientTransform="matrix(-1 0 0 1 1808.57 0)" gradientUnits="userSpaceOnUse">
      <stop offset="0" stop-color="#f2f2f2"></stop>
      <stop offset="1" stop-color="#e0e0e0"></stop>
    </linearGradient>
    <linearGradient xlink:href="#c" id="U" x1="936.4" x2="1121.88" y1="565.94" y2="565.94" gradientTransform="matrix(-1 0 0 1 1808.57 0)"></linearGradient>
    <linearGradient id="V" x1="997.89" x2="1054.87" y1="565.94" y2="565.94" gradientTransform="matrix(-1 0 0 1 1808.57 0)" gradientUnits="userSpaceOnUse">
      <stop offset="0" stop-color="#abb5bc"></stop>
      <stop offset="1" stop-color="#e0e0e0"></stop>
    </linearGradient>
    <linearGradient id="W" x1="1121.88" x2="1205.07" y1="605.63" y2="605.63" gradientTransform="matrix(-1 0 0 1 1808.57 0)" gradientUnits="userSpaceOnUse">
      <stop offset="0" stop-color="#e0e0e0"></stop>
      <stop offset="1" stop-color="#f2f2f2"></stop>
    </linearGradient>
    <linearGradient id="k" x1="668.31" x2="547.87" y1="127.87" y2="229.09" gradientUnits="userSpaceOnUse">
      <stop offset="0" stop-color="#ff922c"></stop>
      <stop offset="1" stop-color="#ffc23b"></stop>
    </linearGradient>
    <linearGradient xlink:href="#k" id="X" x1="564.13" x2="521.39" y1="166.05" y2="201.96"></linearGradient>
    <linearGradient id="Y" x1="640.2" x2="640.2" y1="186.4" y2="182.83" gradientUnits="userSpaceOnUse">
      <stop offset="0" stop-color="#ff922c"></stop>
      <stop offset="1" stop-color="#e56e0c"></stop>
    </linearGradient>
    <linearGradient xlink:href="#e" id="Z" x1="476.86" x2="488.42" y1="184.42" y2="184.42"></linearGradient>
    <linearGradient xlink:href="#e" id="aa" x1="452.77" x2="464.33" y1="184.42" y2="184.42"></linearGradient>
    <linearGradient xlink:href="#e" id="ab" x1="428.67" x2="440.23" y1="184.42" y2="184.42"></linearGradient>
    <linearGradient xlink:href="#e" id="ac" x1="404.58" x2="416.14" y1="184.42" y2="184.42"></linearGradient>
    <linearGradient xlink:href="#e" id="ad" x1="380.48" x2="392.04" y1="184.42" y2="184.42"></linearGradient>
    <linearGradient xlink:href="#e" id="ae" x1="380.48" x2="392.04" y1="208.68" y2="208.68"></linearGradient>
    <linearGradient xlink:href="#e" id="af" x1="380.48" x2="392.04" y1="232.93" y2="232.93"></linearGradient>
    <linearGradient xlink:href="#e" id="ag" x1="380.48" x2="392.04" y1="257.18" y2="257.18"></linearGradient>
    <radialGradient id="f" cx="278.23" cy="310.63" r="7.45" gradientUnits="userSpaceOnUse">
      <stop offset="0" stop-color="#ffc74a"></stop>
      <stop offset="1" stop-color="#f9863f"></stop>
    </radialGradient>
    <radialGradient id="g" cx="306.13" cy="310.63" r="7.45" gradientUnits="userSpaceOnUse">
      <stop offset="0" stop-color="#b6d151"></stop>
      <stop offset="1" stop-color="#72af25"></stop>
    </radialGradient>
    <radialGradient id="h" cx="335.45" cy="312.9" r="7.46" gradientUnits="userSpaceOnUse">
      <stop offset="0" stop-color="#fd4362"></stop>
      <stop offset="1" stop-color="#da123d"></stop>
    </radialGradient>
    <radialGradient xlink:href="#f" id="r" cx="278.23" cy="422.05" r="7.45"></radialGradient>
    <radialGradient xlink:href="#g" id="s" cx="306.13" cy="422.05" r="7.45"></radialGradient>
    <radialGradient xlink:href="#h" id="t" cx="335.45" cy="424.32" r="7.46"></radialGradient>
    <radialGradient xlink:href="#f" id="w" cx="278.23" cy="528.95" r="7.45"></radialGradient>
    <radialGradient xlink:href="#g" id="x" cx="306.13" cy="528.95" r="7.45"></radialGradient>
    <radialGradient xlink:href="#h" id="y" cx="335.45" cy="531.22" r="7.46"></radialGradient>
    <radialGradient xlink:href="#f" id="B" cx="278.23" cy="640.37" r="7.45"></radialGradient>
    <radialGradient xlink:href="#g" id="C" cx="306.13" cy="640.37" r="7.45"></radialGradient>
    <radialGradient xlink:href="#h" id="D" cx="335.45" cy="642.64" r="7.46"></radialGradient>
    <clipPath id="H">
      <path fill="none" d="M620.33,383c-.34,9.31-20.48,6.38-17.74-2.9C604.88,372.25,620.91,374.44,620.33,383Z"></path>
    </clipPath>
    <clipPath id="I">
      <path fill="none" d="M630.4,384c-.65,8.58,15.5,7.31,14.3-1C643.8,375.59,630.57,376.73,630.4,384Z"></path>
    </clipPath>
  </defs>
  <path fill="#f6e9ff" d="M120.83,215.28C-11.47,388,15.66,726.82,382.41,737.45,460.3,739.7,527.06,672,608,670.41c204.6-4.13,427.93,105.81,485.32-38.12,92-230.59-206.53-266.53-266.64-444.73S335.3-64.65,120.83,215.28Z"></path>
  <path fill="#e6cafc" d="M943.34,529.73,948.78,512l-10.92-4.4a46.69,46.69,0,0,0-1.57-16.23l9.88-6.39-8.72-16.4-10.83,4.61A46.6,46.6,0,0,0,914,462.76l2.46-11.51-17.78-5.43-4.4,10.91a47.22,47.22,0,0,0-16.23,1.57l-6.4-9.87-16.39,8.72L859.9,468a46.91,46.91,0,0,0-10.37,12.58L838,478.1l-5.43,17.77,10.91,4.41a47.16,47.16,0,0,0,1.57,16.22l-9.88,6.4,8.73,16.4,10.82-4.61a47.26,47.26,0,0,0,12.58,10.38l-2.46,11.5L882.64,562,887,551.1a47.14,47.14,0,0,0,16.23-1.57l6.4,9.87,16.4-8.72-4.61-10.82a47.19,47.19,0,0,0,10.37-12.58ZM880.87,536c-42-13.61-22.77-76.34,19.62-64.17C942.44,485.44,923.26,548.17,880.87,536Z"></path>
  <path fill="url(#a)" d="M903.43,249.5h-13c-28.1,6.62-65.39-4.21-82.78-17L800.88,217h-13c-.36.36-36.13,38-89.11,34.34l-.58-1.79h-13c-3.95,60.32-.1,157.71,102.65,204.42h13l4.14-8.25c78.39-43.34,87.35-131.38,86.86-173.16Z"></path>
  <path fill="url(#l)" d="M696.87,275.53c0,45.82,11.89,140,104,178.39C925,402.16,903.43,249.5,903.43,249.5,860.1,263.08,800.5,221.34,800.88,217c-.39.39-42.3,44.45-102.64,32.55A214.89,214.89,0,0,0,696.87,275.53Zm25-6.24c32.81,10.52,79.64-21.79,79-25.05.29.29,32.66,34.22,79.06,25.05,0,0,16.47,117.56-79.06,157.33C705.35,386.85,721.92,269.29,721.92,269.29Z"></path>
  <path fill="url(#m)" d="M800.88,426.62c95.53-39.77,79.06-157.33,79.06-157.33-46.4,9.17-78.77-24.76-79.06-25.05-.06,3.69-45.64,35.36-79,25.05C721.92,269.29,705.35,386.85,800.88,426.62Z"></path>
  <path fill="url(#b)" d="M781.25,297.44c.13-14.07,13.55-19.21,25.74-17.51,21.45.72,17.44,24.39,17.4,39.07l-43.31-.35Zm37.69.3c0-11.08-11-13.12-19.88-12.25-14.75-.12-12.18,17.77-12.31,27.58l32.06.26Z"></path>
  <path fill="url(#c)" d="M783.51,297.46c.13-14.07,13.56-19.21,25.74-17.52,21.45.73,17.44,24.4,17.41,39.08l-43.32-.35Zm37.69.3c.06-11.08-11-13.12-19.88-12.25-14.74-.12-12.17,17.77-12.31,27.58l32.07.25Z"></path>
  <path fill="url(#n)" d="M773.9,370.61l49.18.4a8.08,8.08,0,0,0,8.13-8l.39-49.18a8.06,8.06,0,0,0-8-8.12l-49.18-.4a8.06,8.06,0,0,0-8.12,8l-.4,49.18A8.06,8.06,0,0,0,773.9,370.61Z"></path>
  <path fill="url(#o)" d="M780,370.66l49.18.4a8.08,8.08,0,0,0,8.13-8l.39-49.18a8.07,8.07,0,0,0-8-8.13l-49.18-.39a8.06,8.06,0,0,0-8.12,8l-.4,49.18A8.06,8.06,0,0,0,780,370.66Z"></path>
  <path fill="#564466" d="M797.36,354.37l4.73-16.61a8.61,8.61,0,0,1-3.82-7.22c0-4.75-3.71-9,8.68-8.54,8.37-.06,11.66,11.59,4.61,15.83L816,354.52Z"></path>
  <path fill="#372842" d="M793.45,354.34l4.72-16.61c-7-4.31-3.49-16.12,4.87-15.76,8.36-.23,11.65,11.64,4.61,15.83l4.45,16.69Z"></path>
  <rect width="306.13" height="12.42" x="223.16" y="374.18" fill="#6428bb"></rect>
  <rect width="306.13" height="12.42" x="223.16" y="487.29" fill="#6428bb"></rect>
  <rect width="296.8" height="103" x="217.69" y="275.17" fill="url(#d)" rx="5.74"></rect>
  <rect width="296.8" height="103" x="239.39" y="275.17" fill="url(#e)" rx="5.74"></rect>
  <path fill="url(#f)" d="M287.2,312.9c.14-9.81-15.27-9.81-15.13,0C271.93,322.72,287.34,322.72,287.2,312.9Z"></path>
  <path fill="url(#g)" d="M315.1,312.9c.15-9.81-15.27-9.81-15.12,0C299.83,322.72,315.25,322.72,315.1,312.9Z"></path>
  <path fill="url(#h)" d="M343,312.9c.14-9.81-15.27-9.81-15.13,0C327.74,322.72,343.15,322.72,343,312.9Z"></path>
  <path fill="#6428bb" d="M522.63,370.34H253a4.09,4.09,0,0,1-4.09-4.08v-79a4.09,4.09,0,0,1,4.09-4.09H522.63a4.09,4.09,0,0,1,4.09,4.09v79A4.09,4.09,0,0,1,522.63,370.34ZM253,285.59a1.71,1.71,0,0,0-1.71,1.71v79c-.41,4.87,269.72.06,271.4,1.7a1.7,1.7,0,0,0,1.7-1.7v-79a1.72,1.72,0,0,0-1.71-1.71Z"></path>
  <path fill="#6428bb" d="M431 359.76V294.25c-.43-.94 7.54-.18 7.73-.42 1.21-.11 0 65.53.42 65.93.43.94-7.54.18-7.73.42A.42.42 0 0 1 431 359.76ZM452.77 359.76V294.25c-.43-.94 7.54-.18 7.73-.42 1.21-.11 0 65.53.42 65.93.43.94-7.54.18-7.74.42A.41.41 0 0 1 452.77 359.76ZM474.5 359.76V294.25c-.44-.94 7.54-.18 7.73-.42 1.2-.11 0 65.53.42 65.93.43.94-7.54.18-7.74.42A.41.41 0 0 1 474.5 359.76ZM496.22 359.76V294.25c-.43-.94 7.54-.18 7.74-.42 1.2-.11 0 65.53.41 65.93.43.94-7.53.18-7.73.42A.42.42 0 0 1 496.22 359.76ZM407.09 344.66H272.5c-1.09.41-.1-7.5-.43-7.72-.15-1.29 134.63 0 135-.43 1.08-.41.1 7.5.42 7.72A.42.42 0 0 1 407.09 344.66Z"></path>
  <path fill="#281f49" d="M407.12,336.51h-2.79a.4.4,0,0,1,.4.4c-.17.2.44,8.18-.4,7.75.37-.16,3.27.4,3.18-.4C407.34,344.07,408,336.08,407.12,336.51Z" opacity=".21"></path>
  <rect width="296.8" height="103" x="217.69" y="386.59" fill="url(#p)" rx="5.74"></rect>
  <rect width="296.8" height="103" x="239.39" y="386.59" fill="url(#q)" rx="5.74"></rect>
  <path fill="url(#r)" d="M287.2,424.32c.14-9.81-15.27-9.81-15.13,0C271.93,434.14,287.34,434.14,287.2,424.32Z"></path>
  <path fill="url(#s)" d="M315.1,424.32c.15-9.81-15.27-9.81-15.12,0C299.83,434.14,315.25,434.14,315.1,424.32Z"></path>
  <path fill="url(#t)" d="M343,424.32c.14-9.81-15.27-9.81-15.13,0C327.74,434.14,343.15,434.14,343,424.32Z"></path>
  <path fill="#6428bb" d="M522.63,481.76H253a4.09,4.09,0,0,1-4.09-4.08v-79a4.09,4.09,0,0,1,4.09-4.09H522.63a4.09,4.09,0,0,1,4.09,4.09v79A4.09,4.09,0,0,1,522.63,481.76ZM253,397a1.71,1.71,0,0,0-1.71,1.71v79c-.41,4.87,269.72.06,271.4,1.7a1.7,1.7,0,0,0,1.7-1.7v-79a1.72,1.72,0,0,0-1.71-1.71Z"></path>
  <path fill="#6428bb" d="M431 471.18V405.67c-.43-.94 7.54-.18 7.73-.42 1.21-.11 0 65.53.42 65.93.43.94-7.54.18-7.73.42A.42.42 0 0 1 431 471.18ZM452.77 471.18V405.67c-.43-.94 7.54-.18 7.73-.42 1.21-.11 0 65.53.42 65.93.43.94-7.54.18-7.74.42A.41.41 0 0 1 452.77 471.18ZM474.5 471.18V405.67c-.44-.94 7.54-.18 7.73-.42 1.2-.11 0 65.53.42 65.93.43.94-7.54.18-7.74.42A.41.41 0 0 1 474.5 471.18ZM496.22 471.18V405.67c-.43-.94 7.54-.18 7.74-.42 1.2-.11 0 65.53.41 65.93.43.94-7.53.18-7.73.42A.42.42 0 0 1 496.22 471.18ZM407.09 456.08H272.5c-1.09.41-.1-7.5-.43-7.72-.15-1.29 134.63 0 135-.43 1.08-.41.1 7.5.42 7.72A.42.42 0 0 1 407.09 456.08Z"></path>
  <path fill="#281f49" d="M407.12,447.93h-2.79a.4.4,0,0,1,.4.4c-.17.2.44,8.18-.4,7.75.37-.16,3.27.39,3.18-.4C407.34,455.49,408,447.5,407.12,447.93Z" opacity=".21"></path>
  <rect width="306.13" height="12.42" x="223.16" y="592.5" fill="#6428bb"></rect>
  <rect width="296.8" height="103" x="217.69" y="493.49" fill="url(#u)" rx="5.74"></rect>
  <rect width="296.8" height="103" x="239.39" y="493.49" fill="url(#v)" rx="5.74"></rect>
  <path fill="url(#w)" d="M287.2,531.22c.14-9.81-15.27-9.81-15.13,0C271.93,541,287.34,541,287.2,531.22Z"></path>
  <path fill="url(#x)" d="M315.1,531.22c.15-9.81-15.27-9.81-15.12,0C299.83,541,315.25,541,315.1,531.22Z"></path>
  <path fill="url(#y)" d="M343,531.22c.14-9.81-15.27-9.81-15.13,0C327.74,541,343.15,541,343,531.22Z"></path>
  <path fill="#6428bb" d="M522.63,588.66H253a4.09,4.09,0,0,1-4.09-4.08v-79a4.09,4.09,0,0,1,4.09-4.09H522.63a4.09,4.09,0,0,1,4.09,4.09v79A4.09,4.09,0,0,1,522.63,588.66ZM253,503.91a1.71,1.71,0,0,0-1.71,1.71v79c-.41,4.88,269.72.06,271.4,1.71a1.72,1.72,0,0,0,1.7-1.71v-79a1.72,1.72,0,0,0-1.71-1.71Z"></path>
  <path fill="#6428bb" d="M431 578.08V512.57c-.43-.94 7.54-.18 7.73-.42 1.21-.11 0 65.54.42 65.93.43.94-7.54.18-7.73.42A.42.42 0 0 1 431 578.08ZM452.77 578.08V512.57c-.43-.94 7.54-.18 7.73-.42 1.21-.11 0 65.54.42 65.93.43.94-7.54.18-7.74.42A.41.41 0 0 1 452.77 578.08ZM474.5 578.08V512.57c-.44-.94 7.54-.18 7.73-.42 1.2-.11 0 65.54.42 65.93.43.94-7.54.18-7.74.42A.41.41 0 0 1 474.5 578.08ZM496.22 578.08V512.57c-.43-.94 7.54-.18 7.74-.42 1.2-.11 0 65.54.41 65.93.43.94-7.53.18-7.73.42A.42.42 0 0 1 496.22 578.08ZM407.09 563H272.5c-1.09.41-.1-7.5-.43-7.72-.15-1.28 134.63 0 135-.43 1.08-.41.1 7.5.42 7.72A.42.42 0 0 1 407.09 563Z"></path>
  <path fill="#281f49" d="M407.12,554.83h-2.79a.4.4,0,0,1,.4.4c-.17.2.44,8.18-.4,7.75.37-.16,3.27.4,3.18-.4C407.34,562.39,408,554.4,407.12,554.83Z" opacity=".21"></path>
  <rect width="296.8" height="103" x="217.69" y="604.91" fill="url(#z)" rx="5.74"></rect>
  <rect width="296.8" height="103" x="239.39" y="604.91" fill="url(#A)" rx="5.74"></rect>
  <path fill="url(#B)" d="M287.2,642.64c.14-9.81-15.27-9.81-15.13,0C271.93,652.46,287.34,652.46,287.2,642.64Z"></path>
  <path fill="url(#C)" d="M315.1,642.64c.15-9.81-15.27-9.81-15.12,0C299.83,652.46,315.25,652.46,315.1,642.64Z"></path>
  <path fill="url(#D)" d="M343,642.64c.14-9.81-15.27-9.81-15.13,0C327.74,652.46,343.15,652.46,343,642.64Z"></path>
  <path fill="#6428bb" d="M522.63,700.08H253a4.09,4.09,0,0,1-4.09-4.08V617A4.09,4.09,0,0,1,253,613H522.63a4.09,4.09,0,0,1,4.09,4.09v79A4.09,4.09,0,0,1,522.63,700.08ZM253,615.33a1.71,1.71,0,0,0-1.71,1.71v79c-.41,4.88,269.72.06,271.4,1.71a1.72,1.72,0,0,0,1.7-1.71V617a1.72,1.72,0,0,0-1.71-1.71Z"></path>
  <path fill="#6428bb" d="M431 689.5V624c-.43-.94 7.54-.18 7.73-.42 1.21-.11 0 65.53.42 65.93.43.94-7.54.18-7.73.42A.42.42 0 0 1 431 689.5ZM452.77 689.5V624c-.43-.94 7.54-.18 7.73-.42 1.21-.11 0 65.53.42 65.93.43.94-7.54.18-7.74.42A.41.41 0 0 1 452.77 689.5ZM474.5 689.5V624c-.44-.94 7.54-.18 7.73-.42 1.2-.11 0 65.53.42 65.93.43.94-7.54.18-7.74.42A.41.41 0 0 1 474.5 689.5ZM496.22 689.5V624c-.43-.94 7.54-.18 7.74-.42 1.2-.11 0 65.53.41 65.93.43.94-7.53.18-7.73.42A.42.42 0 0 1 496.22 689.5ZM407.09 674.4H272.5c-1.09.41-.1-7.5-.43-7.72-.15-1.28 134.63 0 135-.43 1.08-.41.1 7.5.42 7.72A.42.42 0 0 1 407.09 674.4Z"></path>
  <path fill="#281f49" d="M407.12,666.25h-2.79a.4.4,0,0,1,.4.4c-.17.2.44,8.18-.4,7.75.37-.16,3.27.4,3.18-.4C407.34,673.81,408,665.82,407.12,666.25Z" opacity=".21"></path>
  <path fill="#ffc697" d="M623.74,482.34c1.17,31.76,35.75,92.45,63.42,111.64,25.44,13.88,108.38,17.46,112.91,11.26,0,0-58.48-34.08-91-48.15,0,0-14.49-43.94-43.68-84.84C648.85,449.13,622.36,445.11,623.74,482.34Z"></path>
  <path fill="#fe9474" d="M665.69,542.18c5.32-12,20.69-13.77,26.22-25.32-66.93-132.42-97.12-27.68-27.56,54.27C662,561.39,661.71,551.21,665.69,542.18Z"></path>
  <path fill="url(#E)" d="M627.3,449.28C605.61,459.51,622,513.2,632,531.86c20.53,8.66,54.71-3.7,63.5-26.2C676.83,469.8,653.18,437.09,627.3,449.28Z"></path>
  <path fill="url(#F)" d="M593.73,435.93c-19.14-1.54-49.94,4.88-59.21,17.08s-8.41,132.08,11.39,195.57c0,0,99.26-26.73,119.78-41.43,0,0-11.94-36-10.73-45.43s7.47-95.84-4.41-110.53S593.73,435.93,593.73,435.93Z"></path>
  <path fill="#211f41" d="M644.83,598.85c-39,11.86-105.46,18.8-95-41.81,4.29-36.9,26-81.84-10-109-19.92,14.28-12.35,132,6,200.54,0,0,99.26-26.73,119.78-41.43,0,0-2.14-6.44-4.51-14.57A123.52,123.52,0,0,1,644.83,598.85Z" opacity=".19"></path>
  <path fill="#372842" d="M629.73,352.24c5.49-8.34,10.64-18.34,9.89-28.59-15-6.78-34.73-4.89-48.42,1.79,7.15-7.79-3.75-2.55-4.7,1.87-1.8-.44-8.13-2.71-8.15.12,1.45,2.14,4.39,1,3.45,3.18-16.41,11.59-24.3,45.58-4.81,59.65,1.46,1.15,5.14-.75,3-2.16-.45-10.3,2.68-32,7.4-39.59,12.54,6,27.93,6.45,41.68,5.88A4.1,4.1,0,0,1,629.73,352.24Z"></path>
  <path fill="#ffc697" d="M616,432.18c-.92,3,8.21,21.26,1.9,24.51-3.17,1.77-19.79,2.17-29.89-3.41-9.89-5.48-8.81-10.7-9.19-12.12S583,410.45,583,410.45Z"></path>
  <path fill="url(#G)" d="M606.21,440.76c-9-5.24-18.6-9.51-27.29-1.19.57-6.12,4.05-29.12,4.05-29.12L616,432.18s1.14,7.89,2.8,12.28A63,63,0,0,1,606.21,440.76Z"></path>
  <path fill="#ffc697" d="M648.05,350.55s2.05,14.65-3.23,38.07c-.74,3.3,2.16,11.48.53,17.83-9.07,39.95-38.06,34.5-61.67,7.86-7.11-7.7-8.17-51.74-4.83-60.79S641.6,331.68,648.05,350.55Z"></path>
  <path fill="#fe9474" d="M578.85,353.52c2.39-6.5,29.51-10.68,47-5.53-6.87,3.87-14.67,5.61-21.92,8.43-8,6.08-16,13.57-19.64,23.22-5.73,27.64,2,42.9,34.14,56.23-13.41-.76-28.58-14.89-34.74-21.56C576.57,406.61,575.51,362.57,578.85,353.52Z"></path>
  <path fill="#fe9474" d="M602.59,380.11c-.17,1.53,2.42-.56,3.44-.35a28.16,28.16,0,0,1,12,4.24,1.37,1.37,0,0,0,1.72-.07c1.36-3.34-1.06-9.48-3-12.65C608.79,365.38,603,373.69,602.59,380.11Z"></path>
  <path fill="#fff" d="M620.33,383c-.34,9.31-20.48,6.38-17.74-2.9C604.88,372.25,620.91,374.44,620.33,383Z"></path>
  <g clip-path="url(#H)">
    <path fill="#bc6139" d="M607.33,384.76c-.56-8.2,12.33-8.89,12.65-.67C620.54,392.28,607.65,393,607.33,384.76Z"></path>
    <path fill="#994d26" d="M607.33,384.76c.32,8.21,13.21,7.52,12.65-.67C619.66,375.87,606.77,376.56,607.33,384.76Zm1.24,1c-2-6.85,8.31-8.59,10.54-2.71C621.2,389.81,610.4,392.38,608.57,385.76Z"></path>
    <path fill="#040000" d="M609.09,384.67c-.4-5.93,8.91-6.42,9.13-.49C618.62,390.1,609.32,390.6,609.09,384.67Z"></path>
    <path fill="#040000" d="M609.09,384.67c-.4-5.93,8.91-6.42,9.13-.49C618.62,390.1,609.32,390.6,609.09,384.67Z"></path>
    <path fill="#fff" d="M609.25,381.4a1.71,1.71,0,0,1,3.41-.18A1.71,1.71,0,0,1,609.25,381.4Z"></path>
  </g>
  <path fill="#00000c" d="M619.76,380.5c-.27-6.23-14.29-7.51-16.44-1.89C607.39,374,617,374.15,619.76,380.5Z"></path>
  <path fill="#fe9474" d="M645,381.11c-1,2.53-4.92.93-7,1.73-2.44,0-5.13,3.09-7.31,2-.77-3.15,1.8-8.3,3.69-11C640.31,369.85,645.56,376.08,645,381.11Z"></path>
  <path fill="#fff" d="M630.4,384c-.65,8.58,15.5,7.31,14.3-1C643.8,375.59,630.57,376.73,630.4,384Z"></path>
  <g clip-path="url(#I)">
    <path fill="#bc6139" d="M644.63,386.76c1.38-7.27-8.68-9.05-9.88-1.76C633.37,392.27,643.43,394.06,644.63,386.76Z"></path>
    <path fill="#994d26" d="M644.63,386.76c-1.21,7.29-11.26,5.51-9.88-1.76C636,377.71,646,379.49,644.63,386.76Zm-1.09.78c2.5-5.57-5.49-8.59-8-3.38C633,389.7,641.34,393.38,643.54,387.54Z"></path>
    <path fill="#040000" d="M643.26,386.52a3.64,3.64,0,1,0-7.14-1.27A3.64,3.64,0,1,0,643.26,386.52Z"></path>
    <path fill="#040000" d="M643.26,386.52a3.64,3.64,0,1,0-7.14-1.27A3.64,3.64,0,1,0,643.26,386.52Z"></path>
    <path fill="#fff" d="M643.5,383.59a1.35,1.35,0,1,0-2.65-.47A1.35,1.35,0,1,0,643.5,383.59Z"></path>
  </g>
  <path fill="#00000c" d="M631.13,381.87a7.69,7.69,0,0,1,13.19-.17C643.23,376.1,631.68,376.49,631.13,381.87Z"></path>
  <path fill="#f98967" d="M627.89 419.71c-3.18.34-8.9.32-18.12-5.9 0 0 4.06 6.22 11.47 7.08S627.89 419.71 627.89 419.71ZM608.2 410.85c1.19-.69 4.16.72 4.16.89-.49.61-2.76.11-3.55.67-.78.4-1.49 2.59-1.76 2.58S606.91 411.6 608.2 410.85Z"></path>
  <path fill="#ffa97b" d="M621.51,407c3.93,1.84,11,3,14-.87,2-4.88-7.73-1-9.94-1C624.4,405.39,620,404.93,621.51,407Z"></path>
  <path fill="#ffd8bb" d="M627.84,404.1c2.48-.72,5-2,7.42-.64.85.47.59,1.71-.26,1.24C634,403,625,406.2,627.84,404.1Z"></path>
  <path fill="#f98967" d="M624.68,408.63c5.51,1.06,13.11.35,11.09-5.06-.43-1.17-3-3.33-3.65-5.12-1.85-4.92-2.79-13.94-2.8-14l-.41.43c.05.35,1,8.75,2.57,13.6.65,2,3.22,4.32,3.66,5.54,2.37,6.37-13.83,3.47-13.37,3.53A21.46,21.46,0,0,0,624.68,408.63Z"></path>
  <path fill="#f98967" d="M624.57 401.75s-6.54-2.31-6.2 2.43C616.2 398.39 622.83 400.58 624.57 401.75ZM626.25 406.62s-3-2.61-5.09-1.37S626.25 406.62 626.25 406.62Z"></path>
  <path fill="#fe9474" d="M579.48,383.38c-17.12-15.33-15.91,16.67-6.8,17.54C580.69,401.43,585.28,393.35,579.48,383.38Z"></path>
  <path fill="#f0665e" d="M578.89,389.76c3.41,1.47-5.18-7.81-7.26-6.44-3,4.49-3.86,19.18,5.12,13C571.36,398.09,572.14,387.05,578.89,389.76Z"></path>
  <path fill="#ffc697" d="M569,380.57c1.57-1.88,11.7,2.8,8.29,2.59-1.91-1.32-6-2-7.74-1.23-1.94.18-2.33,7.87-2.74,5.55C566.58,385.82,566.26,381.65,569,380.57Z"></path>
  <path fill="#00000c" d="M605.3 366.32c3 .8 12.26-2.13 13.05 1.87.21-1.21 0-2.63.16-2.73s1.17 3.78 0 4.14c-4.23 1.29-15.62-1.66-19.46 3.53C599 373.13 603.17 366.28 605.3 366.32ZM634.13 371.08c0-1.35 2.13-4.6 1.2-1.89 1.7-.83 6.29 1.47 8.2 1.42 1.44.26 3.92 7 3.92 7-2.47-5.4-9.85-3.91-13.09-6h0A.71.71 0 0 1 634.13 371.08Z"></path>
  <path fill="#f98967" d="M623.09,425.47s-2.45-3.39-6.92-.86C616.17,424.61,620.89,423.88,623.09,425.47Z"></path>
  <path fill="#6428bb" d="M566.32,588.23c-7.06-8.06-35.61,12.61-38.94,49.73s-3.83,65.66,34.25,76.45,86,3.37,95.82-7.7-3.25-79-18.48-86.59S583.85,608.24,566.32,588.23Z"></path>
  <path fill="#211f41" d="M648.94,669.42c-27.51-3.15-55-6.26-82.48-9.93,21.41,27,61.77,27.37,85.17,51.39,12.2-6.36,10.58-18.42,12.22-39.73Z" opacity=".57"></path>
  <path fill="url(#j)" d="M676.53,705.69s-25.44,25.61-42.27,34.4-30.47-18.49-18.8-28.52C624.22,704.05,667.7,686,667.7,686Z"></path>
  <path fill="url(#J)" d="M679.25,707s-26.81,23.63-43.64,32.43-25.88-18.68-17.43-26.55,49.94-25.35,49.94-25.35Z"></path>
  <path fill="url(#i)" d="M618.18,712.91a38.86,38.86,0,0,1,7.6-5.09c12.3,1.64,22.06,16.53,16.08,28C624.11,752.32,607.58,725.58,618.18,712.91Z"></path>
  <path fill="#ffc697" d="M690.24,701.54s-8.85,4.31-11.69,5.93c-9.44,5.45-27.67-6-16.82-17.79,4.9-3.94,17.76-15.54,17.76-15.54Z"></path>
  <path fill="url(#K)" d="M643.63,706.52c3.38-6,13.51,5.12,11.61,10.12-.54,2.13-3.85,1.26-3.29-.88.24-2.65-2-5.64-4.21-6.87C646.37,708,643.71,708.7,643.63,706.52Z"></path>
  <path fill="url(#L)" d="M650.1,702.44c3.38-6,13.51,5.12,11.62,10.12-.54,2.13-3.86,1.26-3.3-.88.24-2.65-2-5.64-4.21-6.87C652.84,703.93,650.18,704.62,650.1,702.44Z"></path>
  <path fill="#6428bb" d="M613.36,613.22c24.89-7.58,93.56-27.77,106.59-31.41,154.21-37.81,74.44,87.38-34.82,125.47-5.65,2-18.16-25.85-18.16-25.85Z"></path>
  <path fill="#211f41" d="M735.29,669.28c-12.65-23.61-35.84-25-32.53-38-7.64,1.82-14.86,2.69-21.86-1.56-18.87-4.47-38.25-9.93-55.79-17.73a28.8,28.8,0,0,1-3.42-1.28l-8.33,2.53L667,681.43s52.35,11.74,57.43,8.56c5.9-3.68,14.05-9.77,19.86-13.67C740.36,675.63,737.83,672.05,735.29,669.28Z" opacity=".27"></path>
  <path fill="url(#M)" d="M738.71,709.71s31.34,17.93,49.9,21.94,24.46-25.92,10.54-32.49C788.71,694.24,742,688.41,742,688.41Z"></path>
  <path fill="url(#N)" d="M736.45,711.73s32.13,15.66,50.69,19.67,20-24.88,9.75-30.23S742,690,742,690Z"></path>
  <path fill="url(#O)" d="M796.89,701.17a39.18,39.18,0,0,0-8.68-2.88c-11.42,4.84-16.88,21.79-8.08,31.23C801.64,740.74,810.47,710.58,796.89,701.17Z"></path>
  <path fill="#ffc697" d="M724.4,709.35s9.67,1.8,12.85,2.62c10.54,2.74,25.08-13.11,11.48-21.63-5.77-2.5-21.24-10.26-21.24-10.26Z"></path>
  <path fill="url(#P)" d="M770.65,701.77c-4.84-4.88-11.66,8.53-8.5,12.85,1.08,1.91,4.05.19,2.94-1.72-.93-2.5.4-6,2.24-7.75C768.41,703.94,771.16,703.9,770.65,701.77Z"></path>
  <path fill="url(#Q)" d="M763.33,699.56c-4.85-4.89-11.66,8.52-8.51,12.84a1.71,1.71,0,0,0,2.95-1.72c-.93-2.5.4-6,2.23-7.75C761.09,701.73,763.84,701.68,763.33,699.56Z"></path>
  <path fill="#372842" d="M658,329.65c-.82.85-1.3.51-1.33.56,2.32-2.71-.32-28.25-5.13-19.75-2.08,4.94-8.09,11.42-14.08,10.27-13.53-3.24-35.84-.36-46.22,4.71,7.15-7.79-3.75-2.55-4.7,1.87-1.8-.44-8.13-2.71-8.15.12,1.45,2.14,4.39,1,3.45,3.18-4.85,1-11.45,14.17-12.57,17.49,1.53,6.41,2.5,13.11,5.66,18.95,3,6.92.63,14.91,3.52,21.81,2.33,6.34,1.49-13.48,2.11-15.17.29-4.26,5-24.14,6.83-25.18,13.7,7.74,37.1,5.28,51.17,4.83C658.32,351.64,665.65,321.75,658,329.65Z"></path>
  <path fill="#211f41" d="M748.47,586.89a22.43,22.43,0,0,0-8.16,7.22c2.42-16.59-6.6,5.28-11,8-2,4.42-78.25,62.25-45.59,44.65C700.81,637.67,748.51,604.44,748.47,586.89Z" opacity=".57"></path>
  <path fill="#6428bb" d="M551.37,591.13C568.78,579,575.44,579.9,634,614.64s107.55,64.73,107.55,64.73-5.24,26.31-18.56,35c0,0-151-50.75-156.65-53.61S551.37,591.13,551.37,591.13Z"></path>
  <path fill="#564466" d="M634.47,328.34q-3.08-1.3-6.26-2.35c9.54,2.32,7.76-.46.2-2.74,1.1-.09,6.1,1,4.11-1.07-4.78-4.27-43.89,2.06-23.8,3.46-1.16.24-6.51,2.4-3.68,3.28,9.53-2.51,19.5-1.16,29,.68A.67.67,0,0,0,634.47,328.34Z"></path>
  <path fill="#ffc697" d="M709 557.09s-1-3-3-8.19c-10.23 11.62-21.66 22.08-31.58 34 15.86 27.53 112.23 24.74 118 25.73l7.57-3.36S741.59 571.16 709 557.09ZM527.49 467.05c-71.29 148.69-56.6 141 87.67 134.68l8-20.74s-59.52-17.87-83.56-17.87c0 0 19-26 27.46-79.79C571.52 455.26 548.24 436.11 527.49 467.05Z"></path>
  <path fill="#fe9474" d="M503.15 542.86c15.48-9.33 33.65-2.92 50.24-7.18a253.37 253.37 0 0 0 13.71-52.35c4.42-28.07-18.86-47.22-39.61-16.28-11.72 17.47-26.05 52.69-34.52 82.7A57.79 57.79 0 0 1 503.15 542.86ZM539.76 563c.34-.48 1.49-2.15 3.16-5-9.08 2-18 4.82-25.11 10.77C525 566.85 532.78 565.88 539.76 563Z"></path>
  <path fill="url(#R)" d="M556.47,443.74c-22.78-7.51-47.87,42.7-53.43,63.14,8.95,20.41,42.26,35,64.12,24.67C578.29,492.7,583.63,452.69,556.47,443.74Z"></path>
  <path fill="#ffc697" d="M660.25,596.31h0c-7.74-21.92-47.17-14.54-55-13.83l12.64,6c-.15,6.56,12.47,6.27,19.17,5C645.06,589.19,661.89,609.57,660.25,596.31Z"></path>
  <path fill="#ffc697" d="M662.53,603.17c-5.1,5.71-13.89-9.76-23.26-6-7.4,1.44-13.21,1.19-19.07-4.33a1.74,1.74,0,0,1,.35-2.91c5.82-5.33,18.27-2.25,25.89-2C652.29,588.9,664.63,597,662.53,603.17Z"></path>
  <path fill="#ffc697" d="M659.21,605.17c-5.1,5.7-13.9-9.76-23.26-6-8.32,2.23-29.43,1.63-21.79-11.51.85-1.78,5.67,2.05,8.27,1.79C634.25,587.81,659.05,589.65,659.21,605.17Z"></path>
  <path fill="url(#S)" d="M638.84,589.67c10.39-.16,12.92,11.38,19.75,16.43C650,607.65,646,596,636,599.18c-6.66,1.24-24.43,3-23.24-7.41A68.38,68.38,0,0,1,638.84,589.67Z" opacity=".35"></path>
  <path fill="#ffc697" d="M653.08,605.53c-4.66,8-13.9-10.33-23.57-4.53-7.51,2.77-13.39,3.22-19.33-3a2.55,2.55,0,0,1,.35-3.71c5-7,18.44-5.41,26.23-5.83C642.69,588.89,655.2,597.53,653.08,605.53Z"></path>
  <polygon fill="url(#T)" points="680.83 610.32 834.46 610.32 866.3 521.56 712.67 521.56 680.83 610.32"></polygon>
  <polygon fill="url(#U)" points="686.69 610.32 840.32 610.32 872.17 521.56 718.53 521.56 686.69 610.32"></polygon>
  <polygon fill="url(#V)" points="753.7 574.03 805.16 574.03 810.67 557.85 759.21 557.85 753.7 574.03"></polygon>
  <rect width="83.19" height="9.37" x="603.49" y="600.95" fill="url(#W)"></rect>
  <path fill="#ffc697" d="M770.65,609.74c-1.28,6.13,16.76,13,24.5,6.43,6.59-5.19-8.21-8.4-8.21-8.4Z"></path>
  <path fill="#ffc697" d="M807,616c4.92-3.72-13.2-29.09-12.43-14.12-2-2.68-3.67-5.65-5.87-8.18s-6.81-.64-5.95,2.86c-4.72-.89-3.41,4.8-2.72,7.52-1-1.28-3.38-2.13-4.08-.24C773.13,618.5,797.52,624.08,807,616Z"></path>
  <path fill="#fe9474" d="M794.53 601.91s6.17 10.29 6.35 12.19-2.07 5.06-2.07 5.06c8.52-4.31-3-17.09-4.4-19.84A13 13 0 0 0 794.53 601.91ZM782.71 596.59s10.94 16.87 10.91 19-2.69 3.84-2.69 3.84 4.14-2.07 4.06-4.45-11.2-18.22-12-20.8C783 594.2 782.16 595.74 782.71 596.59ZM780 604.11c-.12.59 10.78 13.16 7.41 14.68 0 0 1.93-1.48 1.48-2.71s-9.63-16.22-9.63-16.22ZM775.94 609.12s1.84 4.3 4.84 6.14c0 0-6.5-3.63-7-5.9Z"></path>
  <path fill="url(#k)" d="M579.83,178.31C571.24,131.66,500,138,500.3,186c-.72,41.63,58,55.12,75.86,18.26h10.16l8.13-8.13h6.13l9.48,8.13h6.77v-7.45h13.89v7.45H645v-7.11l7.62-.08-.17,7.19h10.36l7.39-7.45,13.32.23v7.22h15.24l13.44-25.91Zm-54.47,15.16c-11.74.17-11.74-18.27,0-18.09C537.1,175.2,537.1,193.64,525.36,193.47Z"></path>
  <path fill="url(#X)" d="M540.43,154.76c-41,.69-41,61.71,0,62.4C581.45,216.46,581.44,155.45,540.43,154.76Zm-15.07,38.71c-11.74.17-11.74-18.27,0-18.09C537.1,175.2,537.1,193.64,525.36,193.47Z"></path>
  <path fill="url(#Y)" d="M698.65,186c-1.56-1.42-118.74,2.77-118.42-1.54h0c-.35-4.31,116.9-.12,118.42-1.54a1.54,1.54,0,0,1,1.53,1.54h0A1.54,1.54,0,0,1,698.65,186Z"></path>
  <path fill="url(#Z)" d="M488.42,184.42c.11-7.5-11.67-7.5-11.55,0C476.76,191.92,488.53,191.92,488.42,184.42Z"></path>
  <path fill="url(#aa)" d="M464.33,184.42c.11-7.5-11.67-7.5-11.56,0C452.66,191.92,464.44,191.92,464.33,184.42Z"></path>
  <path fill="url(#ab)" d="M440.23,184.42c.11-7.5-11.67-7.5-11.56,0C428.56,191.92,440.34,191.92,440.23,184.42Z"></path>
  <path fill="url(#ac)" d="M416.14,184.42c.11-7.5-11.67-7.5-11.56,0C404.47,191.92,416.25,191.92,416.14,184.42Z"></path>
  <path fill="url(#ad)" d="M392,184.42c.11-7.5-11.67-7.5-11.56,0C380.37,191.92,392.15,191.92,392,184.42Z"></path>
  <path fill="url(#ae)" d="M392,208.68c.11-7.5-11.67-7.5-11.56,0C380.37,216.17,392.15,216.17,392,208.68Z"></path>
  <path fill="url(#af)" d="M392,232.93c.11-7.5-11.67-7.5-11.56,0C380.37,240.43,392.15,240.43,392,232.93Z"></path>
  <path fill="url(#ag)" d="M392,257.18c.11-7.5-11.67-7.5-11.56,0C380.37,264.68,392.15,264.68,392,257.18Z"></path>
</svg>
