<svg xmlns="http://www.w3.org/2000/svg" enable-background="new 0 0 2500 2500" viewBox="0 0 2500 2500" id="database-security-hacker-attack">
  <g>
    <g>
      <path fill="#f1f5fb" fill-rule="evenodd" d="M1246.88,1872.79c213.34,0,409.65,3.19,565.45,8.53c381.27-217.92,249.25-642.72,112.36-883
			c-190.53-334.4-640.72-454.59-826.94-187.78c-252.76,362.15-496.59,235.78-628.25,510.82
			c-131.66,275.04,68.29,538.71,211.93,559.96C837.23,1875.99,1033.56,1872.79,1246.88,1872.79L1246.88,1872.79z M912.82,945.44
			c-97.59,74.28-259,131.83-312.61,52.87c-40.05-59,9.29-169.68,105.9-253.6c96.54-83.86,225.9-134.62,296.4-72.87
			C1086.17,745.12,987.98,888.25,912.82,945.44z" clip-rule="evenodd"></path>
    </g>
    <g>
      <path fill="#e8effa" fill-rule="evenodd" d="M1246.88,1872.79c506.52,0,917.12,17.98,917.12,40.16c0,22.18-410.61,40.17-917.12,40.17
			s-917.13-17.98-917.13-40.17C329.76,1890.78,740.37,1872.79,1246.88,1872.79z" clip-rule="evenodd"></path>
    </g>
    <g>
      <path fill="#fff" fill-rule="evenodd" d="M1542.65,764.02c229.05,51.04,374.82,261.69,389.1,363.39c5.86,41.73-5-55.94-121.85-144.85
			c-104.43-79.47-185.73-94.2-309.96-103.8c-87.8-6.78-179.74-17.58-173.21-69.94C1331.88,767.46,1394.77,731.08,1542.65,764.02
			L1542.65,764.02z M943.68,678.82c39.44,2.37,63.44,34.76,65.1,72.1c0.7,15.88-11.77-25.65-55.49-31.44
			c-27.12-3.58-31.19,4.41-40.9-6.78C902.66,701.51,911.9,676.91,943.68,678.82z" clip-rule="evenodd"></path>
    </g>
    <g>
      <path fill="#fff" fill-rule="evenodd" d="M1180.29,910.83c-3.27,45.06-9.93,51.26-52.88,54.73c42.95,3.47,49.6,9.69,52.88,54.73
			c3.28-45.04,9.93-51.26,52.88-54.73C1190.22,962.1,1183.58,955.89,1180.29,910.83L1180.29,910.83z M1354.89,1029.65
			c-1.75,24.05-5.3,27.38-28.23,29.23c22.94,1.85,26.48,5.17,28.23,29.22c1.75-24.06,5.3-27.38,28.23-29.22
			C1360.19,1057.02,1356.65,1053.7,1354.89,1029.65L1354.89,1029.65z M1278.43,844.54c-1.77,24.36-5.37,27.72-28.6,29.6
			c23.22,1.87,26.82,5.23,28.6,29.59c1.77-24.36,5.37-27.72,28.59-29.59C1283.8,872.25,1280.2,868.9,1278.43,844.54z" clip-rule="evenodd"></path>
    </g>
    <g>
      <path fill="#fff" fill-rule="evenodd" d="M1116.99,1649.46c2.66,36.49,8.04,41.53,42.83,44.35c-34.79,2.8-40.17,7.84-42.83,44.33
			c-2.67-36.49-8.05-41.53-42.84-44.33C1108.94,1690.99,1114.32,1685.95,1116.99,1649.46L1116.99,1649.46z M975.54,1745.72
			c1.41,19.49,4.29,22.17,22.86,23.68c-18.57,1.5-21.45,4.19-22.86,23.68c-1.42-19.49-4.3-22.17-22.87-23.68
			C971.24,1767.89,974.12,1765.21,975.54,1745.72L975.54,1745.72z M1037.48,1595.75c1.44,19.74,4.35,22.46,23.17,23.97
			c-18.82,1.52-21.73,4.24-23.17,23.98c-1.44-19.74-4.35-22.46-23.16-23.98C1033.13,1618.21,1036.04,1615.49,1037.48,1595.75z" clip-rule="evenodd"></path>
    </g>
    <g>
      <path fill="#fff" fill-rule="evenodd" d="M1672.88,1559.49c-2.04,27.95-6.17,31.81-32.8,33.95c26.64,2.15,30.76,6.01,32.8,33.95
			c2.03-27.94,6.16-31.8,32.79-33.95C1679.03,1591.3,1674.9,1587.44,1672.88,1559.49L1672.88,1559.49z M1781.17,1633.2
			c-1.09,14.91-3.28,16.98-17.51,18.12c14.23,1.15,16.43,3.21,17.51,18.13c1.09-14.92,3.28-16.98,17.51-18.13
			C1784.46,1650.17,1782.26,1648.11,1781.17,1633.2L1781.17,1633.2z M1733.75,1518.37c-1.11,15.11-3.33,17.2-17.73,18.36
			c14.4,1.16,16.63,3.25,17.73,18.36c1.1-15.12,3.33-17.2,17.73-18.36C1737.08,1535.56,1734.84,1533.48,1733.75,1518.37z" clip-rule="evenodd"></path>
    </g>
  </g>
  <g>
    <path fill="#61a0e0" fill-rule="evenodd" d="M1501.25,876.96c0-62.96,43.57-116.23,102.04-131.16c-68.91,6.09-123.41,64.38-123.41,134.8v152.65l21.37,0.59
		V876.96L1501.25,876.96z M1899,1044.74V880.6c0-156.08-127.69-283.78-283.78-283.78c-12.46,0-24.73,0.82-36.77,2.4
		c18.78-3.96,38.23-6.04,58.14-6.04c156.08,0,283.79,127.7,283.79,283.78v168.37L1899,1044.74z" clip-rule="evenodd"></path>
  </g>
  <g>
    <path fill="#99c5f2" fill-rule="evenodd" d="M1479.88,880.6c0-74.43,60.91-135.34,135.35-135.34c74.43,0,135.34,60.91,135.34,135.34v164.3l148.43,4.07
		V880.6c0-156.08-127.69-283.78-283.78-283.78c-156.07,0-283.77,127.69-283.77,283.78v152.81l148.43,4.07V880.6z" clip-rule="evenodd"></path>
  </g>
  <g>
    <polygon fill="#eeeeef" fill-rule="evenodd" points="1934.99 1011.01 1213.25 1030.79 1192.79 1884.19 1934.99 1884.19" clip-rule="evenodd"></polygon>
  </g>
  <g>
    <polygon fill="#eeeeef" fill-rule="evenodd" points="1934.99 1011.01 2056.69 1014.34 2066.66 1884.19 1934.99 1884.19" clip-rule="evenodd"></polygon>
  </g>
  <g>
    <polygon fill="#eff9fc" fill-rule="evenodd" points="1515.87 1022.5 1786.55 1015.08 1934.99 1011.01 1934.99 1884.19 1192.79 1884.19 1213.25 1030.79 1367.43 1026.57" clip-rule="evenodd"></polygon>
  </g>
  <g>
    <path fill="#4f8ecc" fill-rule="evenodd" d="M1515.93,1024.76l270.69-7.42l146.1-4v868.58h-737.6l20.35-848.91l152.03-4.17L1515.93,1024.76
		L1515.93,1024.76z M1786.49,1012.81l-270.68,7.42l-148.44,4.07l-154.17,4.23l-2.15,0.06l-0.05,2.16l-20.46,853.4l-0.06,2.32h2.31
		h742.21h2.27v-2.27v-873.18v-2.33l-2.33,0.07L1786.49,1012.81z" clip-rule="evenodd"></path>
  </g>
  <g>
    <polygon fill="#99c5f2" fill-rule="evenodd" points="1934.99 1884.19 1934.99 1011.01 2056.69 1014.34 2090.53 1884.19" clip-rule="evenodd"></polygon>
  </g>
  <g>
    <path fill="#4f8ecc" fill-rule="evenodd" d="M1937.57,1881.6v-867.95l116.64,3.19l33.65,864.76H1937.57L1937.57,1881.6z M1932.41,1011.01v873.18v2.57h2.58
		h155.53h2.68l-0.1-2.67l-33.84-869.85l-0.09-2.41l-2.41-0.07l-121.69-3.34l-2.65-0.07V1011.01z" clip-rule="evenodd"></path>
  </g>
  <g>
    <g>
      <path fill="#4f8ecc" fill-rule="evenodd" d="M1239.01,1098.38c0.04-1.41-1.09-2.59-2.51-2.62c-1.41-0.04-2.59,1.09-2.62,2.5l-7.23,301.03
			c-0.03,1.41,1.1,2.59,2.51,2.62c1.42,0.04,2.6-1.09,2.63-2.51L1239.01,1098.38z" clip-rule="evenodd"></path>
    </g>
    <g>
      <path fill="#4f8ecc" fill-rule="evenodd" d="M1886.74,1843.1c1.43,0,2.58-1.15,2.58-2.57c0-1.42-1.15-2.58-2.58-2.58h-301.02c-1.42,0-2.57,1.16-2.57,2.58
			c0,1.42,1.15,2.57,2.57,2.57H1886.74z" clip-rule="evenodd"></path>
    </g>
    <g>
      <path fill="#4f8ecc" fill-rule="evenodd" d="M1916.67,1040.73c0-1.41-1.15-2.56-2.57-2.56c-1.42,0-2.56,1.16-2.56,2.56l0.45,248.58
			c0,1.41,1.15,2.57,2.57,2.57c1.41,0,2.56-1.16,2.56-2.57L1916.67,1040.73z" clip-rule="evenodd"></path>
    </g>
    <g>
      <polygon fill="#4f8ecc" fill-rule="evenodd" points="1975.93 1591.94 1976.39 1840.53 1980.92 1840.53 1980.46 1591.94" clip-rule="evenodd"></polygon>
    </g>
  </g>
  <g>
    <g>
      <rect width="521.79" height="210.64" x="585.97" y="1036.47" fill="#1e77d1" fill-rule="evenodd" clip-rule="evenodd"></rect>
    </g>
    <g>
      <rect width="791.5" height="192.89" x="451.11" y="1036.47" fill="#4f8ecc" fill-rule="evenodd" clip-rule="evenodd"></rect>
    </g>
    <g>
      <path fill="#c3dffa" fill-rule="evenodd" d="M478.5,1048.95h736.73c7.47,0,13.58,6.51,13.58,14.49v138.95c0,7.97-6.11,14.48-13.58,14.48H478.5
			c-7.46,0-13.58-6.51-13.58-14.48v-138.95C464.91,1055.47,471.03,1048.95,478.5,1048.95z" clip-rule="evenodd"></path>
    </g>
    <g>
      <path fill="#fff" fill-rule="evenodd" d="M511.8,1092c9.2,0,16.66,7.47,16.66,16.67s-7.46,16.65-16.66,16.65s-16.65-7.45-16.65-16.65
			S502.6,1092,511.8,1092L511.8,1092z M511.8,1140.5c9.2,0,16.66,7.46,16.66,16.66s-7.46,16.66-16.66,16.66s-16.65-7.46-16.65-16.66
			S502.6,1140.5,511.8,1140.5L511.8,1140.5z M685.4,1140.5c9.2,0,16.66,7.46,16.66,16.66s-7.46,16.66-16.66,16.66
			s-16.65-7.46-16.65-16.66S676.2,1140.5,685.4,1140.5L685.4,1140.5z M627.53,1140.5c9.2,0,16.67,7.46,16.67,16.66
			s-7.47,16.66-16.67,16.66s-16.65-7.46-16.65-16.66S618.33,1140.5,627.53,1140.5L627.53,1140.5z M569.67,1140.5
			c9.2,0,16.66,7.46,16.66,16.66s-7.46,16.66-16.66,16.66c-9.2,0-16.66-7.46-16.66-16.66S560.47,1140.5,569.67,1140.5L569.67,1140.5
			z M685.4,1092c9.2,0,16.66,7.47,16.66,16.67s-7.46,16.65-16.66,16.65s-16.65-7.45-16.65-16.65S676.2,1092,685.4,1092L685.4,1092z
			 M627.53,1092c9.2,0,16.67,7.47,16.67,16.67s-7.47,16.65-16.67,16.65s-16.65-7.45-16.65-16.65S618.33,1092,627.53,1092
			L627.53,1092z M569.67,1092c9.2,0,16.66,7.47,16.66,16.67s-7.46,16.65-16.66,16.65c-9.2,0-16.66-7.45-16.66-16.65
			S560.47,1092,569.67,1092z" clip-rule="evenodd"></path>
    </g>
    <g>
      <rect width="22.48" height="111.59" x="757.29" y="1076.59" fill="#4f8ecc" fill-rule="evenodd" clip-rule="evenodd"></rect>
    </g>
    <g>
      <rect width="22.48" height="111.59" x="796.63" y="1076.59" fill="#fff" fill-rule="evenodd" clip-rule="evenodd"></rect>
    </g>
    <g>
      <rect width="22.48" height="111.59" x="835.96" y="1076.59" fill="#4f8ecc" fill-rule="evenodd" clip-rule="evenodd"></rect>
    </g>
    <g>
      <rect width="22.48" height="111.59" x="875.29" y="1076.59" fill="#fff" fill-rule="evenodd" clip-rule="evenodd"></rect>
    </g>
    <g>
      <rect width="22.48" height="111.59" x="914.63" y="1076.59" fill="#4f8ecc" fill-rule="evenodd" clip-rule="evenodd"></rect>
    </g>
    <g>
      <rect width="22.48" height="111.59" x="953.96" y="1076.59" fill="#fff" fill-rule="evenodd" clip-rule="evenodd"></rect>
    </g>
    <g>
      <rect width="22.48" height="111.59" x="993.3" y="1076.59" fill="#4f8ecc" fill-rule="evenodd" clip-rule="evenodd"></rect>
    </g>
    <g>
      <rect width="22.47" height="111.59" x="1032.64" y="1076.59" fill="#fff" fill-rule="evenodd" clip-rule="evenodd"></rect>
    </g>
    <g>
      <rect width="22.48" height="111.59" x="1071.98" y="1076.59" fill="#4f8ecc" fill-rule="evenodd" clip-rule="evenodd"></rect>
    </g>
    <g>
      <rect width="22.49" height="111.59" x="1111.3" y="1076.59" fill="#fff" fill-rule="evenodd" clip-rule="evenodd"></rect>
    </g>
    <g>
      <rect width="22.48" height="111.59" x="1150.65" y="1076.59" fill="#4f8ecc" fill-rule="evenodd" clip-rule="evenodd"></rect>
    </g>
    <g>
      <rect width="521.79" height="210.64" x="585.97" y="1247.11" fill="#1e77d1" fill-rule="evenodd" clip-rule="evenodd"></rect>
    </g>
    <g>
      <rect width="791.5" height="192.89" x="451.11" y="1247.11" fill="#4f8ecc" fill-rule="evenodd" clip-rule="evenodd"></rect>
    </g>
    <g>
      <path fill="#c3dffa" fill-rule="evenodd" d="M478.5,1259.59h736.73c7.47,0,13.58,6.52,13.58,14.49v138.95c0,7.97-6.11,14.49-13.58,14.49H478.5
			c-7.46,0-13.58-6.52-13.58-14.49v-138.95C464.91,1266.12,471.03,1259.59,478.5,1259.59z" clip-rule="evenodd"></path>
    </g>
    <g>
      <path fill="#fff" fill-rule="evenodd" d="M511.8,1302.65c9.2,0,16.66,7.46,16.66,16.66s-7.46,16.65-16.66,16.65s-16.65-7.45-16.65-16.65
			S502.6,1302.65,511.8,1302.65L511.8,1302.65z M511.8,1351.14c9.2,0,16.66,7.46,16.66,16.66s-7.46,16.66-16.66,16.66
			s-16.65-7.46-16.65-16.66S502.6,1351.14,511.8,1351.14L511.8,1351.14z M685.4,1351.14c9.2,0,16.66,7.46,16.66,16.66
			s-7.46,16.66-16.66,16.66s-16.65-7.46-16.65-16.66S676.2,1351.14,685.4,1351.14L685.4,1351.14z M627.53,1351.14
			c9.2,0,16.67,7.46,16.67,16.66s-7.47,16.66-16.67,16.66s-16.65-7.46-16.65-16.66S618.33,1351.14,627.53,1351.14L627.53,1351.14z
			 M569.67,1351.14c9.2,0,16.66,7.46,16.66,16.66s-7.46,16.66-16.66,16.66c-9.2,0-16.66-7.46-16.66-16.66
			S560.47,1351.14,569.67,1351.14L569.67,1351.14z M685.4,1302.65c9.2,0,16.66,7.46,16.66,16.66s-7.46,16.65-16.66,16.65
			s-16.65-7.45-16.65-16.65S676.2,1302.65,685.4,1302.65L685.4,1302.65z M627.53,1302.65c9.2,0,16.67,7.46,16.67,16.66
			s-7.47,16.65-16.67,16.65s-16.65-7.45-16.65-16.65S618.33,1302.65,627.53,1302.65L627.53,1302.65z M569.67,1302.65
			c9.2,0,16.66,7.46,16.66,16.66s-7.46,16.65-16.66,16.65c-9.2,0-16.66-7.45-16.66-16.65S560.47,1302.65,569.67,1302.65z" clip-rule="evenodd"></path>
    </g>
    <g>
      <rect width="22.48" height="111.58" x="757.29" y="1287.24" fill="#4f8ecc" fill-rule="evenodd" clip-rule="evenodd"></rect>
    </g>
    <g>
      <rect width="22.48" height="111.58" x="796.63" y="1287.24" fill="#fff" fill-rule="evenodd" clip-rule="evenodd"></rect>
    </g>
    <g>
      <rect width="22.48" height="111.58" x="835.96" y="1287.24" fill="#4f8ecc" fill-rule="evenodd" clip-rule="evenodd"></rect>
    </g>
    <g>
      <rect width="22.48" height="111.58" x="875.29" y="1287.24" fill="#fff" fill-rule="evenodd" clip-rule="evenodd"></rect>
    </g>
    <g>
      <rect width="22.48" height="111.58" x="914.63" y="1287.24" fill="#4f8ecc" fill-rule="evenodd" clip-rule="evenodd"></rect>
    </g>
    <g>
      <rect width="22.48" height="111.58" x="953.96" y="1287.24" fill="#fff" fill-rule="evenodd" clip-rule="evenodd"></rect>
    </g>
    <g>
      <rect width="22.48" height="111.58" x="993.3" y="1287.24" fill="#4f8ecc" fill-rule="evenodd" clip-rule="evenodd"></rect>
    </g>
    <g>
      <rect width="22.47" height="111.58" x="1032.64" y="1287.24" fill="#fff" fill-rule="evenodd" clip-rule="evenodd"></rect>
    </g>
    <g>
      <rect width="22.48" height="111.58" x="1071.98" y="1287.24" fill="#4f8ecc" fill-rule="evenodd" clip-rule="evenodd"></rect>
    </g>
    <g>
      <rect width="22.49" height="111.58" x="1111.3" y="1287.24" fill="#fff" fill-rule="evenodd" clip-rule="evenodd"></rect>
    </g>
    <g>
      <rect width="22.48" height="111.58" x="1150.65" y="1287.24" fill="#4f8ecc" fill-rule="evenodd" clip-rule="evenodd"></rect>
    </g>
    <g>
      <rect width="521.79" height="210.64" x="585.97" y="1457.75" fill="#1e77d1" fill-rule="evenodd" clip-rule="evenodd"></rect>
    </g>
    <g>
      <rect width="791.5" height="192.89" x="451.11" y="1457.75" fill="#4f8ecc" fill-rule="evenodd" clip-rule="evenodd"></rect>
    </g>
    <g>
      <path fill="#c3dffa" fill-rule="evenodd" d="M478.5,1470.25h736.73c7.47,0,13.58,6.51,13.58,14.48v138.96c0,7.97-6.11,14.48-13.58,14.48H478.5
			c-7.46,0-13.58-6.51-13.58-14.48v-138.96C464.91,1476.76,471.03,1470.25,478.5,1470.25z" clip-rule="evenodd"></path>
    </g>
    <g>
      <path fill="#fff" fill-rule="evenodd" d="M511.8,1513.3c9.2,0,16.66,7.46,16.66,16.66s-7.46,16.66-16.66,16.66s-16.65-7.46-16.65-16.66
			S502.6,1513.3,511.8,1513.3L511.8,1513.3z M511.8,1561.79c9.2,0,16.66,7.46,16.66,16.66c0,9.2-7.46,16.65-16.66,16.65
			s-16.65-7.45-16.65-16.65C495.14,1569.25,502.6,1561.79,511.8,1561.79L511.8,1561.79z M685.4,1561.79
			c9.2,0,16.66,7.46,16.66,16.66c0,9.2-7.46,16.65-16.66,16.65s-16.65-7.45-16.65-16.65C668.75,1569.25,676.2,1561.79,685.4,1561.79
			L685.4,1561.79z M627.53,1561.79c9.2,0,16.67,7.46,16.67,16.66c0,9.2-7.47,16.65-16.67,16.65s-16.65-7.45-16.65-16.65
			C610.88,1569.25,618.33,1561.79,627.53,1561.79L627.53,1561.79z M569.67,1561.79c9.2,0,16.66,7.46,16.66,16.66
			c0,9.2-7.46,16.65-16.66,16.65c-9.2,0-16.66-7.45-16.66-16.65C553.01,1569.25,560.47,1561.79,569.67,1561.79L569.67,1561.79z
			 M685.4,1513.3c9.2,0,16.66,7.46,16.66,16.66s-7.46,16.66-16.66,16.66s-16.65-7.46-16.65-16.66S676.2,1513.3,685.4,1513.3
			L685.4,1513.3z M627.53,1513.3c9.2,0,16.67,7.46,16.67,16.66s-7.47,16.66-16.67,16.66s-16.65-7.46-16.65-16.66
			S618.33,1513.3,627.53,1513.3L627.53,1513.3z M569.67,1513.3c9.2,0,16.66,7.46,16.66,16.66s-7.46,16.66-16.66,16.66
			c-9.2,0-16.66-7.46-16.66-16.66S560.47,1513.3,569.67,1513.3z" clip-rule="evenodd"></path>
    </g>
    <g>
      <rect width="22.48" height="111.58" x="757.29" y="1497.88" fill="#4f8ecc" fill-rule="evenodd" clip-rule="evenodd"></rect>
    </g>
    <g>
      <rect width="22.48" height="111.58" x="796.63" y="1497.88" fill="#eee5f4" fill-rule="evenodd" clip-rule="evenodd"></rect>
    </g>
    <g>
      <rect width="22.48" height="111.58" x="835.96" y="1497.88" fill="#4f8ecc" fill-rule="evenodd" clip-rule="evenodd"></rect>
    </g>
    <g>
      <rect width="22.48" height="111.58" x="875.29" y="1497.88" fill="#fff" fill-rule="evenodd" clip-rule="evenodd"></rect>
    </g>
    <g>
      <rect width="22.48" height="111.58" x="914.63" y="1497.88" fill="#4f8ecc" fill-rule="evenodd" clip-rule="evenodd"></rect>
    </g>
    <g>
      <rect width="22.48" height="111.58" x="953.96" y="1497.88" fill="#fff" fill-rule="evenodd" clip-rule="evenodd"></rect>
    </g>
    <g>
      <rect width="22.48" height="111.58" x="993.3" y="1497.88" fill="#4f8ecc" fill-rule="evenodd" clip-rule="evenodd"></rect>
    </g>
    <g>
      <rect width="22.47" height="111.58" x="1032.64" y="1497.88" fill="#fff" fill-rule="evenodd" clip-rule="evenodd"></rect>
    </g>
    <g>
      <rect width="22.48" height="111.58" x="1071.98" y="1497.88" fill="#4f8ecc" fill-rule="evenodd" clip-rule="evenodd"></rect>
    </g>
    <g>
      <rect width="22.49" height="111.58" x="1111.3" y="1497.88" fill="#fff" fill-rule="evenodd" clip-rule="evenodd"></rect>
    </g>
    <g>
      <rect width="22.48" height="111.58" x="1150.65" y="1497.88" fill="#4f8ecc" fill-rule="evenodd" clip-rule="evenodd"></rect>
    </g>
    <g>
      <rect width="521.79" height="210.65" x="585.97" y="1668.4" fill="#1e77d1" fill-rule="evenodd" clip-rule="evenodd"></rect>
    </g>
    <g>
      <rect width="791.5" height="192.89" x="451.11" y="1668.4" fill="#4f8ecc" fill-rule="evenodd" clip-rule="evenodd"></rect>
    </g>
    <g>
      <path fill="#c3dffa" fill-rule="evenodd" d="M478.5,1680.89h736.73c7.47,0,13.58,6.51,13.58,14.48v138.96c0,7.97-6.11,14.48-13.58,14.48H478.5
			c-7.46,0-13.58-6.51-13.58-14.48v-138.96C464.91,1687.4,471.03,1680.89,478.5,1680.89z" clip-rule="evenodd"></path>
    </g>
    <g>
      <path fill="#fff" fill-rule="evenodd" d="M511.8,1723.94c9.2,0,16.66,7.45,16.66,16.65s-7.46,16.66-16.66,16.66s-16.65-7.46-16.65-16.66
			S502.6,1723.94,511.8,1723.94L511.8,1723.94z M511.8,1772.43c9.2,0,16.66,7.46,16.66,16.66s-7.46,16.66-16.66,16.66
			s-16.65-7.46-16.65-16.66S502.6,1772.43,511.8,1772.43L511.8,1772.43z M685.4,1772.43c9.2,0,16.66,7.46,16.66,16.66
			s-7.46,16.66-16.66,16.66s-16.65-7.46-16.65-16.66S676.2,1772.43,685.4,1772.43L685.4,1772.43z M627.53,1772.43
			c9.2,0,16.67,7.46,16.67,16.66s-7.47,16.66-16.67,16.66s-16.65-7.46-16.65-16.66S618.33,1772.43,627.53,1772.43L627.53,1772.43z
			 M569.67,1772.43c9.2,0,16.66,7.46,16.66,16.66s-7.46,16.66-16.66,16.66c-9.2,0-16.66-7.46-16.66-16.66
			S560.47,1772.43,569.67,1772.43L569.67,1772.43z M685.4,1723.94c9.2,0,16.66,7.45,16.66,16.65s-7.46,16.66-16.66,16.66
			s-16.65-7.46-16.65-16.66S676.2,1723.94,685.4,1723.94L685.4,1723.94z M627.53,1723.94c9.2,0,16.67,7.45,16.67,16.65
			s-7.47,16.66-16.67,16.66s-16.65-7.46-16.65-16.66S618.33,1723.94,627.53,1723.94L627.53,1723.94z M569.67,1723.94
			c9.2,0,16.66,7.45,16.66,16.65s-7.46,16.66-16.66,16.66c-9.2,0-16.66-7.46-16.66-16.66S560.47,1723.94,569.67,1723.94z" clip-rule="evenodd"></path>
    </g>
    <g>
      <rect width="22.48" height="111.58" x="757.29" y="1708.53" fill="#4f8ecc" fill-rule="evenodd" clip-rule="evenodd"></rect>
    </g>
    <g>
      <rect width="22.48" height="111.58" x="796.63" y="1708.53" fill="#eee5f4" fill-rule="evenodd" clip-rule="evenodd"></rect>
    </g>
    <g>
      <rect width="22.48" height="111.58" x="835.96" y="1708.53" fill="#4f8ecc" fill-rule="evenodd" clip-rule="evenodd"></rect>
    </g>
    <g>
      <rect width="22.48" height="111.58" x="875.29" y="1708.53" fill="#fff" fill-rule="evenodd" clip-rule="evenodd"></rect>
    </g>
    <g>
      <rect width="22.48" height="111.58" x="914.63" y="1708.53" fill="#4f8ecc" fill-rule="evenodd" clip-rule="evenodd"></rect>
    </g>
    <g>
      <rect width="22.48" height="111.58" x="953.96" y="1708.53" fill="#fff" fill-rule="evenodd" clip-rule="evenodd"></rect>
    </g>
    <g>
      <rect width="22.48" height="111.58" x="993.3" y="1708.53" fill="#4f8ecc" fill-rule="evenodd" clip-rule="evenodd"></rect>
    </g>
    <g>
      <rect width="22.47" height="111.58" x="1032.64" y="1708.53" fill="#fff" fill-rule="evenodd" clip-rule="evenodd"></rect>
    </g>
    <g>
      <rect width="22.48" height="111.58" x="1071.98" y="1708.53" fill="#4f8ecc" fill-rule="evenodd" clip-rule="evenodd"></rect>
    </g>
    <g>
      <rect width="22.49" height="111.58" x="1111.3" y="1708.53" fill="#fff" fill-rule="evenodd" clip-rule="evenodd"></rect>
    </g>
    <g>
      <rect width="22.48" height="111.58" x="1150.65" y="1708.53" fill="#4f8ecc" fill-rule="evenodd" clip-rule="evenodd"></rect>
    </g>
  </g>
  <g>
    <g>
      <rect width="184.59" height="97.75" x="696.21" y="740.24" fill="#fff" fill-rule="evenodd" clip-rule="evenodd"></rect>
    </g>
    <g>
      <rect width="184.59" height="41.94" x="696.21" y="865.9" fill="#fff" fill-rule="evenodd" clip-rule="evenodd"></rect>
    </g>
    <g>
      <path fill="#4f8ecc" fill-rule="evenodd" d="M794.16,750.49c-3.78-6.03-7.23-10.35-10.33-12.98c14.69-7.96,22.84-16.7,24.43-26.23
			c2.15,1.88,3.97,4.16,5.45,6.84C808.26,731.12,801.74,741.9,794.16,750.49z" clip-rule="evenodd"></path>
    </g>
    <g>
      <path fill="#4f8ecc" fill-rule="evenodd" d="M773.51,750.49c3.79-6.03,7.23-10.35,10.33-12.98c-14.68-7.96-22.83-16.7-24.42-26.23
			c-2.16,1.88-3.97,4.16-5.45,6.84C759.42,731.12,765.94,741.9,773.51,750.49z" clip-rule="evenodd"></path>
    </g>
    <g>
      <path fill="#8bbae9" fill-rule="evenodd" d="M903.32,763.05c-15.84-21.91-45.71-36.88-89.6-44.94c-5.46,13.01-11.98,23.79-19.55,32.38
			c-3.78-6.03-7.23-10.35-10.33-12.98c-3.1,2.63-6.53,6.96-10.33,12.98c-7.57-8.58-14.09-19.37-19.54-32.38
			c-43.9,8.06-73.76,23.03-89.6,44.94c-12.13,35.48-20.12,63.57-24.01,84.31c12.86,2.77,27.66,6.02,44.4,9.78
			c-2.24,40.01-2.83,74.19-1.74,102.55c23.4,6.81,56.1,18.94,95.05,35.24c2.01-0.07,3.94-0.17,5.77-0.29
			c1.83,0.13,3.76,0.23,5.78,0.29c38.95-16.29,71.65-28.43,95.05-35.24c1.09-28.35,0.51-62.53-1.73-102.55
			c16.74-3.77,31.54-7.01,44.39-9.78C923.43,826.62,915.43,798.52,903.32,763.05z" clip-rule="evenodd"></path>
    </g>
    <g>
      <path fill="#61a0e0" fill-rule="evenodd" d="M875.9,790.12c3.1,20.05,5.45,42.38,7.02,67.01c2.11-0.48,4.2-0.95,6.26-1.4
			C886.45,840.48,882.02,818.61,875.9,790.12z" clip-rule="evenodd"></path>
    </g>
    <g>
      <path fill="#61a0e0" fill-rule="evenodd" d="M691.78,790.12c-3.11,20.05-5.45,42.38-7.02,67.01c-2.12-0.48-4.21-0.95-6.27-1.4
			C681.22,840.48,685.65,818.61,691.78,790.12z" clip-rule="evenodd"></path>
    </g>
    <g>
      <path fill="#4567c6" fill-rule="evenodd" d="M874.62,1037.95c4.72,12.01-3.95,31.39-9.84,35.27c-107.22-10.76-174.14-25.83-215.44-46.71
			c-12.31-6.82-33.81-9.75-46.9-18.43c-31.69-33.42-7.97-77.25,23.45-75.1c21.96,4.23,32.31,10.52,42.71,22.89
			C706.18,964.47,782.67,994.8,874.62,1037.95z" clip-rule="evenodd"></path>
    </g>
    <g>
      <path fill="#284191" fill-rule="evenodd" d="M988.69,1055.87c4.32,29.28-32.21,33.9-107.36,21.15c31.59-10.43,35.76-19.62,12.24-34.31
			C958.95,1030.87,988.79,1030.97,988.69,1055.87L988.69,1055.87z M578.99,1055.87c-4.31,29.28,32.22,33.9,107.37,21.15
			c-31.59-10.43-35.77-19.62-12.24-34.31C608.74,1030.87,578.89,1030.97,578.99,1055.87z" clip-rule="evenodd"></path>
    </g>
    <g>
      <path fill="#ffb27d" fill-rule="evenodd" d="M866.18,1072.08c6.3,1.2,11.35,2.85,15.15,4.94c31.59-10.43,35.76-19.62,12.24-34.31
			c-5.33,0.26-11.37-0.43-18.12-2.08C877.91,1051.67,871.48,1066.87,866.18,1072.08L866.18,1072.08z M701.51,1072.08
			c-6.31,1.2-11.35,2.85-15.15,4.94c-31.59-10.43-35.77-19.62-12.24-34.31c5.33,0.26,11.37-0.43,18.12-2.08
			C689.78,1051.67,696.21,1066.87,701.51,1072.08z" clip-rule="evenodd"></path>
    </g>
    <g>
      <path fill="#ffb27d" fill-rule="evenodd" d="M923.41,914.18c2.58-21.13,1.94-42.99-1.94-65.57c-9.74,2.1-20.5,4.48-32.29,7.12
			c-2.06,0.45-4.14,0.92-6.26,1.4c2.17,38.76,2.79,72.05,1.84,99.87C903.96,941.53,916.84,927.26,923.41,914.18z" clip-rule="evenodd"></path>
    </g>
    <g>
      <path fill="#ffb27d" fill-rule="evenodd" d="M644.27,914.18c-2.59-21.13-1.94-42.99,1.94-65.57c9.74,2.1,20.5,4.48,32.29,7.12
			c2.06,0.45,4.14,0.92,6.27,1.4c-2.17,38.76-2.79,72.05-1.84,99.87C663.72,941.53,650.83,927.26,644.27,914.18z" clip-rule="evenodd"></path>
    </g>
    <g>
      <path fill="#f08261" fill-rule="evenodd" d="M894.09,908.6c-0.18-15.14-0.73-33-1.64-53.6c-1.08,0.24-2.17,0.48-3.27,0.73c-2.06,0.45-4.14,0.92-6.26,1.4
			c1.34,23.9,2.09,45.72,2.23,65.45c1.75-2.04,3.8-4.42,6.13-7.15c6.65-2.83,13.31-4.22,19.96-4.18
			C903.59,908.88,897.87,908,894.09,908.6L894.09,908.6z M673.59,908.6c0.18-15.14,0.73-33,1.64-53.6c1.08,0.24,2.17,0.48,3.26,0.73
			c2.06,0.45,4.14,0.92,6.27,1.4c-1.34,23.9-2.09,45.72-2.24,65.45c-1.75-2.04-3.79-4.42-6.13-7.15
			c-6.65-2.83-13.31-4.22-19.96-4.18C664.09,908.88,669.81,908,673.59,908.6z" clip-rule="evenodd"></path>
    </g>
    <g>
      <path fill="#fc9774" fill-rule="evenodd" d="M685.91,868.03h195.85c1.88,0,3.41,1.54,3.41,3.41v88.08c-23.38,6.77-56.17,18.92-95.27,35.27h-12.13
			c-39.11-16.35-71.89-28.5-95.27-35.27v-88.09C682.51,869.57,684.04,868.03,685.91,868.03z" clip-rule="evenodd"></path>
    </g>
    <g>
      <path fill="#f06a30" fill-rule="evenodd" d="M691.62,962.28c22.48,7.09,51.89,18.19,86.15,32.51l0.29,0.12l2.35-0.12h3.41h3.41l2.36,0.12
			c34.39-14.38,63.89-25.52,86.45-32.64v-72.74c-56.98,74.66-97.44,24.36-140.53,24.36c-14.63,0-28.72,5.32-43.9,18.91V962.28z" clip-rule="evenodd"></path>
    </g>
    <g>
      <path fill="#ffb27d" fill-rule="evenodd" d="M763.36,612.08c13.21,18.36,34.17,34.51,62.88,48.43c-7.18,21.5-18.02,42.5-41.71,46.41
			c-22.7-3.64-35.25-20.04-40.37-43.35C756.37,650,762.76,632.83,763.36,612.08z" clip-rule="evenodd"></path>
    </g>
    <g>
      <path fill="#125aa3" fill-rule="evenodd" d="M791.97,647.95c16.09-4.01,13.99-3.49,26.48,4.04c-4.25-8.06-11.83-10.81-20.29-9.18
			C794.21,643.56,793.52,643.4,791.97,647.95z" clip-rule="evenodd"></path>
    </g>
    <g>
      <path fill="#284191" fill-rule="evenodd" d="M849.43,623.74c0-36.24-29.65-65.88-65.89-65.88c-36.23,0-65.88,29.64-65.88,65.88v103.68
			c10.8-3.76,22.89-6.86,36.31-9.32c1.48-2.68,3.28-4.95,5.45-6.84c1.59,9.53,9.74,18.27,24.42,26.23
			c14.69-7.96,22.84-16.7,24.43-26.23c2.15,1.88,3.97,4.16,5.45,6.84c13.17,2.42,25.07,5.45,35.72,9.12V623.74L849.43,623.74z
			 M763.36,612.08c13.21,18.36,34.17,34.51,62.88,48.43c-7.18,21.5-18.02,42.5-41.71,46.41c-22.7-3.64-35.25-20.04-40.37-43.35
			C756.37,650,762.76,632.83,763.36,612.08z" clip-rule="evenodd"></path>
    </g>
    <g>
      <path fill="#ffb27d" fill-rule="evenodd" d="M808.27,711.27c-1.64-2.58-2.81-7.18-3.48-13.77c-5.48,4.72-12.11,8.07-20.26,9.42
			c-9.51-1.52-17.25-5.3-23.4-10.88c-0.21,6.03-0.78,11.11-1.73,15.22c1.59,9.53,9.74,18.27,24.42,26.23
			C798.53,729.54,806.67,720.8,808.27,711.27z" clip-rule="evenodd"></path>
    </g>
    <g>
      <path fill="#f08261" fill-rule="evenodd" d="M805.46,702.49c-0.26-1.5-0.48-3.17-0.66-4.98c-5.48,4.72-12.11,8.07-20.26,9.42
			c-9.51-1.52-17.25-5.3-23.4-10.88c-0.07,2.14-0.2,4.16-0.36,6.06c5.67,3.86,13.66,7.14,23.97,9.84
			C791.27,710.2,798.16,707.76,805.46,702.49z" clip-rule="evenodd"></path>
    </g>
    <g>
      <path fill="#284191" fill-rule="evenodd" d="M717.66,680.19h29.77l-3.81,121.54H729.7l2.61-39.51l-6.89,39.51H706.6
			C713.53,773.23,720.04,710.56,717.66,680.19z" clip-rule="evenodd"></path>
    </g>
    <g>
      <path fill="#284191" fill-rule="evenodd" d="M819.92,681.67l27.9-2.38c-0.66,43.59-0.05,94.58,4.86,124.1h-14.06l-1.08-3.69l-1.66,3.69h-5.01
			l-3.46-25.39l-0.95,25.39h-10.36L819.92,681.67z" clip-rule="evenodd"></path>
    </g>
    <g>
      <path fill="#4567c6" fill-rule="evenodd" d="M693.05,1037.95c-4.72,12.01,3.96,31.39,9.84,35.27c107.22-10.76,174.15-25.83,215.45-46.71
			c12.31-6.82,33.81-9.75,46.9-18.43c31.68-33.42,7.96-77.25-23.45-75.1c-21.96,4.23-32.31,10.52-42.71,22.89
			C861.5,964.47,785.01,994.8,693.05,1037.95z" clip-rule="evenodd"></path>
    </g>
    <g>
      <path fill="#3b5bb3" fill-rule="evenodd" d="M776.69,994.35c-58.6,22.82-104.76,31.98-138.47,27.48c4.12,1.41,7.93,2.92,11.13,4.69
			c10.78,5.45,23.32,10.51,37.86,15.2c1.63-0.3,3.31-0.66,5.04-1.07c0.21-0.93,0.48-1.83,0.81-2.69
			c32.54-15.27,63.16-28.93,90.78-40.61c-1.94-0.82-3.86-1.62-5.77-2.43c-0.1-0.04-0.19-0.08-0.29-0.12
			C777.41,994.65,777.06,994.49,776.69,994.35z" clip-rule="evenodd"></path>
    </g>
    <g>
      <path fill="#3b5bb3" fill-rule="evenodd" d="M875.85,1043.17c-24.73,7.61-55,14.23-92.01,19.96c24.04,3.73,50.92,7.08,80.95,10.09
			c0.45-0.3,0.91-0.68,1.39-1.14C871.08,1067.26,876.95,1053.88,875.85,1043.17z" clip-rule="evenodd"></path>
    </g>
    <g>
      <path fill="#125aa3" fill-rule="evenodd" d="M766.47,654.61c-1.73,0.09-3.21-1.71-3.33-4c-0.11-2.3,1.19-4.23,2.92-4.33c1.73-0.08,3.22,1.72,3.33,4.01
			C769.51,652.59,768.2,654.52,766.47,654.61z" clip-rule="evenodd"></path>
    </g>
    <g>
      <path fill="#125aa3" fill-rule="evenodd" d="M801.27,656.16c1.69,0.15,3.22-1.59,3.41-3.89c0.2-2.3-1.01-4.27-2.7-4.42c-1.69-0.15-3.22,1.6-3.41,3.89
			C798.37,654.04,799.58,656.01,801.27,656.16z" clip-rule="evenodd"></path>
    </g>
    <g>
      <path fill="#125aa3" fill-rule="evenodd" d="M776.68,647.38c-14.46-6.64-12.56-5.76-25.56-0.42c5.34-7.23,12.92-8.69,20.59-5.68
			C775.3,642.69,775.98,642.63,776.68,647.38z" clip-rule="evenodd"></path>
    </g>
    <g>
      <path fill="#fff" fill-rule="evenodd" d="M799.69,685.78c-19.28,1.71-34.11,0.03-29.33,0.77C775.47,688.94,788.72,688.78,799.69,685.78z" clip-rule="evenodd"></path>
    </g>
    <g>
      <path fill="#a4d0fc" fill-rule="evenodd" d="M766.62,650.7c0.31,0.02,0.51,0.75,0.43,1.6c-0.07,0.87-0.39,1.54-0.7,1.52c-0.3-0.03-0.51-0.76-0.43-1.61
			C765.99,651.34,766.31,650.67,766.62,650.7z" clip-rule="evenodd"></path>
    </g>
    <g>
      <path fill="#a4d0fc" fill-rule="evenodd" d="M800.83,651.64c0.32,0.03,0.51,0.76,0.44,1.61c-0.07,0.87-0.39,1.54-0.7,1.52c-0.3-0.03-0.51-0.76-0.42-1.61
			C800.22,652.29,800.53,651.62,800.83,651.64z" clip-rule="evenodd"></path>
    </g>
    <g>
      <path fill="#284191" fill-rule="evenodd" d="M754.18,606.8c11.25-8.17,20.04-8.61,26.38-1.31c0.53,20.11-5.84,36.29-19.14,48.56
			C764.81,644.61,762.39,628.85,754.18,606.8z" clip-rule="evenodd"></path>
    </g>
  </g>
  <g>
    <path fill="#bbdbfa" fill-rule="evenodd" d="M1763,1310.55c-18.91-12.17-39.54-20.57-60.82-25.17v-27.91c0-8.9-7.28-16.18-16.17-16.18h-11.48h-23.53
		h-11.48c-8.9,0-16.17,7.28-16.17,16.17v27.92c-21.29,4.61-41.92,12.99-60.82,25.16l-19.72-19.72c-6.29-6.3-16.59-6.3-22.88,0
		l-8.11,8.12l-16.63,16.64l-8.12,8.11c-6.29,6.29-6.29,16.59,0,22.88l19.72,19.71c-12.18,18.91-20.57,39.54-25.17,60.83h-27.9
		c-8.91,0-16.18,7.28-16.18,16.17v11.48v23.53v11.48c0,8.91,7.28,16.17,16.18,16.17h27.9c4.6,21.3,13,41.93,25.17,60.82
		l-19.72,19.72c-6.28,6.29-6.29,16.59,0,22.88l8.12,8.11l16.63,16.65l8.12,8.11c6.28,6.29,16.58,6.29,22.87,0l19.72-19.72
		c18.91,12.17,39.54,20.57,60.82,25.17v27.91c0,8.9,7.28,16.17,16.17,16.17h11.48h23.53H1686c8.89,0,16.17-7.28,16.17-16.18v-27.9
		c21.28-4.61,41.92-13,60.82-25.17l19.72,19.72c6.3,6.29,16.59,6.29,22.88,0l8.11-8.12l16.64-16.64l8.12-8.11
		c6.3-6.29,6.3-16.59,0-22.88l-19.72-19.71c12.18-18.91,20.57-39.54,25.18-60.83h27.9c8.9,0,16.18-7.27,16.18-16.17v-11.48v-23.53
		v-11.48c0-8.89-7.28-16.17-16.18-16.17h-27.91c-4.61-21.28-13-41.92-25.17-60.82l19.72-19.72c6.3-6.29,6.3-16.59,0-22.87
		l-8.12-8.12l-16.64-16.64l-8.11-8.12c-6.29-6.3-16.59-6.3-22.88,0L1763,1310.55L1763,1310.55z M1369.31,1227.77
		c8.79-0.9,16.72,5.57,17.61,14.35l1.58,15.51c10.7,2.55,20.7,7.1,29.52,13.28l12.66-9.13c7.17-5.18,17.26-3.54,22.43,3.63
		l14.35,19.89c5.18,7.17,3.54,17.26-3.62,22.43l-12.65,9.12c1.52,5.12,2.59,10.45,3.15,15.94c0.56,5.51,0.58,10.94,0.12,16.26
		l14.24,6.39c8.05,3.63,11.69,13.18,8.07,21.24l-10.06,22.38c-3.62,8.07-13.17,11.69-21.23,8.07l-14.24-6.39
		c-7.39,7.83-16.27,14.31-26.23,18.96l1.58,15.5c0.89,8.8-5.56,16.72-14.35,17.62l-24.41,2.48c-8.79,0.9-16.72-5.55-17.61-14.35
		l-1.58-15.51c-10.7-2.54-20.7-7.09-29.52-13.27l-12.66,9.13c-7.17,5.18-17.26,3.54-22.42-3.63l-14.36-19.89
		c-5.18-7.17-3.54-17.26,3.62-22.43l12.65-9.13c-1.52-5.11-2.59-10.44-3.16-15.94c-0.56-5.51-0.58-10.94-0.12-16.26l-14.24-6.38
		c-8.05-3.62-11.69-13.18-8.07-21.24l10.06-22.38c3.61-8.07,13.17-11.69,21.23-8.08l14.24,6.4c7.39-7.83,16.27-14.3,26.24-18.95
		l-1.59-15.51c-0.89-8.79,5.57-16.71,14.35-17.6L1369.31,1227.77L1369.31,1227.77z M1368.58,1301.97
		c-21.85,0-39.57,17.71-39.57,39.57c0,21.84,17.72,39.56,39.57,39.56c21.84,0,39.56-17.72,39.56-39.56
		C1408.13,1319.68,1390.42,1301.97,1368.58,1301.97L1368.58,1301.97z M1395.9,1477.82c8.76,1.18,14.96,9.3,13.78,18.07l-2.08,15.45
		c9.81,4.96,18.47,11.72,25.6,19.79l14.44-5.93c8.18-3.36,17.61,0.58,20.96,8.75l9.33,22.69c3.35,8.17-0.58,17.6-8.76,20.96
		l-14.43,5.93c0.29,5.33,0.09,10.76-0.65,16.24c-0.74,5.48-1.98,10.78-3.66,15.83l12.35,9.53c6.99,5.4,8.29,15.54,2.9,22.53
		l-14.99,19.42c-5.4,6.99-15.54,8.29-22.53,2.9l-12.35-9.53c-9.02,5.9-19.16,10.12-29.93,12.32l-2.08,15.45
		c-1.18,8.76-9.3,14.96-18.07,13.78l-24.31-3.26c-8.76-1.18-14.95-9.31-13.78-18.07l2.07-15.45c-9.81-4.96-18.47-11.72-25.6-19.79
		l-14.44,5.93c-8.18,3.36-17.61-0.58-20.96-8.76l-9.32-22.69c-3.36-8.17,0.57-17.61,8.75-20.96l14.43-5.92
		c-0.29-5.33-0.09-10.76,0.65-16.24s1.98-10.78,3.66-15.84l-12.35-9.52c-6.99-5.41-8.29-15.54-2.9-22.53l14.99-19.42
		c5.4-6.99,15.54-8.3,22.53-2.91l12.36,9.54c9.01-5.9,19.15-10.12,29.93-12.32l2.08-15.45c1.18-8.76,9.31-14.96,18.07-13.78
		L1395.9,1477.82L1395.9,1477.82z M1368.66,1548.71c-21.85,0-39.56,17.71-39.56,39.57c0,21.84,17.71,39.56,39.56,39.56
		c21.85,0,39.56-17.72,39.56-39.56C1408.22,1566.43,1390.51,1548.71,1368.66,1548.71L1368.66,1548.71z M1662.75,1332.51
		c37.01,0,70.51,15.01,94.77,39.26c24.25,24.25,39.25,57.75,39.25,94.76c0,37.01-15,70.51-39.25,94.77
		c-24.26,24.25-57.76,39.25-94.77,39.25c-37,0-70.51-15-94.76-39.25c-24.26-24.26-39.26-57.76-39.26-94.77
		c0-37.01,15-70.51,39.26-94.76C1592.24,1347.51,1625.75,1332.51,1662.75,1332.51L1662.75,1332.51z M1593.88,1397.65
		c17.62-17.62,41.98-28.52,68.88-28.52c26.91,0,51.26,10.9,68.88,28.52c17.62,17.62,28.53,41.98,28.53,68.88
		c0,26.91-10.91,51.25-28.53,68.88c-17.62,17.62-41.97,28.53-68.88,28.53c-26.9,0-51.25-10.91-68.88-28.53
		c-17.63-17.62-28.53-41.97-28.53-68.88C1565.35,1439.63,1576.25,1415.27,1593.88,1397.65z" clip-rule="evenodd"></path>
  </g>
  <g>
    <g>
      <g>
        <path fill="#284191" fill-rule="evenodd" d="M1900.3,1207.29c33.02,11.96,54.2,13.11,63.55,3.46c9.5-2.2,15.7-10.63,18.58-25.26
				c9.82-22.29,1.42-57.9-12.4-40.27c-11.43-29.25-57.3-12.28-83.17-28.51c-15.69,10.26-9.72,35.62,1.56,44.2
				C1887.96,1190.07,1889.56,1205.65,1900.3,1207.29z" clip-rule="evenodd"></path>
      </g>
      <g>
        <path fill="#284191" fill-rule="evenodd" d="M1977.49,1148.41c-3.57-2.75-4.72-5.76-3.45-9.02c5.48-3.08,10.68-3.17,15.63-0.3
				C1986.66,1139.26,1982.6,1142.38,1977.49,1148.41z" clip-rule="evenodd"></path>
      </g>
      <g>
        <path fill="#284191" fill-rule="evenodd" d="M1970.67,1140.73c2.54,2.83,4.87,3.46,6.99,1.88c1.31-5.36,0.53-10.06-2.32-14.12
				C1975.72,1131.22,1974.15,1135.3,1970.67,1140.73z" clip-rule="evenodd"></path>
      </g>
      <g>
        <path fill="#284191" fill-rule="evenodd" d="M1953.21,1152.95c6.23-2.45,10.93-1.63,14.13,2.46c-0.25,9.33-5.09,28.09-12.52,32.19
				C1953.53,1186.69,1953.83,1166.96,1953.21,1152.95z" clip-rule="evenodd"></path>
      </g>
      <g>
        <path fill="#284191" fill-rule="evenodd" d="M1950.89,1143.94c10.51,5.11,13.99,9.72,10.41,13.81c-15.87,2.34-31.07,0.63-45.58-5.15
				C1924.46,1153.43,1936.18,1150.54,1950.89,1143.94z" clip-rule="evenodd"></path>
      </g>
      <g>
        <path fill="#284191" fill-rule="evenodd" d="M1889.16,1159.68c11.9-12.02,34.37-13.47,65.33-2.17c19.58-4.86,23.98-13.91,15.72-28.63
				c-11.69-20.81-36.99-4.36-67.99-23.93C1903.39,1120.15,1857.27,1133.18,1889.16,1159.68z" clip-rule="evenodd"></path>
      </g>
      <g>
        <path fill="#ffb27d" fill-rule="evenodd" d="M1963.6,1169.9c-8.21-1.75-7.44,15.12-6.82,23.48C1958,1209.81,1976.54,1172.64,1963.6,1169.9z" clip-rule="evenodd"></path>
      </g>
      <g>
        <path fill="#ffb27d" fill-rule="evenodd" d="M1973.21,1238.35c-4.55,0.32-11.72-0.55-12.99-2.16c-4.84-6.15-8.2-12.56-9.43-16.6
				c0.94-2.69,1.93-6.08,2.96-10.19c17.53-11.9,19.92-20.72,7.19-26.43c-2.57,1.44-5.75,5.88-9.56,13.3
				c-3.04-0.12-5.34-1.67-6.91-4.66c3.63-12.53,5.97-22.71,7.07-30.53c-8.64-12.83-28.83-14.67-55.58-11.2
				c-1.24,7.12-2.26,14.65-3.05,22.62c-3.32,3.06-13.01,54.37,19.85,56.45c0.22,3.76-0.13,8.36-0.38,8.88
				c-0.38,0.81-1.73,1.6-3.61,2.26v0.01C1908.24,1257.56,1929.73,1256.97,1973.21,1238.35z" clip-rule="evenodd"></path>
      </g>
      <g>
        <path fill="#284191" fill-rule="evenodd" d="M1895.95,1149.88c26.75-3.47,46.95-1.63,55.58,11.2c-1.1,7.82-3.45,18-7.07,30.53
				c1.57,2.99,3.87,4.54,6.91,4.66c3.8-7.42,7-11.86,9.56-13.3c12.73,5.71,10.34,14.52-7.19,26.43c-1.03,4.1-2.02,7.5-2.96,10.19
				c15.77-3.54,28.96-17.63,30.82-23.73c18.39-36.26-2.12-51.57-13.1-57.15c-4.84-35.9-56.98-4.17-83.1-21.48
				C1875.02,1131.56,1887.85,1149.55,1895.95,1149.88z" clip-rule="evenodd"></path>
      </g>
      <g>
        <path fill="#f08261" fill-rule="evenodd" d="M1930.32,1225.25c-4.28,2.11-10.13,3.34-17.58,3.69c0.15,2.52,0.04,5.42-0.12,7.22
				C1920.1,1234.72,1926,1231.08,1930.32,1225.25z" clip-rule="evenodd"></path>
      </g>
      <g>
        <path fill="#284191" fill-rule="evenodd" d="M1899.76,1141.03c-4.03,3.11-5.33,6.5-3.89,10.19c6.19,3.48,12.08,3.59,17.66,0.33
				C1910.13,1151.36,1905.54,1147.86,1899.76,1141.03z" clip-rule="evenodd"></path>
      </g>
      <g>
        <path fill="#284191" fill-rule="evenodd" d="M2006.13,1917.64c15.19-5.35,16.41-13.18,24.59-17c8.24-3.85,9.19-10.7,1.14-18.15
				c-5.96,4.75-13.34,10.6-17.26,7.5c-2.61-2.07-11.47-1.93-13.22,1.09c-7.71,17.93-18.45,12.25-20.56,20.4
				C1980.57,1922.35,1999.16,1920.09,2006.13,1917.64z" clip-rule="evenodd"></path>
      </g>
      <g>
        <path fill="#284191" fill-rule="evenodd" d="M1875.72,1918.18c28.03-0.45,48.99-0.79,58.66-3.85c10.45-3.29,8.29-9.67,2.29-19.86
				c-26.42,12.15-19.38-2.5-31.74-0.64c-8.68,7-21.55,11.67-38.58,14.05C1859.16,1913.21,1862.08,1917.94,1875.72,1918.18z" clip-rule="evenodd"></path>
      </g>
      <g>
        <path fill="#61a0e0" fill-rule="evenodd" d="M1739.76,1299.14c23.58,63.83,34.76,100.39,67.49,131.18c11.8-3.58,22.26-11.65,31.4-24.19
				c-0.49,40.34,0.52,80.49,3.02,120.45c23.89,11.33,55.6,10.59,95.15-2.2l16.04-19.76c4.12-0.79,13.48,3.76,17.96,10.69
				c37.55-28.67,62.88-59.47,77.82-90.07c-4.03-65.75-12.96-117.63-26.8-155.64c-6.99-10.75-23.41-21.31-49.26-31.7
				c-42.79,18.33-63.93,18.91-63.43,1.72c-12.58,4.12-29.28,11.44-50.08,21.92c-17.35,13.18-32.12,48.89-44.33,107.15
				c-17.76-28.22-36.42-55.83-59.86-80.34C1750.13,1289.7,1744.58,1293.2,1739.76,1299.14L1739.76,1299.14z M1961.5,1486.8
				c-12.45-40.94-5.57-91.45,20.62-151.53c6.6,29.65,13.72,58.82,21.38,87.53C1994.61,1427.03,1980.61,1448.36,1961.5,1486.8z" clip-rule="evenodd"></path>
      </g>
      <g>
        <path fill="#4567c6" fill-rule="evenodd" d="M1966.16,1540.17c-6.06-0.47-15.84-5.74-29.34-15.79c-39.55,12.79-71.26,13.52-95.15,2.2
				c-4.25,67.25,12.28,137.77,33.26,216.37c20.54,34.51,19.67,58.76,30.61,138.38c6.08,4.34,16.13,3.71,30.15-1.89
				c4.45-67.88,1.37-112.82-16.24-138.16c2.76-22.76-4.45-78.71-4.79-113.83c12.81,28.57,21.61,67.16,38.3,106.13
				c20.34,47.46,34.49,98.24,45.21,144.57c11.35,2.2,21.98,0.9,31.91-3.9c-11.39-76.14-24.02-128.54-37.87-157.21
				c0.53-74.86-6.6-142.1-21.39-201.71C1968.08,1522.35,1966.52,1530.64,1966.16,1540.17z" clip-rule="evenodd"></path>
      </g>
      <g>
        <path fill="#4f8ecc" fill-rule="evenodd" d="M1838.65,1406.13c1.3-39.18,4.45-71.29,9.42-96.35c-12.67,53.21-24.95,88.52-36.84,105.93
				c-7.5-0.24-16.05-5.06-27.57-13.73c6.93,10.47,14.4,20.06,23.59,28.34C1819.05,1426.74,1829.51,1418.68,1838.65,1406.13z" clip-rule="evenodd"></path>
      </g>
      <g>
        <path fill="#4f8ecc" fill-rule="evenodd" d="M1952.86,1504.63c2.3-5.69,5.18-11.64,8.65-17.83c-12.45-40.94-5.57-91.45,20.62-151.53
				c-38.11,54.17-48.91,111.91-32.41,173.25L1952.86,1504.63z" clip-rule="evenodd"></path>
      </g>
      <g>
        <path fill="#ffb27d" fill-rule="evenodd" d="M1934.03,1895.66c-1.41-4.63-1.95-9.63-1.6-14.98c-10.69,3.85-18.85,4.51-24.48,2.02
				c0.29,3.96-0.17,7.63-1.36,10.99C1916.32,1893.34,1911.88,1905.14,1934.03,1895.66L1934.03,1895.66z M2004.68,1889.08
				c3.36-0.89,8.12-0.51,9.92,0.91c3.5,2.77,9.77-1.6,15.32-5.97c-0.95-2.62-1.74-5.5-2.37-8.64c-6.67,2.8-13.66,4.05-20.97,3.75
				C2006.67,1883.12,2006.04,1886.43,2004.68,1889.08z" clip-rule="evenodd"></path>
      </g>
      <g>
        <path fill="#f06a30" fill-rule="evenodd" d="M1722.33,1157.29l284.39,369.77c9.44,12.27,9.73,28.37-2.68,37.92c-12.4,9.53-30.25,7.3-39.69-4.98
				l-281.26-365.7c-26.51,6.46-54.43-3.12-71.1-24.79c-12.89-16.78-14.04-34.9-11.9-53.77l4.35-7.69l35.57,46.25l40.86-5.43
				l16.97-39.45l-34.78-45.23l4.91-5.01c22.96,4.05,36.34,10.68,50.32,25.21C1734.96,1106.07,1728.48,1129.85,1722.33,1157.29z" clip-rule="evenodd"></path>
      </g>
      <g>
        <path fill="#f57a44" fill-rule="evenodd" d="M1667.97,1059.19c19.05,0.28,37.8,8.93,50.32,25.21c16.73,21.75,17.46,50.77,4.04,72.89l284.39,369.77
				c7.83,10.18,5.9,24.91-4.27,32.75l0,0c-10.19,7.83-24.92,5.9-32.76-4.27l-284.4-369.77c-24.84,7.3-52.69-0.85-69.41-22.61
				c-12.52-16.28-16.08-36.62-11.45-55.1l35.57,46.25l45.88-6.09l17.66-42.78L1667.97,1059.19z" clip-rule="evenodd"></path>
      </g>
      <g>
        <path fill="#61a0e0" fill-rule="evenodd" d="M2035.07,1448.79c-15.16,22.72-36.33,45.21-64.25,66.53c-3.31-5.51-11.65-18.77-16.21-18.51
				c4.66-4.21,3.42-3.82,6.89-10.01c13.89-27.95,25.08-46.85,33.58-56.72C2005.16,1435.71,2018.49,1441.95,2035.07,1448.79z" clip-rule="evenodd"></path>
      </g>
      <g>
        <path fill="#ffb27d" fill-rule="evenodd" d="M1961.64,1529.77L1961.64,1529.77c4.36-8.48,9.28-15.32,14.75-20.53c-1.12-8.19-7.68-16.28-11.74-17.3
				l-15.59,7.56c-13.64,1.11-24.52,3.05-32.65,5.85c5.79,4.8,11.26,6.38,16.42,4.74c-6.7,4.79-10.2,8.1-10.52,9.96
				c9.01,17.76,16.82,26.3,23.42,25.6C1954.65,1539.71,1959.95,1534.42,1961.64,1529.77z" clip-rule="evenodd"></path>
      </g>
      <g>
        <path fill="#ffb27d" fill-rule="evenodd" d="M1739.76,1299.15c-0.79-1.98-3.67-9.89-6.83-17.64c-7.82-4.02-15.55-16.46-14.51-23.66
				c2.8-9.09,0.95-13.8,9.96-16.07c2.64,0.95,6.84,6.83,9.47,16.12c-3.12,5.9,2.44,10.76,5.55,14.8c3.63,5.92,1.16,1.51,5.34,8.13
				c1.64,3.41,4.72,6.37,5.52,8.24C1749.4,1290.64,1744.7,1293.19,1739.76,1299.15z" clip-rule="evenodd"></path>
      </g>
      <g>
        <path fill="#4f8ecc" fill-rule="evenodd" d="M1975.88,1239.25c-22.93,10.46-42.16,16.36-53.04,16.08c-3.6-0.09-6.6-0.76-9.01-2.01
				c-2.57-1.33-4.45-3.29-5.63-5.87c-1.01-2.22-1.48-4-1.4-7.04l4.59-1.59c-0.06,2.33,0.39,5.13,1.09,6.67
				c0.73,1.59,1.9,2.8,3.51,3.64c1.77,0.91,4.1,1.41,6.97,1.48c10.17,0.27,24.67-3.58,46.94-13.75L1975.88,1239.25z" clip-rule="evenodd"></path>
      </g>
      <g>
        <path fill="#4f8ecc" fill-rule="evenodd" d="M1910.66,1261.52c-1.28,0.21-2.49-0.66-2.69-1.95c-0.21-1.28,0.66-2.49,1.95-2.7
				c4.5-0.72,9.24-1.02,14.21-0.9c4.97,0.11,10.17,0.64,15.58,1.57c1.28,0.21,2.14,1.43,1.93,2.71c-0.22,1.29-1.44,2.15-2.72,1.93
				c-5.21-0.89-10.18-1.39-14.87-1.5C1919.34,1260.57,1914.87,1260.85,1910.66,1261.52z" clip-rule="evenodd"></path>
      </g>
      <g>
        <path fill="#4f8ecc" fill-rule="evenodd" d="M1914.47,1266.71c-1.27,0.27-2.53-0.55-2.8-1.82c-0.27-1.27,0.55-2.52,1.82-2.8
				c3.42-0.73,7.04-1.03,10.83-0.91c3.77,0.11,7.71,0.64,11.8,1.59c1.27,0.29,2.07,1.56,1.78,2.83c-0.3,1.26-1.56,2.07-2.82,1.77
				c-3.82-0.88-7.46-1.38-10.89-1.48C1920.79,1265.79,1917.54,1266.06,1914.47,1266.71z" clip-rule="evenodd"></path>
      </g>
    </g>
    <g>
      <g>
        <g>
          <path fill="#bbdbfa" fill-rule="evenodd" d="M1925.4,1169.37c1.77-0.23,3.35,1.42,3.54,3.71c0.19,2.28-1.11,4.32-2.87,4.55
					c-1.77,0.24-3.35-1.42-3.54-3.7C1922.35,1171.64,1923.64,1169.6,1925.4,1169.37z" clip-rule="evenodd"></path>
        </g>
        <g>
          <path fill="#125aa3" fill-rule="evenodd" d="M1926.07,1177.64c1.76-0.24,3.05-2.28,2.87-4.57c-0.19-2.28-1.76-3.94-3.54-3.71
					c-0.74,0.1-1.39,0.52-1.89,1.14l0.24-0.07c0.57-0.07,1.09,0.47,1.15,1.21c0.06,0.74-0.36,1.4-0.93,1.48
					c-0.57,0.07-1.09-0.46-1.14-1.2l-0.01-0.16c-0.23,0.66-0.34,1.4-0.28,2.18C1922.71,1176.21,1924.29,1177.87,1926.07,1177.64z" clip-rule="evenodd"></path>
        </g>
      </g>
      <g>
        <path fill="#125aa3" fill-rule="evenodd" d="M1919.81,1166.63c-0.08,0.08-0.16,0.14-0.24,0.23c0.1-0.38,0.55-0.89,0.73-1.19
				c-0.19,0.15-0.3,0.21-0.47,0.44c-0.16,0.21-0.25,0.44-0.37,0.69c-0.02-0.3,0.08-0.48,0.11-0.74c-0.14,0.2-0.23,0.57-0.25,0.81
				c0.01-0.84,0.04-0.79,0.35-1.58c-0.35,0.24-0.6,1-0.65,1.43c-0.08-0.18-0.09-0.42-0.09-0.66c-0.15,0.3-0.15,0.43-0.14,0.72
				l-0.22-0.31c0.04,0.19,0.09,0.25,0.13,0.4c-0.43-0.32-1.16-1.38-1.08-1.94c0.07,0.24,0.25,0.67,0.37,0.81
				c-0.05-0.4-0.18-0.83-0.12-1.29c0.11,0.29,0.08,0.68,0.17,1.01c0.08,0.31,0.21,0.68,0.37,0.89c-0.13-0.67-0.32-1.23-0.14-1.97
				l0.03,0.18c0.01,0.35-0.01,0.74,0.07,1.07c0.08-0.62,0.03-1.2,0.54-1.67c-0.12,0.26-0.24,0.42-0.32,0.72
				c0.28-0.29,0.38-0.81,0.85-0.88c-0.2,0.24-0.39,0.4-0.61,0.74c-0.17,0.26-0.4,0.71-0.29,1.04c0.29-1.15,0.94-1.75,1.72-1.97
				c-0.21,0.11-0.87,0.6-0.92,0.88v0.05c0.05,0.31,0.05-0.28,0.02,0.07c-0.15,0.11-0.32,0.36-0.42,0.55
				c-0.07,0.12-0.12,0.27-0.17,0.41c-0.02,0.07-0.05,0.19-0.06,0.25c-0.01,0.07,0,0.06,0,0.12l0.02,0.07
				c0.21-0.77,0.47-1.19,0.99-1.61c0.32-0.27,1.06-0.72,1.48-0.78c-0.01,0.01-0.02,0.02-0.03,0.02l-0.36,0.18
				c-0.86,0.45-1.69,0.99-1.95,2.07c0.05-0.05,0,0.01,0.07-0.09c0.02-0.03,0.02-0.03,0.04-0.07c0.19-0.31,0.38-0.65,0.64-0.92
				c0.27-0.29,0.62-0.57,0.9-0.74c0.39-0.22,1.64-0.7,2.28-0.63c-0.19-0.01-1.37,0.35-1.57,0.43c-0.44,0.19-1,0.44-1.33,0.88
				c0.19-0.06,0.38-0.19,0.55-0.27c1.09-0.49,2.99-1.23,4.12-1.17c-0.7,0.15-1.71,0.46-2.23,0.77l0.44-0.09
				c-0.12,0.06-0.22,0.13-0.35,0.19c-0.12,0.07-0.22,0.1-0.34,0.18c-0.59,0.34-1.48,0.93-1.82,1.58c0.16-0.15,0.36-0.31,0.54-0.45
				c0.19-0.17,0.36-0.3,0.57-0.44c0.37-0.26,0.78-0.56,1.2-0.76c0.88-0.42,1.71-0.78,2.7-1c-0.14,0.06-0.28,0.11-0.39,0.24
				c0.8-0.04,2.1-0.69,4.11-0.78c-0.43,0.16-1.14,0.21-1.63,0.36l-0.44,0.17c0.27,0.01,1.13-0.22,1.47-0.28
				c1.72-0.33,2.79-0.56,4.64-0.55c1.19,0.01,2.3,0.01,3.51,0.51c0.76,0.33,1.49,0.72,2.13,1.25c0.23,0.19,0.34,0.32,0.52,0.49
				c-0.47-0.24-1.54-1.29-2.59-1.5c1.62,0.95,2.92,1.79,4.05,3.04c-0.3-0.19-0.74-0.61-1.08-0.87c-0.39-0.3-0.77-0.56-1.18-0.83
				c-0.72-0.48-1.88-1.14-2.81-1.37c0.21,0.18,0.78,0.45,1.06,0.62c2.01,1.14,3.94,2.44,5.71,3.91c0.2,0.18,0.62,0.62,0.77,0.72
				c-0.19-0.07-0.93-0.66-1.18-0.83c-1.3-0.9-2.53-1.71-4.11-2.16c0.41,0.32,3.29,1.47,4.2,2.31l-2.47-1.25
				c-0.76-0.34-2.02-0.9-2.85-1.01c0.95,0.19,4.61,1.86,5.35,2.47c-0.4-0.13-0.96-0.45-1.37-0.64c-0.5-0.21-0.99-0.41-1.49-0.59
				c-1.03-0.38-2.12-0.69-3.2-0.84c-1.47-0.21-2.86-0.18-4.29-0.04c-0.41,0.05-0.96,0.15-1.35,0.15c0.24-0.15,0.94-0.2,1.2-0.23
				c0.81-0.12,1.65-0.19,2.48-0.2c0.33-0.01,1.02,0.07,1.29,0.03c-1.01-0.25-1.78-0.16-2.63-0.26c0.07-0.01,0.04,0,0.1-0.02
				c0.08-0.04,0.05-0.02,0.1-0.06c-0.52-0.05-1.54,0.14-2.03,0.26c-0.58,0.15-1.73,0.6-1.8,0.61c0.15-0.1,0.28-0.18,0.39-0.29
				l-1.41,0.33l1.73-0.63c-0.34,0.04-0.81,0.22-1.14,0.31c-0.42,0.1-1.27,0.31-1.65,0.46c-0.44,0.18-1.28,0.29-1.75,0.3
				c0.17-0.1,0.73-0.26,0.98-0.34l0.93-0.33c0.18-0.07,0.33-0.11,0.48-0.19c0.43-0.23,0.89-0.4,1.34-0.58
				c0.82-0.33,3.19-1.04,4.06-0.79c-1.12-0.36-3.41,0.36-4.23,0.68l-1.87,0.77c-0.17,0.06-0.29,0.13-0.47,0.21
				c-0.45,0.18-0.92,0.39-1.4,0.52l0.03-0.1c0-0.01,0.01-0.02,0.01-0.02c0-0.01,0-0.02,0-0.03c0,0,0.01-0.01,0-0.02
				c-0.16,0.11-0.64,0.31-0.88,0.33c0.45-0.44,1.59-0.78,1.98-1.34c-0.39,0.14-0.85,0.47-1.2,0.7c-0.13,0.09-0.26,0.14-0.38,0.22
				c0.31-0.54,0.91-1.01,1.4-1.36l0.54-0.33c-0.46,0.03-1.01,0.47-1.35,0.78c-0.35,0.31-0.65,0.67-0.95,1.04
				c-0.03,0.05-0.03,0.04-0.07,0.07c-0.06,0.07-0.03,0.04-0.08,0.06l0.41-0.73c-0.07,0.14-0.65,0.73-0.68,0.93
				c0.07-0.39,0.31-0.68,0.47-0.99l-0.27,0.2c0.42-0.74,1.47-1.26,2.11-1.73c-0.64,0.07-1.8,0.97-2.22,1.56
				c-0.19,0.29-0.33,0.63-0.53,0.87l0.21-0.57c-0.01,0-0.02,0.01-0.03,0.02l-0.3,0.37c0.23-0.73,0.59-1.12,1.02-1.57
				c-0.19,0.04-0.34,0.18-0.49,0.31c-0.14,0.13-0.28,0.29-0.39,0.45c-0.24,0.34-0.45,0.73-0.61,1.15c-0.04-0.17,0.08-0.5,0.15-0.7
				c-0.13,0.04-0.02-0.01-0.13,0.07c-0.21,0.14-0.33,0.42-0.44,0.61l0.07-0.43l-0.29,0.43c0.06-0.4,0.18-0.62,0.28-0.96
				c-0.24,0.17-0.35,0.48-0.46,0.78c-0.05-0.14,0.02-0.36,0.07-0.53l-0.34,0.35c-0.08,0.12-0.17,0.26-0.25,0.37
				c0.09-0.38,0.27-0.58,0.43-0.88c-0.36,0.23-0.48,0.58-0.75,0.97c0.07-0.45,0.4-1.11,0.64-1.37c-0.4,0.07-0.64,1.11-0.82,1.33
				l0.01-0.45c-0.04,0.03-0.02,0.01-0.07,0.07l-0.24,0.45l0.03-0.58c-0.16,0.17-0.17,0.35-0.29,0.58c0.02-0.03,0-0.48,0.08-0.75
				c-0.08,0.05-0.02-0.01-0.11,0.08c-0.18,0.17-0.24,0.42-0.4,0.58l0.18-0.46c-0.07,0.03-0.03,0.01-0.09,0.06L1919.81,1166.63z" clip-rule="evenodd"></path>
      </g>
      <g>
        <g>
          <path fill="#bbdbfa" fill-rule="evenodd" d="M1897.05,1168.45c-1.63,0.23-2.82,2.27-2.66,4.55c0.17,2.29,1.63,3.94,3.27,3.71
					c1.63-0.24,2.83-2.28,2.66-4.56S1898.7,1168.21,1897.05,1168.45z" clip-rule="evenodd"></path>
        </g>
        <g>
          <path fill="#125aa3" fill-rule="evenodd" d="M1897.67,1176.71c-1.64,0.24-3.11-1.42-3.27-3.71c-0.17-2.28,1.03-4.33,2.66-4.56
					c0.69-0.1,1.35,0.14,1.89,0.61l-0.23-0.01c-0.54,0.08-0.92,0.74-0.87,1.48c0.06,0.74,0.54,1.27,1.06,1.2
					c0.54-0.07,0.92-0.74,0.87-1.48l-0.02-0.16c0.31,0.58,0.52,1.28,0.57,2.06C1900.51,1174.43,1899.31,1176.48,1897.67,1176.71z" clip-rule="evenodd"></path>
        </g>
      </g>
      <g>
        <path fill="#125aa3" fill-rule="evenodd" d="M1903.97,1167.14c0.06,0.08,0.12,0.14,0.17,0.23c-0.08-0.38-0.41-0.88-0.54-1.19
				c0.14,0.15,0.21,0.2,0.35,0.44c0.11,0.21,0.19,0.43,0.27,0.69c0.02-0.3-0.07-0.48-0.08-0.74c0.1,0.2,0.17,0.57,0.19,0.8
				c-0.03-0.84-0.05-0.78-0.29-1.57c0.25,0.24,0.45,1,0.49,1.42c0.07-0.18,0.07-0.41,0.07-0.65c0.1,0.29,0.11,0.42,0.1,0.71
				l0.16-0.3c-0.02,0.19-0.07,0.24-0.08,0.4c0.3-0.32,0.8-1.39,0.74-1.94c-0.05,0.23-0.17,0.67-0.25,0.81
				c0.03-0.4,0.12-0.84,0.07-1.3c-0.08,0.3-0.05,0.69-0.1,1.01c-0.06,0.32-0.14,0.69-0.25,0.89c0.07-0.66,0.21-1.22,0.06-1.97
				l-0.02,0.19c0,0.35,0.02,0.73-0.04,1.07c-0.07-0.63-0.04-1.21-0.41-1.67c0.09,0.26,0.18,0.41,0.24,0.72
				c-0.2-0.29-0.28-0.81-0.62-0.88c0.15,0.24,0.28,0.4,0.44,0.73c0.13,0.27,0.31,0.72,0.24,1.04c-0.23-1.15-0.71-1.74-1.27-1.96
				c0.16,0.12,0.64,0.6,0.68,0.88v0.05c-0.03,0.32-0.04-0.28-0.01,0.07c0.1,0.11,0.23,0.36,0.31,0.55c0.05,0.12,0.09,0.27,0.12,0.41
				c0.02,0.07,0.04,0.19,0.05,0.25c0,0.07,0,0.06,0,0.12l-0.01,0.07c-0.17-0.77-0.36-1.19-0.74-1.61c-0.23-0.27-0.77-0.72-1.08-0.77
				c0.01,0.01,0.02,0.02,0.02,0.02l0.26,0.17c0.63,0.45,1.24,0.98,1.44,2.07c-0.04-0.05,0,0.01-0.06-0.09
				c-0.01-0.03-0.02-0.04-0.03-0.07c-0.14-0.31-0.29-0.65-0.47-0.92c-0.2-0.29-0.45-0.56-0.66-0.73c-0.28-0.22-1.19-0.7-1.64-0.63
				c0.14-0.01,0.99,0.35,1.13,0.43c0.32,0.18,0.72,0.43,0.96,0.87c-0.13-0.06-0.27-0.19-0.4-0.26c-0.78-0.49-2.16-1.23-2.97-1.16
				c0.5,0.15,1.23,0.46,1.6,0.77l-0.31-0.09c0.08,0.06,0.16,0.13,0.25,0.19c0.09,0.07,0.17,0.1,0.25,0.18
				c0.44,0.34,1.08,0.93,1.33,1.57c-0.11-0.15-0.26-0.3-0.39-0.45c-0.14-0.16-0.27-0.3-0.42-0.44c-0.27-0.26-0.57-0.56-0.88-0.76
				c-0.63-0.42-1.24-0.77-1.94-0.99c0.09,0.06,0.2,0.11,0.28,0.24c-0.57-0.04-1.52-0.68-2.96-0.77c0.31,0.15,0.82,0.2,1.17,0.35
				l0.32,0.17c-0.19,0.01-0.8-0.21-1.05-0.28c-1.24-0.32-2-0.55-3.33-0.54c-0.86,0.02-1.65,0.02-2.5,0.53
				c-0.54,0.32-1.05,0.72-1.5,1.25c-0.16,0.18-0.24,0.32-0.36,0.5c0.34-0.24,1.08-1.3,1.84-1.52c-1.16,0.96-2.06,1.8-2.85,3.05
				c0.22-0.19,0.52-0.61,0.76-0.87c0.28-0.3,0.54-0.56,0.83-0.83c0.51-0.48,1.33-1.14,1.99-1.38c-0.15,0.18-0.55,0.46-0.75,0.62
				c-1.42,1.15-2.78,2.45-4.01,3.93c-0.15,0.18-0.43,0.62-0.54,0.72c0.14-0.07,0.65-0.66,0.83-0.83c0.91-0.9,1.78-1.72,2.91-2.18
				c-0.29,0.32-2.32,1.48-2.96,2.32l1.75-1.25c0.52-0.35,1.42-0.9,2.01-1.01c-0.67,0.18-3.26,1.85-3.77,2.48
				c0.28-0.13,0.67-0.45,0.97-0.63c0.35-0.22,0.69-0.42,1.05-0.6c0.73-0.38,1.5-0.7,2.28-0.86c1.04-0.21,2.05-0.19,3.06-0.04
				c0.3,0.04,0.69,0.14,0.97,0.13c-0.18-0.14-0.67-0.19-0.86-0.22c-0.59-0.12-1.18-0.18-1.78-0.19c-0.24-0.01-0.73,0.07-0.92,0.04
				c0.71-0.26,1.27-0.17,1.87-0.27c-0.06-0.01-0.03,0-0.07-0.03c-0.06-0.03-0.03-0.01-0.07-0.05c0.38-0.06,1.11,0.14,1.46,0.25
				c0.41,0.14,1.25,0.59,1.3,0.61c-0.1-0.11-0.2-0.17-0.28-0.29l1.01,0.33l-1.24-0.64c0.24,0.05,0.58,0.23,0.82,0.31
				c0.3,0.1,0.91,0.31,1.19,0.45c0.33,0.18,0.92,0.29,1.27,0.3c-0.12-0.1-0.53-0.26-0.71-0.34l-0.67-0.33
				c-0.13-0.07-0.23-0.1-0.34-0.19c-0.32-0.22-0.65-0.39-0.98-0.57c-0.59-0.32-2.3-1.03-2.91-0.77c0.79-0.36,2.45,0.34,3.03,0.66
				l1.36,0.77c0.13,0.06,0.22,0.13,0.34,0.19c0.32,0.19,0.67,0.39,1.01,0.52l-0.03-0.09c0-0.01,0-0.02,0-0.03c0,0,0-0.01,0-0.02
				c-0.01-0.01-0.01-0.01-0.01-0.02c0.12,0.11,0.48,0.3,0.64,0.31c-0.33-0.42-1.15-0.77-1.44-1.32c0.28,0.13,0.62,0.46,0.88,0.69
				c0.09,0.08,0.19,0.14,0.28,0.21c-0.23-0.54-0.67-0.99-1.03-1.35l-0.4-0.33c0.33,0.04,0.73,0.47,0.99,0.78
				c0.25,0.3,0.47,0.66,0.69,1.03c0.03,0.04,0.02,0.04,0.05,0.07c0.05,0.07,0.03,0.03,0.06,0.05l-0.31-0.73
				c0.06,0.15,0.48,0.73,0.51,0.93c-0.06-0.38-0.24-0.68-0.36-0.98l0.21,0.19c-0.32-0.74-1.07-1.26-1.54-1.71
				c0.45,0.07,1.3,0.96,1.61,1.55c0.15,0.28,0.25,0.64,0.39,0.87l-0.15-0.58c0,0.01,0.01,0.02,0.02,0.02l0.22,0.37
				c-0.19-0.73-0.44-1.12-0.76-1.57c0.14,0.05,0.24,0.17,0.35,0.32c0.1,0.12,0.2,0.28,0.29,0.44c0.19,0.35,0.34,0.73,0.46,1.15
				c0.02-0.18-0.07-0.49-0.12-0.7c0.09,0.05,0.01-0.01,0.09,0.07c0.15,0.14,0.24,0.42,0.33,0.61l-0.07-0.44l0.22,0.44
				c-0.06-0.4-0.15-0.62-0.22-0.96c0.18,0.17,0.26,0.48,0.35,0.78c0.03-0.14-0.02-0.36-0.06-0.53l0.24,0.35
				c0.07,0.11,0.13,0.26,0.19,0.37c-0.07-0.39-0.2-0.58-0.32-0.88c0.26,0.23,0.36,0.58,0.55,0.96c-0.07-0.44-0.3-1.1-0.48-1.37
				c0.29,0.07,0.47,1.11,0.61,1.32l-0.01-0.44c0.02,0.03,0.01,0.01,0.06,0.07l0.18,0.44l-0.03-0.57c0.11,0.16,0.13,0.34,0.21,0.57
				c-0.01-0.03,0-0.48-0.07-0.75c0.06,0.05,0.01-0.01,0.08,0.08c0.12,0.17,0.18,0.42,0.3,0.58l-0.14-0.46
				c0.05,0.03,0.02,0.01,0.07,0.06L1903.97,1167.14z" clip-rule="evenodd"></path>
      </g>
      <g>
        <path fill="#fc9774" fill-rule="evenodd" d="M1924.5,1205.66c-13.27,7.94-20.99,8.46-23.18,1.55C1910.96,1208.05,1918.69,1207.54,1924.5,1205.66z" clip-rule="evenodd"></path>
      </g>
    </g>
  </g>
  <g>
    <g>
      <g>
        <path fill="#fc9774" fill-rule="evenodd" d="M1338.52,1476.35c-12.71,187.33-57.81,394.91-264.22,448.61l-5.13,1.34l-5.12-1.34
				c-206.43-53.71-251.51-261.29-264.22-448.61l-1.23-18.05l17.78-3.33c86.08-16.14,165.02-48.4,244.3-84.8l8.49-3.9l8.49,3.9
				c79.29,36.4,158.22,68.66,244.31,84.8l17.77,3.33L1338.52,1476.35z" clip-rule="evenodd"></path>
      </g>
      <g>
        <path fill="#f06a30" fill-rule="evenodd" d="M1318.21,1474.29c-85.07-15.95-160.95-45.87-249.05-86.31c-88.1,40.44-163.98,70.36-249.05,86.31
				c17.37,255.85,93.24,389.76,249.05,430.3C1224.97,1864.05,1300.84,1730.14,1318.21,1474.29z" clip-rule="evenodd"></path>
      </g>
      <g>
        <path fill="#fbbfa8" fill-rule="evenodd" d="M1278.65,1503.87c-72.85-17.05-141.08-44.19-209.49-75.09c-68.4,30.89-136.64,58.04-209.48,75.09
				c10.23,113.8,37.97,254.49,131.47,324.09c23.61,17.58,49.96,29.85,78.01,38.11c28.05-8.26,54.4-20.52,78.01-38.11
				C1240.67,1758.36,1268.41,1617.67,1278.65,1503.87z" clip-rule="evenodd"></path>
      </g>
      <g>
        <path fill="#fc9774" fill-rule="evenodd" d="M1278.65,1503.87c-72.85-17.05-141.08-44.19-209.49-75.09v437.29c28.05-8.26,54.4-20.52,78.01-38.11
				C1240.67,1758.37,1268.41,1617.67,1278.65,1503.87z" clip-rule="evenodd"></path>
      </g>
    </g>
    <g>
      <g>
        <polygon fill="#f06a30" fill-rule="evenodd" points="991.68 1594.69 1065.7 1686.62 1158.99 1523.94 1202.61 1539.64 1078.67 1712.15 1070.84 1725.8 1059.8 1714.63 966.06 1619.88" clip-rule="evenodd"></polygon>
      </g>
      <g>
        <polygon fill="#fff" fill-rule="evenodd" points="992.58 1591.22 1066.6 1683.14 1159.88 1520.47 1203.51 1536.17 1079.56 1708.67 1071.73 1722.32 1060.69 1711.17 966.95 1616.41" clip-rule="evenodd"></polygon>
      </g>
    </g>
  </g>
  <g>
    <g>
      <path fill="#fefefe" fill-rule="evenodd" d="M1743.19,1410.38h-328.32c-28.23,0-51.3,23.07-51.3,51.3v0.05c0,28.22,23.07,51.29,51.3,51.29h328.32
			c28.23,0,51.3-23.07,51.3-51.29v-0.05C1794.49,1433.45,1771.42,1410.38,1743.19,1410.38z" clip-rule="evenodd"></path>
    </g>
    <g>
      <path fill="#61a0e0" fill-rule="evenodd" d="M1743.17,1406.94h-328.29c-15.05,0-28.74,6.16-38.66,16.07l-0.02,0.02c-9.91,9.91-16.07,23.6-16.07,38.65
			v0.01c0,15.06,6.16,28.74,16.07,38.66v0.02c9.92,9.92,23.62,16.07,38.68,16.07h328.29c15.06,0,28.76-6.16,38.67-16.07
			c9.92-9.92,16.08-23.61,16.08-38.68v-0.01c0-15.06-6.17-28.75-16.08-38.67h-0.01C1771.91,1413.1,1758.21,1406.94,1743.17,1406.94
			L1743.17,1406.94z M1414.88,1413.81h328.29c13.17,0,25.14,5.39,33.81,14.06v0.01c8.68,8.67,14.06,20.64,14.06,33.8v0.01
			c0,13.17-5.39,25.14-14.06,33.81c-8.68,8.67-20.65,14.06-33.81,14.06h-328.29c-13.16,0-25.13-5.39-33.81-14.06l-0.01,0.01
			c-8.66-8.67-14.05-20.65-14.05-33.82v-0.01c0-13.16,5.39-25.13,14.05-33.81C1389.74,1419.2,1401.71,1413.81,1414.88,1413.81z" clip-rule="evenodd"></path>
    </g>
    <g>
      <path fill="#61a0e0" fill-rule="evenodd" d="M1720.64,1458.57l5.4-14.01l7.68,4.3l-9.62,11.81l0.08,0.17l14.17-2.53v8.61l-14.34-2.54l-0.08,0.18
			l9.78,11.81l-7.25,4.47l-5.66-14.17l-0.17-0.17l-5.48,14.26l-7.76-4.38l9.86-11.56l-0.08-0.25l-14.6,2.36v-8.61l14.6,2.61v-0.25
			l-9.78-11.89l7.59-4.31l5.4,14.1H1720.64L1720.64,1458.57z M1669.85,1458.57l5.4-14.01l7.68,4.3l-9.62,11.81l0.08,0.17l14.17-2.53
			v8.61l-14.34-2.54l-0.09,0.18l9.79,11.81l-7.25,4.47l-5.66-14.17l-0.17-0.17l-5.49,14.26l-7.76-4.38l9.87-11.56l-0.08-0.25
			l-14.6,2.36v-8.61l14.6,2.61v-0.25l-9.79-11.89l7.59-4.31l5.4,14.1H1669.85L1669.85,1458.57z M1619.06,1458.57l5.4-14.01l7.68,4.3
			l-9.62,11.81l0.07,0.17l14.17-2.53v8.61l-14.34-2.54l-0.08,0.18l9.79,11.81l-7.26,4.47l-5.65-14.17l-0.17-0.17l-5.49,14.26
			l-7.76-4.38l9.87-11.56l-0.08-0.25l-14.6,2.36v-8.61l14.6,2.61v-0.25l-9.79-11.89l7.59-4.31l5.4,14.1H1619.06L1619.06,1458.57z
			 M1568.27,1458.57l5.4-14.01l7.68,4.3l-9.62,11.81l0.08,0.17l14.17-2.53v8.61l-14.34-2.54l-0.08,0.18l9.78,11.81l-7.25,4.47
			l-5.66-14.17l-0.17-0.17l-5.48,14.26l-7.76-4.38l9.87-11.56l-0.09-0.25l-14.59,2.36v-8.61l14.59,2.61v-0.25l-9.78-11.89l7.59-4.31
			l5.4,14.1H1568.27L1568.27,1458.57z M1517.49,1458.57l5.4-14.01l7.68,4.3l-9.61,11.81l0.08,0.17l14.17-2.53v8.61l-14.34-2.54
			l-0.09,0.18l9.79,11.81l-7.25,4.47l-5.65-14.17l-0.17-0.17l-5.48,14.26l-7.76-4.38l9.86-11.56l-0.08-0.25l-14.6,2.36v-8.61
			l14.6,2.61v-0.25l-9.78-11.89l7.58-4.31l5.4,14.1H1517.49L1517.49,1458.57z M1466.7,1458.57l5.4-14.01l7.68,4.3l-9.61,11.81
			l0.08,0.17l14.17-2.53v8.61l-14.35-2.54l-0.08,0.18l9.79,11.81l-7.26,4.47l-5.64-14.17l-0.17-0.17l-5.49,14.26l-7.76-4.38
			l9.87-11.56l-0.08-0.25l-14.6,2.36v-8.61l14.6,2.61v-0.25l-9.79-11.89l7.59-4.31l5.4,14.1H1466.7L1466.7,1458.57z M1415.9,1458.57
			l5.41-14.01l7.68,4.3l-9.62,11.81l0.08,0.17l14.17-2.53v8.61l-14.34-2.54l-0.08,0.18l9.79,11.81l-7.26,4.47l-5.65-14.17
			l-0.18-0.17l-5.48,14.26l-7.76-4.38l9.87-11.56l-0.09-0.25l-14.59,2.36v-8.61l14.59,2.61v-0.25l-9.78-11.89l7.59-4.31l5.4,14.1
			H1415.9z" clip-rule="evenodd"></path>
    </g>
  </g>
  <g>
    <g>
      <path fill="#81aef7" fill-rule="evenodd" d="M1017.27,675.15c7.29,0,14.24,1.19,20.6,3.34c-0.67-3.34-1.04-6.78-1.04-10.3
			c0-30.27,26.28-54.81,58.71-54.81c5.75,0,11.3,0.78,16.55,2.21c8.2-38.73,44.01-67.88,86.96-67.88c49,0,88.72,37.97,88.72,84.82
			c0,8.04-1.17,15.83-3.36,23.22c32.06,2.16,57.29,24.69,57.29,53.75c0,29.07-27.79,52.2-44.89,56.98c-2.56,0.72-6.06,0.67-10.17,0
			h-113.57v-39.94h37.31l-63.38-63.38l-63.38,63.38h37.31v39.94h-103.67c-30.27,0-54.8-20.45-54.8-45.67
			C962.47,695.59,987.01,675.15,1017.27,675.15z" clip-rule="evenodd"></path>
    </g>
    <g opacity=".17">
      <path fill="#fff" fill-rule="evenodd" d="M1304.93,671.81c10.79,9.6,17.44,22.79,17.44,37.69c0,15.28-7.68,28.91-17.44,39.1
			c-8.81,9.21-19.34,15.61-27.46,17.88h9.18c4.11,0.67,7.6,0.72,10.17,0c2.51-0.7,5.26-1.81,8.11-3.26
			c16.56-8.45,36.78-28.91,36.78-53.72c0-22.48-15.1-41.05-36.78-49.32c-6.34-2.42-13.25-3.95-20.51-4.44
			c2.19-7.38,3.36-15.17,3.36-23.22c0-46.84-39.72-84.81-88.72-84.81c-3.27,0-6.5,0.17-9.67,0.5c44.45,4.6,79.05,40.6,79.05,84.31
			c0,5.73-0.59,11.31-1.73,16.72c-0.46,2.2-1.01,4.37-1.64,6.51C1280.69,656.8,1294.69,662.68,1304.93,671.81z" clip-rule="evenodd"></path>
    </g>
    <g>
      <path fill="#4a75cb" fill-rule="evenodd" d="M1014.51,675.15c0.47,0,0.93,0,1.4,0.01c-29.64,0.6-53.44,20.81-53.44,45.65c0,25.22,24.53,45.67,54.8,45.67
			h-2.76c-30.26,0-54.8-20.45-54.8-45.67C959.71,695.59,984.25,675.15,1014.51,675.15L1014.51,675.15z M1034.95,677.57
			c-0.57-3.04-0.87-6.18-0.87-9.38c0-30.27,26.29-54.81,58.71-54.81c0.48,0,0.95,0.01,1.42,0.02
			c-31.82,0.66-57.37,24.94-57.37,54.79c0,3.52,0.36,6.96,1.04,10.3C1036.92,678.17,1035.94,677.86,1034.95,677.57L1034.95,677.57z
			 M1109.49,614.95c8.47-38.4,44.11-67.24,86.81-67.24c0.44,0,0.86,0.01,1.28,0.02c-42.28,0.65-77.37,29.58-85.48,67.87
			C1111.25,615.37,1110.37,615.14,1109.49,614.95L1109.49,614.95z M1290.97,766.96c-2.05,0.12-4.44-0.06-7.07-0.49h2.75
			C1288.18,766.73,1289.62,766.89,1290.97,766.96L1290.97,766.96z M1173.08,766.48h-2.76v-39.94h2.76V766.48L1173.08,766.48z
			 M1207.64,726.53h2.75l-63.38-63.38l-1.38,1.37L1207.64,726.53z" clip-rule="evenodd"></path>
    </g>
  </g>
</svg>
