<svg xmlns="http://www.w3.org/2000/svg" enable-background="new 0 0 2000 2000" viewBox="0 0 2000 2000" id="decentralized-application">
  <path fill="#e9eef7" fill-rule="evenodd" d="M955.7,283.47c183.95,0,162.93,297.84,295.73,388.62c175.74,120.16,478.08,60.65,478.08,266.88
	c0,362-346.43,711.66-773.81,711.66c-427.34,0-710.48-418.31-710.48-780.35C245.21,508.28,528.36,283.47,955.7,283.47L955.7,283.47z
	 M955.7,283.47" clip-rule="evenodd"></path>
  <path fill="#aabcdd" fill-rule="evenodd" d="M865.56,367.31l-6.45-10.17l13.02-8.21l10,4.84l-5.25,10.85l-3.98-1.93L865.56,367.31z M887.69,369.86
	l5.27-10.84l10.81,5.25l-5.24,10.84L887.69,369.86z M909.39,380.36l5.24-10.84l10.82,5.28l-5.25,10.82L909.39,380.36z
	 M931.04,390.85l5.25-10.82l10.85,5.25l-5.27,10.81L931.04,390.85z M952.71,401.35l5.25-10.82l10.85,5.25l-5.25,10.81L952.71,401.35
	z M974.38,411.84l5.25-10.82l10.84,5.25l-5.25,10.82L974.38,411.84z M996.03,422.34l5.28-10.82l10.81,5.25l-5.25,10.84
	L996.03,422.34z M1017.73,432.86l5.25-10.84l10.82,5.25l-5.25,10.85L1017.73,432.86z M1039.39,443.36l5.25-10.84l10.84,5.25
	l-5.28,10.84L1039.39,443.36z M1061.05,453.85l5.25-10.85l10.84,5.25l-5.24,10.85L1061.05,453.85z M1082.72,464.34l5.25-10.85
	l10.85,5.25l-5.25,10.84L1082.72,464.34z M1104.38,474.84l5.25-10.84l10.84,5.25l-5.24,10.84L1104.38,474.84z M1126.05,485.34
	l5.27-10.85l10.82,5.27l-5.25,10.82L1126.05,485.34z M1147.73,495.83l5.25-10.82l10.82,5.25l-5.25,10.82L1147.73,495.83z
	 M1169.4,506.32l5.25-10.81l10.82,5.25l-5.25,10.82L1169.4,506.32z M1191.07,516.82l5.25-10.81l10.82,5.25l-5.25,10.81
	L1191.07,516.82z M1212.72,527.31l5.26-10.82l10.81,5.25l-5.25,10.84L1212.72,527.31z M1234.39,537.84l5.25-10.85l10.85,5.25
	l-5.28,10.84L1234.39,537.84z M1256.06,548.33l5.24-10.84l10.84,5.25l-5.25,10.85L1256.06,548.33z M1271.74,557.97l11.37-3.93
	l3.93,11.37l-11.37,3.93L1271.74,557.97z M1279.59,580.72l11.37-3.93l3.96,11.38l-11.37,3.93L1279.59,580.72z M1287.47,603.47
	l11.38-3.93l3.92,11.38l-11.37,3.96L1287.47,603.47z M1295.33,626.24l11.38-3.95l3.95,11.4l-11.37,3.93L1295.33,626.24z
	 M1303.22,648.99l11.38-3.93l3.92,11.37l-11.38,3.93L1303.22,648.99z M1311.08,671.74l11.37-3.92l3.96,11.38l-11.41,3.93
	L1311.08,671.74z M1318.96,694.49l11.37-3.93l3.93,11.38l-11.37,3.93L1318.96,694.49z M1326.81,717.27l11.37-3.96l3.93,11.37
	l-11.38,3.96L1326.81,717.27z M1334.67,740.01l11.41-3.93l3.93,11.37l-11.37,3.93L1334.67,740.01z M1342.56,762.76l11.38-3.93
	l3.92,11.38l-11.37,3.92L1342.56,762.76z M1350.42,785.51l11.37-3.93l3.96,11.38l-11.38,3.92L1350.42,785.51z M1358.3,808.26
	l11.37-3.93l3.93,11.38l-11.38,3.95L1358.3,808.26z M1366.16,831.03l11.37-3.96l3.93,11.4l-11.38,3.93L1366.16,831.03z
	 M1374.04,853.78l11.38-3.92l3.93,11.37l-11.38,3.93L1374.04,853.78z M1381.9,876.53l11.38-3.93l3.92,11.38l-11.37,3.92
	L1381.9,876.53z M1389.75,899.28l11.38-3.93l3.96,11.38l-11.37,3.92L1389.75,899.28z M1397.64,922.05l11.38-3.95l3.93,11.37
	l-11.38,3.96L1397.64,922.05z M1405.5,944.8l11.37-3.95l3.96,11.4l-11.41,3.93L1405.5,944.8z M1413.38,967.55l11.37-3.92l3.93,11.38
	l-11.38,3.92L1413.38,967.55z M1421.24,990.3l11.37-3.93l3.93,11.38l-11.38,3.92L1421.24,990.3z M1429.09,1013.05l11.41-3.93
	l3.92,11.38l-11.37,3.93L1429.09,1013.05z M1430.06,1031.54l11.26,4.34l-4.34,11.23l-11.23-4.31L1430.06,1031.54z M1421.41,1054.03
	l11.23,4.34l-4.34,11.23l-11.22-4.34L1421.41,1054.03z M1412.77,1076.48l11.22,4.34l-4.34,11.23l-11.23-4.34L1412.77,1076.48z
	 M1404.08,1098.96l11.23,4.31l-4.31,11.23l-11.26-4.31L1404.08,1098.96z M1395.44,1121.42l11.23,4.34l-4.34,11.23l-11.23-4.35
	L1395.44,1121.42z M1386.77,1143.88l11.23,4.34l-4.31,11.23l-11.26-4.34L1386.77,1143.88z M1378.11,1166.36l11.23,4.31l-4.35,11.26
	l-11.22-4.34L1378.11,1166.36z M1369.44,1188.82l11.23,4.34l-4.31,11.23l-11.23-4.34L1369.44,1188.82z M1360.79,1211.27l11.22,4.34
	l-4.34,11.23l-11.23-4.34L1360.79,1211.27z M1352.12,1233.75l11.23,4.31l-4.32,11.26l-11.23-4.34L1352.12,1233.75z M1343.46,1256.2
	l11.23,4.34l-4.34,11.23l-11.23-4.34L1343.46,1256.2z M1334.79,1278.66l11.26,4.34l-4.33,11.23l-11.23-4.31L1334.79,1278.66z
	 M1326.15,1301.15l11.23,4.31l-4.34,11.26l-11.23-4.34L1326.15,1301.15z M1317.46,1323.6l11.26,4.34l-4.34,11.23l-11.23-4.34
	L1317.46,1323.6z M1308.82,1346.06l11.23,4.34l-4.34,11.23l-11.23-4.31L1308.82,1346.06z M1300.17,1368.54l11.23,4.34l-4.34,11.23
	l-11.23-4.34L1300.17,1368.54z M1291.49,1390.99l11.23,4.34l-4.31,11.23l-11.26-4.34L1291.49,1390.99z M1282.84,1413.48l11.23,4.31
	l-4.33,11.23l-11.23-4.32L1282.84,1413.48z M1274.17,1435.93l11.22,4.35l-4.31,11.23l-11.23-4.34L1274.17,1435.93z M1265.52,1458.39
	l11.23,4.34l-4.35,11.23l-11.23-4.34L1265.52,1458.39z M1261.65,1476.24l0.53,12.02l-12.02,0.55l-0.56-12.04L1261.65,1476.24z
	 M1237.59,1477.32l0.55,12.02l-12.04,0.55l-0.53-12.02L1237.59,1477.32z M1213.55,1478.44l0.53,12.02l-12.01,0.53l-0.56-12.02
	L1213.55,1478.44z M1189.48,1479.52l0.55,12.02l-12.05,0.55l-0.53-12.02L1189.48,1479.52z M1165.41,1480.61l0.56,12.01l-12.02,0.56
	l-0.56-12.02L1165.41,1480.61z M1141.38,1481.72l0.53,12.02l-12.02,0.53l-0.53-12.02L1141.38,1481.72z M1117.31,1482.81l0.56,12.01
	l-12.02,0.56l-0.56-12.02L1117.31,1482.81z M1093.27,1483.89l0.53,12.02l-12.02,0.56l-0.55-12.02L1093.27,1483.89z M1069.2,1485.01
	l0.56,12.01l-12.02,0.53l-0.56-12.01L1069.2,1485.01z M1045.16,1486.09l0.54,12.02l-12.02,0.56l-0.53-12.02L1045.16,1486.09z
	 M1021.1,1487.17l0.56,12.02l-12.01,0.56l-0.56-12.01L1021.1,1487.17z M997.06,1488.29l0.55,12.02l-12.04,0.56l-0.53-12.05
	L997.06,1488.29z M972.99,1489.37l0.56,12.02l-12.02,0.56l-0.56-12.01L972.99,1489.37z M948.96,1490.46l0.55,12.05l-12.04,0.53
	l-0.53-12.02L948.96,1490.46z M924.92,1491.57l0.53,12.01l-12.01,0.56l-0.56-12.05L924.92,1491.57z M900.86,1492.65l0.55,12.02
	l-12.04,0.56l-0.53-12.02L900.86,1492.65z M876.82,1493.74l0.53,12.04l-12.02,0.53l-0.55-12.02L876.82,1493.74z M852.75,1494.85
	l0.55,12.02l-12.02,0.56l-0.56-12.05L852.75,1494.85z M828.71,1495.94l0.53,12.02l-12.02,0.55l-0.56-12.01L828.71,1495.94z
	 M804.64,1497.02l0.56,12.05l-12.02,0.53l-0.56-12.02L804.64,1497.02z M780.61,1498.14l0.53,12.02l-12.02,0.55l-0.53-12.04
	L780.61,1498.14z M756.54,1499.22l0.56,12.02l-12.02,0.55l-0.56-12.02L756.54,1499.22z M732.5,1500.31l0.53,12.04l-12.02,0.53
	l-0.52-12.02L732.5,1500.31z M708.43,1501.42l0.56,12.02l-12.01,0.55l-0.56-12.05L708.43,1501.42z M684.4,1502.51l0.56,12.01
	l-12.04,0.56l-0.53-12.02L684.4,1502.51z M660.33,1503.59l0.55,12.02l-12.02,0.56l-0.56-12.02L660.33,1503.59z M636.29,1504.68
	l0.56,12.05l-12.04,0.53l-0.53-12.01L636.29,1504.68z M612.26,1505.79l0.53,12.02l-12.02,0.52l-0.56-12.02L612.26,1505.79z
	 M588.19,1506.87l0.56,12.02l-12.05,0.56l-0.53-12.01L588.19,1506.87z M574.79,1501.91l-10.53,5.84l-5.83-10.53l10.52-5.83
	L574.79,1501.91z M563.13,1480.84l-10.52,5.83l-5.84-10.52l10.53-5.83L563.13,1480.84z M551.49,1459.79l-10.55,5.81l-5.84-10.53
	l10.56-5.83L551.49,1459.79z M539.82,1438.72l-10.52,5.83l-5.83-10.55l10.52-5.81L539.82,1438.72z M528.16,1417.64l-10.53,5.83
	l-5.83-10.52l10.55-5.83L528.16,1417.64z M516.51,1396.59l-10.55,5.81l-5.81-10.53l10.53-5.83L516.51,1396.59z M504.84,1375.52
	l-10.52,5.83l-5.83-10.55l10.52-5.84L504.84,1375.52z M493.18,1354.44l-10.53,5.83l-5.83-10.55l10.55-5.8L493.18,1354.44z
	 M481.55,1333.37l-10.53,5.83l-5.83-10.52l10.52-5.84L481.55,1333.37z M469.87,1312.32l-10.52,5.8l-5.84-10.52l10.53-5.83
	L469.87,1312.32z M458.24,1291.24l-10.55,5.84l-5.83-10.56l10.55-5.8L458.24,1291.24z M446.57,1270.16l-10.53,5.83l-5.83-10.52
	l10.52-5.84L446.57,1270.16z M434.9,1249.08l-10.52,5.83l-5.84-10.52l10.56-5.83L434.9,1249.08z M423.26,1228.03l-10.55,5.84
	l-5.81-10.56l10.53-5.83L423.26,1228.03z M411.6,1206.96l-10.52,5.83l-5.83-10.52l10.52-5.84L411.6,1206.96z M399.96,1185.88
	l-10.56,5.84l-5.8-10.53l10.52-5.83L399.96,1185.88z M388.29,1164.83l-10.52,5.84l-5.84-10.55l10.53-5.81L388.29,1164.83z
	 M376.65,1143.76l-10.55,5.83l-5.8-10.52l10.52-5.83L376.65,1143.76z M364.99,1122.71l-10.53,5.81l-5.83-10.53l10.52-5.83
	L364.99,1122.71z M353.35,1101.63l-10.55,5.83l-5.81-10.55l10.52-5.81L353.35,1101.63z M341.68,1080.56l-10.52,5.83l-4.81-8.7
	l1.76-6.68l11.64,3.08l-0.53,2.02L341.68,1080.56z M342.85,1062.44l-11.63-3.08l3.08-11.64l11.63,3.08L342.85,1062.44z
	 M349.02,1039.16l-11.61-3.08l3.08-11.64l11.64,3.09L349.02,1039.16z M355.2,1015.92l-11.64-3.11l3.1-11.64l11.64,3.11
	L355.2,1015.92z M361.38,992.64l-11.64-3.11l3.11-11.64l11.61,3.1L361.38,992.64z M367.57,969.37l-11.63-3.11l3.08-11.64l11.63,3.11
	L367.57,969.37z M373.75,946.09l-11.63-3.08l3.08-11.64l11.64,3.08L373.75,946.09z M379.91,922.81l-11.61-3.08l3.08-11.63
	l11.64,3.08L379.91,922.81z M386.09,899.54l-11.64-3.08l3.11-11.64l11.64,3.08L386.09,899.54z M392.28,876.26l-11.64-3.08
	l3.11-11.64l11.6,3.11L392.28,876.26z M398.46,853.02l-11.63-3.11l3.08-11.64l11.64,3.11L398.46,853.02z M404.65,829.74l-11.64-3.11
	l3.08-11.64l11.64,3.11L404.65,829.74z M410.81,806.47l-11.61-3.11l3.08-11.61l11.64,3.08L410.81,806.47z M416.99,783.19
	l-11.64-3.08l3.11-11.64l11.63,3.08L416.99,783.19z M423.17,759.91l-11.63-3.08l3.11-11.63l11.61,3.08L423.17,759.91z
	 M429.36,736.64l-11.64-3.08l3.08-11.64l11.64,3.08L429.36,736.64z M435.55,713.39l-11.64-3.11l3.08-11.64l11.64,3.11L435.55,713.39
	z M441.7,690.12l-11.61-3.11l3.08-11.61l11.64,3.08L441.7,690.12z M447.89,666.85l-11.63-3.08l3.1-11.64l11.63,3.08L447.89,666.85z
	 M454.08,643.57l-11.64-3.09l3.11-11.63l11.64,3.11L454.08,643.57z M458.35,624.37l-6.42-10.18l10.18-6.42l6.45,10.17L458.35,624.37
	z M478.73,611.53l-6.43-10.17l10.18-6.45l6.42,10.21L478.73,611.53z M499.07,598.66l-6.42-10.17l10.18-6.42l6.45,10.17
	L499.07,598.66z M519.45,585.82l-6.42-10.17l10.17-6.45l6.42,10.21L519.45,585.82z M539.79,572.95l-6.42-10.17l10.18-6.42
	l6.45,10.18L539.79,572.95z M560.16,560.11l-6.41-10.17l10.17-6.45l6.42,10.2L560.16,560.11z M580.5,547.25l-6.42-10.18l10.17-6.42
	l6.45,10.17L580.5,547.25z M600.88,534.41l-6.41-10.18l10.17-6.45l6.42,10.2L600.88,534.41z M621.22,521.54l-6.42-10.17l10.17-6.42
	l6.44,10.17L621.22,521.54z M641.6,508.7l-6.43-10.18l10.18-6.45l6.42,10.2L641.6,508.7z M661.97,495.86l-6.45-10.2l10.21-6.42
	l6.42,10.18L661.97,495.86z M682.32,482.99l-6.43-10.17l10.18-6.42l6.42,10.18L682.32,482.99z M702.69,470.15l-6.45-10.2l10.21-6.42
	l6.42,10.18L702.69,470.15z M723.03,457.28l-6.41-10.17l10.17-6.43l6.42,10.18L723.03,457.28z M743.41,444.43l-6.45-10.2l10.2-6.42
	l6.42,10.17L743.41,444.43z M763.75,431.57l-6.41-10.18l10.17-6.42l6.42,10.17L763.75,431.57z M784.12,418.73l-6.45-10.18l10.2-6.45
	l6.42,10.2L784.12,418.73z M804.47,405.86l-6.42-10.18l10.17-6.42l6.42,10.17L804.47,405.86z M824.84,393.02l-6.45-10.18l10.21-6.42
	l6.42,10.17L824.84,393.02z M845.19,380.18l-6.43-10.2l10.18-6.42l6.42,10.18L845.19,380.18z M845.19,380.18" clip-rule="evenodd"></path>
  <path fill="#aabcdd" fill-rule="evenodd" d="M346.17,1076.34l-4.75,10.87l-11.05-4.81l4.23-9.67l-1.58-2.84l10.49-5.86l5.86,10.49L346.17,1076.34z
	 M359.89,1068.65l-5.86-10.49l10.52-5.87l5.86,10.5L359.89,1068.65z M380.94,1056.93l-5.87-10.5l10.5-5.86l5.86,10.49
	L380.94,1056.93z M401.95,1045.2l-5.86-10.49l10.52-5.87l5.87,10.5L401.95,1045.2z M422.97,1033.48l-5.86-10.5l10.52-5.86
	l5.86,10.49L422.97,1033.48z M444.02,1021.75l-5.86-10.49l10.52-5.87l5.86,10.5L444.02,1021.75z M465.04,1010.03l-5.87-10.5
	l10.53-5.86l5.86,10.49L465.04,1010.03z M486.09,998.3l-5.86-10.49l10.49-5.87l5.87,10.5L486.09,998.3z M507.1,986.58l-5.86-10.5
	l10.52-5.86l5.86,10.49L507.1,986.58z M528.12,974.85l-5.86-10.49l10.52-5.87l5.86,10.5L528.12,974.85z M549.18,963.13l-5.87-10.5
	l10.53-5.86l5.86,10.49L549.18,963.13z M570.19,951.4l-5.86-10.49l10.52-5.87l5.87,10.5L570.19,951.4z M591.24,939.7l-5.86-10.52
	l10.49-5.86l5.86,10.52L591.24,939.7z M612.26,927.98l-5.87-10.52l10.53-5.87l5.86,10.53L612.26,927.98z M633.28,916.25l-5.87-10.52
	l10.53-5.86l5.86,10.52L633.28,916.25z M654.32,904.52L648.46,894l10.52-5.87l5.87,10.53L654.32,904.52z M675.34,892.8l-5.86-10.52
	l10.52-5.86l5.86,10.52L675.34,892.8z M696.39,881.07l-5.87-10.52l10.5-5.87l5.86,10.53L696.39,881.07z M717.4,869.34l-5.86-10.52
	l10.53-5.86l5.86,10.52L717.4,869.34z M738.42,857.62l-5.83-10.52l10.49-5.87l5.87,10.53L738.42,857.62z M759.47,845.89l-5.86-10.52
	l10.52-5.86l5.86,10.52L759.47,845.89z M780.49,834.17l-5.87-10.52l10.53-5.87l5.86,10.53L780.49,834.17z M801.53,822.44
	l-5.86-10.49l10.5-5.86l5.86,10.49L801.53,822.44z M822.55,810.72l-5.86-10.49l10.52-5.87l5.87,10.5L822.55,810.72z M843.6,798.99
	l-5.86-10.49l10.49-5.86l5.86,10.49L843.6,798.99z M864.62,787.27l-5.87-10.49l10.53-5.87l5.86,10.5L864.62,787.27z M885.63,775.54
	l-5.86-10.49l10.53-5.86l5.86,10.49L885.63,775.54z M906.68,763.82l-5.86-10.49l10.49-5.87l5.87,10.53L906.68,763.82z M927.7,752.12
	l-5.86-10.52l10.52-5.86l5.86,10.52L927.7,752.12z M948.75,740.39l-5.87-10.52l10.5-5.87l5.86,10.53L948.75,740.39z M969.77,728.66
	l-5.86-10.52l10.52-5.86l5.87,10.52L969.77,728.66z M990.79,716.94l-5.86-10.52l10.52-5.87l5.87,10.53L990.79,716.94z
	 M1011.84,705.21l-5.86-10.52l10.49-5.86l5.86,10.52L1011.84,705.21z M1032.86,693.49l-5.87-10.52l10.53-5.87l5.86,10.53
	L1032.86,693.49z M1053.87,681.76l-5.86-10.52l10.52-5.86l5.87,10.52L1053.87,681.76z M1074.92,670.04l-5.86-10.52l10.49-5.87
	l5.87,10.53L1074.92,670.04z M1095.94,658.31l-5.86-10.52l10.52-5.86l5.86,10.52L1095.94,658.31z M1116.96,646.59l-5.87-10.52
	l10.53-5.84l5.86,10.5L1116.96,646.59z M1137.97,634.86l-5.83-10.49l10.5-5.86l5.86,10.49L1137.97,634.86z M1159.02,623.14
	l-5.86-10.5l10.49-5.86l5.87,10.5L1159.02,623.14z M1180.04,611.41l-5.86-10.49l10.52-5.86l5.86,10.49L1180.04,611.41z
	 M1201.06,599.69l-5.87-10.5l10.53-5.86l5.86,10.5L1201.06,599.69z M1222.1,587.96l-5.86-10.49l10.5-5.86l5.86,10.52L1222.1,587.96z
	 M1243.12,576.27l-5.86-10.53l10.52-5.86l5.86,10.53L1243.12,576.27z M1264.14,564.54l-5.86-10.52l10.52-5.86l5.83,10.43l7.04,0.12
	l-0.18,12.02l-12.04-0.15l0.15-9.09L1264.14,564.54z M1269.28,582.6l12.04,0.17l-0.17,12.04l-12.02-0.17L1269.28,582.6z
	 M1268.95,606.69l12.04,0.15l-0.17,12.04l-12.05-0.17L1268.95,606.69z M1268.6,630.76l12.05,0.17l-0.17,12.02l-12.02-0.15
	L1268.6,630.76z M1268.28,654.83l12.04,0.17l-0.17,12.04l-12.05-0.17L1268.28,654.83z M1267.93,678.92l12.04,0.15l-0.17,12.04
	l-12.02-0.17L1267.93,678.92z M1267.6,702.99l12.04,0.17l-0.17,12.02l-12.05-0.15L1267.6,702.99z M1267.25,727.06l12.04,0.17
	l-0.17,12.04l-12.02-0.17L1267.25,727.06z M1266.93,751.15l12.05,0.15l-0.18,12.04l-12.04-0.17L1266.93,751.15z M1266.58,775.22
	l12.05,0.17l-0.18,12.02l-12.01-0.15L1266.58,775.22z M1266.25,799.29l12.05,0.17l-0.18,12.04l-12.04-0.17L1266.25,799.29z
	 M1265.9,823.38l12.05,0.15l-0.18,12.04l-12.02-0.17L1265.9,823.38z M1265.58,847.45l12.05,0.17l-0.18,12.02l-12.04-0.18
	L1265.58,847.45z M1265.25,871.52l12.02,0.17l-0.17,12.02l-12.02-0.15L1265.25,871.52z M1264.9,895.59l12.05,0.17l-0.17,12.04
	l-12.05-0.17L1264.9,895.59z M1264.59,919.65l12.01,0.17l-0.14,12.05l-12.05-0.18L1264.59,919.65z M1264.23,943.75l12.04,0.14
	l-0.17,12.05l-12.05-0.18L1264.23,943.75z M1263.91,967.82l12.02,0.17l-0.14,12.02l-12.05-0.15L1263.91,967.82z M1263.56,991.88
	l12.04,0.17l-0.17,12.02l-12.02-0.15L1263.56,991.88z M1263.24,1015.95l12.05,0.17l-0.17,12.05l-12.05-0.18L1263.24,1015.95z
	 M1262.91,1040.05l12.01,0.14l-0.14,12.05l-12.05-0.18L1262.91,1040.05z M1262.56,1064.11l12.04,0.17l-0.17,12.02l-12.02-0.18
	L1262.56,1064.11z M1262.24,1088.18l12.02,0.17l-0.15,12.02l-12.04-0.15L1262.24,1088.18z M1261.88,1112.25l12.05,0.17l-0.18,12.05
	l-12.01-0.18L1261.88,1112.25z M1261.56,1136.34l12.05,0.14l-0.18,12.05l-12.05-0.18L1261.56,1136.34z M1261.24,1160.41l12.02,0.14
	l-0.15,12.05l-12.04-0.18L1261.24,1160.41z M1260.89,1184.48l12.05,0.17l-0.18,12.02l-12.01-0.15L1260.89,1184.48z M1260.56,1208.54
	l12.05,0.17l-0.18,12.02l-12.04-0.15L1260.56,1208.54z M1260.22,1232.61l12.04,0.17l-0.17,12.05l-12.02-0.18L1260.22,1232.61z
	 M1259.9,1256.71l12.04,0.14l-0.17,12.05l-12.05-0.18L1259.9,1256.71z M1259.57,1280.77l12.01,0.17l-0.14,12.02l-12.06-0.18
	L1259.57,1280.77z M1259.22,1304.84l12.04,0.17l-0.17,12.02l-12.02-0.15L1259.22,1304.84z M1258.9,1328.91l12.04,0.17l-0.17,12.05
	l-12.05-0.18L1258.9,1328.91z M1258.57,1353l12.02,0.14l-0.14,12.05l-12.05-0.18L1258.57,1353z M1258.22,1377.07l12.05,0.14
	l-0.18,12.05l-12.05-0.18L1258.22,1377.07z M1257.9,1401.14l12.02,0.17l-0.14,12.02l-12.05-0.15L1257.9,1401.14z M1257.55,1425.2
	l12.05,0.17l-0.18,12.05l-12.02-0.18L1257.55,1425.2z M1257.22,1449.27l12.05,0.17l-0.18,12.05l-12.04-0.18L1257.22,1449.27z
	 M1256.9,1473.37l12.02,0.14l-0.24,17.82l-11.31-4.92l1.87-4.25l-2.49-0.03L1256.9,1473.37z M1251.15,1470.58l-4.8,11.01l-11.06-4.8
	l4.84-11.02L1251.15,1470.58z M1229.08,1460.94l-4.81,11.05l-11.05-4.8l4.83-11.06L1229.08,1460.94z M1207.01,1451.32l-4.81,11.05
	l-11.06-4.81l4.84-11.05L1207.01,1451.32z M1184.93,1441.71l-4.8,11.06l-11.05-4.84l4.84-11.02L1184.93,1441.71z M1162.86,1432.09
	l-4.81,11.02l-11.05-4.81l4.83-11.02L1162.86,1432.09z M1140.78,1422.48l-4.8,11.02l-11.06-4.8l4.84-11.02L1140.78,1422.48z
	 M1118.71,1412.83l-4.81,11.06l-11.05-4.81l4.83-11.05L1118.71,1412.83z M1096.64,1403.22l-4.81,11.05l-11.05-4.81l4.84-11.06
	L1096.64,1403.22z M1074.57,1393.6l-4.8,11.03l-11.05-4.81l4.83-11.02L1074.57,1393.6z M1052.5,1383.99l-4.81,11.02l-11.05-4.8
	l4.83-11.02L1052.5,1383.99z M1030.42,1374.37l-4.8,11.02l-11.06-4.81l4.84-11.05L1030.42,1374.37z M1008.35,1364.73l-4.81,11.06
	l-11.05-4.81l4.83-11.05L1008.35,1364.73z M986.28,1355.11l-4.81,11.05l-11.05-4.81l4.84-11.06L986.28,1355.11z M964.2,1345.5
	l-4.8,11.02l-11.05-4.8l4.83-11.02L964.2,1345.5z M942.13,1335.88l-4.81,11.02l-11.05-4.8l4.83-11.03L942.13,1335.88z
	 M920.05,1326.27l-4.8,11.02l-11.05-4.81l4.84-11.05L920.05,1326.27z M897.98,1316.62l-4.81,11.05l-11.05-4.81l4.83-11.05
	L897.98,1316.62z M875.91,1307.01l-4.81,11.05l-11.02-4.8l4.81-11.06L875.91,1307.01z M853.83,1297.4l-4.8,11.05l-11.02-4.8
	l4.8-11.05L853.83,1297.4z M831.76,1287.78l-4.81,11.05l-11.03-4.81l4.81-11.05L831.76,1287.78z M809.68,1278.16l-4.8,11.02
	l-11.02-4.81l4.81-11.02L809.68,1278.16z M787.61,1268.55l-4.81,11.02l-11.02-4.81l4.8-11.02L787.61,1268.55z M765.57,1258.94
	l-4.84,11.02l-11.02-4.8l4.81-11.03L765.57,1258.94z M743.49,1249.32l-4.81,11.02l-11.05-4.81l4.8-11.02L743.49,1249.32z
	 M721.42,1239.7l-4.81,11.02l-11.06-4.81l4.81-11.02L721.42,1239.7z M699.35,1230.09l-4.8,11.02l-11.06-4.81l4.81-11.06
	L699.35,1230.09z M677.27,1220.45l-4.81,11.05l-11.05-4.8l4.83-11.05L677.27,1220.45z M655.2,1210.82l-4.8,11.06l-11.03-4.81
	l4.81-11.05L655.2,1210.82z M633.13,1201.21l-4.81,11.05l-11.01-4.81l4.8-11.05L633.13,1201.21z M611.06,1191.6l-4.81,11.06
	l-11.02-4.81l4.81-11.05L611.06,1191.6z M588.98,1181.99l-4.8,11.05l-11.03-4.83l4.8-11.02L588.98,1181.99z M566.94,1172.37
	l-4.84,11.02l-11.02-4.8l4.81-11.02L566.94,1172.37z M544.86,1162.75l-4.8,11.02l-11.05-4.81l4.81-11.02L544.86,1162.75z
	 M522.79,1153.14l-4.81,11.02l-11.05-4.81l4.8-11.02L522.79,1153.14z M500.71,1143.53l-4.8,11.01l-11.05-4.8l4.81-11.02
	L500.71,1143.53z M478.64,1133.91l-4.81,11.02l-11.05-4.8l4.83-11.02L478.64,1133.91z M456.57,1124.26l-4.81,11.05l-11.02-4.81
	l4.81-11.05L456.57,1124.26z M434.49,1114.65l-4.8,11.06l-11.02-4.81l4.81-11.05L434.49,1114.65z M412.42,1105.04l-4.81,11.05
	l-11.02-4.8l4.81-11.05L412.42,1105.04z M390.34,1095.41l-4.8,11.05l-11.02-4.8l4.81-11.05L390.34,1095.41z M368.3,1085.8
	l-4.84,11.05l-11.01-4.81l4.8-11.05L368.3,1085.8z M368.3,1085.8" clip-rule="evenodd"></path>
  <path fill="#aabcdd" fill-rule="evenodd" d="M461.69,631.06l-11.93,1.6l-2.43-18.2l9.97-0.82l0.5,5.81l2.28-0.32L461.69,631.06z M470.32,624.6l-1.03-11.98
	l12.02-1l0.99,11.98L470.32,624.6z M494.3,622.61l-1-11.99l11.99-1.03l0.99,12.02L494.3,622.61z M518.3,620.59l-1.02-11.99
	l12.02-0.99l1,11.98L518.3,620.59z M542.28,618.59l-1-11.98l11.99-1.03l1,12.02L542.28,618.59z M566.29,616.57l-1.03-11.99l12.02-1
	l0.99,11.99L566.29,616.57z M590.27,614.58l-1-12.02l11.99-1l1,11.99L590.27,614.58z M614.27,612.56l-1.02-11.99l12.01-1l1,11.99
	L614.27,612.56z M638.26,610.56l-1-12.02l11.98-1l1,11.98L638.26,610.56z M662.27,608.54l-1.03-11.99l12.02-1l0.99,11.99
	L662.27,608.54z M686.24,606.52l-1-11.99l11.99-0.99l1,11.98L686.24,606.52z M710.25,604.52l-1.02-11.98l12.01-1.03l1,12.02
	L710.25,604.52z M734.23,602.5l-0.99-11.99l11.98-1l1,11.99L734.23,602.5z M758.24,600.51l-1.03-11.98l11.99-1.03l1.03,12.02
	L758.24,600.51z M782.22,598.49l-1-11.99l11.99-1l1,11.99L782.22,598.49z M806.22,596.49l-1.02-12.02l11.99-1l1.03,11.98
	L806.22,596.49z M830.21,594.47l-1-11.99l11.99-1l0.99,11.99L830.21,594.47z M854.18,592.47l-1-12.02l11.99-0.99l1.03,11.98
	L854.18,592.47z M878.19,590.45l-1-11.98l11.99-1l1,11.99L878.19,590.45z M902.18,588.46l-1-12.02l11.98-1l1.03,11.99L902.18,588.46
	z M926.18,586.43l-1-11.98l11.99-1l0.99,11.98L926.18,586.43z M950.16,584.44l-1-11.99l11.99-1.03l1.03,12.02L950.16,584.44z
	 M974.17,582.42l-0.99-11.99l11.99-0.99l1,11.99L974.17,582.42z M998.15,580.42l-1-11.98l11.98-1.03l1.03,12.02L998.15,580.42z
	 M1022.16,578.4l-1-11.99l11.99-1l0.99,11.99L1022.16,578.4z M1046.13,576.41l-0.99-11.99l11.99-1l1.03,11.99L1046.13,576.41z
	 M1070.14,574.42l-0.99-12.02l11.98-0.99l1,11.99L1070.14,574.42z M1094.12,572.39l-1-11.99l11.99-1l1.02,11.99L1094.12,572.39z
	 M1118.13,570.41l-1-12.02l11.99-1l1,11.99L1118.13,570.41z M1142.11,568.38l-1-11.99l11.99-0.99l1.03,11.99L1142.11,568.38z
	 M1166.11,566.38l-0.99-11.98l11.98-1.03l1,12.02L1166.11,566.38z M1190.1,564.36l-1-11.99l11.99-1l0.99,11.99L1190.1,564.36z
	 M1214.1,562.37l-1.03-11.99l11.99-1.03l1.03,12.01L1214.1,562.37z M1238.08,560.35l-1-11.99l11.99-1l1,11.99L1238.08,560.35z
	 M1262.06,558.35l-1-11.99l11.98-0.99l1,11.99l-5.86,0.5l6.63,4.8l-7.09,9.73l-9.73-7.09l5.12-7.04L1262.06,558.35z M1250.89,575.03
	l9.73,7.09l-7.09,9.73l-9.73-7.09L1250.89,575.03z M1236.71,594.49l9.73,7.1l-7.1,9.73l-9.7-7.1L1236.71,594.49z M1222.55,613.96
	l9.7,7.1l-7.06,9.72l-9.74-7.09L1222.55,613.96z M1208.36,633.4l9.73,7.09l-7.09,9.74l-9.73-7.09L1208.36,633.4z M1194.17,652.86
	l9.74,7.09l-7.1,9.73l-9.73-7.09L1194.17,652.86z M1179.98,672.33l9.73,7.09l-7.09,9.73l-9.73-7.1L1179.98,672.33z M1165.79,691.79
	l9.73,7.1l-7.09,9.73l-9.73-7.1L1165.79,691.79z M1151.64,711.22l9.7,7.09l-7.1,9.74l-9.7-7.09L1151.64,711.22z M1137.44,730.69
	l9.74,7.09l-7.09,9.73l-9.73-7.09L1137.44,730.69z M1123.26,750.16l9.72,7.09l-7.09,9.73l-9.74-7.09L1123.26,750.16z
	 M1109.07,769.62l9.73,7.1l-7.1,9.73l-9.72-7.1L1109.07,769.62z M1094.88,789.05l9.73,7.1l-7.09,9.72l-9.73-7.09L1094.88,789.05z
	 M1080.7,808.52l9.72,7.09l-7.09,9.73l-9.7-7.09L1080.7,808.52z M1066.54,827.99l9.7,7.09l-7.09,9.73l-9.7-7.09L1066.54,827.99z
	 M1052.35,847.45l9.73,7.09l-7.09,9.7l-9.73-7.07L1052.35,847.45z M1038.16,866.88l9.74,7.1l-7.1,9.73l-9.73-7.1L1038.16,866.88z
	 M1023.97,886.35l9.73,7.09l-7.09,9.73l-9.74-7.09L1023.97,886.35z M1009.78,905.82l9.73,7.09l-7.09,9.73l-9.73-7.09L1009.78,905.82
	z M995.6,925.28l9.73,7.09l-7.1,9.7l-9.7-7.07L995.6,925.28z M981.44,944.71l9.7,7.1l-7.06,9.73l-9.73-7.1L981.44,944.71z
	 M967.24,964.18l9.74,7.1l-7.09,9.72l-9.74-7.09L967.24,964.18z M953.06,983.64l9.73,7.09l-7.1,9.73l-9.73-7.09L953.06,983.64z
	 M938.87,1003.11l9.74,7.09l-7.09,9.7l-9.73-7.06L938.87,1003.11z M924.69,1022.55l9.72,7.09l-7.09,9.73l-9.73-7.1L924.69,1022.55z
	 M910.53,1042.01l9.7,7.1l-7.09,9.72l-9.7-7.09L910.53,1042.01z M896.34,1061.47l9.73,7.09l-7.09,9.73l-9.73-7.09L896.34,1061.47z
	 M882.15,1080.94l9.72,7.09l-7.09,9.7l-9.73-7.06L882.15,1080.94z M867.96,1100.38l9.73,7.09l-7.09,9.73l-9.74-7.09L867.96,1100.38z
	 M853.77,1119.83l9.73,7.1l-7.09,9.73l-9.73-7.1L853.77,1119.83z M839.62,1139.3l9.7,7.09l-7.07,9.73l-9.73-7.09L839.62,1139.3z
	 M825.43,1158.77l9.74,7.09l-7.09,9.7l-9.73-7.06L825.43,1158.77z M811.23,1178.2l9.74,7.09l-7.09,9.73l-9.73-7.09L811.23,1178.2z
	 M797.08,1197.66l9.7,7.1l-7.1,9.73l-9.7-7.1L797.08,1197.66z M782.89,1217.13l9.73,7.1l-7.09,9.72l-9.73-7.09L782.89,1217.13z
	 M768.7,1236.6l9.73,7.09l-7.09,9.7l-9.73-7.06L768.7,1236.6z M754.52,1256.03l9.73,7.09l-7.1,9.73l-9.7-7.09L754.52,1256.03z
	 M740.36,1275.5l9.7,7.09l-7.06,9.73l-9.74-7.1L740.36,1275.5z M726.17,1294.96l9.73,7.1l-7.09,9.73l-9.73-7.1L726.17,1294.96z
	 M711.98,1314.42l9.73,7.09l-7.1,9.7l-9.72-7.06L711.98,1314.42z M697.82,1333.86l9.7,7.09l-7.09,9.73l-9.7-7.09L697.82,1333.86z
	 M683.63,1353.33l9.74,7.09l-7.09,9.73l-9.74-7.09L683.63,1353.33z M669.45,1372.79l9.73,7.1l-7.1,9.73l-9.72-7.1L669.45,1372.79z
	 M655.26,1392.25l9.74,7.09l-7.09,9.7l-9.7-7.06L655.26,1392.25z M641.1,1411.69l9.72,7.09l-7.09,9.73l-9.73-7.09L641.1,1411.69z
	 M626.91,1431.16l9.73,7.09l-7.1,9.73l-9.72-7.09L626.91,1431.16z M612.72,1450.62l9.73,7.09l-7.09,9.73l-9.73-7.1L612.72,1450.62z
	 M598.57,1470.05l9.7,7.1l-7.06,9.73l-9.73-7.1L598.57,1470.05z M584.38,1489.52l9.74,7.09l-7.1,9.73l-9.72-7.09L584.38,1489.52z
	 M579.51,1515.78l0.41,0.29l-9.55,13.1l-3.46-25.56l11.96-1.61l1.43,10.7L579.51,1515.78z M577.25,1490.07l-11.93,1.61l-1.61-11.93
	l11.93-1.61L577.25,1490.07z M574.03,1466.22l-11.93,1.61l-1.61-11.92l11.96-1.61L574.03,1466.22z M570.83,1442.35l-11.93,1.61
	l-1.61-11.93l11.92-1.61L570.83,1442.35z M567.61,1418.49l-11.93,1.61l-1.61-11.93l11.96-1.61L567.61,1418.49z M564.41,1394.63
	l-11.93,1.61l-1.61-11.92l11.93-1.61L564.41,1394.63z M561.19,1370.77l-11.93,1.61l-1.61-11.93l11.93-1.61L561.19,1370.77z
	 M557.99,1346.9l-11.93,1.61l-1.61-11.93l11.92-1.61L557.99,1346.9z M554.77,1323.05l-11.93,1.61l-1.62-11.92l11.93-1.61
	L554.77,1323.05z M551.58,1299.18l-11.93,1.61l-1.61-11.93l11.93-1.61L551.58,1299.18z M548.35,1275.32l-11.93,1.61L534.8,1265
	l11.93-1.61L548.35,1275.32z M545.15,1251.45l-11.93,1.61l-1.61-11.93l11.93-1.61L545.15,1251.45z M541.93,1227.6l-11.93,1.61
	l-1.62-11.93l11.93-1.61L541.93,1227.6z M538.74,1203.73l-11.93,1.61l-1.61-11.93l11.93-1.61L538.74,1203.73z M535.51,1179.87
	l-11.93,1.61l-1.61-11.93l11.93-1.61L535.51,1179.87z M532.31,1156.01l-11.92,1.61l-1.61-11.93l11.93-1.61L532.31,1156.01z
	 M529.09,1132.15l-11.93,1.61l-1.62-11.93l11.93-1.61L529.09,1132.15z M525.89,1108.28l-11.93,1.61l-1.61-11.93l11.93-1.61
	L525.89,1108.28z M522.67,1084.43l-11.93,1.6l-1.6-11.93l11.92-1.61L522.67,1084.43z M519.47,1060.56l-11.92,1.61l-1.61-11.93
	l11.93-1.61L519.47,1060.56z M516.25,1036.7l-11.93,1.61l-1.61-11.93l11.93-1.61L516.25,1036.7z M513.05,1012.84l-11.93,1.6
	l-1.61-11.93l11.93-1.61L513.05,1012.84z M509.83,988.98l-11.93,1.61l-1.6-11.93l11.92-1.61L509.83,988.98z M506.64,965.11
	l-11.96,1.61l-1.58-11.93l11.93-1.61L506.64,965.11z M503.41,941.26l-11.93,1.61l-1.61-11.93l11.93-1.61L503.41,941.26z
	 M500.22,917.4l-11.96,1.61l-1.58-11.93l11.93-1.61L500.22,917.4z M496.99,893.53l-11.92,1.61l-1.62-11.93l11.93-1.61L496.99,893.53
	z M493.77,869.67l-11.93,1.61l-1.58-11.93l11.93-1.6L493.77,869.67z M490.57,845.81l-11.93,1.61l-1.61-11.93l11.93-1.61
	L490.57,845.81z M487.34,821.95l-11.93,1.61l-1.58-11.93l11.93-1.61L487.34,821.95z M484.15,798.08l-11.92,1.61l-1.62-11.93
	l11.93-1.6L484.15,798.08z M480.96,774.22L469,775.84l-1.58-11.93l11.93-1.61L480.96,774.22z M477.73,750.36l-11.93,1.61
	l-1.61-11.93l11.93-1.61L477.73,750.36z M474.53,726.5l-11.93,1.61L461,716.18l11.93-1.62L474.53,726.5z M471.31,702.64l-11.93,1.61
	l-1.58-11.93l11.93-1.61L471.31,702.64z M468.12,678.78l-11.93,1.61l-1.61-11.93l11.93-1.61L468.12,678.78z M464.92,654.91
	l-11.96,1.61l-1.58-11.93l11.93-1.62L464.92,654.91z M464.92,654.91" clip-rule="evenodd"></path>
  <path fill="#aabcdd" fill-rule="evenodd" d="M875.35,368.96l-11.66-2.99l5.89-22.92l12.69,14.95l-5.25,4.46L875.35,368.96z M880.86,374.97l9.17-7.78
	l7.8,9.18l-9.17,7.77L880.86,374.97z M896.46,393.35l9.18-7.8l7.77,9.17l-9.18,7.8L896.46,393.35z M912.02,411.69l9.18-7.77
	l7.8,9.18l-9.21,7.77L912.02,411.69z M927.58,430.07l9.18-7.8l7.8,9.18l-9.18,7.8L927.58,430.07z M943.16,448.43l9.17-7.77l7.8,9.18
	l-9.17,7.77L943.16,448.43z M958.72,466.81l9.2-7.8l7.76,9.17l-9.17,7.8L958.72,466.81z M974.32,485.16l9.17-7.77l7.8,9.18
	l-9.21,7.8L974.32,485.16z M989.88,503.53l9.18-7.8l7.8,9.18l-9.18,7.8L989.88,503.53z M1005.44,521.89l9.18-7.77l7.8,9.17
	l-9.18,7.77L1005.44,521.89z M1021.01,540.27l9.21-7.8l7.76,9.18l-9.17,7.8L1021.01,540.27z M1036.61,558.62l9.17-7.8l7.8,9.21
	l-9.2,7.77L1036.61,558.62z M1052.17,576.97l9.18-7.78l7.8,9.18l-9.18,7.8L1052.17,576.97z M1067.74,595.35l9.18-7.8l7.8,9.17
	l-9.18,7.8L1067.74,595.35z M1083.3,613.7l9.21-7.77l7.77,9.18l-9.18,7.77L1083.3,613.7z M1098.89,632.08l9.18-7.8l7.77,9.18
	l-9.17,7.8L1098.89,632.08z M1114.47,650.43l9.17-7.8l7.8,9.2l-9.2,7.77L1114.47,650.43z M1130.03,668.78l9.17-7.77l7.81,9.17
	l-9.18,7.8L1130.03,668.78z M1145.6,687.16l9.21-7.8l7.77,9.18l-9.18,7.8L1145.6,687.16z M1161.19,705.51l9.18-7.77l7.77,9.18
	l-9.18,7.77L1161.19,705.51z M1176.75,723.89l9.18-7.8l7.8,9.17l-9.2,7.8L1176.75,723.89z M1192.33,742.24l9.17-7.8l7.8,9.2
	l-9.17,7.77L1192.33,742.24z M1207.89,760.59l9.2-7.77l7.78,9.18l-9.18,7.8L1207.89,760.59z M1223.48,778.98l9.18-7.8l7.76,9.18
	l-9.18,7.8L1223.48,778.98z M1239.05,797.32l9.18-7.77l7.79,9.17l-9.21,7.77L1239.05,797.32z M1254.61,815.7l9.18-7.8l7.8,9.18
	l-9.18,7.8L1254.61,815.7z M1270.18,834.05l9.17-7.8l7.8,9.21l-9.17,7.77L1270.18,834.05z M1285.75,852.41l9.2-7.77l7.78,9.17
	l-9.18,7.8L1285.75,852.41z M1301.31,870.78l9.21-7.8l7.77,9.17l-9.18,7.8L1301.31,870.78z M1316.91,889.13l9.18-7.77l7.77,9.18
	l-9.18,7.77L1316.91,889.13z M1332.47,907.51l9.18-7.79l7.77,9.18l-9.17,7.8L1332.47,907.51z M1348.05,925.87l9.17-7.8l7.8,9.2
	l-9.2,7.77L1348.05,925.87z M1363.61,944.22l9.18-7.77l7.8,9.18l-9.18,7.8L1363.61,944.22z M1379.17,962.6l9.18-7.8l7.8,9.18
	l-9.18,7.8L1379.17,962.6z M1394.74,980.95l9.18-7.78l7.8,9.18l-9.18,7.77L1394.74,980.95z M1410.31,999.33l9.2-7.8l7.77,9.17
	l-9.17,7.8L1410.31,999.33z M1425.87,1017.68l9.2-7.8l7.76,9.21l-9.17,7.77L1425.87,1017.68z M1427.37,1024.1l5.92,10.49
	l-10.47,5.92l-5.95-10.46L1427.37,1024.1z M1406.4,1035.97l5.92,10.46l-10.47,5.95l-5.94-10.49L1406.4,1035.97z M1385.44,1047.81
	l5.92,10.49l-10.46,5.92l-5.95-10.46L1385.44,1047.81z M1364.49,1059.69l5.92,10.46l-10.46,5.92l-5.95-10.46L1364.49,1059.69z
	 M1343.53,1071.53l5.92,10.49l-10.46,5.92l-5.92-10.49L1343.53,1071.53z M1322.57,1083.4l5.92,10.46l-10.46,5.93l-5.92-10.47
	L1322.57,1083.4z M1301.6,1095.24l5.92,10.47l-10.46,5.95l-5.92-10.5L1301.6,1095.24z M1280.65,1107.08l5.95,10.5l-10.49,5.92
	l-5.92-10.47L1280.65,1107.08z M1259.68,1118.96l5.95,10.47l-10.49,5.92l-5.92-10.47L1259.68,1118.96z M1238.75,1130.8l5.92,10.5
	l-10.49,5.92l-5.92-10.5L1238.75,1130.8z M1217.79,1142.67l5.92,10.47l-10.49,5.92l-5.92-10.47L1217.79,1142.67z M1196.84,1154.51
	l5.92,10.5l-10.46,5.92l-5.95-10.49L1196.84,1154.51z M1175.88,1166.39l5.92,10.46l-10.46,5.92l-5.95-10.46L1175.88,1166.39z
	 M1154.92,1178.23l5.92,10.46l-10.46,5.95l-5.92-10.49L1154.92,1178.23z M1133.96,1190.08l5.92,10.49l-10.46,5.92l-5.92-10.46
	L1133.96,1190.08z M1113,1201.95l5.92,10.46l-10.46,5.92l-5.92-10.46L1113,1201.95z M1092.04,1213.79l5.95,10.49l-10.49,5.92
	l-5.92-10.49L1092.04,1213.79z M1071.08,1225.66l5.95,10.46l-10.49,5.93l-5.92-10.47L1071.08,1225.66z M1050.15,1237.5l5.92,10.5
	l-10.49,5.92l-5.92-10.5L1050.15,1237.5z M1029.19,1249.35l5.92,10.5l-10.49,5.92l-5.92-10.47L1029.19,1249.35z M1008.23,1261.22
	l5.92,10.47l-10.46,5.92l-5.95-10.47L1008.23,1261.22z M987.27,1273.06l5.92,10.47l-10.46,5.95l-5.95-10.5L987.27,1273.06z
	 M966.31,1284.9l5.92,10.5l-10.46,5.92l-5.92-10.47L966.31,1284.9z M945.35,1296.78l5.93,10.46l-10.47,5.92l-5.92-10.46
	L945.35,1296.78z M924.39,1308.62l5.92,10.46l-10.47,5.95l-5.92-10.49L924.39,1308.62z M903.44,1320.46l5.95,10.49l-10.5,5.92
	l-5.92-10.49L903.44,1320.46z M882.48,1332.34l5.95,10.46l-10.5,5.92l-5.92-10.46L882.48,1332.34z M861.54,1344.18l5.93,10.46
	l-10.5,5.95l-5.92-10.49L861.54,1344.18z M840.59,1356.02l5.92,10.49l-10.5,5.93l-5.92-10.5L840.59,1356.02z M819.63,1367.89
	l5.92,10.47l-10.47,5.92l-5.95-10.47L819.63,1367.89z M798.67,1379.73l5.92,10.47l-10.47,5.92l-5.95-10.47L798.67,1379.73z
	 M777.71,1391.58l5.92,10.5l-10.47,5.92l-5.92-10.5L777.71,1391.58z M756.75,1403.42l5.92,10.5l-10.47,5.92l-5.92-10.47
	L756.75,1403.42z M735.79,1415.29l5.92,10.47l-10.47,5.92l-5.92-10.46L735.79,1415.29z M714.83,1427.14l5.95,10.49l-10.5,5.92
	l-5.92-10.49L714.83,1427.14z M693.87,1438.98l5.95,10.49l-10.5,5.92l-5.92-10.46L693.87,1438.98z M672.94,1450.85l5.92,10.46
	l-10.5,5.92l-5.92-10.46L672.94,1450.85z M651.98,1462.7l5.92,10.49l-10.5,5.92l-5.92-10.49L651.98,1462.7z M631.02,1474.54
	l5.92,10.49l-10.47,5.93l-5.95-10.47L631.02,1474.54z M610.06,1486.41l5.92,10.47l-10.47,5.92l-5.95-10.47L610.06,1486.41z
	 M589.1,1498.25l5.92,10.47l-10.47,5.95l-2.96-5.22l-0.5,2l-11.66-3.02l2.99-11.64l11.67,2.99l-0.38,1.52L589.1,1498.25z
	 M587.07,1488.11l-11.63-3l2.99-11.67l11.67,3.02L587.07,1488.11z M593.08,1464.8l-11.64-2.99l3-11.67l11.66,2.99L593.08,1464.8z
	 M599.09,1441.51l-11.64-3.02l2.99-11.66l11.66,3.02L599.09,1441.51z M605.11,1418.17l-11.67-2.99l3.02-11.67l11.67,3.02
	L605.11,1418.17z M611.11,1394.86l-11.66-3.02l3.02-11.63l11.64,2.99L611.11,1394.86z M617.12,1371.53l-11.66-2.99l3.02-11.67
	l11.64,3.02L617.12,1371.53z M623.13,1348.22l-11.67-2.99l3.02-11.67l11.63,2.99L623.13,1348.22z M629.14,1324.92l-11.67-3.02
	l3.02-11.64l11.64,2.99L629.14,1324.92z M635.15,1301.58l-11.67-2.99l2.98-11.67l11.67,3.02L635.15,1301.58z M641.13,1278.28
	l-11.63-3l2.99-11.66l11.67,2.99L641.13,1278.28z M647.14,1254.97l-11.64-3.02l2.99-11.67l11.67,3.02L647.14,1254.97z
	 M653.15,1231.64l-11.64-2.99l3-11.66l11.66,2.99L653.15,1231.64z M659.16,1208.33l-11.64-3.02l2.99-11.64l11.67,3L659.16,1208.33z
	 M665.17,1185l-11.67-2.99l3.02-11.67l11.67,3.02L665.17,1185z M671.17,1161.7l-11.66-2.99l3.02-11.67l11.64,2.99L671.17,1161.7z
	 M677.18,1138.39l-11.67-3.02l3.02-11.64l11.64,2.99L677.18,1138.39z M683.2,1115.06l-11.67-3l3.02-11.66l11.63,3.02L683.2,1115.06z
	 M689.21,1091.75l-11.67-3.02l2.99-11.64l11.67,2.99L689.21,1091.75z M695.21,1068.45l-11.66-3.02l2.98-11.66l11.67,3.02
	L695.21,1068.45z M701.19,1045.11l-11.63-2.99l2.99-11.67l11.67,3L701.19,1045.11z M707.2,1021.81l-11.64-3.02l2.99-11.64
	l11.66,2.99L707.2,1021.81z M713.21,998.48l-11.64-2.99l2.99-11.67l11.66,3.02L713.21,998.48z M719.22,975.17l-11.67-2.99
	l3.02-11.67l11.67,2.99L719.22,975.17z M725.23,951.87l-11.66-3.02l3.02-11.64l11.64,2.99L725.23,951.87z M731.24,928.53
	l-11.66-2.99l3.02-11.67l11.64,3.02L731.24,928.53z M737.25,905.23l-11.67-3.02l3.02-11.63l11.63,2.99L737.25,905.23z
	 M743.26,881.89l-11.67-2.99l3.02-11.67l11.64,3.02L743.26,881.89z M749.27,858.59l-11.67-2.99l2.99-11.66l11.67,2.99L749.27,858.59
	z M755.28,835.28l-11.66-3.02l2.99-11.64l11.67,2.99L755.28,835.28z M761.26,811.95l-11.64-2.99l3-11.67l11.67,3.02L761.26,811.95z
	 M767.27,788.65l-11.64-2.99l2.99-11.67l11.66,2.99L767.27,788.65z M773.28,765.34l-11.64-3.02l2.98-11.67l11.67,3.02L773.28,765.34
	z M779.29,742.01l-11.67-2.99l3.01-11.66l11.64,3.02L779.29,742.01z M785.29,718.7l-11.66-3.02l3.02-11.64l11.64,2.99L785.29,718.7z
	 M791.3,695.37l-11.67-2.99l2.99-11.66l11.67,3.02L791.3,695.37z M797.28,672.06l-11.64-2.99l3-11.67l11.66,2.99L797.28,672.06z
	 M803.3,648.76l-11.64-3.02l2.99-11.64l11.67,2.99L803.3,648.76z M809.31,625.43l-11.67-2.99l3.02-11.67l11.64,3.02L809.31,625.43z
	 M815.31,602.12l-11.66-2.99l3.02-11.67l11.64,2.99L815.31,602.12z M821.32,578.82l-11.67-3.02l3-11.66l11.67,3.02L821.32,578.82z
	 M827.3,555.48l-11.64-2.99l2.99-11.67l11.66,2.99L827.3,555.48z M833.32,532.18l-11.67-3.02l3.02-11.63l11.64,2.99L833.32,532.18z
	 M839.33,508.84l-11.67-2.99l3.02-11.67l11.64,3.02L839.33,508.84z M845.33,485.54l-11.66-2.99l2.99-11.67l11.67,2.99L845.33,485.54
	z M851.31,462.23l-11.64-3.02l3-11.64l11.67,2.99L851.31,462.23z M857.32,438.9l-11.64-2.99l2.99-11.67l11.66,3.02L857.32,438.9z
	 M863.33,415.6l-11.67-3.02l3.02-11.63l11.64,2.99L863.33,415.6z M869.34,392.29l-11.67-3.02l3.01-11.64l11.64,2.99L869.34,392.29z
	 M869.34,392.29" clip-rule="evenodd"></path>
  <rect width="220.86" height="220.86" x="222.35" y="966.47" fill="#aabcdd" fill-rule="evenodd" clip-rule="evenodd"></rect>
  <path fill="#cfdaee" fill-rule="evenodd" d="M269.01,991.61h127.52c11.84,0,21.52,9.68,21.52,21.52v127.51c0,11.84-9.67,21.51-21.52,21.51H269.01
	c-11.84,0-21.51-9.67-21.51-21.51v-127.51C247.5,1001.29,257.17,991.61,269.01,991.61L269.01,991.61z M269.01,991.61" clip-rule="evenodd"></path>
  <rect width="263.3" height="263.3" x="322.48" y="488.29" fill="#aabcdd" fill-rule="evenodd" clip-rule="evenodd"></rect>
  <path fill="#cfdaee" fill-rule="evenodd" d="M378.13,518.25h152.02c14.1,0,25.65,11.55,25.65,25.68v152c0,14.13-11.55,25.68-25.65,25.68H378.13
	c-14.13,0-25.68-11.55-25.68-25.68v-152C352.45,529.8,363.99,518.25,378.13,518.25L378.13,518.25z M378.13,518.25" clip-rule="evenodd"></path>
  <rect width="263.3" height="263.3" x="1144.1" y="419.52" fill="#aabcdd" fill-rule="evenodd" clip-rule="evenodd"></rect>
  <path fill="#cfdaee" fill-rule="evenodd" d="M1199.74,449.51h152.03c14.1,0,25.65,11.55,25.65,25.65v152.03c0,14.1-11.55,25.65-25.65,25.65h-152.03
	c-14.13,0-25.68-11.55-25.68-25.65V475.16C1174.06,461.06,1185.61,449.51,1199.74,449.51L1199.74,449.51z M1199.74,449.51" clip-rule="evenodd"></path>
  <rect width="220.85" height="220.88" x="762.08" y="245.37" fill="#aabcdd" fill-rule="evenodd" clip-rule="evenodd"></rect>
  <path fill="#cfdaee" fill-rule="evenodd" d="M808.75,270.52h127.52c11.84,0,21.51,9.7,21.51,21.54v127.49c0,11.84-9.67,21.55-21.51,21.55H808.75
	c-11.84,0-21.52-9.7-21.52-21.55V292.07C787.23,280.22,796.9,270.52,808.75,270.52L808.75,270.52z M808.75,270.52" clip-rule="evenodd"></path>
  <rect width="220.86" height="220.85" x="1328.93" y="913.82" fill="#aabcdd" fill-rule="evenodd" clip-rule="evenodd"></rect>
  <path fill="#cfdaee" fill-rule="evenodd" d="M1375.59,938.97h127.52c11.81,0,21.52,9.67,21.52,21.51V1088c0,11.84-9.71,21.51-21.52,21.51h-127.52
	c-11.84,0-21.51-9.67-21.51-21.51V960.49C1354.08,948.64,1363.75,938.97,1375.59,938.97L1375.59,938.97z M1375.59,938.97" clip-rule="evenodd"></path>
  <rect width="220.85" height="220.86" x="463.89" y="1403.1" fill="#aabcdd" fill-rule="evenodd" clip-rule="evenodd"></rect>
  <path fill="#cfdaee" fill-rule="evenodd" d="M510.56,1428.25h127.51c11.84,0,21.52,9.67,21.52,21.51v127.51c0,11.85-9.67,21.52-21.52,21.52H510.56
	c-11.84,0-21.52-9.67-21.52-21.52v-127.51C489.05,1437.92,498.72,1428.25,510.56,1428.25L510.56,1428.25z M510.56,1428.25" clip-rule="evenodd"></path>
  <rect width="242.93" height="242.92" x="1141.32" y="1360.74" fill="#aabcdd" fill-rule="evenodd" clip-rule="evenodd"></rect>
  <path fill="#cfdaee" fill-rule="evenodd" d="M1192.68,1388.41h140.24c13.01,0,23.68,10.64,23.68,23.66v140.27c0,13.02-10.67,23.68-23.68,23.68h-140.24
	c-13.05,0-23.69-10.66-23.69-23.68v-140.27C1168.99,1399.05,1179.63,1388.41,1192.68,1388.41L1192.68,1388.41z M1192.68,1388.41" clip-rule="evenodd"></path>
  <path fill="#aabcdd" fill-rule="evenodd" d="M1192.5,819.95c-108.98-20.43-206.19-58.74-319.06-110.54c-112.86,51.8-210.06,90.11-319.02,110.54
	c22.22,327.76,119.43,499.34,319.02,551.25C1073.05,1319.29,1170.25,1147.71,1192.5,819.95L1192.5,819.95z M1192.5,819.95" clip-rule="evenodd"></path>
  <path fill="#cfdaee" fill-rule="evenodd" d="M1141.81,857.86c-93.3-21.84-180.72-56.61-268.37-96.18c-87.61,39.57-175.03,74.34-268.37,96.18
	c13.13,145.78,48.66,326.04,168.44,415.2c30.25,22.51,63.99,38.23,99.93,48.81c35.95-10.58,69.72-26.29,99.97-48.81
	C1093.19,1183.89,1128.71,1003.64,1141.81,857.86L1141.81,857.86z M1141.81,857.86" clip-rule="evenodd"></path>
  <path fill="#becce7" fill-rule="evenodd" d="M1141.81,857.86c-93.3-21.84-180.72-56.61-268.37-96.18v560.19c35.95-10.58,69.72-26.29,99.97-48.81
	C1093.19,1183.89,1128.71,1003.64,1141.81,857.86L1141.81,857.86z M1141.81,857.86" clip-rule="evenodd"></path>
  <path fill="#fff" fill-rule="evenodd" d="M727.4,1027.67c-7.56-11.55-4.31-27.05,7.24-34.62c11.55-7.56,27.09-4.34,34.66,7.24l68.62,104.53l139.45-224.4
	c7.27-11.72,22.69-15.33,34.41-8.03c11.73,7.29,15.33,22.72,8.03,34.45l-159.58,256.82c-1.91,3.35-4.61,6.33-8.07,8.56
	c-11.55,7.59-27.05,4.34-34.62-7.21L727.4,1027.67z M727.4,1027.67" clip-rule="evenodd"></path>
  <path fill="#cfdaee" fill-rule="evenodd" d="M1457.61,1645.59c-175.88,0-318.47,24.3-318.47,54.29c0,29.99,142.59,54.33,318.47,54.33
	c175.89,0,318.47-24.34,318.47-54.33C1776.09,1669.89,1633.5,1645.59,1457.61,1645.59L1457.61,1645.59z M1457.61,1645.59" clip-rule="evenodd"></path>
  <path fill="#699dee" fill-rule="evenodd" d="M1457.5,766.92c-12.9-15.01-13.02-36.43-0.35-64.28c13.13,6.68,17.61,16.74,24.74,30.25
	c77.62-24.91,57.98-103.22,25.73-104.12c78.92-15.01,126.61-6.45,162.63,35.44c12.14,38.66-2.34,129.56-11.61,163.84
	c-9.82,39.6-23.13,61.73-14.13,121.06c-41.92,30.2-53.73,61.57-165.07,28.11c2.49-34.21,10.9-42.56,10.47-124.09
	C1492.77,826.25,1471.78,794.65,1457.5,766.92L1457.5,766.92z M1457.5,766.92" clip-rule="evenodd"></path>
  <path fill="#2b478b" fill-rule="evenodd" d="M1479.45,977.22c76.33,7.36,110.98-10.99,165.07-28.11c71.12,105.48,9.79,159.88,40.37,298.33
	c-50.48,50.62-125.87,59.6-226.21,26.91C1456.29,1192.57,1464.86,1072.35,1479.45,977.22L1479.45,977.22z M1479.45,977.22" clip-rule="evenodd"></path>
  <path fill="#ffb27d" fill-rule="evenodd" d="M1643.79,1276.9c1.05,16.42,1.34,30.93,3.54,41.13c24.8,66.54,4.87,131.73-1.02,317.68
	c0.88,2.34,1.82,4.6,2.81,6.71c-12.43,5.48-10.9,17.5-18.29,20.17c-34.59,12.49-20.26-9.56-25.94-15.72
	c1.55-3.87,2.9-7.59,4.07-11.26c-0.91-171.4-28.93-256.29-28.99-309.65c-0.35-8.12-2.52-25.01-3.2-32.65l0.2-0.03
	C1601.75,1292,1624.01,1286.54,1643.79,1276.9L1643.79,1276.9z M1643.79,1276.9" clip-rule="evenodd"></path>
  <path fill="#163560" fill-rule="evenodd" d="M1665.01,1676.02c-7.8-18.44-4.07-35.27-12.43-34.83c-16.22,4.63-13.75,18.5-21.75,21.4
	c-39.19,14.15-15.56-16.07-29.46-17.24c-30.25,12.46-45.46-2.38-49.04,20.52c2.7,5.81,22.84,27.32,92.6,31.4
	C1660.68,1691.11,1667.36,1684.02,1665.01,1676.02L1665.01,1676.02z M1665.01,1676.02" clip-rule="evenodd"></path>
  <path fill="#ffb27d" fill-rule="evenodd" d="M1561.95,1293.55c-1.94,19.08-4.37,33.8-5.93,44.97c28.26,57.54-1.28,131.82-15.89,317.29
	c0.77,2.41,1.58,4.66,2.49,6.83c-12.69,4.9-11.69,16.97-19.23,19.29c-35.12,10.87-19.79-10.5-25.18-16.91
	c1.73-3.78,3.29-7.44,4.64-11.02c-2.47-176.62-6.54-283.2-12.25-319.76c0.11-17.18-1.97-35-3.96-51.68
	C1513.75,1289.57,1538.84,1293.23,1561.95,1293.55L1561.95,1293.55z M1561.95,1293.55" clip-rule="evenodd"></path>
  <path fill="#163560" fill-rule="evenodd" d="M1563.32,1697.3c-6.89-18.79-8.79-35.74-17.17-35.71c-16.41,3.87-14.6,17.82-22.75,20.34
	c-39.81,12.31-14.81-16.77-28.59-18.59c-42.8,14.92-72.7,5.95-72.72,28.37c8.91,13.87,48.98,22.49,120.18,25.86
	C1558.31,1712.16,1565.32,1705.42,1563.32,1697.3L1563.32,1697.3z M1563.32,1697.3" clip-rule="evenodd"></path>
  <path fill="#4a75cb" fill-rule="evenodd" d="M1481.89,732.89c77.62-24.91,57.98-103.22,25.73-104.12c-31.39-3.95-38.78-1.38-86.54-6.83
	c-17.38,18.99-18.24,43.03-2.52,72.05C1465.64,697.92,1470.25,710.79,1481.89,732.89L1481.89,732.89z M1481.89,732.89" clip-rule="evenodd"></path>
  <path fill="#ffb27d" fill-rule="evenodd" d="M1414.26 631c-19.64.71-42.07-.32-67.22-3.11-19.76-17.45-73.46-53.3-161.11-107.58-20.16-30.78-40.75-50.59-66.92-62.88-6.42 2.75-2.66 7.15 18.21 27.17-13.95 29.82-2.52 47.37 34.42 48.22 82.46 76.68 135.08 121.86 157.88 135.46 31.16 10.34 59.27 15.71 84.36 16.09C1405.08 663.89 1405.23 646.09 1414.26 631L1414.26 631zM1653.08 848.3c30.02-4.81 39.49-18.15 36.85-61.74-5.66 2.23-14.92 5.01-23.8 6.63-2.49 14.04-5.16 26.24-7.48 34.86C1657.65 832.09 1654.11 844.58 1653.08 848.3L1653.08 848.3zM1653.08 848.3" clip-rule="evenodd"></path>
  <path fill="#4a75cb" fill-rule="evenodd" d="M1666.13,793.19c8.89-1.61,16.13-3.55,21.78-5.77c1.44-0.56,2.78-1.15,3.99-1.76
	c4.22-61.5-3-101.99-21.64-121.44C1679.35,693.17,1673.52,751.39,1666.13,793.19L1666.13,793.19z M1666.13,793.19" clip-rule="evenodd"></path>
  <path fill="#22407a" fill-rule="evenodd" d="M1578.24,594.52c40.52,2.26,60.39-20.13,59.63-67.25c1.23-4.71,2.08-9.26,2.46-13.6
	c2.46-26.32-10.79-45.03-39.75-56.08c-67.77-23.48-96.91-13.28-87.44,21.4c6.39,14.21,16.09,25,29.05,32.39
	c-3.72,6.72-4.95,14.25-3.67,22.63c-0.11,2.29,0.62,5.45,2.15,9.47c2.08-16.92,7.68-27.62,16.8-32.1
	c5.98,10.41,4.13,24.07-5.49,40.95C1547.79,576.76,1556.55,590.8,1578.24,594.52L1578.24,594.52z M1578.24,594.52" clip-rule="evenodd"></path>
  <path fill="#22407a" fill-rule="evenodd" d="M1660.74,585.97c8.62-1.55,10.03,12.19,12.4,17.41c6.51-24.39,0.76-51.15-10.2-60.18
	c3.51,0.47,7.3,2.4,11.31,5.8c1.5-27.59-31.13-35.53-39.72-36.41c-4.37-0.43-7.54,2-9.49,7.36c-12.37,35.88-5.84,67.07,19.55,93.54
	c-4.8-6.98-6.63-15.22-5.48-24.77c8.71,27.65,24.3,34.27,46.75,19.87C1667.27,614.22,1663.96,605.44,1660.74,585.97L1660.74,585.97z
	 M1660.74,585.97" clip-rule="evenodd"></path>
  <path fill="#699dee" fill-rule="evenodd" d="M1633.88,512.62c-3.05-4.4-7.62-7.83-14.04-6.71c-10.17,3.17-11.58,16.65-4.22,20.84
	c2.08,1.52,4.49,2.02,6.66,2.26c0.79-2.99,1.7-6.01,2.75-9.06C1626.91,514.91,1629.83,512.45,1633.88,512.62L1633.88,512.62z
	 M1633.88,512.62" clip-rule="evenodd"></path>
  <path fill="#ffb27d" fill-rule="evenodd" d="M1605.47,625.25c-3.34-10.23-2.78-21.72,1.67-34.51c-8.06,3.17-17.68,4.43-28.91,3.78
	c-21.69-3.72-30.45-17.76-26.27-42.18c9.62-16.88,11.47-30.55,5.49-40.95c-9.12,4.49-14.72,15.19-16.8,32.1
	c-1.53-4.02-2.26-7.18-2.15-9.47c-1.28-8.38-0.05-15.92,3.67-22.63c-7.92-4.51-14.63-10.29-20.08-17.35
	c-8.7,9.06-11.64,18.7-8.83,28.96c-10.9,15.92-14.07,29.99-9.47,42.18c-0.76,12.9,0.27,21.81,3.06,26.68
	c4.4,7.74,27.2,4.11,35.14,3.6c3.35,8.41,3.96,17.71,1.84,27.88C1567.37,620.94,1587.65,621.44,1605.47,625.25L1605.47,625.25z
	 M1605.47,625.25" clip-rule="evenodd"></path>
  <path fill="#8ca3ca" fill-rule="evenodd" d="M1377.97,822.74l-0.15,16.27l22.02,17.58c-0.45-5.33,0.62-9.99,3.17-14.01L1377.97,822.74z M1431.47,881.84
	l35.59,28.4l21.16,0.38c0.44-5.36,0.8-11.28,1.09-17.97l-22.87,0.23L1432.55,866c-0.08,1.09-0.23,2.2-0.5,3.34
	C1430.64,875.47,1430.44,879.64,1431.47,881.84L1431.47,881.84z M1431.47,881.84" clip-rule="evenodd"></path>
  <path fill="#becce7" fill-rule="evenodd" d="M1377.97,822.74l25.04,19.84c0.43-0.64,0.88-1.26,1.37-1.91c3.75-3.92,9.68,0.94,21.4,9.41
	c4.98,4.43,7.24,9.73,6.77,15.92l33.89,26.88l22.87-0.23c0.26-6.83,0.47-14.45,0.56-23.01l-29.6,0.7l-46.7-35.24h75.16
	c-0.86-4.07-2.09-8.21-3.55-12.37H1377.97z M1377.97,822.74" clip-rule="evenodd"></path>
  <path fill="#8ca3ca" fill-rule="evenodd" d="M1413.56,835.11l46.7,35.24l29.6-0.7c0.06-5.16,0.09-10.64,0.06-16.51c0.61-5.83,0.11-11.84-1.2-18.03H1413.56
	z M1413.56,835.11" clip-rule="evenodd"></path>
  <path fill="#cfdaee" fill-rule="evenodd" d="M1377.97,822.74h107.2c-1.4-3.93-3.02-7.86-4.81-11.82l-92.6-0.41l-8.56-99.06h74.28
	c1.06-2.84,2.29-5.8,3.67-8.82c-0.5-0.24-1.03-0.5-1.55-0.76l-88.47-0.64L1377.97,822.74z M1377.97,822.74" clip-rule="evenodd"></path>
  <path fill="#fff" fill-rule="evenodd" d="M1387.76,810.52l92.6,0.41c-6.68-14.92-15.63-29.96-22.86-44c-11.53-13.4-12.84-31.86-4.02-55.47h-74.28
	L1387.76,810.52z M1387.76,810.52" clip-rule="evenodd"></path>
  <path fill="#ffb27d" fill-rule="evenodd" d="M1431.47,881.84c-11.99,6.62-22.13,0.38-30.43-18.68c-2.52-9.12-1.37-16.59,3.34-22.48
	c3.75-3.92,9.68,0.94,21.4,9.41c5.86,5.18,7.95,11.61,6.27,19.26C1430.64,875.47,1430.44,879.64,1431.47,881.84L1431.47,881.84z
	 M1431.47,881.84" clip-rule="evenodd"></path>
  <path fill="#163560" fill-rule="evenodd" d="M1611.26,576.59c-0.88-14.98,1.32-31.19,6.56-48.6c1.49,0.58,3.02,0.85,4.46,1.03
	c-4.72,18.15-4.4,35.06,0.99,50.72c-4.4,4.83-9.76,8.52-16.12,11.02c-8.06,3.17-17.68,4.43-28.91,3.78
	c-14.21-2.43-22.86-9.32-25.97-20.64C1567.2,593.03,1586.86,593.94,1611.26,576.59L1611.26,576.59z M1611.26,576.59" clip-rule="evenodd"></path>
</svg>
