<svg xmlns="http://www.w3.org/2000/svg" viewBox="0 0 53 53" id="distributed-database">
  <path fill="#474646" d="M28.36 26.995v15.65c0 .75.62 1.37 1.38 1.37h1.96c.27 0 .5.23.5.5 0 .28-.23.5-.5.5h-1.96c-1.31 0-2.38-1.06-2.38-2.37v-15.65h-4.91c-.28 0-.5-.22-.5-.5 0-.27.22-.5.5-.5h4.91v-15.64c0-1.31 1.07-2.37 2.38-2.37h1.96c.27 0 .5.22.5.5 0 .27-.23.5-.5.5h-1.96c-.76 0-1.38.61-1.38 1.37v15.64h3.34c.27 0 .5.23.5.5 0 .28-.23.5-.5.5h-3.34z"></path>
  <ellipse cx="13.344" cy="30.545" fill="#cfcff6" rx="10.667" ry="4.045"></ellipse>
  <path fill="#a1a1f8" d="M2.677 36.313c0 2.234 4.776 4.045 10.667 4.045s10.667-1.81 10.667-4.045v-5.768c0 2.233-4.776 4.044-10.667 4.044S2.677 32.78 2.677 30.545v5.768z"></path>
  <ellipse cx="13.344" cy="23.11" fill="#cfcff6" rx="10.667" ry="4.045"></ellipse>
  <path fill="#7979f6" d="M3.187 30.083c0 2.127 4.548 3.851 10.157 3.851s10.157-1.724 10.157-3.851V24.59c0 2.127-4.547 3.851-10.157 3.851S3.187 26.717 3.187 24.59v5.493z"></path>
  <path fill="#a1a1f8" d="M2.677 28.88c0 2.233 4.776 4.044 10.667 4.044s10.667-1.811 10.667-4.045V23.11c0 2.234-4.776 4.045-10.667 4.045S2.677 25.345 2.677 23.11v5.77z"></path>
  <ellipse cx="13.344" cy="15.676" fill="#e3e2ff" rx="10.667" ry="4.045"></ellipse>
  <path fill="#7979f6" d="M3.187 22.649c0 2.127 4.548 3.851 10.157 3.851s10.157-1.724 10.157-3.851v-5.493c0 2.127-4.547 3.851-10.157 3.851S3.187 19.283 3.187 17.156v5.493z"></path>
  <path fill="#a1a1f8" d="M2.677 21.445c0 2.234 4.776 4.045 10.667 4.045s10.667-1.811 10.667-4.045v-5.769c0 2.234-4.776 4.045-10.667 4.045S2.677 17.91 2.677 15.676v5.769z"></path>
  <circle cx="16.62" cy="22.563" r="1.201" fill="#fb6559"></circle>
  <circle cx="13.344" cy="23.058" r="1.201" fill="#e3e2ff"></circle>
  <circle cx="10.069" cy="22.563" r="1.201" fill="#f8b838"></circle>
  <circle cx="16.62" cy="29.937" r="1.201" fill="#fb6559"></circle>
  <circle cx="13.344" cy="30.433" r="1.201" fill="#e3e2ff"></circle>
  <circle cx="10.069" cy="29.937" r="1.201" fill="#f8b838"></circle>
  <circle cx="16.62" cy="37.312" r="1.201" fill="#fb6559"></circle>
  <circle cx="13.344" cy="37.807" r="1.201" fill="#e3e2ff"></circle>
  <circle cx="10.069" cy="37.312" r="1.201" fill="#f8b838"></circle>
  <path fill="#e3e2ff" d="M49.02 12.545H32.48c-.72 0-1.302-.583-1.302-1.303V5.784c0-.719.583-1.302 1.302-1.302H49.02c.72 0 1.303.583 1.303 1.302v5.458c0 .72-.583 1.303-1.303 1.303zM49.02 30.531H32.48c-.72 0-1.302-.583-1.302-1.302v-5.458c0-.72.583-1.302 1.302-1.302H49.02c.72 0 1.303.583 1.303 1.302v5.458c0 .72-.583 1.302-1.303 1.302zM49.02 48.518H32.48c-.72 0-1.302-.583-1.302-1.302v-5.458c0-.72.583-1.303 1.302-1.303H49.02c.72 0 1.303.583 1.303 1.303v5.458c0 .719-.583 1.302-1.303 1.302z"></path>
  <path fill="#cfcff6" d="M50.32 41.755v5.46c0 .72-.58 1.3-1.3 1.3H32.48c-.54 0-.99-.32-1.19-.78.07.02.14.03.22.03h16.54c.72 0 1.3-.58 1.3-1.3v-5.46c0-.18-.04-.36-.11-.52.62.09 1.08.63 1.08 1.27zM50.32 23.755v5.46c0 .72-.58 1.3-1.3 1.3H32.48c-.54 0-.99-.32-1.19-.78.07.02.14.03.22.03h16.54c.72 0 1.3-.58 1.3-1.3v-5.46c0-.18-.04-.36-.11-.52.62.09 1.08.63 1.08 1.27zM50.32 5.755v5.46c0 .72-.58 1.3-1.3 1.3H32.48c-.54 0-.99-.32-1.19-.78.07.02.14.03.22.03h16.54c.72 0 1.3-.58 1.3-1.3v-5.46c0-.18-.04-.36-.11-.52.62.09 1.08.63 1.08 1.27z"></path>
  <circle cx="47.229" cy="8.513" r="1.198" fill="#fb6559"></circle>
  <circle cx="44.104" cy="8.513" r="1.198" fill="#7979f6"></circle>
  <circle cx="40.979" cy="8.513" r="1.198" fill="#f8b838"></circle>
  <path fill="#c1c1ee" d="M37.802 9.014h-4.73a.5.5 0 1 1 0-1h4.73a.5.5 0 1 1 0 1z"></path>
  <circle cx="47.229" cy="26.5" r="1.198" fill="#fb6559"></circle>
  <circle cx="44.104" cy="26.5" r="1.198" fill="#7979f6"></circle>
  <circle cx="40.979" cy="26.5" r="1.198" fill="#f8b838"></circle>
  <path fill="#c1c1ee" d="M37.802 27h-4.73a.5.5 0 1 1 0-1h4.73a.5.5 0 1 1 0 1z"></path>
  <circle cx="47.229" cy="44.487" r="1.198" fill="#fb6559"></circle>
  <circle cx="44.104" cy="44.487" r="1.198" fill="#7979f6"></circle>
  <circle cx="40.979" cy="44.487" r="1.198" fill="#f8b838"></circle>
  <path fill="#c1c1ee" d="M37.802 44.987h-4.73a.5.5 0 1 1 0-1h4.73a.5.5 0 1 1 0 1z"></path>
  <path fill="#fff" d="M37.598 6h.461a.429.429 0 0 0 0-.858h-.46a.429.429 0 0 0 0 .858zm-4.783 0h3.1a.429.429 0 0 0 0-.858h-3.1a.429.429 0 0 0 0 .858zM37.598 24.298h.461a.429.429 0 0 0 0-.858h-.46a.429.429 0 0 0 0 .858zm-4.783 0h3.1a.429.429 0 0 0 0-.858h-3.1a.429.429 0 0 0 0 .858zM37.598 42.381h.461a.429.429 0 0 0 0-.857h-.46a.429.429 0 0 0 0 .857zm-4.783 0h3.1a.429.429 0 0 0 0-.857h-3.1a.429.429 0 0 0 0 .857z" opacity=".4"></path>
</svg>
