<svg xmlns="http://www.w3.org/2000/svg" enable-background="new 0 0 2500 2500" viewBox="0 0 2500 2500" id="hackers-stealing-personal-data">
  <g>
    <path fill="#f1f5fb" fill-rule="evenodd" d="M1246.88,1838.32c205.29,0,394.19,3.07,544.11,8.21c366.88-209.7,239.84-618.46,108.12-849.67
		c-183.34-321.78-616.54-437.44-795.74-180.69c-243.22,348.48-477.85,226.88-604.54,491.54
		c-126.69,264.66,65.71,518.38,203.94,538.83C852.69,1841.4,1041.61,1838.32,1246.88,1838.32L1246.88,1838.32z M925.43,945.97
		c-93.91,71.47-249.23,126.86-300.81,50.87c-38.54-56.77,8.94-163.28,101.9-244.03c92.9-80.7,217.37-129.54,285.21-70.12
		C1092.23,753.2,997.75,890.93,925.43,945.97z" clip-rule="evenodd"></path>
  </g>
  <g>
    <path fill="#e8effa" fill-rule="evenodd" d="M1246.88,1838.32c487.4,0,882.52,17.31,882.52,38.65c0,21.35-395.11,38.65-882.52,38.65
		s-882.52-17.31-882.52-38.65C364.37,1855.63,759.48,1838.32,1246.88,1838.32z" clip-rule="evenodd"></path>
  </g>
  <g>
    <path fill="#fff" fill-rule="evenodd" d="M1531.49,771.39c220.41,49.11,360.67,251.81,374.42,349.67c5.64,40.16-4.81-53.82-117.26-139.39
		c-100.49-76.47-178.72-90.64-298.26-99.89c-84.49-6.52-172.96-16.91-166.67-67.3C1328.68,774.7,1389.19,739.7,1531.49,771.39
		L1531.49,771.39z M955.13,689.41c37.95,2.28,61.05,33.45,62.64,69.38c0.67,15.28-11.33-24.68-53.4-30.25
		c-26.09-3.45-30.01,4.24-39.36-6.52C915.65,711.24,924.54,687.57,955.13,689.41z" clip-rule="evenodd"></path>
  </g>
  <g>
    <path fill="#fff" fill-rule="evenodd" d="M1182.81,912.67c-3.15,43.36-9.55,49.33-50.88,52.67c41.33,3.34,47.73,9.32,50.88,52.67
		c3.16-43.34,9.55-49.33,50.89-52.67C1192.36,961.99,1185.97,956.02,1182.81,912.67L1182.81,912.67z M1350.82,1027
		c-1.69,23.15-5.1,26.34-27.17,28.13c22.07,1.78,25.48,4.97,27.17,28.12c1.69-23.15,5.1-26.34,27.17-28.12
		C1355.91,1053.34,1352.51,1050.15,1350.82,1027L1350.82,1027z M1277.24,848.87c-1.7,23.44-5.16,26.67-27.51,28.48
		c22.35,1.8,25.81,5.03,27.51,28.47c1.71-23.44,5.17-26.67,27.52-28.47C1282.41,875.54,1278.95,872.31,1277.24,848.87z" clip-rule="evenodd"></path>
  </g>
  <g>
    <path fill="#fff" fill-rule="evenodd" d="M1121.89,1623.42c2.56,35.12,7.73,39.96,41.21,42.67c-33.48,2.7-38.66,7.55-41.21,42.66
		c-2.57-35.12-7.74-39.96-41.23-42.66C1114.15,1663.39,1119.32,1658.54,1121.89,1623.42L1121.89,1623.42z M985.78,1716.04
		c1.36,18.75,4.13,21.34,22,22.78c-17.87,1.45-20.64,4.03-22,22.78c-1.37-18.75-4.14-21.34-22.01-22.78
		C981.64,1737.38,984.41,1734.8,985.78,1716.04L985.78,1716.04z M1045.38,1571.74c1.38,18.99,4.18,21.61,22.29,23.07
		c-18.11,1.47-20.91,4.08-22.29,23.08c-1.39-18.99-4.18-21.61-22.29-23.08C1041.2,1593.35,1043.99,1590.73,1045.38,1571.74z" clip-rule="evenodd"></path>
  </g>
  <g>
    <path fill="#fff" fill-rule="evenodd" d="M1656.8,1536.85c-1.96,26.89-5.93,30.61-31.56,32.67c25.63,2.07,29.6,5.78,31.56,32.67
		c1.95-26.88,5.92-30.6,31.55-32.67C1662.72,1567.45,1658.75,1563.74,1656.8,1536.85L1656.8,1536.85z M1761.01,1607.77
		c-1.05,14.35-3.16,16.34-16.85,17.44c13.69,1.11,15.8,3.09,16.85,17.45c1.05-14.36,3.16-16.34,16.85-17.45
		C1764.17,1624.11,1762.06,1622.12,1761.01,1607.77L1761.01,1607.77z M1715.37,1497.27c-1.06,14.54-3.2,16.55-17.06,17.67
		c13.86,1.12,16,3.12,17.06,17.67c1.06-14.55,3.2-16.55,17.06-17.67C1718.58,1513.82,1716.43,1511.82,1715.37,1497.27z" clip-rule="evenodd"></path>
  </g>
  <g>
    <path fill="#f06a30" fill-rule="evenodd" d="M1215.92,616.67c45.97,46.14,110.25,52.62,172.19,45.22l40.21-4.8l12.77,2.2l-12.23,19.13l0.49,19.15
		c4.31,171.33-0.79,365.23-166.02,463.55c-23.98,14.27-61.75,12.82-69.01,40.9l-2.73,10.54l-11.87-4.6l-14.38-6.46
		c-26.47-11.88-44.06-28.22-67.51-43.35c-161.62-104.15-159.8-298.1-149.38-469.17l2.46-40.42l40.02,6.23
		c61.64,9.61,126.11,5.42,173.7-39.05l26.09-24.38l11.3,2.32l2.31,11.35L1215.92,616.67L1215.92,616.67z M1189.79,642.69
		c-49.16,45.95-117.34,62.12-204.55,48.54c-10.71,175.79-8.71,344.91,132.55,435.94c20.31,13.09,37.85,29.58,62.63,40.7
		c25.16-10.24,43.28-26.09,64.05-38.44c144.42-85.95,152.45-254.88,148.01-430.94C1304.85,708.96,1237.29,690.36,1189.79,642.69z" clip-rule="evenodd"></path>
  </g>
  <g>
    <path fill="#8bbae9" fill-rule="evenodd" d="M1201.47,646.15c-49.16,45.95-117.34,62.13-204.55,48.54c-10.72,175.79-8.71,344.9,132.55,435.95
		c20.31,13.09,37.85,29.57,62.63,40.69c25.16-10.24,43.28-26.09,64.05-38.44c144.42-85.94,152.45-254.88,148.01-430.94
		C1316.53,712.43,1248.97,693.82,1201.47,646.15z" clip-rule="evenodd"></path>
  </g>
  <g>
    <g>
      <path fill="#ffe2dc" fill-rule="evenodd" d="M998.77,901.82l198.09,3.53l4.62-259.21c-49.16,45.95-117.34,62.13-204.55,48.54
			C992.55,766.47,990.29,837.13,998.77,901.82z" clip-rule="evenodd"></path>
    </g>
    <g>
      <path fill="#fbbfa8" fill-rule="evenodd" d="M1201.47,646.15l-4.62,259.21l198.08,3.53c10.78-64.35,11.04-135.05,9.23-206.94
			C1316.53,712.43,1248.97,693.82,1201.47,646.15z" clip-rule="evenodd"></path>
    </g>
    <g>
      <path fill="#fbbfa8" fill-rule="evenodd" d="M1394.93,908.89l-198.08-3.53l-4.75,265.97c25.16-10.24,43.28-26.09,64.05-38.44
			C1341.6,1082.05,1379.31,1002.14,1394.93,908.89z" clip-rule="evenodd"></path>
    </g>
    <g>
      <path fill="#ffe2dc" fill-rule="evenodd" d="M1192.1,1171.33l4.75-265.97l-198.09-3.53c12.29,93.74,47.12,174.95,130.7,228.82
			C1149.78,1143.73,1167.32,1160.21,1192.1,1171.33z" clip-rule="evenodd"></path>
    </g>
    <g opacity=".17">
      <path fill="#d2e5f7" fill-rule="evenodd" d="M1015.21,886.13c-7.77-59.34-6.52-123.69-2.88-189.31c-3.06-0.36-6.15-0.76-9.26-1.21
			c-4.12,69.62-6.01,138.05,2.22,200.85l11.42,0.2C1016.17,893.17,1015.67,889.65,1015.21,886.13z" clip-rule="evenodd"></path>
    </g>
    <g opacity=".17">
      <path fill="#d2e5f7" fill-rule="evenodd" d="M1197.13,889.37l-181.93-3.24c0.46,3.53,0.96,7.04,1.49,10.53l180.25,3.21L1197.13,889.37z" clip-rule="evenodd"></path>
    </g>
    <g opacity=".17">
      <path fill="#d2e5f7" fill-rule="evenodd" d="M1207.78,652.21l-4.23,237.28l9.74,0.18l4.08-229.22C1214.1,657.81,1210.91,655.07,1207.78,652.21z" clip-rule="evenodd"></path>
    </g>
    <g opacity=".17">
      <polygon fill="#d2e5f7" fill-rule="evenodd" points="1213.29 889.66 1203.56 889.48 1203.37 899.99 1213.1 900.16" clip-rule="evenodd"></polygon>
    </g>
    <g opacity=".17">
      <path fill="#d2e5f7" fill-rule="evenodd" d="M1145.91,1114.93c-78.78-50.77-114.25-125.82-128.35-212.77l-11.53-0.21c12.92,91.42,48,170.51,129.95,223.32
			c18.52,11.93,34.75,26.7,56.26,37.65l0.29-15.66C1175.58,1137.13,1161.57,1125.03,1145.91,1114.93z" clip-rule="evenodd"></path>
    </g>
    <g opacity=".17">
      <path fill="#d2e5f7" fill-rule="evenodd" d="M1203.27,905.47l-4.38,245.38c3.1,1.68,6.31,3.28,9.65,4.78l4.46-249.99L1203.27,905.47z" clip-rule="evenodd"></path>
    </g>
    <g opacity=".17">
      <path fill="#d2e5f7" fill-rule="evenodd" d="M1208.55,1155.63c-3.34-1.5-6.55-3.1-9.65-4.78l-0.28,15.1c25.16-10.23,43.28-26.08,64.05-38.44
			c11.44-6.8,22.02-14.14,31.81-21.94c6.79-5.79,13.2-11.82,19.21-18.09c-12.3,10.75-25.94,20.68-41.09,29.7
			C1251.83,1129.55,1233.71,1145.4,1208.55,1155.63z" clip-rule="evenodd"></path>
    </g>
  </g>
  <g>
    <path fill="#f57a44" fill-rule="evenodd" d="M1227.59,620.14c45.97,46.14,110.26,52.62,172.2,45.22l40.21-4.8l1.01,40.48
		c4.32,171.31-0.78,365.23-166.01,463.54c-23.98,14.27-42.14,29.97-69.01,40.9l-14.61,5.94l-14.38-6.45
		c-26.47-11.88-44.06-28.23-67.51-43.34c-161.62-104.15-159.81-298.11-149.38-469.18l2.46-40.42l40.02,6.23
		c61.64,9.6,126.11,5.43,173.7-39.06l26.09-24.38L1227.59,620.14L1227.59,620.14z M1201.47,646.15
		c-49.16,45.95-117.34,62.13-204.55,48.54c-10.72,175.79-8.71,344.9,132.55,435.95c20.31,13.09,37.85,29.57,62.63,40.69
		c25.16-10.24,43.28-26.09,64.05-38.44c144.42-85.94,152.45-254.88,148.01-430.94C1316.53,712.43,1248.97,693.82,1201.47,646.15z" clip-rule="evenodd"></path>
  </g>
  <g opacity=".1">
    <path fill="#e6e6e6" fill-rule="evenodd" d="M1227.59,620.14c45.97,46.14,110.26,52.62,172.2,45.22l40.21-4.8l1.01,40.48
		c4.17,165.35-0.45,351.71-149.33,452.91c139.44-102.58,143.79-284.39,139.71-446.1l-1.02-40.48l-40.21,4.8
		c-61.95,7.4-126.23,0.92-172.2-45.22l-24.08-24.17l8.49-7.95L1227.59,620.14L1227.59,620.14z M962.09,660.27l0.49-8.23l40.02,6.23
		c53.05,8.27,108.22,6.31,152.89-22.76c-46.22,35.54-105.58,38.44-162.52,29.57L962.09,660.27L962.09,660.27z M1192.73,653.83
		c-5.16,4.28-10.53,8.26-16.09,11.93c5.26-3.98,10.33-8.24,15.21-12.8L1192.73,653.83L1192.73,653.83z M996.44,702.82
		c-3.03-0.4-6.06-0.84-9.14-1.31c-10.72,175.78-8.72,344.89,132.55,435.94c20.3,13.09,37.85,29.57,62.63,40.69
		c25.16-10.23,43.28-26.08,64.04-38.44c8.44-5.02,16.39-10.34,23.92-15.9c-4.62,3.13-9.37,6.16-14.3,9.09
		c-20.77,12.35-38.89,28.2-64.05,38.44c-24.78-11.13-42.33-27.6-62.63-40.69C990.38,1041,986.3,875.69,996.44,702.82z" clip-rule="evenodd"></path>
  </g>
  <g>
    <path fill="#f06a30" fill-rule="evenodd" d="M1228.39,619.34c22.81,22.9,50.18,35.96,79.56,42.38c29.42,6.44,60.85,6.21,91.71,2.52l40.21-4.8l1.23-0.15
		l0.03,1.23l1.02,40.49c2.16,85.73,1.97,177.13-19.46,259.46c-21.45,82.45-64.19,155.75-147.1,205.08
		c-7.95,4.73-15.32,9.67-22.6,14.54c-14.5,9.7-28.57,19.12-46.57,26.44l-14.6,5.94l-0.45,0.18l-0.44-0.19l-14.38-6.46
		c-17.72-7.96-31.45-17.87-45.59-28.08c-7.09-5.12-14.3-10.33-22.06-15.34c-81.1-52.26-121.19-127.04-139.69-210.2
		c-18.48-83.04-15.41-174.38-10.2-259.99l2.47-40.42l0.07-1.23l1.22,0.19l40.02,6.23c30.7,4.79,62.11,6.13,91.74,0.76
		c29.58-5.37,57.4-17.45,81.01-39.52l26.09-24.38l0.8-0.75l0.76,0.77L1228.39,619.34L1228.39,619.34z M1307.46,663.93
		c-29.75-6.51-57.51-19.76-80.66-43l-24.43-24.52l-25.29,23.64c-23.97,22.4-52.18,34.66-82.16,40.1
		c-29.89,5.42-61.56,4.07-92.48-0.75l-38.8-6.05l-2.38,39.19c-5.21,85.45-8.28,176.62,10.14,259.36
		c18.39,82.63,58.2,156.91,138.71,208.79c7.92,5.11,15.1,10.29,22.17,15.4c14.05,10.15,27.69,20,45.2,27.86l13.94,6.26l14.16-5.75
		c17.77-7.23,31.75-16.59,46.15-26.24c7.25-4.85,14.61-9.78,22.7-14.6c82.32-48.99,124.75-121.8,146.07-203.71
		c21.36-82.03,21.55-173.25,19.39-258.84l-0.99-39.24l-38.98,4.66C1368.83,670.19,1337.15,670.42,1307.46,663.93L1307.46,663.93z
		 M1201.44,647.71c-24.56,22.71-53.81,38.08-87.72,46.13c-33.92,8.04-72.51,8.76-115.75,2.15c-5.3,87.39-7.38,173.07,9.32,248.21
		c16.76,75.35,52.44,140.15,122.78,185.49c6.85,4.41,13.4,9.23,20.02,14.09h0.01c12.81,9.41,25.9,19.02,42.02,26.33
		c16.36-6.72,29.78-15.86,42.93-24.81l0,0c6.79-4.63,13.52-9.21,20.52-13.37c71.92-42.8,109.89-106.28,129.31-181
		c19.38-74.49,20.36-160.19,18.17-247.71c-43.45,5.06-81.99,2.97-115.59-6.28C1253.85,687.69,1225.18,671.28,1201.44,647.71
		L1201.44,647.71z M1113.2,691.65c-33.94,8.05-72.66,8.7-116.12,1.93l-1.22-0.18l-0.07,1.23c-5.36,87.97-7.55,174.29,9.31,250.06
		c16.88,75.9,52.84,141.19,123.75,186.89c6.84,4.41,13.35,9.19,19.92,14.02l0,0c13.02,9.57,26.33,19.34,42.86,26.76l0.44,0.19
		l0.44-0.18c16.79-6.83,30.43-16.12,43.79-25.21l0,0c6.74-4.59,13.42-9.14,20.4-13.3c72.5-43.14,110.77-107.11,130.35-182.36
		c19.53-75.11,20.44-161.46,18.22-249.57l-0.04-1.23l-1.22,0.14c-43.67,5.22-82.33,3.2-115.96-6.06
		c-33.59-9.24-62.19-25.72-85.8-49.41l-0.77-0.77l-0.79,0.75C1176.26,668.17,1147.09,683.61,1113.2,691.65z" clip-rule="evenodd"></path>
  </g>
  <g>
    <g>
      <path fill="#f06a30" fill-rule="evenodd" d="M1160.93,861.1l68.8,1.22c0.16-9.01,0.32-18.02,0.48-27.02c0.17-9.46-3.55-18.12-9.68-24.47
			c-6.13-6.35-14.66-10.38-24.11-10.55c-9.46-0.17-18.12,3.55-24.47,9.68c-6.35,6.13-10.38,14.66-10.55,24.11L1160.93,861.1
			L1160.93,861.1z M1246.01,862.61l-0.01,0.25c8.09,1.53,14.19,8.75,14.04,17.25l-1.43,79.8c-0.17,9.48-8.06,17.1-17.54,16.93
			l-95.55-1.7c-9.48-0.17-17.1-8.07-16.93-17.55l1.42-79.79c0.15-8.5,6.5-15.5,14.64-16.74l0.48-27.27
			c0.25-13.95,6.18-26.52,15.52-35.54c9.35-9.01,22.13-14.49,36.07-14.24c13.94,0.25,26.51,6.18,35.53,15.52
			c9.02,9.35,14.49,22.13,14.24,36.07C1246.33,844.6,1246.17,853.6,1246.01,862.61z" clip-rule="evenodd"></path>
    </g>
    <g>
      <path fill="#eff9fc" fill-rule="evenodd" d="M1194.89,886.26c10.15,0.18,18.23,8.56,18.05,18.71c-0.15,8.25-5.71,15.13-13.23,17.32l-0.4,22.2
			c-0.05,3-2.55,5.42-5.56,5.36l0,0c-3-0.05-5.42-2.56-5.36-5.56l0.4-22.2c-7.44-2.46-12.75-9.54-12.61-17.78
			C1176.37,894.16,1184.74,886.08,1194.89,886.26z" clip-rule="evenodd"></path>
    </g>
  </g>
  <g>
    <polygon fill="#f06a30" fill-rule="evenodd" points="1210.26 728.63 1216.24 748.25 1199.87 735.91 1183.07 747.65 1183.07 747.65 1189.76 728.27 1173.4 715.94 1173.39 715.93 1193.89 716.29 1200.53 697.03 1200.56 696.94 1200.56 696.91 1200.57 696.95 1206.56 716.52 1227.05 716.89" clip-rule="evenodd"></polygon>
  </g>
  <g>
    <polygon fill="#f06a30" fill-rule="evenodd" points="1282.43 754.88 1277.81 774.86 1269.8 755.98 1249.38 757.77 1249.38 757.77 1264.86 744.31 1256.86 725.46 1256.85 725.45 1274.43 736.01 1289.81 722.64 1289.88 722.58 1289.9 722.56 1289.89 722.6 1285.28 742.54 1302.85 753.11" clip-rule="evenodd"></polygon>
  </g>
  <g>
    <polygon fill="#f06a30" fill-rule="evenodd" points="1331.81 813.7 1317.82 828.69 1320.32 808.34 1301.75 799.67 1301.75 799.67 1321.87 795.77 1324.38 775.44 1324.38 775.42 1334.31 793.35 1354.32 789.47 1354.41 789.46 1354.44 789.45 1354.41 789.47 1340.45 804.43 1350.38 822.37" clip-rule="evenodd"></polygon>
  </g>
  <g>
    <polygon fill="#f06a30" fill-rule="evenodd" points="1345.16 889.33 1325.56 895.32 1337.9 878.94 1326.15 862.15 1326.15 862.15 1345.53 868.83 1357.86 852.48 1357.87 852.46 1357.51 872.96 1376.77 879.6 1376.87 879.64 1376.89 879.64 1376.86 879.65 1357.28 885.63 1356.92 906.12" clip-rule="evenodd"></polygon>
  </g>
  <g>
    <polygon fill="#f06a30" fill-rule="evenodd" points="1318.92 961.5 1298.94 956.88 1317.82 948.87 1316.04 928.45 1316.04 928.45 1329.48 943.94 1348.34 935.94 1348.36 935.93 1337.79 953.5 1351.16 968.89 1351.22 968.96 1351.23 968.97 1351.21 968.97 1331.26 964.35 1320.69 981.92" clip-rule="evenodd"></polygon>
  </g>
  <g>
    <polygon fill="#f06a30" fill-rule="evenodd" points="1260.11 1010.88 1245.11 996.89 1265.46 999.39 1274.13 980.82 1274.13 980.82 1278.03 1000.95 1298.36 1003.45 1298.38 1003.45 1280.45 1013.39 1284.33 1033.39 1284.34 1033.49 1284.35 1033.52 1284.33 1033.49 1269.36 1019.52 1251.43 1029.46" clip-rule="evenodd"></polygon>
  </g>
  <g>
    <polygon fill="#f06a30" fill-rule="evenodd" points="1184.47 1024.24 1178.49 1004.63 1194.85 1016.98 1211.65 1005.22 1211.65 1005.22 1204.97 1024.6 1221.33 1036.93 1221.34 1036.94 1200.85 1036.58 1194.2 1055.85 1194.17 1055.94 1194.16 1055.96 1194.15 1055.93 1188.18 1036.36 1167.68 1035.99" clip-rule="evenodd"></polygon>
  </g>
  <g>
    <polygon fill="#f06a30" fill-rule="evenodd" points="1112.3 997.99 1116.91 978.01 1124.92 996.89 1145.35 995.12 1145.35 995.12 1129.87 1008.56 1137.87 1027.42 1137.88 1027.43 1120.31 1016.87 1104.92 1030.23 1104.84 1030.29 1104.83 1030.31 1104.83 1030.28 1109.45 1010.33 1091.88 999.77" clip-rule="evenodd"></polygon>
  </g>
  <g>
    <polygon fill="#f06a30" fill-rule="evenodd" points="1062.92 939.18 1076.91 924.18 1074.4 944.53 1092.98 953.21 1092.98 953.21 1072.85 957.11 1070.35 977.44 1070.35 977.46 1060.42 959.52 1040.41 963.4 1040.31 963.42 1040.29 963.43 1040.31 963.4 1054.28 948.44 1044.35 930.5" clip-rule="evenodd"></polygon>
  </g>
  <g>
    <polygon fill="#f06a30" fill-rule="evenodd" points="1049.56 863.55 1069.17 857.56 1056.83 873.93 1068.58 890.73 1068.58 890.73 1049.2 884.04 1036.86 900.4 1036.85 900.41 1037.22 879.92 1017.95 873.27 1017.86 873.24 1017.84 873.23 1017.87 873.23 1037.45 867.25 1037.81 846.75" clip-rule="evenodd"></polygon>
  </g>
  <g>
    <polygon fill="#f06a30" fill-rule="evenodd" points="1075.81 791.37 1095.78 795.99 1076.91 804 1078.69 824.42 1078.69 824.42 1065.24 808.94 1046.38 816.94 1046.37 816.95 1056.94 799.38 1043.57 783.99 1043.5 783.91 1043.5 783.91 1043.52 783.91 1063.47 788.52 1074.03 770.95" clip-rule="evenodd"></polygon>
  </g>
  <g>
    <polygon fill="#f06a30" fill-rule="evenodd" points="1134.63 742 1149.62 755.98 1129.27 753.48 1120.6 772.05 1120.6 772.05 1116.69 751.92 1096.36 749.42 1096.34 749.42 1114.28 739.49 1110.4 719.48 1110.38 719.38 1110.37 719.37 1110.4 719.38 1125.36 733.35 1143.29 723.42" clip-rule="evenodd"></polygon>
  </g>
  <g>
    <path fill="#81aef7" fill-rule="evenodd" d="M1506.78,1036.78c10.6,0,20.72,1.73,29.97,4.86c-0.98-4.86-1.51-9.86-1.51-14.99
		c0-44.03,38.24-79.71,85.4-79.71c8.36,0,16.44,1.13,24.09,3.21c11.93-56.34,64.03-98.75,126.49-98.75
		c71.28,0,129.06,55.23,129.06,123.37c0,11.71-1.7,23.04-4.89,33.77c46.63,3.15,83.35,35.92,83.35,78.21
		c0,42.29-40.43,75.92-65.3,82.88c-3.73,1.04-8.81,0.98-14.79,0h-165.22v-58.1h54.28l-92.2-92.2l-92.21,92.2h54.29v58.1h-150.82
		c-44.03,0-79.72-29.74-79.72-66.43C1427.05,1066.53,1462.75,1036.78,1506.78,1036.78z" clip-rule="evenodd"></path>
  </g>
  <g opacity=".17">
    <path fill="#fff" fill-rule="evenodd" d="M1925.24,1031.93c15.7,13.97,25.36,33.15,25.36,54.84c0,22.21-11.16,42.04-25.36,56.87
		c-12.83,13.4-28.14,22.71-39.95,26.01h13.35c5.98,0.98,11.06,1.04,14.79,0c3.66-1.03,7.65-2.63,11.81-4.75
		c24.08-12.29,53.5-42.06,53.5-78.13c0-32.71-21.97-59.72-53.5-71.74c-9.23-3.52-19.28-5.75-29.85-6.46
		c3.19-10.73,4.89-22.06,4.89-33.77c0-68.14-57.78-123.37-129.06-123.37c-4.75,0-9.45,0.25-14.07,0.73
		c64.67,6.71,115,59.06,115,122.64c0,8.33-0.86,16.45-2.5,24.32c-0.68,3.2-1.48,6.35-2.4,9.46
		C1889.96,1010.09,1910.32,1018.65,1925.24,1031.93z" clip-rule="evenodd"></path>
  </g>
  <g>
    <path fill="#4a75cb" fill-rule="evenodd" d="M1502.77,1036.78c0.68,0,1.35,0.01,2.03,0.02c-43.12,0.88-77.75,30.28-77.75,66.41
		c0,36.69,35.7,66.43,79.72,66.43h-4.01c-44.03,0-79.72-29.74-79.72-66.43C1423.05,1066.53,1458.74,1036.78,1502.77,1036.78
		L1502.77,1036.78z M1532.49,1040.32c-0.82-4.43-1.25-9-1.25-13.66c0-44.03,38.23-79.71,85.41-79.71c0.69,0,1.38,0.01,2.06,0.02
		c-46.27,0.97-83.46,36.28-83.46,79.7c0,5.12,0.52,10.13,1.51,14.99C1535.35,1041.17,1533.93,1040.73,1532.49,1040.32
		L1532.49,1040.32z M1640.93,949.21c12.33-55.86,64.18-97.8,126.28-97.8c0.62,0,1.24,0.02,1.87,0.03
		c-61.5,0.96-112.55,43.04-124.35,98.73C1643.47,949.82,1642.21,949.5,1640.93,949.21L1640.93,949.21z M1904.92,1170.35
		c-2.98,0.18-6.45-0.07-10.28-0.7h4.01C1900.87,1170.01,1902.96,1170.25,1904.92,1170.35L1904.92,1170.35z M1733.42,1169.64h-4.01
		v-58.1h4.01V1169.64L1733.42,1169.64z M1783.7,1111.54h4.01l-92.2-92.2l-2.01,2L1783.7,1111.54z" clip-rule="evenodd"></path>
  </g>
  <g>
    <g>
      <rect width="627.78" height="579.33" x="502.28" y="1254.66" fill="#1e77d1" fill-rule="evenodd" clip-rule="evenodd"></rect>
    </g>
    <g>
      <path fill="#87bef5" fill-rule="evenodd" d="M467.96,1216.82h696.41c6.11,0,11.1,4.99,11.1,11.1v119.1c0,6.11-4.99,11.1-11.1,11.1H467.96
			c-6.11,0-11.11-4.99-11.11-11.1v-119.1C456.86,1221.81,461.86,1216.82,467.96,1216.82z" clip-rule="evenodd"></path>
    </g>
    <g>
      <polygon fill="#71afed" fill-rule="evenodd" points="1175.47 1227.92 1175.47 1227.92 1175.47 1347.02 1175.47 1347.02 456.86 1347.02 456.86 1347.02 456.86 1227.92 456.86 1227.92" clip-rule="evenodd"></polygon>
    </g>
    <g>
      <path fill="#87bef5" fill-rule="evenodd" d="M467.96,1384.86h696.41c6.11,0,11.1,5,11.1,11.11v119.09c0,6.11-4.99,11.11-11.1,11.11H467.96
			c-6.11,0-11.11-5-11.11-11.11v-119.09C456.86,1389.86,461.86,1384.86,467.96,1384.86z" clip-rule="evenodd"></path>
    </g>
    <g>
      <polygon fill="#71afed" fill-rule="evenodd" points="1175.47 1395.96 1175.47 1395.96 1175.47 1515.06 1175.47 1515.06 456.86 1515.06 456.86 1515.06 456.86 1395.96 456.86 1395.96" clip-rule="evenodd"></polygon>
    </g>
    <g>
      <path fill="#87bef5" fill-rule="evenodd" d="M467.96,1552.91h696.41c6.11,0,11.1,5,11.1,11.11v119.09c0,6.11-4.99,11.11-11.1,11.11H467.96
			c-6.11,0-11.11-5-11.11-11.11v-119.09C456.86,1557.91,461.86,1552.91,467.96,1552.91z" clip-rule="evenodd"></path>
    </g>
    <g>
      <polygon fill="#71afed" fill-rule="evenodd" points="1175.47 1564.01 1175.47 1564.02 1175.47 1683.11 1175.47 1683.12 456.86 1683.12 456.86 1683.11 456.86 1564.02 456.86 1564.01" clip-rule="evenodd"></polygon>
    </g>
    <g>
      <path fill="#87bef5" fill-rule="evenodd" d="M467.96,1720.96h696.41c6.11,0,11.1,4.99,11.1,11.1v119.1c0,6.11-4.99,11.1-11.1,11.1H467.96
			c-6.11,0-11.11-4.99-11.11-11.1v-119.1C456.86,1725.95,461.86,1720.96,467.96,1720.96z" clip-rule="evenodd"></path>
    </g>
    <g>
      <polygon fill="#71afed" fill-rule="evenodd" points="1175.47 1732.05 1175.47 1732.05 1175.47 1851.15 1175.47 1851.15 456.86 1851.15 456.86 1851.15 456.86 1732.05 456.86 1732.05" clip-rule="evenodd"></polygon>
    </g>
  </g>
  <g>
    <g>
      <circle cx="516.1" cy="1288.02" r="29.37" fill="#1e77d1" fill-rule="evenodd" clip-rule="evenodd"></circle>
    </g>
    <g>
      <path fill="#fff" fill-rule="evenodd" d="M516.1,1270.52c9.66,0,17.5,7.84,17.5,17.5c0,9.66-7.84,17.5-17.5,17.5c-9.66,0-17.5-7.84-17.5-17.5
			C498.6,1278.36,506.44,1270.52,516.1,1270.52z" clip-rule="evenodd"></path>
    </g>
    <g>
      <path fill="#1e77d1" fill-rule="evenodd" d="M595.83,1258.65c16.22,0,29.37,13.15,29.37,29.37s-13.15,29.37-29.37,29.37
			c-16.21,0-29.36-13.15-29.36-29.37S579.62,1258.65,595.83,1258.65z" clip-rule="evenodd"></path>
    </g>
    <g>
      <path fill="#fff" fill-rule="evenodd" d="M595.83,1270.52c9.67,0,17.5,7.84,17.5,17.5c0,9.66-7.83,17.5-17.5,17.5c-9.66,0-17.49-7.84-17.49-17.5
			C578.34,1278.36,586.17,1270.52,595.83,1270.52z" clip-rule="evenodd"></path>
    </g>
  </g>
  <g>
    <g>
      <circle cx="682.26" cy="1288.02" r="29.37" fill="#1e77d1" fill-rule="evenodd" clip-rule="evenodd" transform="rotate(-22.341 682.358 1288.153)"></circle>
    </g>
    <g>
      <path fill="#fff" fill-rule="evenodd" d="M682.26,1270.52c9.67,0,17.5,7.84,17.5,17.5c0,9.66-7.83,17.5-17.5,17.5c-9.66,0-17.49-7.84-17.49-17.5
			C664.77,1278.36,672.6,1270.52,682.26,1270.52z" clip-rule="evenodd"></path>
    </g>
    <g>
      <path fill="#1e77d1" fill-rule="evenodd" d="M761.98,1258.65c16.22,0,29.37,13.15,29.37,29.37s-13.15,29.37-29.37,29.37
			c-16.21,0-29.36-13.15-29.36-29.37S745.77,1258.65,761.98,1258.65z" clip-rule="evenodd"></path>
    </g>
    <g>
      <path fill="#fff" fill-rule="evenodd" d="M761.98,1270.52c9.67,0,17.5,7.84,17.5,17.5c0,9.66-7.83,17.5-17.5,17.5c-9.66,0-17.49-7.84-17.49-17.5
			C744.49,1278.36,752.33,1270.52,761.98,1270.52z" clip-rule="evenodd"></path>
    </g>
  </g>
  <g>
    <g>
      <path fill="#1e77d1" fill-rule="evenodd" d="M848.42,1258.65c16.22,0,29.37,13.15,29.37,29.37s-13.15,29.37-29.37,29.37
			c-16.21,0-29.36-13.15-29.36-29.37S832.21,1258.65,848.42,1258.65z" clip-rule="evenodd"></path>
    </g>
    <g>
      <path fill="#fff" fill-rule="evenodd" d="M848.42,1270.52c9.67,0,17.5,7.84,17.5,17.5c0,9.66-7.83,17.5-17.5,17.5c-9.66,0-17.49-7.84-17.49-17.5
			C830.93,1278.36,838.76,1270.52,848.42,1270.52z" clip-rule="evenodd"></path>
    </g>
    <g>
      <path fill="#1e77d1" fill-rule="evenodd" d="M928.15,1258.65c16.21,0,29.36,13.15,29.36,29.37s-13.15,29.37-29.36,29.37
			c-16.22,0-29.37-13.15-29.37-29.37S911.93,1258.65,928.15,1258.65z" clip-rule="evenodd"></path>
    </g>
    <g>
      <path fill="#fff" fill-rule="evenodd" d="M928.15,1270.52c9.66,0,17.49,7.84,17.49,17.5c0,9.66-7.83,17.5-17.49,17.5c-9.67,0-17.5-7.84-17.5-17.5
			C910.65,1278.36,918.48,1270.52,928.15,1270.52z" clip-rule="evenodd"></path>
    </g>
  </g>
  <g>
    <g>
      <path fill="#1e77d1" fill-rule="evenodd" d="M1014.59,1258.65c16.21,0,29.36,13.15,29.36,29.37s-13.15,29.37-29.36,29.37
			c-16.22,0-29.37-13.15-29.37-29.37S998.37,1258.65,1014.59,1258.65z" clip-rule="evenodd"></path>
    </g>
    <g>
      <path fill="#fff" fill-rule="evenodd" d="M1014.59,1270.52c9.66,0,17.49,7.84,17.49,17.5c0,9.66-7.83,17.5-17.49,17.5c-9.67,0-17.5-7.84-17.5-17.5
			C997.09,1278.36,1004.92,1270.52,1014.59,1270.52z" clip-rule="evenodd"></path>
    </g>
    <g>
      <circle cx="1094.31" cy="1288.02" r="29.37" fill="#1e77d1" fill-rule="evenodd" clip-rule="evenodd" transform="rotate(-22.347 1094.426 1288.133)"></circle>
    </g>
    <g>
      <path fill="#fff" fill-rule="evenodd" d="M1094.31,1270.52c9.66,0,17.49,7.84,17.49,17.5c0,9.66-7.83,17.5-17.49,17.5c-9.67,0-17.5-7.84-17.5-17.5
			C1076.81,1278.36,1084.64,1270.52,1094.31,1270.52z" clip-rule="evenodd"></path>
    </g>
  </g>
  <g>
    <g>
      <path fill="#1e77d1" fill-rule="evenodd" d="M516.1,1432.55c16.22,0,29.37,13.15,29.37,29.37c0,16.21-13.15,29.36-29.37,29.36
			c-16.22,0-29.37-13.15-29.37-29.36C486.73,1445.7,499.89,1432.55,516.1,1432.55z" clip-rule="evenodd"></path>
    </g>
    <g>
      <path fill="#fff" fill-rule="evenodd" d="M516.1,1444.43c9.66,0,17.5,7.83,17.5,17.5c0,9.66-7.84,17.49-17.5,17.49c-9.66,0-17.5-7.83-17.5-17.49
			C498.6,1452.26,506.44,1444.43,516.1,1444.43z" clip-rule="evenodd"></path>
    </g>
    <g>
      <path fill="#1e77d1" fill-rule="evenodd" d="M595.83,1432.55c16.22,0,29.37,13.15,29.37,29.37c0,16.21-13.15,29.36-29.37,29.36
			c-16.21,0-29.36-13.15-29.36-29.36C566.47,1445.7,579.62,1432.55,595.83,1432.55z" clip-rule="evenodd"></path>
    </g>
    <g>
      <path fill="#fff" fill-rule="evenodd" d="M595.83,1444.43c9.67,0,17.5,7.83,17.5,17.5c0,9.66-7.83,17.49-17.5,17.49c-9.66,0-17.49-7.83-17.49-17.49
			C578.34,1452.26,586.17,1444.43,595.83,1444.43z" clip-rule="evenodd"></path>
    </g>
  </g>
  <g>
    <g>
      <path fill="#1e77d1" fill-rule="evenodd" d="M682.26,1432.55c16.22,0,29.37,13.15,29.37,29.37c0,16.21-13.15,29.36-29.37,29.36
			c-16.22,0-29.37-13.15-29.37-29.36C652.89,1445.7,666.04,1432.55,682.26,1432.55z" clip-rule="evenodd"></path>
    </g>
    <g>
      <path fill="#fff" fill-rule="evenodd" d="M682.26,1444.43c9.67,0,17.5,7.83,17.5,17.5c0,9.66-7.83,17.49-17.5,17.49c-9.66,0-17.49-7.83-17.49-17.49
			C664.77,1452.26,672.6,1444.43,682.26,1444.43z" clip-rule="evenodd"></path>
    </g>
    <g>
      <path fill="#1e77d1" fill-rule="evenodd" d="M761.98,1432.55c16.22,0,29.37,13.15,29.37,29.37c0,16.21-13.15,29.36-29.37,29.36
			c-16.21,0-29.36-13.15-29.36-29.36C732.62,1445.7,745.77,1432.55,761.98,1432.55z" clip-rule="evenodd"></path>
    </g>
    <g>
      <path fill="#fff" fill-rule="evenodd" d="M761.98,1444.43c9.67,0,17.5,7.83,17.5,17.5c0,9.66-7.83,17.49-17.5,17.49c-9.66,0-17.49-7.83-17.49-17.49
			C744.49,1452.26,752.33,1444.43,761.98,1444.43z" clip-rule="evenodd"></path>
    </g>
  </g>
  <g>
    <g>
      <path fill="#1e77d1" fill-rule="evenodd" d="M848.42,1432.55c16.22,0,29.37,13.15,29.37,29.37c0,16.21-13.15,29.36-29.37,29.36
			c-16.21,0-29.36-13.15-29.36-29.36C819.06,1445.7,832.21,1432.55,848.42,1432.55z" clip-rule="evenodd"></path>
    </g>
    <g>
      <path fill="#fff" fill-rule="evenodd" d="M848.42,1444.43c9.67,0,17.5,7.83,17.5,17.5c0,9.66-7.83,17.49-17.5,17.49c-9.66,0-17.49-7.83-17.49-17.49
			C830.93,1452.26,838.76,1444.43,848.42,1444.43z" clip-rule="evenodd"></path>
    </g>
    <g>
      <path fill="#1e77d1" fill-rule="evenodd" d="M928.15,1432.55c16.21,0,29.36,13.15,29.36,29.37c0,16.21-13.15,29.36-29.36,29.36
			c-16.22,0-29.37-13.15-29.37-29.36C898.78,1445.7,911.93,1432.55,928.15,1432.55z" clip-rule="evenodd"></path>
    </g>
    <g>
      <path fill="#fff" fill-rule="evenodd" d="M928.15,1444.43c9.66,0,17.49,7.83,17.49,17.5c0,9.66-7.83,17.49-17.49,17.49c-9.67,0-17.5-7.83-17.5-17.49
			C910.65,1452.26,918.48,1444.43,928.15,1444.43z" clip-rule="evenodd"></path>
    </g>
  </g>
  <g>
    <g>
      <path fill="#1e77d1" fill-rule="evenodd" d="M1014.59,1432.55c16.21,0,29.36,13.15,29.36,29.37c0,16.21-13.15,29.36-29.36,29.36
			c-16.22,0-29.37-13.15-29.37-29.36C985.22,1445.7,998.37,1432.55,1014.59,1432.55z" clip-rule="evenodd"></path>
    </g>
    <g>
      <path fill="#fff" fill-rule="evenodd" d="M1014.59,1444.43c9.66,0,17.49,7.83,17.49,17.5c0,9.66-7.83,17.49-17.49,17.49c-9.67,0-17.5-7.83-17.5-17.49
			C997.09,1452.26,1004.92,1444.43,1014.59,1444.43z" clip-rule="evenodd"></path>
    </g>
    <g>
      <path fill="#1e77d1" fill-rule="evenodd" d="M1094.31,1432.55c16.22,0,29.37,13.15,29.37,29.37c0,16.21-13.15,29.36-29.37,29.36
			s-29.37-13.15-29.37-29.36C1064.94,1445.7,1078.09,1432.55,1094.31,1432.55z" clip-rule="evenodd"></path>
    </g>
    <g>
      <path fill="#fff" fill-rule="evenodd" d="M1094.31,1444.43c9.66,0,17.49,7.83,17.49,17.5c0,9.66-7.83,17.49-17.49,17.49c-9.67,0-17.5-7.83-17.5-17.49
			C1076.81,1452.26,1084.64,1444.43,1094.31,1444.43z" clip-rule="evenodd"></path>
    </g>
  </g>
  <g>
    <g>
      <circle cx="516.1" cy="1627.03" r="29.37" fill="#1e77d1" fill-rule="evenodd" clip-rule="evenodd"></circle>
    </g>
    <g>
      <path fill="#fff" fill-rule="evenodd" d="M516.1,1609.53c9.66,0,17.5,7.84,17.5,17.5c0,9.66-7.84,17.5-17.5,17.5c-9.66,0-17.5-7.84-17.5-17.5
			C498.6,1617.37,506.44,1609.53,516.1,1609.53z" clip-rule="evenodd"></path>
    </g>
    <g>
      <path fill="#1e77d1" fill-rule="evenodd" d="M595.83,1597.66c16.22,0,29.37,13.15,29.37,29.37c0,16.22-13.15,29.37-29.37,29.37
			c-16.21,0-29.36-13.15-29.36-29.37C566.47,1610.8,579.62,1597.66,595.83,1597.66z" clip-rule="evenodd"></path>
    </g>
    <g>
      <path fill="#fff" fill-rule="evenodd" d="M595.83,1609.53c9.67,0,17.5,7.84,17.5,17.5c0,9.66-7.83,17.5-17.5,17.5c-9.66,0-17.49-7.84-17.49-17.5
			C578.34,1617.37,586.17,1609.53,595.83,1609.53z" clip-rule="evenodd"></path>
    </g>
  </g>
  <g>
    <g>
      <circle cx="682.26" cy="1627.03" r="29.37" fill="#1e77d1" fill-rule="evenodd" clip-rule="evenodd" transform="rotate(-22.341 682.363 1627.2)"></circle>
    </g>
    <g>
      <path fill="#fff" fill-rule="evenodd" d="M682.26,1609.53c9.67,0,17.5,7.84,17.5,17.5c0,9.66-7.83,17.5-17.5,17.5c-9.66,0-17.49-7.84-17.49-17.5
			C664.77,1617.37,672.6,1609.53,682.26,1609.53z" clip-rule="evenodd"></path>
    </g>
    <g>
      <path fill="#1e77d1" fill-rule="evenodd" d="M761.98,1597.66c16.22,0,29.37,13.15,29.37,29.37c0,16.22-13.15,29.37-29.37,29.37
			c-16.21,0-29.36-13.15-29.36-29.37C732.62,1610.8,745.77,1597.66,761.98,1597.66z" clip-rule="evenodd"></path>
    </g>
    <g>
      <path fill="#fff" fill-rule="evenodd" d="M761.98,1609.53c9.67,0,17.5,7.84,17.5,17.5c0,9.66-7.83,17.5-17.5,17.5c-9.66,0-17.49-7.84-17.49-17.5
			C744.49,1617.37,752.33,1609.53,761.98,1609.53z" clip-rule="evenodd"></path>
    </g>
  </g>
  <g>
    <g>
      <path fill="#1e77d1" fill-rule="evenodd" d="M848.42,1597.66c16.22,0,29.37,13.15,29.37,29.37c0,16.22-13.15,29.37-29.37,29.37
			c-16.21,0-29.36-13.15-29.36-29.37C819.06,1610.8,832.21,1597.66,848.42,1597.66z" clip-rule="evenodd"></path>
    </g>
    <g>
      <path fill="#fff" fill-rule="evenodd" d="M848.42,1609.53c9.67,0,17.5,7.84,17.5,17.5c0,9.66-7.83,17.5-17.5,17.5c-9.66,0-17.49-7.84-17.49-17.5
			C830.93,1617.37,838.76,1609.53,848.42,1609.53z" clip-rule="evenodd"></path>
    </g>
    <g>
      <path fill="#1e77d1" fill-rule="evenodd" d="M928.15,1597.66c16.21,0,29.36,13.15,29.36,29.37c0,16.22-13.15,29.37-29.36,29.37
			c-16.22,0-29.37-13.15-29.37-29.37C898.78,1610.8,911.93,1597.66,928.15,1597.66z" clip-rule="evenodd"></path>
    </g>
    <g>
      <path fill="#fff" fill-rule="evenodd" d="M928.15,1609.53c9.66,0,17.49,7.84,17.49,17.5c0,9.66-7.83,17.5-17.49,17.5c-9.67,0-17.5-7.84-17.5-17.5
			C910.65,1617.37,918.48,1609.53,928.15,1609.53z" clip-rule="evenodd"></path>
    </g>
  </g>
  <g>
    <g>
      <path fill="#1e77d1" fill-rule="evenodd" d="M1014.59,1597.66c16.21,0,29.36,13.15,29.36,29.37c0,16.22-13.15,29.37-29.36,29.37
			c-16.22,0-29.37-13.15-29.37-29.37C985.22,1610.8,998.37,1597.66,1014.59,1597.66z" clip-rule="evenodd"></path>
    </g>
    <g>
      <path fill="#fff" fill-rule="evenodd" d="M1014.59,1609.53c9.66,0,17.49,7.84,17.49,17.5c0,9.66-7.83,17.5-17.49,17.5c-9.67,0-17.5-7.84-17.5-17.5
			C997.09,1617.37,1004.92,1609.53,1014.59,1609.53z" clip-rule="evenodd"></path>
    </g>
    <g>
      <circle cx="1094.31" cy="1627.03" r="29.37" fill="#1e77d1" fill-rule="evenodd" clip-rule="evenodd" transform="rotate(-22.347 1094.43 1627.174)"></circle>
    </g>
    <g>
      <path fill="#fff" fill-rule="evenodd" d="M1094.31,1609.53c9.66,0,17.49,7.84,17.49,17.5c0,9.66-7.83,17.5-17.49,17.5c-9.67,0-17.5-7.84-17.5-17.5
			C1076.81,1617.37,1084.64,1609.53,1094.31,1609.53z" clip-rule="evenodd"></path>
    </g>
  </g>
  <g>
    <g>
      <path fill="#1e77d1" fill-rule="evenodd" d="M516.1,1764.92c16.22,0,29.37,13.15,29.37,29.36c0,16.22-13.15,29.37-29.37,29.37
			c-16.22,0-29.37-13.15-29.37-29.37C486.73,1778.07,499.89,1764.92,516.1,1764.92z" clip-rule="evenodd"></path>
    </g>
    <g>
      <path fill="#fff" fill-rule="evenodd" d="M516.1,1776.79c9.66,0,17.5,7.83,17.5,17.49c0,9.67-7.84,17.5-17.5,17.5c-9.66,0-17.5-7.83-17.5-17.5
			C498.6,1784.63,506.44,1776.79,516.1,1776.79z" clip-rule="evenodd"></path>
    </g>
    <g>
      <path fill="#1e77d1" fill-rule="evenodd" d="M595.83,1764.92c16.22,0,29.37,13.15,29.37,29.36c0,16.22-13.15,29.37-29.37,29.37
			c-16.21,0-29.36-13.15-29.36-29.37C566.47,1778.07,579.62,1764.92,595.83,1764.92z" clip-rule="evenodd"></path>
    </g>
    <g>
      <path fill="#fff" fill-rule="evenodd" d="M595.83,1776.79c9.67,0,17.5,7.83,17.5,17.49c0,9.67-7.83,17.5-17.5,17.5c-9.66,0-17.49-7.83-17.49-17.5
			C578.34,1784.63,586.17,1776.79,595.83,1776.79z" clip-rule="evenodd"></path>
    </g>
  </g>
  <g>
    <g>
      <path fill="#1e77d1" fill-rule="evenodd" d="M682.26,1764.92c16.22,0,29.37,13.15,29.37,29.36c0,16.22-13.15,29.37-29.37,29.37
			c-16.22,0-29.37-13.15-29.37-29.37C652.89,1778.07,666.04,1764.92,682.26,1764.92z" clip-rule="evenodd"></path>
    </g>
    <g>
      <path fill="#fff" fill-rule="evenodd" d="M682.26,1776.79c9.67,0,17.5,7.83,17.5,17.49c0,9.67-7.83,17.5-17.5,17.5c-9.66,0-17.49-7.83-17.49-17.5
			C664.77,1784.63,672.6,1776.79,682.26,1776.79z" clip-rule="evenodd"></path>
    </g>
    <g>
      <path fill="#1e77d1" fill-rule="evenodd" d="M761.98,1764.92c16.22,0,29.37,13.15,29.37,29.36c0,16.22-13.15,29.37-29.37,29.37
			c-16.21,0-29.36-13.15-29.36-29.37C732.62,1778.07,745.77,1764.92,761.98,1764.92z" clip-rule="evenodd"></path>
    </g>
    <g>
      <path fill="#fff" fill-rule="evenodd" d="M761.98,1776.79c9.67,0,17.5,7.83,17.5,17.49c0,9.67-7.83,17.5-17.5,17.5c-9.66,0-17.49-7.83-17.49-17.5
			C744.49,1784.63,752.33,1776.79,761.98,1776.79z" clip-rule="evenodd"></path>
    </g>
  </g>
  <g>
    <g>
      <path fill="#1e77d1" fill-rule="evenodd" d="M848.42,1764.92c16.22,0,29.37,13.15,29.37,29.36c0,16.22-13.15,29.37-29.37,29.37
			c-16.21,0-29.36-13.15-29.36-29.37C819.06,1778.07,832.21,1764.92,848.42,1764.92z" clip-rule="evenodd"></path>
    </g>
    <g>
      <path fill="#fff" fill-rule="evenodd" d="M848.42,1776.79c9.67,0,17.5,7.83,17.5,17.49c0,9.67-7.83,17.5-17.5,17.5c-9.66,0-17.49-7.83-17.49-17.5
			C830.93,1784.63,838.76,1776.79,848.42,1776.79z" clip-rule="evenodd"></path>
    </g>
    <g>
      <path fill="#1e77d1" fill-rule="evenodd" d="M928.15,1764.92c16.21,0,29.36,13.15,29.36,29.36c0,16.22-13.15,29.37-29.36,29.37
			c-16.22,0-29.37-13.15-29.37-29.37C898.78,1778.07,911.93,1764.92,928.15,1764.92z" clip-rule="evenodd"></path>
    </g>
    <g>
      <path fill="#fff" fill-rule="evenodd" d="M928.15,1776.79c9.66,0,17.49,7.83,17.49,17.49c0,9.67-7.83,17.5-17.49,17.5c-9.67,0-17.5-7.83-17.5-17.5
			C910.65,1784.63,918.48,1776.79,928.15,1776.79z" clip-rule="evenodd"></path>
    </g>
  </g>
  <g>
    <g>
      <path fill="#1e77d1" fill-rule="evenodd" d="M1014.59,1764.92c16.21,0,29.36,13.15,29.36,29.36c0,16.22-13.15,29.37-29.36,29.37
			c-16.22,0-29.37-13.15-29.37-29.37C985.22,1778.07,998.37,1764.92,1014.59,1764.92z" clip-rule="evenodd"></path>
    </g>
    <g>
      <path fill="#fff" fill-rule="evenodd" d="M1014.59,1776.79c9.66,0,17.49,7.83,17.49,17.49c0,9.67-7.83,17.5-17.49,17.5c-9.67,0-17.5-7.83-17.5-17.5
			C997.09,1784.63,1004.92,1776.79,1014.59,1776.79z" clip-rule="evenodd"></path>
    </g>
    <g>
      <path fill="#1e77d1" fill-rule="evenodd" d="M1094.31,1764.92c16.22,0,29.37,13.15,29.37,29.36c0,16.22-13.15,29.37-29.37,29.37
			s-29.37-13.15-29.37-29.37C1064.94,1778.07,1078.09,1764.92,1094.31,1764.92z" clip-rule="evenodd"></path>
    </g>
    <g>
      <path fill="#fff" fill-rule="evenodd" d="M1094.31,1776.79c9.66,0,17.49,7.83,17.49,17.49c0,9.67-7.83,17.5-17.49,17.5c-9.67,0-17.5-7.83-17.5-17.5
			C1076.81,1784.63,1084.64,1776.79,1094.31,1776.79z" clip-rule="evenodd"></path>
    </g>
  </g>
  <g>
    <path fill="#61a0e0" fill-rule="evenodd" d="M1478.33,1832.01h100.41l-57.76-281.61h142.54l57.76,281.61h100.09c14.11,0,29.86,11.43,35.17,25.55H1462.4
		C1457.08,1843.44,1464.22,1832.01,1478.33,1832.01z" clip-rule="evenodd"></path>
  </g>
  <g>
    <path fill="#87bef5" fill-rule="evenodd" d="M1170.17,1724.5l9.07-65.55l56.65-409.09c2.68-19.44,20.62-35.19,40.07-35.19h793.18h8.6
		c15.31,3.86,25.12,18.17,22.77,35.19l-65.72,474.64c-1.95,14.19-13.04,25.72-24.71,25.72h-823.32l0.14-1.02
		C1175.78,1749.2,1168.29,1738.15,1170.17,1724.5z" clip-rule="evenodd"></path>
  </g>
  <g>
    <polygon fill="#87bef5" fill-rule="evenodd" points="1560.74 1849.04 1703.28 1849.04 1642.02 1550.4 1499.48 1550.4" clip-rule="evenodd"></polygon>
  </g>
  <g>
    <path fill="#a4d0fc" fill-rule="evenodd" d="M1153.92,1658.95l56.63-409.09c2.69-19.44,20.63-35.19,40.06-35.19h793.21c19.44,0,33.01,15.76,30.31,35.19
		l-56.63,409.09H1153.92z" clip-rule="evenodd"></path>
  </g>
  <g>
    <path fill="#a4d0fc" fill-rule="evenodd" d="M2017.5,1658.95l-9.07,65.55c-1.88,13.65-12.43,24.7-23.55,24.7h-823.31c-11.13,0-18.6-11.05-16.71-24.7
		l9.07-65.55H2017.5z" clip-rule="evenodd"></path>
  </g>
  <g>
    <path fill="#eaf3fc" fill-rule="evenodd" d="M1176.58,1641.19l54.03-390.24c1.41-10.23,11.16-18.52,21.74-18.52h784.8c10.58,0,18.03,8.29,16.6,18.52
		l-54.01,390.24H1176.58z" clip-rule="evenodd"></path>
  </g>
  <g>
    <path fill="#61a0e0" fill-rule="evenodd" d="M1588.22,1622.63l-11.58-56.49c7.96-4.54,15.45-9.83,22.37-15.75h76.47l19.51,19.53
		c6.81,6.81,6.81,17.94,0,24.75l-8.78,8.78l-18.01,18.01l-8.78,8.78c-6.81,6.81-17.94,6.81-24.75,0l-21.35-21.33
		C1605.24,1614.12,1596.84,1618.7,1588.22,1622.63L1588.22,1622.63z M1704.73,1550.39h11.21l2.36,11.53l-3.95-1.63
		C1709.75,1558.4,1706.38,1554.73,1704.73,1550.39L1704.73,1550.39z M1727.54,1606.91l11.11,54.19c-1.6-1.04-3.06-2.35-4.29-3.95
		l-16.23-21.01c-5.84-7.58-4.42-18.55,3.14-24.38L1727.54,1606.91z" clip-rule="evenodd"></path>
  </g>
  <g>
    <path fill="#87bef5" fill-rule="evenodd" d="M1261.05,1446.8l6.27-45.26c3.04-2.57,6.98-4.12,11.25-4.12h30.19c4.99-23.03,14.07-45.36,27.24-65.83
		l-21.34-21.33c-6.81-6.81-6.81-17.95,0-24.75l8.78-8.8l18-18l8.78-8.79c6.82-6.81,17.95-6.81,24.77,0l21.33,21.36
		c20.47-13.18,42.8-22.26,65.83-27.25v-29.35h85.33v29.35c23.05,4.99,45.38,14.06,65.84,27.23l21.35-21.34
		c6.81-6.81,17.94-6.81,24.75,0l8.78,8.79l18.01,18l8.78,8.78c6.81,6.82,6.82,17.96,0,24.77l-21.33,21.33
		c13.18,20.46,22.26,42.8,27.24,65.83h30.21c9.61,0,17.5,7.89,17.5,17.52v12.41v25.47v12.43c0,9.63-7.87,17.5-17.5,17.5h-30.21
		c-4.98,23.05-14.08,45.38-27.25,65.84l21.33,21.35c6.81,6.81,6.81,17.94,0,24.75l-8.78,8.78l-18.01,18.01l-8.78,8.78
		c-6.81,6.81-17.94,6.81-24.75,0l-21.35-21.33c-20.46,13.18-42.8,22.25-65.84,27.25v30.21c0,9.63-7.87,17.51-17.5,17.5h-12.43
		h-25.47h-12.41c-9.63,0-17.52-7.87-17.52-17.5v-30.21c-23.03-5-45.36-14.06-65.83-27.25l-21.33,21.33
		c-6.81,6.83-17.95,6.81-24.77,0l-8.78-8.78l-17.99-18.01l-8.79-8.78c-6.81-6.81-6.81-17.94,0-24.75l21.34-21.35
		c-13.18-20.46-22.26-42.79-27.24-65.84h-30.19c-9.63,0-17.52-7.87-17.52-17.5v-12.43V1446.8L1261.05,1446.8z M1799.01,1214.66
		c-10.58,2.86-20.48,7.52-29.29,13.69l-13.7-9.89c-7.76-5.59-18.68-3.83-24.27,3.93l-15.53,21.52c-5.6,7.76-3.83,18.68,3.92,24.27
		l13.68,9.88c-1.64,5.53-2.81,11.3-3.41,17.26c-0.61,5.96-0.64,11.83-0.15,17.59l-15.4,6.92c-8.72,3.92-12.65,14.25-8.73,22.99
		l10.87,24.21c3.92,8.72,14.26,12.65,22.98,8.74l15.41-6.92c8.01,8.48,17.61,15.48,28.4,20.52l-1.71,16.78
		c-0.97,9.52,6.01,18.09,15.53,19.05l26.41,2.7c9.51,0.97,18.09-6.02,19.06-15.53l1.71-16.78c11.59-2.76,22.4-7.68,31.95-14.37
		l13.71,9.88c7.75,5.59,18.67,3.83,24.26-3.92l15.55-21.54c5.59-7.74,3.84-18.66-3.92-24.27l-13.69-9.87
		c1.65-5.53,2.81-11.29,3.42-17.25c0.6-5.97,0.64-11.84,0.13-17.6l15.41-6.92c8.72-3.91,12.64-14.26,8.73-22.98l-10.88-24.23
		c-3.92-8.72-14.25-12.65-22.99-8.73l-15.4,6.92c-8-8.48-17.6-15.49-28.39-20.51l0.57-5.55H1799.01L1799.01,1214.66z
		 M1823.23,1261.98c23.65,0,42.81,19.17,42.81,42.81c0,23.65-19.17,42.81-42.81,42.81c-23.64,0-42.81-19.17-42.81-42.81
		C1780.42,1281.15,1799.59,1261.98,1823.23,1261.98L1823.23,1261.98z M1793.66,1452.3c-9.48,1.28-16.19,10.07-14.92,19.55
		l2.26,16.72c-10.61,5.38-20,12.7-27.72,21.42l-15.63-6.41c-8.84-3.65-19.05,0.62-22.68,9.47l-10.1,24.57
		c-3.63,8.83,0.63,19.05,9.48,22.68l15.61,6.41c-0.31,5.76-0.09,11.64,0.7,17.59c0.79,5.93,2.16,11.66,3.97,17.13l-13.36,10.33
		c-7.56,5.83-8.99,16.8-3.14,24.38l16.23,21.01c5.84,7.56,16.81,8.99,24.38,3.14l13.37-10.32c9.77,6.37,20.73,10.96,32.39,13.33
		l2.26,16.72c1.27,9.48,10.07,16.19,19.54,14.92l26.33-3.53c9.47-1.28,16.18-10.08,14.9-19.55l-2.25-16.72
		c10.62-5.37,20.01-12.69,27.73-21.42l15.63,6.43c8.84,3.63,19.05-0.64,22.68-9.48l10.08-24.55c3.65-8.85-0.62-19.05-9.47-22.68
		l-15.61-6.43c0.31-5.76,0.09-11.64-0.7-17.57c-0.81-5.93-2.16-11.66-3.97-17.15l13.36-10.31c7.56-5.85,8.98-16.82,3.14-24.38
		l-16.23-21.03c-5.83-7.56-16.81-8.97-24.38-3.14l-13.38,10.33c-9.76-6.38-20.72-10.96-32.4-13.34l-2.25-16.72
		c-1.27-9.48-10.07-16.18-19.54-14.91L1793.66,1452.3L1793.66,1452.3z M1823.14,1529.03c23.65,0,42.81,19.17,42.81,42.81
		c0,23.65-19.17,42.81-42.81,42.81c-23.64,0-42.81-19.16-42.81-42.81C1780.32,1548.2,1799.5,1529.03,1823.14,1529.03
		L1823.14,1529.03z M1504.85,1295.03c-40.06,0-76.31,16.24-102.57,42.49c-26.25,26.25-42.49,62.51-42.49,102.57
		c0,40.04,16.23,76.31,42.49,102.56c26.25,26.25,62.51,42.49,102.57,42.49c40.04,0,76.31-16.24,102.56-42.49
		c26.25-26.24,42.49-62.52,42.49-102.56c0-40.06-16.24-76.31-42.49-102.57C1581.16,1311.27,1544.89,1295.03,1504.85,1295.03
		L1504.85,1295.03z M1579.39,1365.54c-19.08-19.08-45.44-30.88-74.54-30.88c-29.12,0-55.48,11.8-74.55,30.88
		c-19.08,19.06-30.88,45.43-30.88,74.55c0,29.11,11.8,55.47,30.88,74.54c19.06,19.08,45.42,30.88,74.55,30.88
		c29.1,0,55.47-11.8,74.54-30.88c19.08-19.08,30.87-45.43,30.87-74.54C1610.26,1410.97,1598.46,1384.6,1579.39,1365.54z" clip-rule="evenodd"></path>
  </g>
  <g>
    <path fill="#87bef5" fill-rule="evenodd" d="M1675.49,1550.39h-76.47c-12.37,10.57-26.53,19.1-41.97,25.07l11.29,54.99c15.65-5.2,30.78-12.38,45.01-21.55
		l21.35,21.33c6.81,6.81,17.94,6.81,24.75,0l8.78-8.78l18.01-18.01l8.78-8.78c6.81-6.81,6.81-17.94,0-24.75L1675.49,1550.39z" clip-rule="evenodd"></path>
  </g>
  <g>
    <path fill="#a4d0fc" fill-rule="evenodd" d="M1462.18,1214.66h85.33v29.35c23.05,4.99,45.38,14.06,65.84,27.23l21.35-21.34c6.81-6.81,17.94-6.81,24.75,0
		l8.78,8.79l18.01,18l8.78,8.78c6.81,6.82,6.82,17.96,0,24.77l-21.33,21.33c13.18,20.46,22.26,42.8,27.24,65.83h30.21
		c9.61,0,17.5,7.89,17.5,17.52v12.41v25.47v12.43c0,9.63-7.87,17.5-17.5,17.5h-30.21c-4.98,23.05-14.08,45.38-27.25,65.84
		l21.33,21.35c6.81,6.81,6.81,17.94,0,24.75l-8.78,8.78l-18.01,18.01l-8.78,8.78c-6.81,6.81-17.94,6.81-24.75,0l-21.35-21.33
		c-20.46,13.18-42.8,22.25-65.84,27.25v22.78h-85.33v-22.78c-23.03-5-45.36-14.06-65.83-27.25l-21.33,21.33
		c-6.81,6.83-17.95,6.81-24.77,0l-8.78-8.78l-17.99-18.01l-8.79-8.78c-6.81-6.81-6.81-17.94,0-24.75l21.34-21.35
		c-13.18-20.46-22.26-42.79-27.24-65.84h-30.19c-9.63,0-17.52-7.87-17.52-17.5v-12.43v-25.47v-12.41c0-9.63,7.88-17.51,17.52-17.52
		h30.19c4.99-23.03,14.07-45.36,27.24-65.83l-21.34-21.33c-6.81-6.81-6.81-17.95,0-24.75l8.78-8.8l18-18l8.78-8.79
		c6.82-6.81,17.95-6.81,24.77,0l21.33,21.36c20.47-13.18,42.8-22.26,65.83-27.25V1214.66L1462.18,1214.66z M1799.01,1214.66
		c-10.58,2.86-20.48,7.52-29.29,13.69l-13.7-9.89c-7.76-5.59-18.68-3.83-24.27,3.93l-15.53,21.52c-5.6,7.76-3.83,18.68,3.92,24.27
		l13.68,9.88c-1.64,5.53-2.81,11.3-3.41,17.26c-0.61,5.96-0.64,11.83-0.15,17.59l-15.4,6.92c-8.72,3.92-12.65,14.25-8.73,22.99
		l10.87,24.21c3.92,8.72,14.26,12.65,22.98,8.74l15.41-6.92c8.01,8.48,17.61,15.48,28.4,20.52l-1.71,16.78
		c-0.97,9.52,6.01,18.09,15.53,19.05l26.41,2.7c9.51,0.97,18.09-6.02,19.06-15.53l1.71-16.78c11.59-2.76,22.4-7.68,31.95-14.37
		l13.71,9.88c7.75,5.59,18.67,3.83,24.26-3.92l15.55-21.54c5.59-7.74,3.84-18.66-3.92-24.27l-13.69-9.87
		c1.65-5.53,2.81-11.29,3.42-17.25c0.6-5.97,0.64-11.84,0.13-17.6l15.41-6.92c8.72-3.91,12.64-14.26,8.73-22.98l-10.88-24.23
		c-3.92-8.72-14.25-12.65-22.99-8.73l-15.4,6.92c-8-8.48-17.6-15.49-28.39-20.51l0.57-5.55H1799.01L1799.01,1214.66z
		 M1865.79,1658.94l-0.52-3.82c10.62-5.37,20.01-12.69,27.73-21.42l15.63,6.43c8.84,3.63,19.05-0.64,22.68-9.48l10.08-24.55
		c3.65-8.85-0.62-19.05-9.47-22.68l-15.61-6.43c0.31-5.76,0.09-11.64-0.7-17.57c-0.81-5.93-2.16-11.66-3.97-17.15l13.36-10.31
		c7.56-5.85,8.98-16.82,3.14-24.38l-16.23-21.03c-5.83-7.56-16.81-8.97-24.38-3.14l-13.38,10.33c-9.76-6.38-20.72-10.96-32.4-13.34
		l-2.25-16.72c-1.27-9.48-10.07-16.18-19.54-14.91l-26.32,3.53c-9.48,1.28-16.19,10.07-14.92,19.55l2.26,16.72
		c-10.61,5.38-20,12.7-27.72,21.42l-15.63-6.41c-8.84-3.65-19.05,0.62-22.68,9.47l-10.1,24.57c-3.63,8.83,0.63,19.05,9.48,22.68
		l15.61,6.41c-0.31,5.76-0.09,11.64,0.7,17.59c0.79,5.93,2.16,11.66,3.97,17.13l-13.36,10.33c-7.56,5.83-8.99,16.8-3.14,24.38
		l16.23,21.01c0.5,0.64,1.02,1.24,1.59,1.79h24.53l11.63-8.98c5.49,3.58,11.35,6.6,17.5,8.98H1865.79L1865.79,1658.94z
		 M1823.23,1261.98c23.65,0,42.81,19.17,42.81,42.81c0,23.65-19.17,42.81-42.81,42.81c-23.64,0-42.81-19.17-42.81-42.81
		C1780.42,1281.15,1799.59,1261.98,1823.23,1261.98L1823.23,1261.98z M1823.14,1529.03c23.65,0,42.81,19.17,42.81,42.81
		c0,23.65-19.17,42.81-42.81,42.81c-23.64,0-42.81-19.16-42.81-42.81C1780.32,1548.2,1799.5,1529.03,1823.14,1529.03
		L1823.14,1529.03z M1504.85,1295.03c-40.06,0-76.31,16.24-102.57,42.49c-26.25,26.25-42.49,62.51-42.49,102.57
		c0,40.04,16.23,76.31,42.49,102.56c26.25,26.25,62.51,42.49,102.57,42.49c40.04,0,76.31-16.24,102.56-42.49
		c26.25-26.24,42.49-62.52,42.49-102.56c0-40.06-16.24-76.31-42.49-102.57C1581.16,1311.27,1544.89,1295.03,1504.85,1295.03
		L1504.85,1295.03z M1579.39,1365.54c-19.08-19.08-45.44-30.88-74.54-30.88c-29.12,0-55.48,11.8-74.55,30.88
		c-19.08,19.06-30.88,45.43-30.88,74.55c0,29.11,11.8,55.47,30.88,74.54c19.06,19.08,45.42,30.88,74.55,30.88
		c29.1,0,55.47-11.8,74.54-30.88c19.08-19.08,30.87-45.43,30.87-74.54C1610.26,1410.97,1598.46,1384.6,1579.39,1365.54z" clip-rule="evenodd"></path>
  </g>
  <g>
    <path fill="#a4d0fc" fill-rule="evenodd" d="M1462.18,1658.94h85.33v7.42c0,9.63-7.87,17.51-17.5,17.5h-12.43h-25.47h-12.41
		c-9.63,0-17.52-7.87-17.52-17.5V1658.94L1462.18,1658.94z M1735.95,1658.94h24.53l-1.74,1.34
		C1751.81,1665.63,1742.02,1664.9,1735.95,1658.94L1735.95,1658.94z M1789.61,1658.94h76.18l1.73,12.9
		c1.28,9.47-5.42,18.27-14.9,19.55l-26.33,3.53c-9.47,1.28-18.27-5.43-19.54-14.92l-2.26-16.72
		C1799.39,1662.25,1794.4,1660.79,1789.61,1658.94z" clip-rule="evenodd"></path>
  </g>
  <g>
    <path fill="#fff" fill-rule="evenodd" d="M1462.18,1232.42h85.33v11.6c23.05,4.99,45.38,14.06,65.84,27.23l21.35-21.34c6.81-6.81,17.94-6.81,24.75,0
		l8.78,8.79l18.01,18l8.78,8.78c6.81,6.82,6.82,17.96,0,24.77l-21.33,21.33c13.18,20.46,22.26,42.8,27.24,65.83h30.21
		c9.61,0,17.5,7.89,17.5,17.52v12.41v25.47v12.43c0,9.63-7.87,17.5-17.5,17.5h-30.21c-4.98,23.05-14.08,45.38-27.25,65.84
		l21.33,21.35c6.81,6.81,6.81,17.94,0,24.75l-8.78,8.78l-18.01,18.01l-8.78,8.78c-6.81,6.81-17.94,6.81-24.75,0l-21.35-21.33
		c-20.46,13.18-42.8,22.25-65.84,27.25v5.03h-85.33v-5.03c-23.03-5-45.36-14.06-65.83-27.25l-21.33,21.33
		c-6.81,6.83-17.95,6.81-24.77,0l-8.78-8.78l-17.99-18.01l-8.79-8.78c-6.81-6.81-6.81-17.94,0-24.75l21.34-21.35
		c-13.18-20.46-22.26-42.79-27.24-65.84h-30.19c-9.63,0-17.52-7.87-17.52-17.5v-12.43v-25.47v-12.41c0-9.63,7.88-17.51,17.52-17.52
		h30.19c4.99-23.03,14.07-45.36,27.24-65.83l-21.34-21.33c-6.81-6.81-6.81-17.95,0-24.75l8.78-8.8l18-18l8.78-8.79
		c6.82-6.81,17.95-6.81,24.77,0l21.33,21.36c20.47-13.18,42.8-22.26,65.83-27.25V1232.42L1462.18,1232.42z M1724.51,1232.42
		l-8.29,11.5c-5.6,7.76-3.83,18.68,3.92,24.27l13.68,9.88c-1.64,5.53-2.81,11.3-3.41,17.26c-0.61,5.96-0.64,11.83-0.15,17.59
		l-15.4,6.92c-8.72,3.92-12.65,14.25-8.73,22.99l10.87,24.21c3.92,8.72,14.26,12.65,22.98,8.74l15.41-6.92
		c8.01,8.48,17.61,15.48,28.4,20.52l-1.71,16.78c-0.97,9.52,6.01,18.09,15.53,19.05l26.41,2.7c9.51,0.97,18.09-6.02,19.06-15.53
		l1.71-16.78c11.59-2.76,22.4-7.68,31.95-14.37l13.71,9.88c7.75,5.59,18.67,3.83,24.26-3.92l15.55-21.54
		c5.59-7.74,3.84-18.66-3.92-24.27l-13.69-9.87c1.65-5.53,2.81-11.29,3.42-17.25c0.6-5.97,0.64-11.84,0.13-17.6l15.41-6.92
		c8.72-3.91,12.64-14.26,8.73-22.98l-10.88-24.23c-2.57-5.72-7.9-9.38-13.73-10.11h-4.34c-1.66,0.21-3.31,0.67-4.91,1.38l-15.4,6.92
		c-2.79-2.95-5.76-5.73-8.92-8.3H1724.51L1724.51,1232.42z M1918.01,1641.19c5.76-0.96,10.93-4.78,13.3-10.55l10.08-24.55
		c3.65-8.85-0.62-19.05-9.47-22.68l-15.61-6.43c0.31-5.76,0.09-11.64-0.7-17.57c-0.81-5.93-2.16-11.66-3.97-17.15l13.36-10.31
		c7.56-5.85,8.98-16.82,3.14-24.38l-16.23-21.03c-5.83-7.56-16.81-8.97-24.38-3.14l-13.38,10.33c-9.76-6.38-20.72-10.96-32.4-13.34
		l-2.25-16.72c-1.27-9.48-10.07-16.18-19.54-14.91l-26.32,3.53c-9.48,1.28-16.19,10.07-14.92,19.55l2.26,16.72
		c-10.61,5.38-20,12.7-27.72,21.42l-15.63-6.41c-8.84-3.65-19.05,0.62-22.68,9.47l-10.1,24.57c-3.63,8.83,0.63,19.05,9.48,22.68
		l15.61,6.41c-0.31,5.76-0.09,11.64,0.7,17.59c0.79,5.93,2.16,11.66,3.97,17.13l-13.36,10.33c-7.56,5.83-8.99,16.8-3.14,24.38
		l3.91,5.06h163.56c2.61-2.36,5.09-4.86,7.41-7.49l15.63,6.43c1.22,0.51,2.48,0.85,3.75,1.07H1918.01L1918.01,1641.19z
		 M1823.23,1261.98c23.65,0,42.81,19.17,42.81,42.81c0,23.65-19.17,42.81-42.81,42.81c-23.64,0-42.81-19.17-42.81-42.81
		C1780.42,1281.15,1799.59,1261.98,1823.23,1261.98L1823.23,1261.98z M1823.14,1529.03c23.65,0,42.81,19.17,42.81,42.81
		c0,23.65-19.17,42.81-42.81,42.81c-23.64,0-42.81-19.16-42.81-42.81C1780.32,1548.2,1799.5,1529.03,1823.14,1529.03
		L1823.14,1529.03z M1504.85,1295.03c-40.06,0-76.31,16.24-102.57,42.49c-26.25,26.25-42.49,62.51-42.49,102.57
		c0,40.04,16.23,76.31,42.49,102.56c26.25,26.25,62.51,42.49,102.57,42.49c40.04,0,76.31-16.24,102.56-42.49
		c26.25-26.24,42.49-62.52,42.49-102.56c0-40.06-16.24-76.31-42.49-102.57C1581.16,1311.27,1544.89,1295.03,1504.85,1295.03
		L1504.85,1295.03z M1579.39,1365.54c-19.08-19.08-45.44-30.88-74.54-30.88c-29.12,0-55.48,11.8-74.55,30.88
		c-19.08,19.06-30.88,45.43-30.88,74.55c0,29.11,11.8,55.47,30.88,74.54c19.06,19.08,45.42,30.88,74.55,30.88
		c29.1,0,55.47-11.8,74.54-30.88c19.08-19.08,30.87-45.43,30.87-74.54C1610.26,1410.97,1598.46,1384.6,1579.39,1365.54z" clip-rule="evenodd"></path>
  </g>
  <g>
    <path fill="#ffb27d" fill-rule="evenodd" d="M928.15,1123.41c3.76-9.99,8.33-15.77,13.75-17.31c12.16-5.4,22.94-11.46,32.34-18.2
		c3.78,4.62,0.77,9.4-9.03,14.35c-4.09,2.26-7.06,4.48-8.89,6.67c10.19,4.79,15.15,10.83,14.85,18.12
		c-1.45,5.62-3.28,8.85-5.49,9.68c-1.04,0.4-3.36,1.21-5.59-1.27c-5.54,10.99-12.7,11.44-18.35,9.34c-1.59,0.35-2.1,0.49-3.5,0.85
		C936.82,1137.58,932.12,1127.43,928.15,1123.41z" clip-rule="evenodd"></path>
  </g>
  <g>
    <path fill="#5275d4" fill-rule="evenodd" d="M659.75,1367.16c15.56,10.84,28.59,91.4,29.86,241.66c1.66,56.38-8.13,131.07-20.79,229.24
		c-10.32,4.41-25.47,5.02-37,4.41c-16.06-121.83-18.69-199.62-6.72-231.54c-15.52-39.18-28.56-79.97-38.49-121.58
		c-6.9,57.74-15.05,103.56-24.44,137.45c-20.82,54.27-51.68,125.33-92.55,213.21c-9.45,1.28-26.25-1.57-36.04-7.95
		c14.3-107.5,41.61-188.29,67.34-215.05c-24.47-137.4-4.1-208.96,26.26-250.94C581.36,1374.15,628.39,1373.59,659.75,1367.16z" clip-rule="evenodd"></path>
  </g>
  <g>
    <path fill="#8bbae9" fill-rule="evenodd" d="M489.97,1325.1c-40.53-157.13,3.61-214.35,90.42-215.05c5.74,15.26,15.97,30.86,30.74,46.79
		c6.09-11.64,12.7-20.5,19.85-26.57c7.62,5,15.26,12.84,22.91,23.52c1.33-16.28-0.2-30.32-4.59-42.15
		c31.23,2.16,79.93,17.63,146.08,46.39c36.35-11.96,81.94-25.41,133.18-36.29l0.17,0.13c1.32-0.33,11.44,23.02,11.86,23.14
		c-3.32,10.73-129.73,56.38-142.78,61.45c-37.63-0.3-75.66,1.17-113.97-12.28c-0.55,113-8.51,159.99-24.09,172.98
		c-14.93,3.06-33.45,4.8-54.59,4.88c-1.38,2.57-2.4,6.76-3.42,10.79c-9.95-3.09-20.9-8.17-32.96-12.09l-3.31-1.34
		c-11.83-4.8-22.36-9.63-31.87-14.63C516.36,1345.72,502.41,1336.09,489.97,1325.1z" clip-rule="evenodd"></path>
  </g>
  <g>
    <polygon fill="#61a0e0" fill-rule="evenodd" points="527.51 1351.1 570.06 1371.45 527.16 1366.35" clip-rule="evenodd"></polygon>
  </g>
  <g>
    <path fill="#284191" fill-rule="evenodd" d="M703.51,1876.58c-30.97,1.45-54.11,2.53-65-0.17c-11.76-2.92-9.81-10.1-3.9-21.75
		c11.59,3.78,23.25,2.81,34.97-2.9c10.07,7.11,24.58,11.39,43.54,12.84C721.44,1869.96,718.54,1875.39,703.51,1876.58
		L703.51,1876.58z M462.46,1881.18c-17.18-4.86-31.98-8.2-38.14-12.53c-8.24-5.8-3.77-12.76,4.63-21.53
		c9.99,6.98,21.42,9.43,34.31,7.36c9.1,12.93,38.7,7.5,41.61,16.36C508.51,1887.33,470.35,1883.41,462.46,1881.18z" clip-rule="evenodd"></path>
  </g>
  <g>
    <path fill="#4f8ecc" fill-rule="evenodd" d="M616.69,1313.53c2.88-44.24,6.37-98.09,9.86-164.89c-3.72-1.89-6.33-4.89-7.21-5.62
		c3.57-4.94,7.29-9.06,11.16-12.35c4.39,2.88,8.78,6.7,13.18,11.45c-1.36,1.89-3.72,4.07-7.09,6.55
		c3.26,41.11,6.61,97.13,10.04,168.06c-1.88,6.59-7.55,13.3-14.89,18.41C626.95,1331.26,618.96,1324.14,616.69,1313.53z" clip-rule="evenodd"></path>
  </g>
  <g>
    <path fill="#61a0e0" fill-rule="evenodd" d="M611.13,1156.84c-14.77-15.94-25-31.53-30.74-46.78c3.22-6.09,8.29-12.21,11.85-13.93
		c17.17,17.92,28.09,27.94,38.56,34.03c0.06,0.03,0.12,0.07,0.18,0.11c0.13-0.48,0.27-0.96,0.41-1.44
		c2.77-9.46,6.77-20.43,8.51-31.34c4.93,3.5,6.7,8.82,9.4,14.15c4.39,11.82,5.91,25.87,4.58,42.15c-3.25-4.53-6.49-8.56-9.73-12.07
		c-4.39-4.76-8.79-8.58-13.18-11.45c-3.88,3.29-7.6,7.41-11.16,12.35C616.81,1146.77,613.91,1151.51,611.13,1156.84z" clip-rule="evenodd"></path>
  </g>
  <g>
    <path fill="#61a0e0" fill-rule="evenodd" d="M554.84,1206.05c-0.56-2.48-0.73-5.3-0.49-8.49c14.56,1.28,27.61,0.31,39.1-3.05
		c1.22,2.33,1.77,4.82,1.63,7.5C586.24,1205.31,572.82,1206.66,554.84,1206.05z" clip-rule="evenodd"></path>
  </g>
  <g>
    <path fill="#ffb27d" fill-rule="evenodd" d="M592.42,1096.23c2.67-3.3,4.91-7.71,6.73-13.23c-0.97-2.94-1.95-6.67-2.99-11.16
		c-18.79-13.36-21.18-23-7.2-28.91c2.76,1.63,6.12,6.53,10.09,14.69c3.31-0.06,0.19-8.69,1.97-11.9
		c-3.65-13.73-0.31-17.86-1.32-26.4c9.7-13.76,33.21-17.45,62.23-13.05c2.47,26.73,10.72,89.83-21.61,87.78l-0.24,3.52
		c-1.74,10.91-5.74,21.88-8.51,31.33l-0.6,1.34C620.5,1124.17,609.58,1114.15,592.42,1096.23z" clip-rule="evenodd"></path>
  </g>
  <g>
    <path fill="#284191" fill-rule="evenodd" d="M660.43,1008.44c-29.02-4.39-51.03-2.87-60.73,10.9c1.01,8.53-1.36,13.74,2.28,27.46
		c-1.77,3.21,0.38,10.77-2.93,10.83c-3.97-8.17-7.33-13.07-10.09-14.69c-13.99,5.91-11.59,15.55,7.2,28.91
		c1.03,4.49,2.02,8.22,2.99,11.16c-33-19.39-47.46-66.37-17.37-88.41c6.1-38.94,62.07-3.2,90.89-21.42
		C683.62,989.02,669.24,1008.28,660.43,1008.44z" clip-rule="evenodd"></path>
  </g>
  <g>
    <path fill="#f08261" fill-rule="evenodd" d="M618.37,1091.35c5.32,1.48,15.81,2.9,21.95,2.72l-0.24,3.52c-0.34,2.11-0.76,4.23-1.24,6.35
		c-0.06-0.03-0.13-0.04-0.19-0.07C629.16,1100.55,622.39,1096.38,618.37,1091.35z" clip-rule="evenodd"></path>
  </g>
  <g>
    <path fill="#4f8ecc" fill-rule="evenodd" d="M642.22,1143.96c0.7-0.69,1.35-1.44,1.94-2.24c-6.38-6.79-10.94-10.48-13.65-11.05
		c-1.94,3.48-4.37,8.81-7.02,15.27c-1.83-1.45-3.11-2.85-3.67-3.32c3.42-4.74,6.99-8.72,10.69-11.95
		C634.03,1133.54,637.94,1137.96,642.22,1143.96z" clip-rule="evenodd"></path>
  </g>
  <g>
    <path fill="#fcb88d" fill-rule="evenodd" d="M462.48,1840.28c-1.36,4.67-1.89,9.52-1.59,14.54c-10.58,1.25-20.16-0.62-28.72-5.64
		c2.44-4.58,4.26-9.52,5.48-14.83C445.05,1837.92,454.66,1839.95,462.48,1840.28L462.48,1840.28z M637.15,1855.42
		c0.51-4.38,0.72-8.63,0.64-12.75c8.12,0.1,17.19-0.51,24.88-2.53c0.87,5.26,2.42,9.48,4.64,12.67
		C657.2,1857.21,647.15,1858.08,637.15,1855.42z" clip-rule="evenodd"></path>
  </g>
  <g>
    <path fill="#61a0e0" fill-rule="evenodd" d="M653.42,1160.65c-3.4-5.73-7.26-11.43-11.19-16.69c0.78-0.78,1.43-1.53,1.94-2.24
		c3.23,3.5,6.46,7.51,9.7,12.03C653.77,1156.1,653.63,1158.41,653.42,1160.65L653.42,1160.65z M683.84,1194.19
		c0.15-6.53-0.36-15.74-1.52-27.63c2.69,12.9,8.15,23.62,16.37,32.14C693.74,1197.42,688.79,1195.93,683.84,1194.19L683.84,1194.19z
		 M611.13,1156.84c2.79-5.33,5.68-10.07,8.69-14.22c0.56,0.47,1.84,1.87,3.67,3.32c-2.83,6.87-5.88,15.04-8.84,23.67
		c-14.66-18.44-28.56-41.91-34.26-59.55C586.12,1125.31,596.36,1140.91,611.13,1156.84L611.13,1156.84z M605.15,1372.06
		c3.04-5.5,6.61-9.99,10.72-13.46c-43.67-30.35-69.2-47.81-88.76-60.12c6.11-25.52,10.93-61.16,9.2-91.84
		c6.46,34.92,7.23,64.59,2.33,89.01c34.01,23.5,65.64,48.02,86.28,65.16l-1.38,2.42c3.11,2.1,6.16,4.66,9.15,7.67
		C624.13,1371.62,614.92,1372.01,605.15,1372.06z" clip-rule="evenodd"></path>
  </g>
  <g>
    <path fill="#ffb27d" fill-rule="evenodd" d="M602.2,1381c7.75,6.47,13.94,7.46,21.93,12.06c13.64,0.66,19.31-0.43,23.54-6.38
		c4.75-10.78-0.75-21.05-7.09-18.9c-1.5,4.4-6.02,5.72-11.12,4.37c-1.41-5.48-4.32-7.99-8.7-7.56c-1.63-1.68-4.02-4.23-5.31-5.62
		C603.94,1367.9,604.25,1373.51,602.2,1381z" clip-rule="evenodd"></path>
  </g>
  <g>
    <path fill="#284191" fill-rule="evenodd" d="M578.65,1008c2.74-3.94,2.96-7.36,0.62-10.28c-6.56-1.38-11.89,0.2-16,4.71
		C566.38,1001.63,571.51,1003.5,578.65,1008z" clip-rule="evenodd"></path>
  </g>
  <g>
    <path fill="#284191" fill-rule="evenodd" d="M585.43,995.82c-2.71,3.03-5.19,3.7-7.45,2c-1.4-5.71-0.58-10.73,2.46-15.06
		C580.06,985.67,581.72,990.02,585.43,995.82z" clip-rule="evenodd"></path>
  </g>
  <g>
    <path fill="#284191" fill-rule="evenodd" d="M640,1006.37c0.24-8.43,3.52-13.48,9.85-15.15c10.69,4.91,16.57,12.68,17.65,23.32
		C663.93,1010.19,654.77,1007.47,640,1006.37z" clip-rule="evenodd"></path>
  </g>
  <g>
    <path fill="#284191" fill-rule="evenodd" d="M620.61,976.7c1.29,3.58-0.39,8.27,4.68,9.37c3.36,15.45,15.55-5.4,15.31-11.17
		C638.43,976.53,631.77,977.13,620.61,976.7z" clip-rule="evenodd"></path>
  </g>
  <g>
    <g>
      <path fill="#bbdbfa" fill-rule="evenodd" d="M625.27,1026.66c-1.98-0.26-3.76,1.6-3.96,4.17c-0.2,2.57,1.23,4.85,3.22,5.12c1.99,0.26,3.76-1.6,3.97-4.16
			S627.26,1026.93,625.27,1026.66z" clip-rule="evenodd"></path>
    </g>
    <g>
      <path fill="#125aa3" fill-rule="evenodd" d="M624.53,1035.95c-1.99-0.27-3.44-2.56-3.23-5.12c0.21-2.57,1.99-4.43,3.97-4.17
			c0.84,0.11,1.57,0.58,2.13,1.27l-0.27-0.08c-0.65-0.09-1.22,0.51-1.29,1.35c-0.07,0.83,0.4,1.57,1.05,1.66
			c0.64,0.09,1.22-0.51,1.29-1.35v-0.18c0.27,0.75,0.39,1.58,0.32,2.45C628.3,1034.35,626.52,1036.21,624.53,1035.95z" clip-rule="evenodd"></path>
    </g>
  </g>
  <g>
    <path fill="#125aa3" fill-rule="evenodd" d="M631.56,1023.59c0.1,0.09,0.19,0.15,0.28,0.26c-0.12-0.43-0.62-1-0.82-1.34c0.2,0.17,0.32,0.22,0.53,0.49
		c0.17,0.23,0.28,0.49,0.41,0.77c0.03-0.32-0.09-0.53-0.12-0.83c0.15,0.22,0.26,0.65,0.29,0.91c-0.02-0.95-0.05-0.89-0.41-1.78
		c0.4,0.27,0.68,1.13,0.74,1.61c0.1-0.19,0.11-0.47,0.12-0.74c0.16,0.32,0.15,0.47,0.14,0.8l0.26-0.34
		c-0.04,0.21-0.11,0.28-0.14,0.44c0.47-0.34,1.29-1.55,1.21-2.17c-0.08,0.27-0.27,0.75-0.42,0.91c0.05-0.45,0.21-0.94,0.14-1.46
		c-0.13,0.32-0.1,0.77-0.19,1.13c-0.1,0.35-0.24,0.77-0.42,0.99c0.14-0.75,0.36-1.38,0.15-2.21l-0.03,0.2
		c-0.02,0.4,0.01,0.82-0.08,1.21c-0.1-0.7-0.03-1.36-0.61-1.89c0.13,0.3,0.26,0.47,0.37,0.81c-0.31-0.32-0.44-0.91-0.96-0.98
		c0.23,0.27,0.44,0.45,0.69,0.82c0.18,0.29,0.46,0.81,0.34,1.17c-0.33-1.29-1.06-1.96-1.94-2.2c0.24,0.12,0.98,0.66,1.05,0.98
		l-0.01,0.05c-0.05,0.35-0.04-0.31-0.02,0.08c0.17,0.12,0.37,0.41,0.48,0.62c0.07,0.13,0.13,0.3,0.18,0.46
		c0.03,0.07,0.06,0.2,0.06,0.27c0.01,0.08,0.01,0.07,0,0.13l-0.02,0.08c-0.24-0.86-0.53-1.33-1.11-1.81
		c-0.35-0.3-1.19-0.82-1.67-0.88c0.01,0.01,0.03,0.02,0.03,0.03l0.41,0.19c0.97,0.51,1.9,1.1,2.19,2.33c-0.05-0.04,0,0.02-0.08-0.1
		c-0.03-0.03-0.03-0.04-0.04-0.07c-0.22-0.36-0.43-0.74-0.72-1.04c-0.3-0.33-0.69-0.65-1.02-0.84c-0.44-0.25-1.84-0.79-2.56-0.7
		c0.22-0.02,1.54,0.39,1.77,0.48c0.49,0.2,1.13,0.5,1.48,0.99c-0.2-0.06-0.42-0.2-0.61-0.29c-1.22-0.56-3.35-1.38-4.63-1.32
		c0.78,0.17,1.91,0.52,2.5,0.87l-0.49-0.11c0.13,0.06,0.25,0.14,0.4,0.21c0.14,0.07,0.25,0.12,0.39,0.19
		c0.66,0.39,1.67,1.05,2.04,1.78c-0.18-0.17-0.41-0.34-0.6-0.51c-0.22-0.18-0.42-0.33-0.65-0.49c-0.42-0.29-0.89-0.63-1.35-0.86
		c-0.99-0.47-1.92-0.87-3.02-1.11c0.14,0.06,0.3,0.12,0.43,0.27c-0.9-0.05-2.36-0.77-4.62-0.88c0.48,0.17,1.28,0.24,1.83,0.4
		l0.5,0.2c-0.29,0-1.26-0.25-1.65-0.33c-1.93-0.36-3.13-0.62-5.21-0.61c-1.34,0.01-2.59,0.02-3.93,0.58
		c-0.87,0.36-1.69,0.81-2.4,1.39c-0.26,0.2-0.39,0.35-0.59,0.56c0.53-0.28,1.73-1.46,2.92-1.7c-1.83,1.07-3.28,2.01-4.55,3.43
		c0.35-0.22,0.84-0.68,1.22-0.98c0.44-0.34,0.86-0.63,1.33-0.93c0.81-0.54,2.11-1.27,3.14-1.53c-0.23,0.19-0.88,0.51-1.19,0.68
		c-2.26,1.28-4.42,2.74-6.41,4.4c-0.23,0.2-0.7,0.69-0.88,0.81c0.21-0.09,1.05-0.75,1.33-0.93c1.46-1.01,2.84-1.93,4.63-2.43
		c-0.46,0.36-3.7,1.66-4.71,2.6l2.78-1.4c0.85-0.39,2.27-1.01,3.2-1.13c-1.06,0.2-5.18,2.08-6,2.78c0.43-0.15,1.06-0.51,1.53-0.72
		c0.56-0.24,1.1-0.46,1.68-0.66c1.15-0.43,2.39-0.78,3.61-0.95c1.64-0.22,3.21-0.19,4.81-0.03c0.46,0.05,1.08,0.17,1.51,0.16
		c-0.26-0.15-1.05-0.21-1.34-0.26c-0.91-0.13-1.85-0.2-2.79-0.21c-0.37-0.01-1.15,0.08-1.45,0.03c1.12-0.29,1.99-0.18,2.96-0.29
		c-0.1-0.01-0.05,0-0.13-0.03c-0.09-0.03-0.04-0.02-0.12-0.05c0.6-0.06,1.73,0.16,2.28,0.29c0.65,0.15,1.95,0.66,2.02,0.68
		c-0.16-0.13-0.31-0.19-0.44-0.33l1.59,0.38l-1.94-0.73c0.38,0.05,0.9,0.26,1.29,0.35c0.46,0.12,1.42,0.34,1.85,0.51
		c0.51,0.2,1.44,0.32,1.97,0.34c-0.18-0.12-0.81-0.29-1.09-0.39l-1.06-0.37c-0.19-0.08-0.36-0.12-0.53-0.2
		c-0.49-0.26-1-0.44-1.51-0.65c-0.92-0.37-3.59-1.17-4.56-0.89c1.25-0.41,3.84,0.4,4.74,0.76l2.11,0.87
		c0.19,0.06,0.33,0.15,0.52,0.22c0.51,0.21,1.04,0.44,1.58,0.6l-0.04-0.12l-0.01-0.02c0-0.01,0-0.02,0-0.03
		c-0.01-0.01-0.01-0.02-0.01-0.02c0.19,0.12,0.74,0.33,0.99,0.36c-0.5-0.48-1.78-0.88-2.22-1.5c0.44,0.15,0.96,0.53,1.36,0.79
		c0.14,0.1,0.28,0.15,0.43,0.24c-0.34-0.6-1.03-1.12-1.58-1.52l-0.61-0.38c0.51,0.04,1.13,0.54,1.52,0.89
		c0.39,0.34,0.73,0.75,1.06,1.17c0.04,0.04,0.03,0.04,0.07,0.08c0.08,0.08,0.03,0.04,0.11,0.06l-0.48-0.83
		c0.09,0.17,0.74,0.83,0.77,1.06c-0.07-0.44-0.35-0.77-0.53-1.11l0.31,0.21c-0.48-0.82-1.65-1.42-2.37-1.94
		c0.72,0.08,2.01,1.09,2.48,1.76c0.23,0.32,0.38,0.71,0.6,0.98l-0.23-0.66c0.02,0.01,0.03,0.03,0.03,0.03l0.34,0.41
		c-0.27-0.81-0.66-1.25-1.15-1.76c0.22,0.05,0.38,0.2,0.55,0.36c0.15,0.14,0.31,0.32,0.44,0.5c0.27,0.39,0.5,0.82,0.68,1.3
		c0.03-0.19-0.09-0.55-0.17-0.78c0.14,0.04,0.02-0.02,0.15,0.07c0.22,0.15,0.36,0.47,0.5,0.69l-0.08-0.49l0.33,0.49
		c-0.07-0.45-0.21-0.7-0.32-1.08c0.28,0.19,0.39,0.54,0.53,0.89c0.04-0.16-0.02-0.41-0.07-0.6l0.37,0.39
		c0.1,0.13,0.19,0.3,0.29,0.42c-0.11-0.43-0.3-0.65-0.48-0.98c0.41,0.27,0.55,0.66,0.84,1.08c-0.08-0.5-0.44-1.23-0.72-1.54
		c0.45,0.08,0.72,1.24,0.93,1.49l-0.01-0.5c0.03,0.03,0.02,0.01,0.08,0.08l0.27,0.51l-0.03-0.65c0.18,0.19,0.19,0.39,0.33,0.65
		c-0.02-0.03,0-0.54-0.09-0.84c0.09,0.05,0.02-0.02,0.12,0.09c0.2,0.18,0.27,0.46,0.44,0.66l-0.19-0.53
		c0.07,0.04,0.03,0.02,0.1,0.06L631.56,1023.59z" clip-rule="evenodd"></path>
  </g>
  <g>
    <g>
      <path fill="#bbdbfa" fill-rule="evenodd" d="M657.12,1025.62c1.84,0.27,3.18,2.56,2.99,5.12c-0.2,2.56-1.84,4.42-3.68,4.16
			c-1.84-0.26-3.18-2.55-2.99-5.11C653.64,1027.22,655.28,1025.35,657.12,1025.62z" clip-rule="evenodd"></path>
    </g>
    <g>
      <path fill="#125aa3" fill-rule="evenodd" d="M656.43,1034.91c1.84,0.27,3.49-1.61,3.68-4.17c0.19-2.57-1.15-4.86-2.99-5.13
			c-0.77-0.11-1.51,0.16-2.12,0.69l0.27-0.01c0.6,0.08,1.03,0.83,0.97,1.66c-0.06,0.83-0.6,1.44-1.2,1.35
			c-0.6-0.09-1.03-0.84-0.97-1.66l0.03-0.18c-0.36,0.66-0.59,1.45-0.65,2.32C653.25,1032.35,654.59,1034.64,656.43,1034.91z" clip-rule="evenodd"></path>
    </g>
  </g>
  <g>
    <path fill="#125aa3" fill-rule="evenodd" d="M649.37,1024.16c-0.08,0.09-0.14,0.16-0.21,0.26c0.09-0.43,0.46-0.99,0.6-1.34c-0.14,0.17-0.23,0.23-0.38,0.5
		c-0.13,0.23-0.21,0.49-0.31,0.77c-0.01-0.32,0.08-0.53,0.1-0.82c-0.11,0.22-0.19,0.65-0.21,0.91c0.03-0.95,0.05-0.89,0.32-1.77
		c-0.28,0.26-0.5,1.11-0.56,1.6c-0.06-0.2-0.06-0.47-0.06-0.74c-0.13,0.32-0.13,0.47-0.13,0.8l-0.17-0.35
		c0.03,0.21,0.07,0.28,0.09,0.44c-0.33-0.36-0.9-1.55-0.82-2.18c0.04,0.26,0.18,0.75,0.28,0.91c-0.04-0.44-0.13-0.93-0.08-1.45
		c0.1,0.33,0.06,0.77,0.13,1.13c0.05,0.36,0.15,0.77,0.28,1c-0.09-0.75-0.24-1.38-0.07-2.21l0.02,0.2c0,0.39-0.02,0.83,0.03,1.21
		c0.09-0.7,0.04-1.36,0.47-1.88c-0.1,0.29-0.19,0.46-0.27,0.81c0.23-0.32,0.33-0.91,0.7-0.99c-0.17,0.28-0.32,0.45-0.49,0.83
		c-0.14,0.29-0.35,0.8-0.27,1.17c0.26-1.29,0.79-1.96,1.43-2.2c-0.18,0.13-0.72,0.67-0.77,0.99l0.01,0.05
		c0.03,0.34,0.04-0.31,0.01,0.08c-0.13,0.13-0.27,0.41-0.35,0.62c-0.05,0.13-0.1,0.3-0.13,0.45c-0.02,0.07-0.04,0.21-0.05,0.29
		c-0.01,0.08,0,0.06,0,0.13l0.01,0.08c0.19-0.86,0.41-1.33,0.83-1.81c0.26-0.29,0.86-0.81,1.21-0.87c-0.01,0.01-0.02,0.02-0.03,0.03
		l-0.29,0.2c-0.7,0.5-1.38,1.09-1.61,2.31c0.03-0.05,0,0.01,0.06-0.1c0.02-0.03,0.02-0.04,0.03-0.07c0.16-0.37,0.32-0.74,0.53-1.04
		c0.22-0.33,0.51-0.64,0.75-0.83c0.32-0.25,1.33-0.78,1.84-0.7c-0.15-0.01-1.1,0.39-1.27,0.48c-0.36,0.21-0.81,0.49-1.07,0.98
		c0.14-0.05,0.3-0.2,0.44-0.28c0.89-0.56,2.42-1.38,3.34-1.31c-0.57,0.17-1.38,0.51-1.81,0.86l0.36-0.11
		c-0.1,0.06-0.18,0.14-0.29,0.21c-0.1,0.06-0.18,0.12-0.28,0.19c-0.49,0.38-1.22,1.04-1.49,1.77c0.13-0.18,0.29-0.34,0.44-0.51
		c0.16-0.19,0.3-0.33,0.47-0.49c0.3-0.29,0.64-0.63,0.98-0.85c0.72-0.47,1.39-0.87,2.18-1.1c-0.11,0.06-0.21,0.12-0.31,0.27
		c0.65-0.04,1.7-0.76,3.32-0.86c-0.35,0.17-0.92,0.23-1.32,0.39l-0.36,0.19c0.21,0.01,0.91-0.24,1.19-0.31
		c1.38-0.37,2.25-0.61,3.75-0.6c0.95,0.01,1.85,0.02,2.8,0.59c0.62,0.36,1.19,0.81,1.7,1.39c0.18,0.21,0.27,0.36,0.41,0.56
		c-0.38-0.27-1.22-1.46-2.06-1.7c1.29,1.07,2.31,2.02,3.2,3.44c-0.25-0.22-0.59-0.68-0.85-0.98c-0.31-0.34-0.61-0.64-0.93-0.94
		c-0.57-0.54-1.49-1.27-2.23-1.54c0.17,0.2,0.62,0.51,0.84,0.69c1.59,1.29,3.12,2.75,4.5,4.42c0.17,0.2,0.5,0.69,0.62,0.81
		c-0.15-0.09-0.74-0.75-0.93-0.94c-1.03-1.01-2.01-1.93-3.28-2.44c0.33,0.36,2.62,1.67,3.33,2.61l-1.96-1.41
		c-0.6-0.39-1.61-1.01-2.26-1.14c0.75,0.21,3.66,2.1,4.24,2.8c-0.31-0.15-0.75-0.51-1.09-0.72c-0.39-0.24-0.77-0.46-1.18-0.67
		c-0.82-0.43-1.7-0.79-2.56-0.96c-1.18-0.23-2.3-0.21-3.44-0.05c-0.34,0.05-0.78,0.15-1.09,0.15c0.19-0.16,0.76-0.21,0.97-0.25
		c0.66-0.13,1.33-0.2,2-0.21c0.28,0,0.81,0.09,1.04,0.04c-0.8-0.28-1.43-0.18-2.11-0.3c0.07-0.01,0.03,0,0.09-0.03
		c0.07-0.04,0.03-0.02,0.09-0.06c-0.43-0.05-1.25,0.16-1.64,0.29c-0.47,0.15-1.41,0.66-1.46,0.68c0.12-0.13,0.22-0.2,0.31-0.32
		l-1.14,0.36l1.4-0.71c-0.28,0.04-0.65,0.25-0.93,0.35c-0.33,0.12-1.02,0.34-1.33,0.51c-0.37,0.19-1.04,0.31-1.41,0.33
		c0.13-0.12,0.59-0.29,0.79-0.39l0.75-0.36c0.15-0.08,0.27-0.13,0.39-0.21c0.35-0.25,0.72-0.44,1.09-0.64
		c0.67-0.36,2.58-1.16,3.28-0.87c-0.9-0.41-2.75,0.38-3.41,0.75l-1.53,0.86c-0.14,0.06-0.24,0.15-0.37,0.22
		c-0.37,0.2-0.75,0.44-1.14,0.59l0.03-0.12v-0.02c0.01,0,0.01-0.01,0.01-0.03c0-0.01,0-0.01,0-0.02c-0.13,0.12-0.53,0.33-0.71,0.36
		c0.37-0.48,1.29-0.87,1.62-1.49c-0.32,0.15-0.69,0.52-0.99,0.78c-0.11,0.1-0.2,0.16-0.31,0.24c0.26-0.6,0.76-1.12,1.16-1.51
		l0.45-0.37c-0.37,0.03-0.81,0.52-1.1,0.87c-0.28,0.35-0.53,0.75-0.78,1.17c-0.03,0.04-0.03,0.04-0.05,0.08
		c-0.05,0.08-0.03,0.04-0.07,0.06l0.35-0.82c-0.07,0.16-0.55,0.82-0.58,1.04c0.06-0.43,0.27-0.76,0.4-1.1l-0.22,0.22
		c0.36-0.83,1.21-1.41,1.73-1.93c-0.51,0.08-1.46,1.08-1.81,1.75c-0.17,0.32-0.29,0.71-0.44,0.97l0.18-0.65
		c-0.01,0.01-0.02,0.02-0.03,0.03l-0.25,0.41c0.2-0.82,0.5-1.25,0.85-1.76c-0.16,0.04-0.28,0.19-0.4,0.35
		c-0.11,0.14-0.22,0.32-0.32,0.5c-0.21,0.39-0.37,0.82-0.52,1.3c-0.02-0.19,0.08-0.56,0.14-0.79c-0.11,0.04-0.02-0.02-0.12,0.07
		c-0.16,0.15-0.27,0.48-0.37,0.68l0.06-0.49l-0.24,0.49c0.05-0.44,0.16-0.69,0.24-1.07c-0.19,0.19-0.28,0.53-0.39,0.88
		c-0.03-0.16,0.03-0.4,0.07-0.6l-0.28,0.39c-0.07,0.13-0.14,0.29-0.21,0.42c0.08-0.43,0.22-0.65,0.36-0.98
		c-0.29,0.26-0.4,0.65-0.62,1.07c0.07-0.5,0.34-1.23,0.54-1.54c-0.32,0.08-0.53,1.24-0.69,1.49l0.02-0.51
		c-0.03,0.03-0.02,0.01-0.06,0.08l-0.19,0.5l0.03-0.65c-0.13,0.18-0.14,0.39-0.24,0.65c0.01-0.03,0-0.54,0.08-0.84
		c-0.07,0.04-0.02-0.01-0.1,0.1c-0.14,0.18-0.19,0.45-0.33,0.65l0.15-0.51c-0.05,0.03-0.02,0.01-0.07,0.05L649.37,1024.16z" clip-rule="evenodd"></path>
  </g>
  <g>
    <path fill="#fff" fill-rule="evenodd" d="M625.92,1066.76c15.04,10.3,23.8,10.97,26.28,2.02C641.27,1069.86,632.51,1069.19,625.92,1066.76z" clip-rule="evenodd"></path>
  </g>
  <g>
    <path fill="#fbbfa8" fill-rule="evenodd" d="M820.13,1269.22H679.29c-2.77,0-5.64,2.27-6.36,5.04l-25.06,95.43c-0.73,2.78,0.95,5.04,3.73,5.04h140.84
		c2.77,0,5.64-2.26,6.37-5.04l25.06-95.43C824.59,1271.49,822.91,1269.22,820.13,1269.22z" clip-rule="evenodd"></path>
  </g>
  <g>
    <path fill="#f57a44" fill-rule="evenodd" d="M652.9,1336.75l17.01-64.78c0.73-2.78,3.59-5.04,6.36-5.04H686h131.12c2.78,0,7.73,3.58,6.9,6.33
		c0.13-2.3-1.46-4.04-3.89-4.04H679.29c-2.77,0-5.64,2.27-6.36,5.04l-25.06,95.43c-0.44,1.67-0.01,3.15,1,4.07
		c-2.32-1.5-4.53-4.39-4.01-6.36L652.9,1336.75z" clip-rule="evenodd"></path>
  </g>
  <g>
    <path fill="#f57a44" fill-rule="evenodd" d="M651.58,1374.74h140.85c0.52,0,1.03-0.08,1.55-0.22c-2.81,7.26-10.42,6.19-13.4,6.17H613.59
		c-9.05-0.39-8.82-6.73-8.93-12.85h40.11c-0.13,1.94,1.94,4.54,4.08,5.92C649.54,1374.37,650.47,1374.74,651.58,1374.74z" clip-rule="evenodd"></path>
  </g>
  <g>
    <path fill="#f57a44" fill-rule="evenodd" d="M671.3,1308.46c15.09,7.64,32.96,9.98,51.32,10.92c-0.2,0.65-0.36,1.33-0.47,2.02
		c-1.22,7.74,4.23,14.33,12.11,14.33c7.42,0,14.16-5.88,15.31-13.19c0.13-0.79,0.18-1.57,0.17-2.34
		c19.07,0.52,37.49,1.56,52.72,7.52l-10.47,39.89H655.76L671.3,1308.46z" clip-rule="evenodd"></path>
  </g>
  <g>
    <path fill="#f57a44" fill-rule="evenodd" d="M737.3,1312.84c-5.04,0-9.79,4.09-10.58,9.14c-0.8,5.05,2.65,9.15,7.7,9.15c5.04,0,9.79-4.09,10.58-9.15
		C745.8,1316.93,742.36,1312.84,737.3,1312.84z" clip-rule="evenodd"></path>
  </g>
  <g>
    <path fill="#ffb27d" fill-rule="evenodd" d="M649.33,1380.68c-2.41-8.39-3.21-8.79-12.88-8.79c-5.3,0-8,2.94-11.45,5.68c-3.22,2.55-8.37,3.71-4.48,7.44
		c4.17,4.01,15.24,5.35,19.97,1.63C643.3,1384.43,649.83,1382.41,649.33,1380.68z" clip-rule="evenodd"></path>
  </g>
  <path fill="#a4d0fc" fill-rule="evenodd" d="M1605.28,1330.17c-65.47,0-118.54,53.07-118.54,118.54c0,65.46,53.07,118.53,118.54,118.53
	c65.46,0,118.53-53.07,118.53-118.53C1723.81,1383.23,1670.74,1330.17,1605.28,1330.17z" clip-rule="evenodd"></path>
  <g>
    <path fill="#ffb27d" fill-rule="evenodd" d="M1572.13,1320.17c-5.11-3.51-8.16-5.97-12.83-10c-75.95-65.66-134.61-100.02-175.99-103.07
		c-11.01-0.81-25.66,2.1-36.88,3.46c-96.23,11.71-155.18,18.89-176.87,21.53c-6.67,0.81-9.82-0.1-14.35,5.13
		c-4.7,5.42-2.19,11.3,7.51,17.68c23.94,14.77,58.03,19.63,102.28,14.6c7.88-0.76,14.05-1.36,18.51-1.78
		c4.42-0.41,8.33-1.78,11.03,2.75c0.53,0.9,0.93,1.95,1.19,3.18c-75.19,8.46-112.79,12.7-112.79,12.7
		c-13.71,1.41-29.71-4.08-48.02-16.47c-70.85-45.15-114.3-62.03-130.36-50.66c-7.82,5.43-6.73,11.8,3.25,19.1
		c77.96,75.25,149.45,114.3,214.44,117.13c11.75,0.51,18.4-0.17,29.67-2.46c110.16-22.38,169.35-26.1,177.59-11.16
		c47.27,46.49,70.91,69.73,70.91,69.73C1548.23,1350.63,1572.13,1320.17,1572.13,1320.17z" clip-rule="evenodd"></path>
  </g>
  <g>
    <path fill="#699dee" fill-rule="evenodd" d="M1580.41,1555.64c-26.14-27.33-52.95-55.52-80.43-84.6c26.02-37.1,67.04-78.14,129.3-134.6
		c13.46,8.77,30.44,20.32,49.13,33.51C1706.25,1446.88,1662.25,1507.55,1580.41,1555.64z" clip-rule="evenodd"></path>
  </g>
  <g>
    <path fill="#fff" fill-rule="evenodd" d="M1623.7,1341.51c-23.19-13.93-39.41-22.76-48.66-26.48c-53.47,47.22-85.61,86.42-96.43,117.57
		c8.79,10.76,17.66,21.14,26.62,31.17C1530.56,1429.69,1568.51,1391.77,1623.7,1341.51z" clip-rule="evenodd"></path>
  </g>
  <g>
    <path fill="#4a75cb" fill-rule="evenodd" d="M1528.7,1435.04c31.84,21,66.77,48.57,104.79,82.67c-15.07,13.44-32.91,26.07-53.09,37.93
		c-26.14-27.33-52.95-55.52-80.43-84.6c1.69-2.41,3.45-4.83,5.26-7.27C1512.1,1454.53,1519.9,1445.01,1528.7,1435.04z" clip-rule="evenodd"></path>
  </g>
  <g>
    <path fill="#d0daef" fill-rule="evenodd" d="M1528.7,1435.04c-8.81,9.97-16.6,19.49-23.47,28.73c-8.96-10.03-17.83-20.4-26.62-31.17
		c0.77-2.21,1.65-4.48,2.64-6.78c2.02-4.7,4.49-9.59,7.42-14.64C1501.42,1417.89,1514.77,1425.83,1528.7,1435.04z" clip-rule="evenodd"></path>
  </g>
</svg>
