<svg xmlns="http://www.w3.org/2000/svg" xml:space="preserve" id="man-talking-about-blockchain-technology" x="0" y="0" style="enable-background:new 0 0 850 850" version="1.1" viewBox="0 0 850 850">
  <g>
    <line x1="545.3" x2="596.3" y1="306" y2="336.3" style="fill:none;stroke:#415560;stroke-width:1.7315;stroke-miterlimit:10"></line>
    <g>
      <path d="M243.7,564.5c0,0,7.4,5.1,10.8,7c3.4,1.9,16.9,3.3,18.1,4.7c1.3,1.4,0.5,5.4-1.8,5.6
			c-2.3,0.3-18.8,0.6-24.3-1c-5.4-1.7-15.8-0.2-18.1-1.1c-2.2-0.9,0.1-13.1,1.2-15.8C230.8,561.2,243.7,564.5,243.7,564.5z" style="fill:#0a0a0c"></path>
      <path d="M244,559.3l-0.2,5.2c0,0-10.4,1.2-14-0.6l-0.3-5.2L244,559.3z" style="fill:#fcc0a9"></path>
      <path d="M275,564.3c0,0,7.4,5.1,10.8,7c3.4,1.9,16.9,3.3,18.1,4.7c1.3,1.4,0.5,5.4-1.8,5.6c-2.3,0.3-18.8,0.6-24.3-1
			c-5.4-1.7-15.8-0.2-18.1-1.1c-2.2-0.9,0.1-13.1,1.2-15.8C262,561,275,564.3,275,564.3z" style="fill:#0a0a0c"></path>
      <path d="M275.2,559.1l-0.2,5.2c0,0-10.4,1.2-14-0.6l-0.3-5.2L275.2,559.1z" style="fill:#fcc0a9"></path>
      <path d="M257.1,436.4c0,0,1.2,41.1,1.6,49.2c0.5,8.1,1.1,76.1,1.1,76.1s16.2,0.2,16.2,0c0-0.3,9.4-72,10.8-91.9
			c1.4-19.9,0.6-43.6,2.4-46.3c1.9-2.8-5-22.3-5-22.3l-16.2,3.9L257.1,436.4z" style="fill:#27343a"></path>
      <path d="M294.8,373.4c-3.6,4.3-6,7.1-7.8,7.1c-1.8,0-5,1.1-6-8.2c-1.1-9.2-3.2-27.7-3.2-27.7l10.3,0.7l4.3,14.2
			L294.8,373.4z" style="fill:#fec4ad"></path>
      <path d="M253.8,294.9c0,0-0.8,6.1-1.4,9.3c-0.6,3.1-1.2,4.8-1.7,5.7c-1.1,2.1-7.5,8.6-7.5,8.6s20.2,10.7,26.1,10.7
			c5.9,0,3.9-11.9,3.9-11.9s-6.5-5.1-7.4-7.7c-1-2.6-1.5-10.1-1.5-10.1L253.8,294.9z" style="fill:#fc9a73"></path>
      <path d="M234,400.9c0,0-3.1,33.1-3.2,60c-0.1,27-1.9,100.7-1.9,100.7h15.6c0,0,13.7-71.1,18.3-88.4
			c4.6-17.3,12-72,12-72L234,400.9z" style="fill:#2f3e46"></path>
      <path d="M290.9,378.1c0,0,10.5-9.9,14.1-13.2c5.6-5.2,12.4-12.5,12.4-12.5l-5.9-4.6c0,0-7.2,5.2-15,9
			c-4.9,2.4-6.7,4.7-6.8,9.4C289.7,371.3,289.3,378.7,290.9,378.1z" style="fill:#fec4ad"></path>
      <path d="M276.3,360.3c-0.1-0.3-0.8-7.5-0.8-7.8c-1.5-10.1,2.3-23.9,2.3-23.9c0.1-0.9,2.8-8.2,2.8-8.2
			s5.1,3.4,7.6,9.1c1.5,3.4,2.6,15.4,3.5,22.6C287.7,356.7,282.2,359.3,276.3,360.3z" style="fill:#fe715e"></path>
      <path d="M231.1,323l15.4-8.7c0,0,8.9,10.7,18.1,10.7c8.5,0.1,6.3-9.5,6.3-9.5l9.7,4.9c0,0,1.3,5.4,2.8,18.9
			c0.8,7.1,2.5,33.1,2.8,45.5c0.3,9.8,1.8,24.5,1.8,24.5s-6.8,6.8-24.5,5.7c-21.9-1.3-23.9-1.2-30.2-3.2c0,0-1.1-30.9-0.7-43.4
			C233,356,231.1,323,231.1,323z" style="fill:#fe715e"></path>
      <path d="M313.8,360.1l-9.6,1.6c-0.9,0.1-1.5-0.5-1.3-1.5l4.4-22.8c0.2-1,1.1-1.9,2-2l9.6-1.6
			c0.9-0.1,1.5,0.5,1.3,1.5l-4.4,22.8C315.5,359.1,314.7,360,313.8,360.1z" style="fill:#000509"></path>
      <path d="M321,337.6c-2.1,0.1-4.5,1.9-5.2,3.7c-0.7,1.8,0.2,1.8,1.1,1.7c0.9-0.1,1.8,0,1.8,0s-1.6,1.9-3.5,2.7
			c-1.9,0.8-3,2-2.2,3.2c0.8,1.3,1.2,1,2.4,0.4c0,0-1.8,1.4-0.9,3c0.8,1.6,2.9,0,2.9,0s-2,1.1-1.5,2.7c0.5,1.6,1.8,0.1,3.2-0.3
			c1.4-0.4,3.5-2.8,3.4-4.1s-0.2-2.4-0.2-2.4s0.4-1.2,0.5-2.7c0.1-1.5,0.1-1.5,0.1-1.5l-0.7-1.9C322.3,342.1,323.5,337.5,321,337.6z
			" style="fill:#fec4ad"></path>
      <g>
        <path d="M317.8,298.1v7.9c0,7,5.6,12.6,12.6,12.6h6.2v6.4l7.7-6.4h40.3c7,0,12.6-5.6,12.6-12.6v-7.9
				c0-7-5.6-12.6-12.6-12.6h-54.2C323.5,285.5,317.8,291.2,317.8,298.1z" style="fill:#5c6f77"></path>
        <g>
          <g>
            <line x1="384.7" x2="330.6" y1="294.3" y2="294.3" style="fill:#fecc53"></line>
            <g>
              <rect width="54.1" height="1.1" x="330.6" y="293.8" style="fill:#f3f3f3"></rect>
            </g>
          </g>
          <g>
            <line x1="384.7" x2="330.6" y1="299.7" y2="299.7" style="fill:#fecc53"></line>
            <g>
              <rect width="54.1" height="1.1" x="330.6" y="299.2" style="fill:#f3f3f3"></rect>
            </g>
          </g>
          <g>
            <line x1="384.7" x2="330.6" y1="305.2" y2="305.2" style="fill:#fecc53"></line>
            <g>
              <rect width="54.1" height="1.1" x="330.6" y="304.6" style="fill:#f3f3f3"></rect>
            </g>
          </g>
          <g>
            <line x1="384.7" x2="365.1" y1="310.6" y2="310.6" style="fill:#fecc53"></line>
            <g>
              <rect width="19.6" height="1.1" x="365.1" y="310.1" style="fill:#f3f3f3"></rect>
            </g>
          </g>
        </g>
      </g>
      <path d="M233.3,411.9l-1.8-42l29.3,45.1C250.1,415,240.8,414.1,233.3,411.9z" style="fill:#bf5547"></path>
      <path d="M238.4,355.6c0.6,5.7,1.5,18.2,1.8,21c0.3,2.9,3,12.5,7.8,23.6c3.8,8.7,7.9,22.2,7.9,22.2s-0.4,5.7-6.5,6
			c0,0-13.9-24-16.7-28.4c-5.9-9.3-7.3-14-7.2-16.8c0-2.8-1-26.3-1-26.3L238.4,355.6z" style="fill:#fcc0a9"></path>
      <path d="M224,369.3c-0.7-8.5-1.2-22.8-0.8-28.2c0.6-8.9,1.5-16,7.3-17.7c12-3.5,12.5,21.7,11.8,30.2
			c-0.2,2.3-0.2,11-0.2,13.7C236.5,370.1,230.2,370.4,224,369.3z" style="fill:#fe715e"></path>
      <path d="M284.9,357.4l3.2,51.9c0,0-5.4,4-10.9,4.8C271.7,415,284.9,357.4,284.9,357.4z" style="fill:#bf5547"></path>
      <g>
        <path d="M265.1,294.3l-10.2-6.3l-7.2,8l0.9,5.1c0,0,6,9.5,15.3,6.3" style="fill:#fcc0a9"></path>
        <path d="M276.1,280c0,0,2.3,6.9,2.3,8.3c0,0,0.2,0.7-0.6,2c-0.2,0.3-0.2,1.1,0.3,1.9c0,0,2.2,4.3,3.5,6.5
				c0,0,0.6,1.1-0.6,1.8c-0.9,0.4-1.9,0.3-2,0.7c0,0-0.4,0.5-0.2,1.2c0.6,1.9,0.2,1.9,0.2,1.9s-0.5,0.5-1.2,0.7c0,0,1,1.1,0.5,1.8
				c0,0-0.6,0.7-0.7,1.4c-0.1,0.7,0.4,1.9,0.2,3.7c0,0-0.5,1.2-1.4,1.7c-0.8,0.5-7.7-1-10.2-1.3c0,0-6.4-1.3-6.5-3.1
				c-0.1-0.9-1.3-6.3-1.4-7.2c0,0-1.6,0.4-2.6-0.4c-1-0.8-2.2-2.3-3.3-5.1c-0.8-1.9,0.9-3.1,2.5-3.8c1.6-0.7,2.5,1.1,2.5,1.1
				s0.7-3.5,0.7-6.3C258.1,283.3,257.4,272.7,276.1,280z" style="fill:#fcc0a9"></path>
        <path d="M276.4,281c0,0-5.4-2.1-7.9-1.8c-2.5,0.2-7,1.8-7,1.8s1.7,2.5,1.6,4.2c-0.1,1.7-2.4,6.3-1.6,8.6
				c0,0-2.8-2.5-5.3-1.5c0,0-6.9,0.6-2.3,6.8c0,0-1.6,8.1-1.6,9.9c0,0-3.4,1.6-4,1.2c0,0-0.3-8.3-2.4-13.5c-2.1-5.1-3.1-8.4-3-10.7
				c0,0-0.6,1.9-0.6,1.4c0-4.4,0.7-8.7,3.9-12.7c1.9-2.4,3.6-3.5,5.9-3.8c0,0-0.1-1.3,2.6-1.9c6.1-1.3,12.4-2.1,18.5,1.3
				c0,0,2.4,1,4.4,2.9C280.5,275.7,280.1,279.1,276.4,281z" style="fill:#0d0d0e"></path>
        <path d="M260.8,280.9c-0.1,0-0.2-0.1-0.3-0.2C260.8,280.8,261,280.9,260.8,280.9z" style="fill:#544545"></path>
      </g>
    </g>
    <g>
      <g>
        <g>
          <g>
            <polygon points="489.1 531.6 489.1 547.8 503.1 555.9 517.1 547.8 517.1 531.6 503.1 523.5" style="fill:#415560"></polygon>
          </g>
          <g style="opacity:.7">
            <polygon points="489.1 531.6 503.1 539.7 517.1 531.6 503.1 523.5" style="fill:#c9c9c9"></polygon>
            <polygon points="489.1 547.8 503.1 555.9 503.1 539.7 489.1 531.6" style="fill:#2f3e46"></polygon>
          </g>
        </g>
      </g>
    </g>
    <g>
      <g>
        <polygon points="470.3 394.4 470.3 435.9 506.2 456.7 542.2 435.9 542.2 394.4 506.2 373.7" style="fill:#415560"></polygon>
      </g>
      <g style="opacity:.7">
        <polygon points="470.3 394.4 506.2 415.2 542.1 394.4 506.2 373.7" style="fill:#c9c9c9"></polygon>
        <polygon points="470.3 435.9 506.2 456.6 506.2 415.2 470.3 394.4" style="fill:#2f3e46"></polygon>
      </g>
    </g>
    <g>
      <g>
        <g>
          <g>
            <polygon points="374.7 379.4 374.7 407.8 399.3 422.1 423.9 407.8 423.9 379.4 399.3 365.2" style="fill:#415560"></polygon>
          </g>
          <g style="opacity:.7">
            <polygon points="374.7 379.4 399.3 393.6 423.9 379.4 399.3 365.2" style="fill:#c9c9c9"></polygon>
            <polygon points="374.7 407.8 399.3 422 399.3 393.6 374.7 379.4" style="fill:#2f3e46"></polygon>
          </g>
        </g>
      </g>
    </g>
    <g>
      <g>
        <g>
          <g>
            <polygon points="393.2 460 393.2 483.5 413.6 495.3 433.9 483.5 433.9 460 413.6 448.3" style="fill:#415560"></polygon>
          </g>
          <g style="opacity:.7">
            <polygon points="393.3 460 413.6 471.7 433.9 460 413.6 448.3" style="fill:#c9c9c9"></polygon>
            <polygon points="393.3 483.5 413.6 495.2 413.6 471.7 393.3 460" style="fill:#2f3e46"></polygon>
          </g>
        </g>
      </g>
    </g>
    <g>
      <g>
        <g>
          <g>
            <polygon points="574.2 465.3 574.2 486.2 592.2 496.6 610.3 486.2 610.3 465.3 592.2 454.9" style="fill:#415560"></polygon>
          </g>
          <g style="opacity:.7">
            <polygon points="574.2 465.3 592.2 475.7 610.3 465.3 592.2 454.9" style="fill:#c9c9c9"></polygon>
            <polygon points="574.2 486.1 592.2 496.5 592.2 475.7 574.2 465.3" style="fill:#2f3e46"></polygon>
          </g>
        </g>
      </g>
    </g>
    <g>
      <g>
        <g>
          <g>
            <polygon points="513.4 280.2 513.4 302.3 532.6 313.4 551.7 302.3 551.7 280.2 532.6 269.1" style="fill:#415560"></polygon>
          </g>
          <g style="opacity:.7">
            <polygon points="513.4 280.2 532.6 291.2 551.7 280.2 532.6 269.1" style="fill:#c9c9c9"></polygon>
            <polygon points="513.4 302.3 532.6 313.3 532.6 291.2 513.4 280.2" style="fill:#2f3e46"></polygon>
          </g>
        </g>
      </g>
    </g>
    <g>
      <g>
        <g>
          <g>
            <polygon points="588.6 340.7 588.6 362.9 607.7 373.9 626.9 362.9 626.9 340.7 607.7 329.7" style="fill:#415560"></polygon>
          </g>
          <g style="opacity:.7">
            <polygon points="588.6 340.7 607.7 351.8 626.9 340.7 607.7 329.7" style="fill:#c9c9c9"></polygon>
            <polygon points="588.6 362.8 607.7 373.9 607.7 351.8 588.6 340.7" style="fill:#2f3e46"></polygon>
          </g>
        </g>
      </g>
    </g>
    <line x1="596.3" x2="542.1" y1="367.3" y2="416.3" style="fill:none;stroke:#415560;stroke-width:1.7315;stroke-miterlimit:10"></line>
    <line x1="524.1" x2="574.2" y1="446.4" y2="477.6" style="fill:none;stroke:#415560;stroke-width:1.7315;stroke-miterlimit:10"></line>
    <line x1="581.4" x2="517.1" y1="490.3" y2="540.8" style="fill:none;stroke:#415560;stroke-width:1.7315;stroke-miterlimit:10"></line>
    <line x1="489.1" x2="425.4" y1="540.8" y2="488.4" style="fill:none;stroke:#415560;stroke-width:1.7315;stroke-miterlimit:10"></line>
    <line x1="488.3" x2="433.9" y1="446.3" y2="471.8" style="fill:none;stroke:#415560;stroke-width:1.7315;stroke-miterlimit:10"></line>
    <line x1="413.6" x2="413.6" y1="448.3" y2="413.2" style="fill:none;stroke:#415560;stroke-width:1.7315;stroke-miterlimit:10"></line>
  </g>
</svg>
