<svg xmlns="http://www.w3.org/2000/svg" enable-background="new 0 0 2500 2500" viewBox="0 0 2500 2500" id="secured-database">
  <g>
    <g>
      <path fill="#f1f5fb" fill-rule="evenodd" d="M1289.62,1833.46c-193.3,0-371.17,2.89-512.33,7.74c-345.46-197.46-225.84-582.34-101.8-800.05
			C848.11,738.15,1256.02,629.25,1424.74,871c229.01,328.14,449.94,213.63,569.23,462.84c119.3,249.2-61.87,488.1-192.02,507.36
			C1660.79,1836.35,1482.91,1833.46,1289.62,1833.46z" clip-rule="evenodd"></path>
    </g>
    <g>
      <path fill="#e8effa" fill-rule="evenodd" d="M1289.62,1833.46c-458.94,0-830.98,16.29-830.98,36.39c0,20.1,372.04,36.4,830.98,36.4
			s830.98-16.3,830.98-36.4C2120.6,1849.75,1748.56,1833.46,1289.62,1833.46z" clip-rule="evenodd"></path>
    </g>
  </g>
  <g>
    <path fill="#c3dffa" fill-rule="evenodd" d="M1087.22,785.39c16.04-10.32,33.53-17.44,51.59-21.36v-23.67c0-7.55,6.18-13.73,13.73-13.73h9.73h19.96h9.74
		c7.55,0,13.72,6.18,13.72,13.73v23.67c18.07,3.91,35.56,11.02,51.6,21.35l16.73-16.73c5.33-5.33,14.07-5.33,19.4,0l6.88,6.89
		l14.11,14.1l6.88,6.88c5.33,5.35,5.34,14.08,0,19.41l-16.72,16.72c10.32,16.03,17.44,33.54,21.35,51.6h23.67
		c7.54,0,13.72,6.17,13.72,13.73v9.73v19.96v9.74c0,7.55-6.17,13.72-13.72,13.72h-23.67c-3.9,18.06-11.03,35.56-21.36,51.6
		l16.73,16.72c5.33,5.34,5.33,14.07,0,19.4l-6.88,6.88l-14.11,14.11l-6.88,6.88c-5.34,5.34-14.07,5.34-19.4,0l-16.73-16.72
		c-16.03,10.33-33.54,17.44-51.6,21.35v23.67c0,7.55-6.17,13.73-13.72,13.72h-9.74h-19.96h-9.73c-7.55,0-13.73-6.17-13.73-13.72
		v-23.67c-18.05-3.91-35.55-11.02-51.59-21.35l-16.73,16.72c-5.33,5.34-14.07,5.34-19.41,0l-6.88-6.88l-14.1-14.11l-6.89-6.88
		c-5.34-5.33-5.34-14.06,0-19.4l16.72-16.72c-10.33-16.04-17.45-33.53-21.35-51.6h-23.66c-7.55,0-13.73-6.17-13.73-13.72v-9.74
		v-19.96v-9.73c0-7.55,6.17-13.72,13.73-13.73h23.66c3.91-18.06,11.03-35.55,21.35-51.59l-16.72-16.72c-5.34-5.34-5.34-14.07,0-19.4
		l6.88-6.89l14.11-14.1l6.88-6.89c5.34-5.33,14.06-5.33,19.41,0L1087.22,785.39L1087.22,785.39z M1421.14,715.17
		c-7.46-0.75-14.18,4.72-14.93,12.18l-1.34,13.15c-9.08,2.16-17.56,6.01-25.04,11.26l-10.74-7.75c-6.08-4.38-14.64-3-19.02,3.08
		l-12.17,16.87c-4.39,6.08-3.01,14.64,3.07,19.02l10.73,7.74c-1.29,4.34-2.2,8.86-2.68,13.53c-0.48,4.67-0.5,9.28-0.11,13.78
		l-12.07,5.42c-6.83,3.07-9.92,11.17-6.84,18.02l8.52,18.98c3.07,6.83,11.17,9.92,18.01,6.84l12.08-5.42
		c6.28,6.65,13.8,12.13,22.26,16.08l-1.34,13.15c-0.77,7.46,4.71,14.18,12.17,14.94l20.7,2.11c7.45,0.76,14.17-4.71,14.93-12.17
		l1.34-13.15c9.08-2.16,17.55-6.02,25.04-11.27l10.74,7.75c6.08,4.38,14.63,3,19.02-3.07l12.18-16.88
		c4.38-6.07,3.01-14.63-3.07-19.02l-10.73-7.74c1.29-4.34,2.2-8.85,2.68-13.52c0.47-4.68,0.5-9.29,0.1-13.79l12.08-5.42
		c6.83-3.07,9.91-11.17,6.84-18.01l-8.52-18.99c-3.07-6.84-11.17-9.92-18.02-6.84l-12.08,5.42c-6.27-6.65-13.79-12.14-22.25-16.08
		l1.34-13.15c0.76-7.46-4.72-14.18-12.17-14.94L1421.14,715.17L1421.14,715.17z M1421.77,778.11c18.54,0,33.55,15.03,33.55,33.55
		c0,18.53-15.02,33.55-33.55,33.55c-18.52,0-33.55-15.02-33.55-33.55C1388.21,793.13,1403.24,778.11,1421.77,778.11L1421.77,778.11z
		 M1398.59,927.27c-7.43,1-12.69,7.89-11.69,15.32l1.76,13.11c-8.31,4.21-15.67,9.94-21.72,16.78l-12.25-5.03
		c-6.93-2.85-14.94,0.49-17.78,7.42l-7.91,19.25c-2.85,6.93,0.49,14.93,7.43,17.78l12.24,5.03c-0.24,4.51-0.07,9.13,0.55,13.78
		c0.62,4.65,1.69,9.14,3.11,13.42l-10.47,8.09c-5.93,4.57-7.04,13.17-2.46,19.11l12.72,16.47c4.57,5.93,13.17,7.04,19.11,2.46
		l10.47-8.09c7.66,5,16.25,8.59,25.39,10.45l1.76,13.1c1,7.43,7.89,12.69,15.32,11.69l20.63-2.77c7.43-1,12.68-7.9,11.68-15.32
		l-1.76-13.1c8.32-4.21,15.68-9.94,21.73-16.79l12.25,5.03c6.93,2.85,14.93-0.5,17.78-7.43l7.9-19.24
		c2.86-6.94-0.49-14.93-7.42-17.78l-12.24-5.04c0.24-4.51,0.07-9.13-0.55-13.77c-0.63-4.65-1.69-9.14-3.11-13.43l10.47-8.08
		c5.93-4.58,7.03-13.18,2.46-19.11l-12.72-16.48c-4.57-5.93-13.18-7.03-19.11-2.46l-10.48,8.1c-7.65-5.01-16.24-8.59-25.39-10.46
		l-1.76-13.1c-1-7.43-7.89-12.68-15.32-11.68L1398.59,927.27L1398.59,927.27z M1421.69,987.4c18.53,0,33.55,15.03,33.55,33.55
		c0,18.53-15.02,33.55-33.55,33.55c-18.53,0-33.55-15.02-33.55-33.55C1388.14,1002.43,1403.16,987.4,1421.69,987.4L1421.69,987.4z
		 M1172.25,804.01c-31.4,0-59.81,12.73-80.38,33.3c-20.58,20.57-33.3,48.99-33.3,80.38c0,31.39,12.71,59.81,33.3,80.38
		c20.57,20.57,48.99,33.3,80.38,33.3c31.38,0,59.81-12.72,80.38-33.3c20.57-20.57,33.3-48.99,33.3-80.38
		c0-31.39-12.73-59.81-33.3-80.38C1232.06,816.74,1203.63,804.01,1172.25,804.01L1172.25,804.01z M1230.67,859.27
		c-14.95-14.95-35.61-24.2-58.42-24.2c-22.83,0-43.48,9.25-58.43,24.2c-14.95,14.94-24.2,35.61-24.2,58.42
		c0,22.82,9.25,43.47,24.2,58.42c14.94,14.95,35.6,24.2,58.43,24.2c22.82,0,43.47-9.25,58.42-24.2
		c14.95-14.95,24.19-35.61,24.19-58.42C1254.86,894.88,1245.61,874.21,1230.67,859.27z" clip-rule="evenodd"></path>
  </g>
  <g>
    <g>
      <rect width="541.95" height="218.78" x="650.21" y="988.02" fill="#1e77d1" fill-rule="evenodd" clip-rule="evenodd"></rect>
    </g>
    <g>
      <rect width="822.09" height="200.35" x="510.15" y="988.02" fill="#4f8ecc" fill-rule="evenodd" clip-rule="evenodd"></rect>
    </g>
    <g>
      <path fill="#87bef5" fill-rule="evenodd" d="M538.59,1000.99h765.2c7.76,0,14.12,6.77,14.12,15.04v144.33c0,8.27-6.36,15.04-14.12,15.04h-765.2
			c-7.76,0-14.11-6.77-14.11-15.04v-144.33C524.48,1007.76,530.83,1000.99,538.59,1000.99z" clip-rule="evenodd"></path>
    </g>
    <g>
      <path fill="#eee5f4" fill-rule="evenodd" d="M573.18,1045.71c9.55,0,17.3,7.74,17.3,17.3c0,9.56-7.75,17.3-17.3,17.3c-9.56,0-17.3-7.74-17.3-17.3
			C555.88,1053.45,563.62,1045.71,573.18,1045.71L573.18,1045.71z M573.18,1096.08c9.55,0,17.3,7.74,17.3,17.3
			c0,9.55-7.75,17.3-17.3,17.3c-9.56,0-17.3-7.75-17.3-17.3C555.88,1103.82,563.62,1096.08,573.18,1096.08L573.18,1096.08z
			 M753.49,1096.08c9.56,0,17.3,7.74,17.3,17.3c0,9.55-7.74,17.3-17.3,17.3c-9.55,0-17.3-7.75-17.3-17.3
			C736.19,1103.82,743.94,1096.08,753.49,1096.08L753.49,1096.08z M693.39,1096.08c9.55,0,17.3,7.74,17.3,17.3
			c0,9.55-7.75,17.3-17.3,17.3c-9.56,0-17.3-7.75-17.3-17.3C676.09,1103.82,683.83,1096.08,693.39,1096.08L693.39,1096.08z
			 M633.28,1096.08c9.56,0,17.3,7.74,17.3,17.3c0,9.55-7.74,17.3-17.3,17.3c-9.55,0-17.3-7.75-17.3-17.3
			C615.98,1103.82,623.73,1096.08,633.28,1096.08L633.28,1096.08z M753.49,1045.71c9.56,0,17.3,7.74,17.3,17.3
			c0,9.56-7.74,17.3-17.3,17.3c-9.55,0-17.3-7.74-17.3-17.3C736.19,1053.45,743.94,1045.71,753.49,1045.71L753.49,1045.71z
			 M693.39,1045.71c9.55,0,17.3,7.74,17.3,17.3c0,9.56-7.75,17.3-17.3,17.3c-9.56,0-17.3-7.74-17.3-17.3
			C676.09,1053.45,683.83,1045.71,693.39,1045.71L693.39,1045.71z M633.28,1045.71c9.56,0,17.3,7.74,17.3,17.3
			c0,9.56-7.74,17.3-17.3,17.3c-9.55,0-17.3-7.74-17.3-17.3C615.98,1053.45,623.73,1045.71,633.28,1045.71z" clip-rule="evenodd"></path>
    </g>
    <g>
      <rect width="23.34" height="115.9" x="828.16" y="1029.69" fill="#4f8ecc" fill-rule="evenodd" clip-rule="evenodd"></rect>
    </g>
    <g>
      <rect width="23.34" height="115.9" x="869.02" y="1029.69" fill="#eee5f4" fill-rule="evenodd" clip-rule="evenodd"></rect>
    </g>
    <g>
      <rect width="23.34" height="115.9" x="909.87" y="1029.69" fill="#4f8ecc" fill-rule="evenodd" clip-rule="evenodd"></rect>
    </g>
    <g>
      <rect width="23.34" height="115.9" x="950.72" y="1029.69" fill="#eee5f4" fill-rule="evenodd" clip-rule="evenodd"></rect>
    </g>
    <g>
      <rect width="23.35" height="115.9" x="991.58" y="1029.69" fill="#4f8ecc" fill-rule="evenodd" clip-rule="evenodd"></rect>
    </g>
    <g>
      <rect width="23.34" height="115.9" x="1032.43" y="1029.69" fill="#eee5f4" fill-rule="evenodd" clip-rule="evenodd"></rect>
    </g>
    <g>
      <rect width="23.34" height="115.9" x="1073.29" y="1029.69" fill="#4f8ecc" fill-rule="evenodd" clip-rule="evenodd"></rect>
    </g>
    <g>
      <rect width="23.34" height="115.9" x="1114.14" y="1029.69" fill="#eee5f4" fill-rule="evenodd" clip-rule="evenodd"></rect>
    </g>
    <g>
      <rect width="23.34" height="115.9" x="1155" y="1029.69" fill="#4f8ecc" fill-rule="evenodd" clip-rule="evenodd"></rect>
    </g>
    <g>
      <rect width="23.35" height="115.9" x="1195.85" y="1029.69" fill="#eee5f4" fill-rule="evenodd" clip-rule="evenodd"></rect>
    </g>
    <g>
      <rect width="23.34" height="115.9" x="1236.71" y="1029.69" fill="#4f8ecc" fill-rule="evenodd" clip-rule="evenodd"></rect>
    </g>
    <g>
      <rect width="541.95" height="218.79" x="650.21" y="1206.81" fill="#1e77d1" fill-rule="evenodd" clip-rule="evenodd"></rect>
    </g>
    <g>
      <rect width="822.09" height="200.34" x="510.15" y="1206.81" fill="#4f8ecc" fill-rule="evenodd" clip-rule="evenodd"></rect>
    </g>
    <g>
      <path fill="#87bef5" fill-rule="evenodd" d="M538.59,1219.78h765.2c7.76,0,14.12,6.76,14.12,15.04v144.33c0,8.27-6.36,15.04-14.12,15.04h-765.2
			c-7.76,0-14.11-6.77-14.11-15.04v-144.33C524.48,1226.54,530.83,1219.78,538.59,1219.78z" clip-rule="evenodd"></path>
    </g>
    <g>
      <path fill="#eee5f4" fill-rule="evenodd" d="M573.18,1264.49c9.55,0,17.3,7.74,17.3,17.3c0,9.55-7.75,17.3-17.3,17.3c-9.56,0-17.3-7.75-17.3-17.3
			C555.88,1272.24,563.62,1264.49,573.18,1264.49L573.18,1264.49z M573.18,1314.86c9.55,0,17.3,7.75,17.3,17.31
			c0,9.55-7.75,17.3-17.3,17.3c-9.56,0-17.3-7.75-17.3-17.3C555.88,1322.61,563.62,1314.86,573.18,1314.86L573.18,1314.86z
			 M753.49,1314.86c9.56,0,17.3,7.75,17.3,17.31c0,9.55-7.74,17.3-17.3,17.3c-9.55,0-17.3-7.75-17.3-17.3
			C736.19,1322.61,743.94,1314.86,753.49,1314.86L753.49,1314.86z M693.39,1314.86c9.55,0,17.3,7.75,17.3,17.31
			c0,9.55-7.75,17.3-17.3,17.3c-9.56,0-17.3-7.75-17.3-17.3C676.09,1322.61,683.83,1314.86,693.39,1314.86L693.39,1314.86z
			 M633.28,1314.86c9.56,0,17.3,7.75,17.3,17.31c0,9.55-7.74,17.3-17.3,17.3c-9.55,0-17.3-7.75-17.3-17.3
			C615.98,1322.61,623.73,1314.86,633.28,1314.86L633.28,1314.86z M753.49,1264.49c9.56,0,17.3,7.74,17.3,17.3
			c0,9.55-7.74,17.3-17.3,17.3c-9.55,0-17.3-7.75-17.3-17.3C736.19,1272.24,743.94,1264.49,753.49,1264.49L753.49,1264.49z
			 M693.39,1264.49c9.55,0,17.3,7.74,17.3,17.3c0,9.55-7.75,17.3-17.3,17.3c-9.56,0-17.3-7.75-17.3-17.3
			C676.09,1272.24,683.83,1264.49,693.39,1264.49L693.39,1264.49z M633.28,1264.49c9.56,0,17.3,7.74,17.3,17.3
			c0,9.55-7.74,17.3-17.3,17.3c-9.55,0-17.3-7.75-17.3-17.3C615.98,1272.24,623.73,1264.49,633.28,1264.49z" clip-rule="evenodd"></path>
    </g>
    <g>
      <rect width="23.34" height="115.9" x="828.16" y="1248.48" fill="#4f8ecc" fill-rule="evenodd" clip-rule="evenodd"></rect>
    </g>
    <g>
      <rect width="23.34" height="115.9" x="869.02" y="1248.48" fill="#eee5f4" fill-rule="evenodd" clip-rule="evenodd"></rect>
    </g>
    <g>
      <rect width="23.34" height="115.9" x="909.87" y="1248.48" fill="#4f8ecc" fill-rule="evenodd" clip-rule="evenodd"></rect>
    </g>
    <g>
      <rect width="23.34" height="115.9" x="950.72" y="1248.48" fill="#eee5f4" fill-rule="evenodd" clip-rule="evenodd"></rect>
    </g>
    <g>
      <rect width="23.35" height="115.9" x="991.58" y="1248.48" fill="#4f8ecc" fill-rule="evenodd" clip-rule="evenodd"></rect>
    </g>
    <g>
      <rect width="23.34" height="115.9" x="1032.43" y="1248.48" fill="#eee5f4" fill-rule="evenodd" clip-rule="evenodd"></rect>
    </g>
    <g>
      <rect width="23.34" height="115.9" x="1073.29" y="1248.48" fill="#4f8ecc" fill-rule="evenodd" clip-rule="evenodd"></rect>
    </g>
    <g>
      <rect width="23.34" height="115.9" x="1114.14" y="1248.48" fill="#eee5f4" fill-rule="evenodd" clip-rule="evenodd"></rect>
    </g>
    <g>
      <rect width="23.34" height="115.9" x="1155" y="1248.48" fill="#4f8ecc" fill-rule="evenodd" clip-rule="evenodd"></rect>
    </g>
    <g>
      <rect width="23.35" height="115.9" x="1195.85" y="1248.48" fill="#eee5f4" fill-rule="evenodd" clip-rule="evenodd"></rect>
    </g>
    <g>
      <rect width="23.34" height="115.9" x="1236.71" y="1248.48" fill="#4f8ecc" fill-rule="evenodd" clip-rule="evenodd"></rect>
    </g>
    <g>
      <rect width="541.95" height="218.78" x="650.21" y="1425.59" fill="#1e77d1" fill-rule="evenodd" clip-rule="evenodd"></rect>
    </g>
    <g>
      <rect width="822.09" height="200.34" x="510.15" y="1425.59" fill="#4f8ecc" fill-rule="evenodd" clip-rule="evenodd"></rect>
    </g>
    <g>
      <path fill="#87bef5" fill-rule="evenodd" d="M538.59,1438.56h765.2c7.76,0,14.12,6.77,14.12,15.05v144.33c0,8.27-6.36,15.04-14.12,15.04h-765.2
			c-7.76,0-14.11-6.77-14.11-15.04v-144.33C524.48,1445.33,530.83,1438.56,538.59,1438.56z" clip-rule="evenodd"></path>
    </g>
    <g>
      <path fill="#eee5f4" fill-rule="evenodd" d="M573.18,1483.28c9.55,0,17.3,7.74,17.3,17.3c0,9.55-7.75,17.3-17.3,17.3c-9.56,0-17.3-7.75-17.3-17.3
			C555.88,1491.02,563.62,1483.28,573.18,1483.28L573.18,1483.28z M573.18,1533.65c9.55,0,17.3,7.75,17.3,17.3
			c0,9.56-7.75,17.31-17.3,17.31c-9.56,0-17.3-7.75-17.3-17.31C555.88,1541.39,563.62,1533.65,573.18,1533.65L573.18,1533.65z
			 M753.49,1533.65c9.56,0,17.3,7.75,17.3,17.3c0,9.56-7.74,17.31-17.3,17.31c-9.55,0-17.3-7.75-17.3-17.31
			C736.19,1541.39,743.94,1533.65,753.49,1533.65L753.49,1533.65z M693.39,1533.65c9.55,0,17.3,7.75,17.3,17.3
			c0,9.56-7.75,17.31-17.3,17.31c-9.56,0-17.3-7.75-17.3-17.31C676.09,1541.39,683.83,1533.65,693.39,1533.65L693.39,1533.65z
			 M633.28,1533.65c9.56,0,17.3,7.75,17.3,17.3c0,9.56-7.74,17.31-17.3,17.31c-9.55,0-17.3-7.75-17.3-17.31
			C615.98,1541.39,623.73,1533.65,633.28,1533.65L633.28,1533.65z M753.49,1483.28c9.56,0,17.3,7.74,17.3,17.3
			c0,9.55-7.74,17.3-17.3,17.3c-9.55,0-17.3-7.75-17.3-17.3C736.19,1491.02,743.94,1483.28,753.49,1483.28L753.49,1483.28z
			 M693.39,1483.28c9.55,0,17.3,7.74,17.3,17.3c0,9.55-7.75,17.3-17.3,17.3c-9.56,0-17.3-7.75-17.3-17.3
			C676.09,1491.02,683.83,1483.28,693.39,1483.28L693.39,1483.28z M633.28,1483.28c9.56,0,17.3,7.74,17.3,17.3
			c0,9.55-7.74,17.3-17.3,17.3c-9.55,0-17.3-7.75-17.3-17.3C615.98,1491.02,623.73,1483.28,633.28,1483.28z" clip-rule="evenodd"></path>
    </g>
    <g>
      <rect width="23.34" height="115.89" x="828.16" y="1467.26" fill="#4f8ecc" fill-rule="evenodd" clip-rule="evenodd"></rect>
    </g>
    <g>
      <rect width="23.34" height="115.89" x="869.02" y="1467.26" fill="#eee5f4" fill-rule="evenodd" clip-rule="evenodd"></rect>
    </g>
    <g>
      <rect width="23.34" height="115.89" x="909.87" y="1467.26" fill="#4f8ecc" fill-rule="evenodd" clip-rule="evenodd"></rect>
    </g>
    <g>
      <rect width="23.34" height="115.89" x="950.72" y="1467.26" fill="#eee5f4" fill-rule="evenodd" clip-rule="evenodd"></rect>
    </g>
    <g>
      <rect width="23.35" height="115.89" x="991.58" y="1467.26" fill="#4f8ecc" fill-rule="evenodd" clip-rule="evenodd"></rect>
    </g>
    <g>
      <rect width="23.34" height="115.89" x="1032.43" y="1467.26" fill="#eee5f4" fill-rule="evenodd" clip-rule="evenodd"></rect>
    </g>
    <g>
      <rect width="23.34" height="115.89" x="1073.29" y="1467.26" fill="#4f8ecc" fill-rule="evenodd" clip-rule="evenodd"></rect>
    </g>
    <g>
      <rect width="23.34" height="115.89" x="1114.14" y="1467.26" fill="#eee5f4" fill-rule="evenodd" clip-rule="evenodd"></rect>
    </g>
    <g>
      <rect width="23.34" height="115.89" x="1155" y="1467.26" fill="#4f8ecc" fill-rule="evenodd" clip-rule="evenodd"></rect>
    </g>
    <g>
      <rect width="23.35" height="115.89" x="1195.85" y="1467.26" fill="#eee5f4" fill-rule="evenodd" clip-rule="evenodd"></rect>
    </g>
    <g>
      <rect width="23.34" height="115.89" x="1236.71" y="1467.26" fill="#4f8ecc" fill-rule="evenodd" clip-rule="evenodd"></rect>
    </g>
    <g>
      <rect width="541.95" height="218.78" x="650.21" y="1644.37" fill="#1e77d1" fill-rule="evenodd" clip-rule="evenodd"></rect>
    </g>
    <g>
      <rect width="822.09" height="200.35" x="510.15" y="1644.37" fill="#4f8ecc" fill-rule="evenodd" clip-rule="evenodd"></rect>
    </g>
    <g>
      <path fill="#87bef5" fill-rule="evenodd" d="M538.59,1657.34h765.2c7.76,0,14.12,6.77,14.12,15.04v144.33c0,8.28-6.36,15.04-14.12,15.04h-765.2
			c-7.76,0-14.11-6.76-14.11-15.04v-144.33C524.48,1664.11,530.83,1657.34,538.59,1657.34z" clip-rule="evenodd"></path>
    </g>
    <g>
      <path fill="#eee5f4" fill-rule="evenodd" d="M573.18,1702.06c9.55,0,17.3,7.75,17.3,17.31c0,9.55-7.75,17.3-17.3,17.3c-9.56,0-17.3-7.75-17.3-17.3
			C555.88,1709.81,563.62,1702.06,573.18,1702.06L573.18,1702.06z M573.18,1752.43c9.55,0,17.3,7.75,17.3,17.3
			c0,9.56-7.75,17.3-17.3,17.3c-9.56,0-17.3-7.74-17.3-17.3C555.88,1760.18,563.62,1752.43,573.18,1752.43L573.18,1752.43z
			 M753.49,1752.43c9.56,0,17.3,7.75,17.3,17.3c0,9.56-7.74,17.3-17.3,17.3c-9.55,0-17.3-7.74-17.3-17.3
			C736.19,1760.18,743.94,1752.43,753.49,1752.43L753.49,1752.43z M693.39,1752.43c9.55,0,17.3,7.75,17.3,17.3
			c0,9.56-7.75,17.3-17.3,17.3c-9.56,0-17.3-7.74-17.3-17.3C676.09,1760.18,683.83,1752.43,693.39,1752.43L693.39,1752.43z
			 M633.28,1752.43c9.56,0,17.3,7.75,17.3,17.3c0,9.56-7.74,17.3-17.3,17.3c-9.55,0-17.3-7.74-17.3-17.3
			C615.98,1760.18,623.73,1752.43,633.28,1752.43L633.28,1752.43z M753.49,1702.06c9.56,0,17.3,7.75,17.3,17.31
			c0,9.55-7.74,17.3-17.3,17.3c-9.55,0-17.3-7.75-17.3-17.3C736.19,1709.81,743.94,1702.06,753.49,1702.06L753.49,1702.06z
			 M693.39,1702.06c9.55,0,17.3,7.75,17.3,17.31c0,9.55-7.75,17.3-17.3,17.3c-9.56,0-17.3-7.75-17.3-17.3
			C676.09,1709.81,683.83,1702.06,693.39,1702.06L693.39,1702.06z M633.28,1702.06c9.56,0,17.3,7.75,17.3,17.31
			c0,9.55-7.74,17.3-17.3,17.3c-9.55,0-17.3-7.75-17.3-17.3C615.98,1709.81,623.73,1702.06,633.28,1702.06z" clip-rule="evenodd"></path>
    </g>
    <g>
      <rect width="23.34" height="115.89" x="828.16" y="1686.05" fill="#4f8ecc" fill-rule="evenodd" clip-rule="evenodd"></rect>
    </g>
    <g>
      <rect width="23.34" height="115.89" x="869.02" y="1686.05" fill="#eee5f4" fill-rule="evenodd" clip-rule="evenodd"></rect>
    </g>
    <g>
      <rect width="23.34" height="115.89" x="909.87" y="1686.05" fill="#4f8ecc" fill-rule="evenodd" clip-rule="evenodd"></rect>
    </g>
    <g>
      <rect width="23.34" height="115.89" x="950.72" y="1686.05" fill="#eee5f4" fill-rule="evenodd" clip-rule="evenodd"></rect>
    </g>
    <g>
      <rect width="23.35" height="115.89" x="991.58" y="1686.05" fill="#4f8ecc" fill-rule="evenodd" clip-rule="evenodd"></rect>
    </g>
    <g>
      <rect width="23.34" height="115.89" x="1032.43" y="1686.05" fill="#eee5f4" fill-rule="evenodd" clip-rule="evenodd"></rect>
    </g>
    <g>
      <rect width="23.34" height="115.89" x="1073.29" y="1686.05" fill="#4f8ecc" fill-rule="evenodd" clip-rule="evenodd"></rect>
    </g>
    <g>
      <rect width="23.34" height="115.89" x="1114.14" y="1686.05" fill="#eee5f4" fill-rule="evenodd" clip-rule="evenodd"></rect>
    </g>
    <g>
      <rect width="23.34" height="115.89" x="1155" y="1686.05" fill="#4f8ecc" fill-rule="evenodd" clip-rule="evenodd"></rect>
    </g>
    <g>
      <rect width="23.35" height="115.89" x="1195.85" y="1686.05" fill="#eee5f4" fill-rule="evenodd" clip-rule="evenodd"></rect>
    </g>
    <g>
      <rect width="23.34" height="115.89" x="1236.71" y="1686.05" fill="#4f8ecc" fill-rule="evenodd" clip-rule="evenodd"></rect>
    </g>
  </g>
  <g>
    <path fill="#ffb27d" fill-rule="evenodd" d="M1443.99,1168.43c-6.35-1.2-9.53-1.79-9.53-1.79c-24.23-5.91-36.04-4.7-35.42,3.66
		c12.03,2,18.73,5.61,20.13,10.82c-10.99,4.68-26.17,5.49-45.52,2.44c5.07,17.21,35.02,19.58,89.86,7.13
		c41.74-8.64,62.6-12.94,62.6-12.94c-5.16-19.64-7.74-29.46-7.74-29.46C1468.78,1161.72,1443.99,1168.43,1443.99,1168.43z" clip-rule="evenodd"></path>
  </g>
  <g>
    <path fill="#284191" fill-rule="evenodd" d="M1833.96,1836.75c0,0-12.61,11.95-25.06,14.16c-12.45,2.22-26.47,6.89-26.82,13.95
		c-0.35,7.06,40.39,11.13,54.78,4.43c21.48-10,23.51-6.74,26.04-11.98c2.53-5.24-2.1-19.61-1.89-21.29
		C1861.28,1833.94,1833.96,1836.75,1833.96,1836.75z" clip-rule="evenodd"></path>
  </g>
  <g>
    <path fill="#284191" fill-rule="evenodd" d="M1723.11,1836.67c0,0-12.61,11.95-25.06,14.16c-12.44,2.22-26.47,6.89-26.82,13.95
		c-0.34,7.06,40.39,11.13,54.78,4.43c21.48-10,23.51-6.74,26.05-11.98c2.54-5.24-2.11-19.6-1.9-21.29
		C1750.43,1833.86,1723.11,1836.67,1723.11,1836.67z" clip-rule="evenodd"></path>
  </g>
  <g>
    <path fill="#ffb27d" fill-rule="evenodd" d="M1835.54,1830.91l-1.58,5.84c0.23,0.13,27.72,3.93,27.06-0.73c-0.54-3.77-1.36-7.88-1.36-7.88L1835.54,1830.91
		z" clip-rule="evenodd"></path>
  </g>
  <g>
    <path fill="#ffb27d" fill-rule="evenodd" d="M1724.69,1830.82l-1.58,5.85c0.24,0.13,27.73,3.93,27.06-0.73c-0.54-3.77-1.36-7.88-1.36-7.88L1724.69,1830.82
		z" clip-rule="evenodd"></path>
  </g>
  <g>
    <path fill="#71afed" fill-rule="evenodd" d="M1478.39,1154.15l-26.34,11.6l3.27,27.46c0,0,17.81-2.96,41.04-7.19
		C1493.53,1173.49,1487.88,1162.23,1478.39,1154.15z" clip-rule="evenodd"></path>
  </g>
  <g>
    <path fill="#71afed" fill-rule="evenodd" d="M1676.67,1053.56l3.32-124.72l-119.54,189.18l-82.06,36.12c9.5,8.09,7.26,24.79,17.97,31.88
		c43.9,8.41,104.91-26.58,106.54-25.42C1612.03,1151,1676.67,1053.56,1676.67,1053.56z" clip-rule="evenodd"></path>
  </g>
  <g>
    <path fill="#3b5bb3" fill-rule="evenodd" d="M1720.93,1832.66l36.38,3.01c0,0,15.68-197.36,0-292.89c-15.67-95.53-15.67-342.23-15.67-342.23l-74.45,22.32
		c0,0,9.81,291.57,14.7,316.77C1686.8,1564.83,1720.93,1832.66,1720.93,1832.66z" clip-rule="evenodd"></path>
  </g>
  <g>
    <path fill="#4567c6" fill-rule="evenodd" d="M1867.15,1834.98l-45.2-2.46c-18.35-247.73-14.86-212.87-76.3-435.77c-9.17-33-15.74-56.58-15.74-56.58
		l-5.46-134.46l-0.44-10.42l97.94,23.11c0,0,39.71,313.28,46.28,389.56C1871.97,1703.55,1867.15,1834.98,1867.15,1834.98z" clip-rule="evenodd"></path>
  </g>
  <g>
    <path fill="#71afed" fill-rule="evenodd" d="M1741.18,901.58l-61.2,27.27c0,0-36.02,265.86-12.79,284.93c9.47,7.77,133.42,32.02,155.38,0
		c9.06-13.23,2.32-72.05,14.07-116.34c11.46-44.13,32.34-144.77,42.65-154.23l-4.58-3.74l-80.57-43.27L1741.18,901.58z" clip-rule="evenodd"></path>
  </g>
  <g>
    <path fill="#ffb27d" fill-rule="evenodd" d="M1739.32,857.26c2.05,6.1,1.16,49.59,2.77,60.53c1.6,10.81,50.94,27.56,51.91-11.75
		c0.97-39.32-2.9-85.57-2.9-85.57L1739.32,857.26z" clip-rule="evenodd"></path>
  </g>
  <g>
    <path fill="#f08261" fill-rule="evenodd" d="M1739.32,857.26L1739.32,857.26l17.19-12.21l34.59-24.58v0.13c0.02,0.16,0.04,0.46,0.08,0.9
		c0.11,1.43,0.33,4.29,0.6,8.24v0.02c0.06,0.8,0.12,1.64,0.18,2.53v0.17c0.2,2.86,0.42,6.15,0.62,9.76
		c0.02,0.21,0.02,0.42,0.04,0.61c0.04,0.86,0.09,1.74,0.13,2.63l0.02,0.03c0.02,0.46,0.04,0.92,0.07,1.41l0.02,0.14
		c0,0.18,0.02,0.36,0.02,0.54l0.02,0.21c0.02,0.3,0.02,0.62,0.04,0.93c-6.42,21.08-30.71,43.96-51.73,46.68
		c-0.04-1.45-0.12-2.92-0.22-4.4C1740.7,876.24,1740.48,860.73,1739.32,857.26z" clip-rule="evenodd"></path>
  </g>
  <g>
    <rect width="155.38" height="18.36" x="1667.2" y="1213.76" fill="#61a0e0" fill-rule="evenodd" clip-rule="evenodd"></rect>
  </g>
  <g>
    <rect width="35.59" height="18.36" x="1697.52" y="1213.76" fill="#4f8ecc" fill-rule="evenodd" clip-rule="evenodd"></rect>
  </g>
  <g>
    <polygon fill="#71afed" fill-rule="evenodd" points="1709.94 1173.68 1746.64 935.09 1715.75 1167.98 1726.54 1217.03" clip-rule="evenodd"></polygon>
  </g>
  <g>
    <rect width="4.75" height="18.36" x="1771.67" y="1213.76" fill="#2b478b" fill-rule="evenodd" clip-rule="evenodd"></rect>
  </g>
  <g>
    <rect width="4.76" height="18.36" x="1802.85" y="1213.76" fill="#61a0e0" fill-rule="evenodd" clip-rule="evenodd"></rect>
  </g>
  <g>
    <path fill="#ffb27d" fill-rule="evenodd" d="M1742.51,765.64c-14.39-2.77-28.82-21.39-30.24,18.19c-0.78,10.52,1.55,25.49,0.21,41.15
		c-2.5,28.84,15.83,53.54,30.08,54.55c14.28,0.91,47.11-11.17,51.26-52.11c1.8-17.48,4.13-40.56-11.03-51.29
		C1770.98,767.77,1755.13,764.62,1742.51,765.64z" clip-rule="evenodd"></path>
  </g>
  <g>
    <path fill="#284191" fill-rule="evenodd" d="M1791.74,858.58c0,0,46.11-48.39,45.46-83.19c-0.62-34.71-34.08-50.66-61.5-49.46
		c-12.39,0.63-20.7,1.87-33.3,4.49c-27.1,5.68-43.86,19.19-35.79,41.15c10.81,29.45,65.58-0.61,77.94,7.81
		c10.22,6.99-3.8,26.77,6.07,33.04c9.3,6.03,4.66,4.14,2.8,17.01C1790.17,845.27,1791.48,859.15,1791.74,858.58z" clip-rule="evenodd"></path>
  </g>
  <g>
    <path fill="#ffb27d" fill-rule="evenodd" d="M1807.67,816.87c-0.57,8.34-5.14,14.93-10.25,14.59c-5.07-0.34-8.73-7.39-8.17-15.82
		c0.56-8.43,5.14-14.92,10.21-14.57C1804.55,801.4,1808.2,808.45,1807.67,816.87z" clip-rule="evenodd"></path>
  </g>
  <g>
    <g>
      <path fill="#125aa3" fill-rule="evenodd" d="M1727.19,809.75c-1.83,0.1-3.39-1.99-3.52-4.66c-0.12-2.68,1.25-4.92,3.07-5.03
			c1.82-0.1,3.39,1.99,3.52,4.66C1730.39,807.41,1729.01,809.65,1727.19,809.75z" clip-rule="evenodd"></path>
    </g>
    <g>
      <g>
        <path fill="#125aa3" fill-rule="evenodd" d="M1754.09,802.01c16.98-4.67,14.76-4.05,27.94,4.7c-4.5-9.36-12.49-12.57-21.41-10.67
				C1756.45,796.92,1755.72,796.73,1754.09,802.01z" clip-rule="evenodd"></path>
      </g>
      <g>
        <path fill="#125aa3" fill-rule="evenodd" d="M1763.9,811.55c1.78,0.17,3.39-1.86,3.6-4.53c0.21-2.66-1.06-4.96-2.86-5.13c-1.78-0.17-3.39,1.86-3.6,4.53
				C1760.83,809.09,1762.1,811.38,1763.9,811.55z" clip-rule="evenodd"></path>
      </g>
      <g>
        <path fill="#125aa3" fill-rule="evenodd" d="M1737.95,801.35c-15.26-7.7-13.26-6.69-26.97-0.48c5.64-8.4,13.63-10.1,21.72-6.6
				C1736.5,795.9,1737.21,795.84,1737.95,801.35z" clip-rule="evenodd"></path>
      </g>
      <g>
        <path fill="#fff" fill-rule="evenodd" d="M1757.71,851.29c-16.93,3.29-29.95,0.05-25.75,1.5C1736.44,857.41,1748.07,857.08,1757.71,851.29z" clip-rule="evenodd"></path>
      </g>
      <g>
        <path fill="#a4d0fc" fill-rule="evenodd" d="M1727.34,800.13c0.33,0.03,0.54,0.87,0.45,1.88c-0.08,1-0.41,1.79-0.73,1.75
				c-0.33-0.03-0.54-0.86-0.45-1.87C1726.68,800.88,1727.01,800.1,1727.34,800.13z" clip-rule="evenodd"></path>
      </g>
    </g>
    <g>
      <path fill="#a4d0fc" fill-rule="evenodd" d="M1763.44,802.46c0.33,0.03,0.53,0.87,0.46,1.88c-0.08,1-0.41,1.79-0.74,1.76c-0.33-0.03-0.54-0.87-0.46-1.87
			C1762.77,803.21,1763.11,802.43,1763.44,802.46z" clip-rule="evenodd"></path>
    </g>
  </g>
  <g>
    <path fill="#284191" fill-rule="evenodd" d="M1714.1,774.38c17.36-5.27,32.83-8.39,45.7-8.26c-10.53,4.89-19.67,7.56-27.4,8
		c18.2,5.06,36.96,5.68,56.28,1.87c0.3,0.3,0.6,0.6,0.89,0.91c0.28,10.52,6.6-15.86,4.59,1.4c2.72,3.58,3.6,4.54,7.62,4.04
		c3.37-10.6,1.9,23.72,4.96,21.27c17.99,4.7,8.06,18.98-12.36,38.47c-0.45,5.61-2.68,29.88-3.33,33.62
		c19.95-8.11,44.56-51.29,45.67-59.71c12.3-39.22-2.19-57.66-16.73-66.43c5.09-3.06,9.31-4.57,12.69-4.5
		c-6.81-3.72-14.11-4.8-21.95-3.21c-0.7-4.02-2.19-7.82-4.47-11.42c0.19,2.21-0.28,4.86-1.41,7.91
		c-17.43-36.28-75.07,10.46-96.97-14.2C1673.64,752.08,1703.4,775.73,1714.1,774.38z" clip-rule="evenodd"></path>
  </g>
  <g>
    <g>
      <path fill="#f06a30" fill-rule="evenodd" d="M1503.9,1086.43c68.85-4.54,118.79-51.32,156.04-105.91l24.17-35.43l10.64-8.66l6.74,23.08l15.62,12.96
			c139.73,115.89,290.9,255.03,254.26,455.36c-5.31,29.07-32.77,58.2-15.42,83.56l6.51,9.52l-11.95,6.27l-15.17,6.99
			c-27.91,12.84-53.2,15.49-81.6,23.67c-195.68,56.43-349.19-80.12-478.43-207.6l-30.53-30.11l32.85-27.58
			c50.6-42.5,92.17-96.86,89.82-165.81l-1.28-37.8l9.72-7.39l10.67,6.05L1503.9,1086.43L1503.9,1086.43z M1506.47,1125.39
			c2.42,71.25-32.16,136.92-103.74,197.04c132.81,131,269.15,247.2,440.19,197.89c24.59-7.09,49.97-9.61,76.1-21.63
			c9.36-27.21,9.33-52.71,13.94-77.88c32.02-175.11-97.2-299.19-240.78-418.28C1639.51,1079.74,1577.59,1120.7,1506.47,1125.39z" clip-rule="evenodd"></path>
    </g>
    <g>
      <path fill="#8bbae9" fill-rule="evenodd" d="M1517.37,1118.49c2.42,71.25-32.16,136.92-103.74,197.04c132.81,131,269.15,247.2,440.19,197.89
			c24.59-7.09,49.96-9.61,76.1-21.63c9.36-27.21,9.34-52.71,13.95-77.88c32.01-175.11-97.2-299.19-240.78-418.28
			C1650.4,1072.84,1588.49,1113.8,1517.37,1118.49z" clip-rule="evenodd"></path>
    </g>
    <g>
      <g>
        <path fill="#ffe2dc" fill-rule="evenodd" d="M1580.2,1458.33l140.79-155.59l-203.62-184.25c2.42,71.25-32.16,136.92-103.74,197.04
				C1467.86,1369.02,1522.67,1420.03,1580.2,1458.33z" clip-rule="evenodd"></path>
      </g>
      <g>
        <path fill="#fbbfa8" fill-rule="evenodd" d="M1517.37,1118.49l203.62,184.25l140.79-155.6c-43.84-53.43-100.07-102.89-158.7-151.5
				C1650.4,1072.84,1588.49,1113.8,1517.37,1118.49z" clip-rule="evenodd"></path>
      </g>
      <g>
        <path fill="#fbbfa8" fill-rule="evenodd" d="M1861.78,1147.13l-140.79,155.6l208.93,189.05c9.36-27.21,9.34-52.71,13.95-77.88
				C1962.81,1310.29,1925.3,1224.55,1861.78,1147.13z" clip-rule="evenodd"></path>
      </g>
      <g>
        <path fill="#ffe2dc" fill-rule="evenodd" d="M1929.92,1491.79l-208.93-189.05l-140.79,155.59c83.36,55.5,172.42,84.26,273.63,55.09
				C1878.41,1506.32,1903.78,1503.81,1929.92,1491.79z" clip-rule="evenodd"></path>
      </g>
      <g opacity=".17">
        <path fill="#d2e5f7" fill-rule="evenodd" d="M1579.12,1434.28c-52.75-35.13-103.24-80.96-153.08-129.57c-2.42,2.19-4.89,4.37-7.41,6.55
				c52.67,51.78,105.97,100.95,161.82,138.12l8.11-8.96C1585.41,1438.42,1582.26,1436.36,1579.12,1434.28z" clip-rule="evenodd"></path>
      </g>
      <g opacity=".17">
        <path fill="#d2e5f7" fill-rule="evenodd" d="M1708.43,1291.36l-129.31,142.92c3.14,2.08,6.29,4.14,9.44,6.15l128.12-141.59L1708.43,1291.36z" clip-rule="evenodd"></path>
      </g>
      <g opacity=".17">
        <path fill="#d2e5f7" fill-rule="evenodd" d="M1526.6,1117.67l186.39,168.65l6.92-7.65l-180.07-162.93C1535.47,1116.54,1531.05,1117.18,1526.6,1117.67z" clip-rule="evenodd"></path>
      </g>
      <g opacity=".17">
        <rect width="10.31" height="11.13" x="1715.42" y="1280.67" fill="#d2e5f7" fill-rule="evenodd" clip-rule="evenodd" transform="rotate(-47.848 1720.598 1286.17)"></rect>
      </g>
      <g opacity=".17">
        <path fill="#d2e5f7" fill-rule="evenodd" d="M1852.75,1489.36c-95.39,27.5-179.99,3.53-259.2-45.79l-8.18,9.05c81.95,53.37,169.49,80.46,268.72,51.85
				c22.43-6.47,45.51-9.13,69.23-18.67l-12.31-11.14C1891.13,1481.15,1871.71,1483.89,1852.75,1489.36z" clip-rule="evenodd"></path>
      </g>
      <g opacity=".17">
        <path fill="#d2e5f7" fill-rule="evenodd" d="M1725.55,1297.69l192.77,174.42c3.5-1.31,7-2.76,10.53-4.38l-196.37-177.69L1725.55,1297.69z" clip-rule="evenodd"></path>
      </g>
      <g opacity=".17">
        <path fill="#d2e5f7" fill-rule="evenodd" d="M1928.85,1467.73c-3.53,1.62-7.03,3.07-10.53,4.38l11.86,10.73c9.36-27.21,9.33-52.7,13.94-77.87
				c2.54-13.88,4.06-27.43,4.65-40.67c0.11-9.46-0.25-18.76-1.06-27.92c0.02,17.3-1.56,35.11-4.92,53.47
				C1938.18,1415.02,1938.21,1440.52,1928.85,1467.73z" clip-rule="evenodd"></path>
      </g>
    </g>
    <g>
      <path fill="#f57a44" fill-rule="evenodd" d="M1514.8,1079.53c68.85-4.55,118.79-51.32,156.04-105.91l24.17-35.43l33.01,27.39
			c139.73,115.89,290.9,255.03,254.26,455.36c-5.31,29.07-5.43,54.5-15.42,83.56l-5.44,15.79l-15.17,6.99
			c-27.91,12.84-53.2,15.49-81.6,23.67c-195.68,56.43-349.2-80.13-478.43-207.6l-30.53-30.12l32.84-27.58
			c50.6-42.49,92.18-96.85,89.83-165.8l-1.28-37.8L1514.8,1079.53L1514.8,1079.53z M1517.37,1118.49
			c2.42,71.25-32.16,136.92-103.74,197.04c132.81,131,269.15,247.2,440.19,197.89c24.59-7.09,49.96-9.61,76.1-21.63
			c9.36-27.21,9.34-52.71,13.95-77.88c32.01-175.11-97.2-299.19-240.78-418.28C1650.4,1072.84,1588.49,1113.8,1517.37,1118.49z" clip-rule="evenodd"></path>
    </g>
    <g opacity=".1">
      <path fill="#e6e6e6" fill-rule="evenodd" d="M1514.8,1079.53c68.85-4.55,118.79-51.32,156.04-105.91l24.17-35.43l33.01,27.39
			c134.85,111.84,280.35,245.35,257.39,434.63c15.27-182.73-126.77-312.84-258.65-422.21l-33.01-27.39l-24.18,35.44
			c-37.24,54.58-87.19,101.37-156.03,105.91l-36.06,2.37l-0.42-12.31L1514.8,1079.53L1514.8,1079.53z M1361.89,1319.34l-6.22-6.14
			l32.84-27.58c43.56-36.58,80.42-81.95,88.35-137.85c-3.84,61.64-42.88,111.02-89.61,150.28L1361.89,1319.34L1361.89,1319.34z
			 M1517.41,1130.81l-1.3,0.1c0.23,7.07,0.1,14.08-0.38,21.05C1516.66,1144.97,1517.22,1137.92,1517.41,1130.81L1517.41,1130.81z
			 M1419.78,1321.58c-2.42,2.13-4.89,4.25-7.41,6.37c132.81,131,269.15,247.19,440.19,197.89c24.59-7.09,49.96-9.61,76.1-21.64
			c9.36-27.21,9.33-52.71,13.94-77.88c1.87-10.23,3.17-20.27,3.96-30.16c-0.72,5.85-1.6,11.77-2.7,17.74
			c-4.61,25.17-4.58,50.67-13.95,77.88c-26.14,12.02-51.51,14.54-76.1,21.63C1685.42,1561.96,1550.65,1450.07,1419.78,1321.58z" clip-rule="evenodd"></path>
    </g>
    <g>
      <path fill="#f06a30" fill-rule="evenodd" d="M1514.72,1078.34c34.17-2.25,63.65-15,89.23-33.96c25.63-19.01,47.34-44.25,65.89-71.43l24.17-35.44
			l0.73-1.08l1.01,0.84l33.01,27.38c69.93,58,142.73,121.82,193.49,196.26c50.83,74.55,79.56,159.7,61.19,260.23
			c-1.76,9.62-2.96,18.97-4.14,28.16c-2.35,18.32-4.64,36.11-11.34,55.57l-5.43,15.78l-0.17,0.48l-0.46,0.22l-15.16,6.99
			c-18.7,8.6-36.17,12.64-54.17,16.81c-9.03,2.09-18.2,4.21-27.61,6.93c-98.19,28.31-185.78,8.21-265.03-34.95
			c-79.14-43.09-149.89-109.16-214.57-172.96l-30.54-30.11l-0.93-0.92l1-0.84l32.85-27.58c25.21-21.18,48.16-45.29,64.51-72.69
			c16.32-27.34,26.06-57.95,24.9-92.18l-1.28-37.79l-0.04-1.16l1.15-0.08L1514.72,1078.34L1514.72,1078.34z M1605.38,1046.3
			c-25.92,19.21-55.82,32.14-90.51,34.42l-36.58,2.41l1.24,36.64c1.18,34.73-8.69,65.79-25.23,93.48
			c-16.5,27.64-39.63,51.96-65.02,73.28l-31.85,26.75l29.6,29.2c64.56,63.67,135.17,129.62,214.04,172.56
			c78.73,42.89,165.74,62.86,263.23,34.75c9.59-2.76,18.73-4.88,27.73-6.96c17.88-4.14,35.25-8.16,53.71-16.66l14.71-6.76
			l5.27-15.31c6.61-19.21,8.88-36.89,11.22-55.11c1.18-9.16,2.36-18.47,4.17-28.28c18.25-99.8-10.3-184.39-60.82-258.46
			c-50.59-74.18-123.24-137.88-193.03-195.77l-32.01-26.55l-23.43,34.35C1653.13,1001.68,1631.24,1027.13,1605.38,1046.3
			L1605.38,1046.3z M1518.6,1119.6c1.01,35.41-7.09,69.46-24.3,102.14c-17.2,32.67-43.51,63.96-78.9,93.85
			c66.03,65.1,132.96,126.44,204.55,165.44c71.81,39.13,148.36,55.79,233.54,31.24c8.29-2.39,16.7-4.27,25.19-6.17l0,0
			c16.44-3.68,33.22-7.42,50.28-15.2c6.04-17.74,8.09-34.81,10.11-51.53l0,0c1.04-8.64,2.08-17.2,3.62-25.69
			c15.95-87.2-8.27-161.71-54.35-229.26c-45.94-67.35-113.65-127.82-185.01-187.05c-26.23,38.2-54.74,67.49-85.53,87.87
			C1587,1105.62,1553.93,1117.08,1518.6,1119.6L1518.6,1119.6z M1492.2,1220.63c-17.22,32.69-43.67,64.02-79.34,93.99l-1,0.84
			l0.93,0.91c66.46,65.56,133.82,127.43,206.03,166.77c72.32,39.4,149.46,56.18,235.33,31.42c8.29-2.39,16.63-4.25,25.06-6.14v0.01
			c16.72-3.73,33.77-7.54,51.21-15.57l0.46-0.22l0.17-0.48c6.24-18.16,8.33-35.5,10.38-52.5v-0.01c1.03-8.57,2.06-17.06,3.6-25.54
			c16.07-87.91-8.3-162.99-54.73-231.03c-46.33-67.92-114.6-128.78-186.46-188.38l-1.01-0.83l-0.73,1.07
			c-26.25,38.48-54.8,67.93-85.62,88.31c-30.77,20.36-63.83,31.72-99.19,34.04l-1.16,0.08l0.05,1.16
			C1517.38,1153.94,1509.38,1187.97,1492.2,1220.63z" clip-rule="evenodd"></path>
    </g>
    <g>
      <g>
        <path fill="#f06a30" fill-rule="evenodd" d="M1660.65,1300.57l48.9-54.05c-7.08-6.4-14.15-12.8-21.23-19.2c-7.42-6.72-16.93-9.79-26.26-9.33
				c-9.34,0.47-18.49,4.47-25.21,11.9c-6.71,7.42-9.79,16.93-9.32,26.27c0.46,9.33,4.47,18.49,11.89,25.2L1660.65,1300.57
				L1660.65,1300.57z M1721.12,1233.72l0.2,0.18c6.85-5.38,16.87-5.22,23.54,0.82l62.69,56.72c7.45,6.74,8.03,18.35,1.29,25.79
				l-67.92,75.07c-6.74,7.45-18.35,8.02-25.8,1.28l-62.68-56.72c-6.68-6.03-7.84-15.98-3.17-23.34l-21.41-19.38
				c-10.97-9.91-16.87-23.4-17.56-37.13c-0.68-13.74,3.85-27.75,13.77-38.7c9.91-10.95,23.39-16.86,37.14-17.54
				c13.74-0.69,27.74,3.85,38.7,13.76C1706.97,1220.92,1714.05,1227.32,1721.12,1233.72z" clip-rule="evenodd"></path>
      </g>
      <g>
        <path fill="#eff9fc" fill-rule="evenodd" d="M1704.39,1291c7.21-7.98,19.53-8.59,27.5-1.38c6.48,5.86,8.1,15.09,4.6,22.62l17.45,15.79
				c2.36,2.13,2.54,5.81,0.41,8.17l0,0c-2.13,2.36-5.81,2.54-8.17,0.42l-17.45-15.79c-7.14,4.23-16.49,3.54-22.96-2.33
				C1697.79,1311.28,1697.18,1298.96,1704.39,1291z" clip-rule="evenodd"></path>
      </g>
    </g>
    <g>
      <polygon fill="#f06a30" fill-rule="evenodd" points="1589.31 1168.94 1609.13 1177.82 1587.87 1182.29 1585.55 1203.88 1585.55 1203.88 1574.74 1185.04 1553.51 1189.5 1553.49 1189.51 1568.06 1173.41 1557.31 1154.68 1557.26 1154.59 1557.25 1154.57 1557.28 1154.59 1577.07 1163.45 1591.63 1147.35" clip-rule="evenodd"></polygon>
    </g>
    <g>
      <polygon fill="#f06a30" fill-rule="evenodd" points="1660.53 1129.63 1673.25 1147.22 1652.61 1140.48 1639.81 1158 1639.81 1158 1639.85 1136.29 1619.24 1129.54 1619.22 1129.53 1639.89 1122.87 1639.94 1101.28 1639.94 1101.18 1639.94 1101.15 1639.96 1101.18 1652.67 1118.76 1673.33 1112.1" clip-rule="evenodd"></polygon>
    </g>
    <g>
      <polygon fill="#f06a30" fill-rule="evenodd" points="1741.86 1131.2 1744.08 1152.8 1729.58 1136.63 1709.72 1145.41 1709.72 1145.41 1720.63 1126.63 1706.15 1110.47 1706.13 1110.46 1727.36 1115.02 1738.2 1096.36 1738.26 1096.27 1738.27 1096.24 1738.27 1096.28 1740.48 1117.85 1761.72 1122.41" clip-rule="evenodd"></polygon>
    </g>
    <g>
      <polygon fill="#f06a30" fill-rule="evenodd" points="1811.51 1173.22 1802.63 1193.03 1798.16 1171.79 1776.57 1169.45 1776.57 1169.45 1795.41 1158.64 1790.94 1137.41 1790.94 1137.39 1807.04 1151.97 1825.77 1141.22 1825.85 1141.16 1825.87 1141.15 1825.86 1141.18 1816.99 1160.97 1833.09 1175.54" clip-rule="evenodd"></polygon>
    </g>
    <g>
      <polygon fill="#f06a30" fill-rule="evenodd" points="1850.82 1244.43 1833.22 1257.15 1839.97 1236.51 1822.44 1223.71 1822.44 1223.71 1844.16 1223.77 1850.91 1203.14 1850.92 1203.13 1857.57 1223.8 1879.17 1223.84 1879.27 1223.85 1879.29 1223.84 1879.27 1223.87 1861.7 1236.57 1868.35 1257.24" clip-rule="evenodd"></polygon>
    </g>
    <g>
      <polygon fill="#f06a30" fill-rule="evenodd" points="1849.25 1325.77 1827.65 1327.98 1843.82 1313.48 1835.05 1293.63 1835.05 1293.63 1853.82 1304.53 1869.98 1290.05 1869.99 1290.04 1865.42 1311.27 1884.09 1322.11 1884.18 1322.16 1884.2 1322.17 1884.17 1322.17 1862.6 1324.39 1858.04 1345.62" clip-rule="evenodd"></polygon>
    </g>
    <g>
      <polygon fill="#f06a30" fill-rule="evenodd" points="1807.23 1395.42 1787.42 1386.54 1808.66 1382.07 1810.99 1360.48 1810.99 1360.48 1821.8 1379.32 1843.04 1374.86 1843.05 1374.85 1828.48 1390.95 1839.23 1409.67 1839.29 1409.76 1839.3 1409.77 1839.27 1409.76 1819.48 1400.89 1804.91 1417" clip-rule="evenodd"></polygon>
    </g>
    <g>
      <polygon fill="#f06a30" fill-rule="evenodd" points="1736.01 1434.72 1723.3 1417.13 1743.94 1423.88 1756.74 1406.34 1756.74 1406.34 1756.68 1428.07 1777.31 1434.81 1777.32 1434.82 1756.65 1441.48 1756.6 1463.07 1756.6 1463.17 1756.6 1463.19 1756.58 1463.17 1743.88 1445.6 1723.21 1452.25" clip-rule="evenodd"></polygon>
    </g>
    <g>
      <polygon fill="#f06a30" fill-rule="evenodd" points="1654.68 1433.15 1652.47 1411.56 1666.96 1427.72 1686.81 1418.95 1686.81 1418.95 1675.92 1437.73 1690.4 1453.89 1690.4 1453.89 1669.18 1449.33 1658.34 1468 1658.29 1468.09 1658.28 1468.11 1658.27 1468.08 1656.06 1446.5 1634.83 1441.94" clip-rule="evenodd"></polygon>
    </g>
    <g>
      <polygon fill="#f06a30" fill-rule="evenodd" points="1585.03 1391.14 1593.91 1371.32 1598.38 1392.57 1619.97 1394.9 1619.97 1394.9 1601.13 1405.7 1605.59 1426.94 1605.6 1426.96 1589.5 1412.39 1570.78 1423.13 1570.68 1423.19 1570.67 1423.2 1570.68 1423.17 1579.55 1403.38 1563.44 1388.82" clip-rule="evenodd"></polygon>
    </g>
    <g>
      <polygon fill="#f06a30" fill-rule="evenodd" points="1545.72 1319.92 1563.32 1307.2 1556.56 1327.84 1574.1 1340.64 1574.1 1340.64 1552.38 1340.59 1545.63 1361.21 1545.63 1361.22 1538.97 1340.56 1517.38 1340.5 1517.28 1340.5 1517.25 1340.5 1517.28 1340.48 1534.85 1327.78 1528.2 1307.12" clip-rule="evenodd"></polygon>
    </g>
    <g>
      <polygon fill="#f06a30" fill-rule="evenodd" points="1547.29 1238.59 1568.89 1236.37 1552.72 1250.86 1561.5 1270.73 1561.5 1270.73 1542.72 1259.82 1526.56 1274.3 1526.55 1274.31 1531.12 1253.09 1512.45 1242.25 1512.35 1242.19 1512.34 1242.18 1512.37 1242.18 1533.95 1239.97 1538.51 1218.73" clip-rule="evenodd"></polygon>
    </g>
  </g>
  <g>
    <path fill="#71afed" fill-rule="evenodd" d="M1911.74,998.2c-6.21-24.5-24.83-46.64-32.66-55.25c-2.04-2.23-5.03-3.9-5.03-3.9l-30.4,110.83l22.15,130.71
		c0,0-10.85,66.38-20.51,111.94c12.49,0.07,25.16,11.4,36.74,7.01c44.27-16.8,37.56-110.45,37.56-110.45
		S1919.58,1029.11,1911.74,998.2z" clip-rule="evenodd"></path>
  </g>
  <g>
    <path fill="#ffb27d" fill-rule="evenodd" d="M1834.37,1341.62c2.27-5.22,5.37-15.97,8.68-28.86c9.75,0.46,20.29,1.46,28.41,6.68
		c-1.15,3.07-10.82,28.71-10.97,31.71c-2.69,63.15-10.04,44.16-21.36,48.36c-3.88,1.44-9.95-0.23-11.77-2.31
		c-1.83-2.1-13.54-0.98-13.48-2.19c0.06-1.2-4.36-9.83,0.71-16.66c5.08-6.81-13.47,6.67-13.24,1.24
		C1801.61,1373.65,1829.8,1352.11,1834.37,1341.62z" clip-rule="evenodd"></path>
  </g>
  <g>
    <path fill="#71afed" fill-rule="evenodd" d="M1835.72,1329.97c12.32-0.61,23.58,3.01,34.41,8.3c1.36-5.93,5.96-20.69,11.89-38.73
		c-10.67-6.24-24.25-6.94-36.74-7.01C1841.75,1309.24,1838.35,1323.16,1835.72,1329.97z" clip-rule="evenodd"></path>
  </g>
  <g>
    <g>
      <path fill="#81aef7" fill-rule="evenodd" d="M468.3,790.58c11.26,0,22,1.84,31.83,5.17c-1.05-5.16-1.6-10.47-1.6-15.91c0-46.75,40.61-84.64,90.69-84.64
			c8.88,0,17.46,1.2,25.58,3.41c12.67-59.82,67.98-104.85,134.3-104.85c75.69,0,137.04,58.65,137.04,131
			c0,12.44-1.81,24.46-5.19,35.86c49.52,3.35,88.5,38.14,88.5,83.04c0,44.9-42.93,80.62-69.34,88.01c-3.96,1.1-9.36,1.04-15.71,0
			H708.96v-61.69h57.64l-97.9-97.9l-97.9,97.9h57.65v61.69H468.3c-46.75,0-84.65-31.58-84.65-70.54
			C383.65,822.16,421.55,790.58,468.3,790.58z" clip-rule="evenodd"></path>
    </g>
    <g opacity=".17">
      <path fill="#fff" fill-rule="evenodd" d="M912.64,785.42c16.67,14.83,26.93,35.2,26.93,58.23c0,23.59-11.85,44.64-26.93,60.38
			c-13.62,14.22-29.89,24.12-42.41,27.62h14.17c6.35,1.04,11.75,1.1,15.71,0c3.88-1.09,8.13-2.79,12.54-5.04
			c25.57-13.05,56.8-44.66,56.8-82.96c0-34.73-23.32-63.41-56.8-76.18c-9.8-3.73-20.48-6.11-31.7-6.86
			c3.39-11.4,5.19-23.43,5.19-35.86c0-72.35-61.36-131-137.04-131c-5.04,0-10.03,0.26-14.94,0.77
			c68.66,7.12,122.11,62.71,122.11,130.22c0,8.84-0.91,17.47-2.66,25.82c-0.72,3.4-1.56,6.74-2.54,10.04
			C875.18,762.24,896.8,771.33,912.64,785.42z" clip-rule="evenodd"></path>
    </g>
    <g>
      <path fill="#4a75cb" fill-rule="evenodd" d="M464.05,790.58c0.72,0,1.43,0.01,2.16,0.02c-45.78,0.93-82.56,32.15-82.56,70.52
			c0,38.96,37.9,70.54,84.65,70.54h-4.25c-46.75,0-84.65-31.58-84.65-70.54C379.4,822.16,417.3,790.58,464.05,790.58L464.05,790.58z
			 M495.61,794.33c-0.86-4.71-1.33-9.55-1.33-14.5c0-46.75,40.6-84.64,90.68-84.64c0.73,0,1.46,0.01,2.19,0.02
			c-49.13,1.03-88.62,38.52-88.62,84.62c0,5.44,0.56,10.76,1.6,15.91C498.64,795.24,497.14,794.77,495.61,794.33L495.61,794.33z
			 M610.76,697.6c13.08-59.31,68.14-103.85,134.09-103.85c0.66,0,1.32,0.02,1.98,0.03c-65.3,1.02-119.5,45.7-132.03,104.83
			C613.45,698.24,612.11,697.91,610.76,697.6L610.76,697.6z M891.06,932.4c-3.16,0.19-6.84-0.07-10.92-0.74h4.25
			C886.76,932.04,888.98,932.29,891.06,932.4L891.06,932.4z M708.96,931.65h-4.25v-61.69h4.25V931.65L708.96,931.65z M762.35,869.96
			h4.25l-97.9-97.9l-2.13,2.13L762.35,869.96z" clip-rule="evenodd"></path>
    </g>
  </g>
</svg>
