<svg xmlns="http://www.w3.org/2000/svg" enable-background="new 0 0 2500 2500" viewBox="0 0 2500 2500" id="management-information-system">
  <g>
    <g>
      <path fill="#f1f5fb" fill-rule="evenodd" d="M1304.62,1803.09c-214.09,0-411.1,3.2-567.45,8.57c-382.62-218.7-250.13-644.99-112.75-886.12
			c191.19-335.59,642.99-456.21,829.86-188.46c253.66,363.44,498.35,236.61,630.47,512.63c132.13,276.01-68.53,540.62-212.68,561.95
			C1715.73,1806.29,1518.71,1803.09,1304.62,1803.09z" clip-rule="evenodd"></path>
    </g>
    <g>
      <path fill="#e8effa" fill-rule="evenodd" d="M1304.62,1803.09c-508.31,0-920.37,18.04-920.37,40.31c0,22.26,412.07,40.32,920.37,40.32
			c508.31,0,920.38-18.06,920.38-40.32C2225,1821.13,1812.93,1803.09,1304.62,1803.09z" clip-rule="evenodd"></path>
    </g>
  </g>
  <g>
    <g>
      <rect width="686.65" height="277.2" x="1264.6" y="681.32" fill="#1e77d1" fill-rule="evenodd" clip-rule="evenodd"></rect>
    </g>
    <g>
      <rect width="1041.58" height="253.83" x="1087.13" y="681.32" fill="#4f8ecc" fill-rule="evenodd" clip-rule="evenodd"></rect>
    </g>
    <g>
      <path fill="#87bef5" fill-rule="evenodd" d="M1123.18,697.76h969.5c9.82,0,17.87,8.57,17.87,19.04v182.87c0,10.47-8.04,19.04-17.87,19.04h-969.5
			c-9.83,0-17.88-8.57-17.88-19.04V716.8C1105.3,706.33,1113.35,697.76,1123.18,697.76z" clip-rule="evenodd"></path>
    </g>
    <g>
      <path fill="#eee5f4" fill-rule="evenodd" d="M1166.99,754.41c12.11,0,21.93,9.81,21.93,21.93c0,12.1-9.82,21.92-21.93,21.92
			c-12.1,0-21.92-9.82-21.92-21.92C1145.07,764.22,1154.89,754.41,1166.99,754.41L1166.99,754.41z M1166.99,818.23
			c12.11,0,21.93,9.82,21.93,21.92c0,12.11-9.82,21.93-21.93,21.93c-12.1,0-21.92-9.82-21.92-21.93
			C1145.07,828.04,1154.89,818.23,1166.99,818.23L1166.99,818.23z M1395.46,818.23c12.1,0,21.92,9.82,21.92,21.92
			c0,12.11-9.82,21.93-21.92,21.93c-12.11,0-21.93-9.82-21.93-21.93C1373.53,828.04,1383.35,818.23,1395.46,818.23L1395.46,818.23z
			 M1319.31,818.23c12.1,0,21.92,9.82,21.92,21.92c0,12.11-9.82,21.93-21.92,21.93c-12.11,0-21.93-9.82-21.93-21.93
			C1297.38,828.04,1307.19,818.23,1319.31,818.23L1319.31,818.23z M1243.14,818.23c12.11,0,21.93,9.82,21.93,21.92
			c0,12.11-9.82,21.93-21.93,21.93c-12.1,0-21.92-9.82-21.92-21.93C1221.22,828.04,1231.04,818.23,1243.14,818.23L1243.14,818.23z
			 M1395.46,754.41c12.1,0,21.92,9.81,21.92,21.93c0,12.1-9.82,21.92-21.92,21.92c-12.11,0-21.93-9.82-21.93-21.92
			C1373.53,764.22,1383.35,754.41,1395.46,754.41L1395.46,754.41z M1319.31,754.41c12.1,0,21.92,9.81,21.92,21.93
			c0,12.1-9.82,21.92-21.92,21.92c-12.11,0-21.93-9.82-21.93-21.92C1297.38,764.22,1307.19,754.41,1319.31,754.41L1319.31,754.41z
			 M1243.14,754.41c12.11,0,21.93,9.81,21.93,21.93c0,12.1-9.82,21.92-21.93,21.92c-12.1,0-21.92-9.82-21.92-21.92
			C1221.22,764.22,1231.04,754.41,1243.14,754.41z" clip-rule="evenodd"></path>
    </g>
    <g>
      <rect width="29.58" height="146.83" x="1490.05" y="734.13" fill="#4f8ecc" fill-rule="evenodd" clip-rule="evenodd"></rect>
    </g>
    <g>
      <rect width="29.57" height="146.83" x="1541.82" y="734.13" fill="#eee5f4" fill-rule="evenodd" clip-rule="evenodd"></rect>
    </g>
    <g>
      <rect width="29.57" height="146.83" x="1593.58" y="734.13" fill="#4f8ecc" fill-rule="evenodd" clip-rule="evenodd"></rect>
    </g>
    <g>
      <rect width="29.58" height="146.83" x="1645.34" y="734.13" fill="#eee5f4" fill-rule="evenodd" clip-rule="evenodd"></rect>
    </g>
    <g>
      <rect width="29.58" height="146.83" x="1697.1" y="734.13" fill="#4f8ecc" fill-rule="evenodd" clip-rule="evenodd"></rect>
    </g>
    <g>
      <rect width="29.57" height="146.83" x="1748.87" y="734.13" fill="#eee5f4" fill-rule="evenodd" clip-rule="evenodd"></rect>
    </g>
    <g>
      <rect width="29.58" height="146.83" x="1800.63" y="734.13" fill="#4f8ecc" fill-rule="evenodd" clip-rule="evenodd"></rect>
    </g>
    <g>
      <rect width="29.58" height="146.83" x="1852.39" y="734.13" fill="#eee5f4" fill-rule="evenodd" clip-rule="evenodd"></rect>
    </g>
    <g>
      <rect width="29.57" height="146.83" x="1904.16" y="734.13" fill="#4f8ecc" fill-rule="evenodd" clip-rule="evenodd"></rect>
    </g>
    <g>
      <rect width="29.58" height="146.83" x="1955.92" y="734.13" fill="#eee5f4" fill-rule="evenodd" clip-rule="evenodd"></rect>
    </g>
    <g>
      <rect width="29.58" height="146.83" x="2007.68" y="734.13" fill="#4f8ecc" fill-rule="evenodd" clip-rule="evenodd"></rect>
    </g>
    <g>
      <rect width="686.65" height="277.2" x="1264.6" y="958.52" fill="#1e77d1" fill-rule="evenodd" clip-rule="evenodd"></rect>
    </g>
    <g>
      <rect width="1041.58" height="253.83" x="1087.13" y="958.52" fill="#4f8ecc" fill-rule="evenodd" clip-rule="evenodd"></rect>
    </g>
    <g>
      <path fill="#87bef5" fill-rule="evenodd" d="M1123.18,974.96h969.5c9.82,0,17.87,8.58,17.87,19.05v182.86c0,10.48-8.04,19.06-17.87,19.06h-969.5
			c-9.83,0-17.88-8.57-17.88-19.06V994.01C1105.3,983.53,1113.35,974.96,1123.18,974.96z" clip-rule="evenodd"></path>
    </g>
    <g>
      <path fill="#eee5f4" fill-rule="evenodd" d="M1166.99,1031.6c12.11,0,21.93,9.82,21.93,21.93c0,12.1-9.82,21.92-21.93,21.92
			c-12.1,0-21.92-9.82-21.92-21.92C1145.07,1041.42,1154.89,1031.6,1166.99,1031.6L1166.99,1031.6z M1166.99,1095.43
			c12.11,0,21.93,9.81,21.93,21.92c0,12.11-9.82,21.91-21.93,21.91c-12.1,0-21.92-9.8-21.92-21.91
			C1145.07,1105.24,1154.89,1095.43,1166.99,1095.43L1166.99,1095.43z M1395.46,1095.43c12.1,0,21.92,9.81,21.92,21.92
			c0,12.11-9.82,21.91-21.92,21.91c-12.11,0-21.93-9.8-21.93-21.91C1373.53,1105.24,1383.35,1095.43,1395.46,1095.43
			L1395.46,1095.43z M1319.31,1095.43c12.1,0,21.92,9.81,21.92,21.92c0,12.11-9.82,21.91-21.92,21.91
			c-12.11,0-21.93-9.8-21.93-21.91C1297.38,1105.24,1307.19,1095.43,1319.31,1095.43L1319.31,1095.43z M1243.14,1095.43
			c12.11,0,21.93,9.81,21.93,21.92c0,12.11-9.82,21.91-21.93,21.91c-12.1,0-21.92-9.8-21.92-21.91
			C1221.22,1105.24,1231.04,1095.43,1243.14,1095.43L1243.14,1095.43z M1395.46,1031.6c12.1,0,21.92,9.82,21.92,21.93
			c0,12.1-9.82,21.92-21.92,21.92c-12.11,0-21.93-9.82-21.93-21.92C1373.53,1041.42,1383.35,1031.6,1395.46,1031.6L1395.46,1031.6z
			 M1319.31,1031.6c12.1,0,21.92,9.82,21.92,21.93c0,12.1-9.82,21.92-21.92,21.92c-12.11,0-21.93-9.82-21.93-21.92
			C1297.38,1041.42,1307.19,1031.6,1319.31,1031.6L1319.31,1031.6z M1243.14,1031.6c12.11,0,21.93,9.82,21.93,21.93
			c0,12.1-9.82,21.92-21.93,21.92c-12.1,0-21.92-9.82-21.92-21.92C1221.22,1041.42,1231.04,1031.6,1243.14,1031.6z" clip-rule="evenodd"></path>
    </g>
    <g>
      <rect width="29.58" height="146.84" x="1490.05" y="1011.32" fill="#4f8ecc" fill-rule="evenodd" clip-rule="evenodd"></rect>
    </g>
    <g>
      <rect width="29.57" height="146.84" x="1541.82" y="1011.32" fill="#eee5f4" fill-rule="evenodd" clip-rule="evenodd"></rect>
    </g>
    <g>
      <rect width="29.57" height="146.84" x="1593.58" y="1011.32" fill="#4f8ecc" fill-rule="evenodd" clip-rule="evenodd"></rect>
    </g>
    <g>
      <rect width="29.58" height="146.84" x="1645.34" y="1011.32" fill="#eee5f4" fill-rule="evenodd" clip-rule="evenodd"></rect>
    </g>
    <g>
      <rect width="29.58" height="146.84" x="1697.1" y="1011.32" fill="#4f8ecc" fill-rule="evenodd" clip-rule="evenodd"></rect>
    </g>
    <g>
      <rect width="29.57" height="146.84" x="1748.87" y="1011.32" fill="#eee5f4" fill-rule="evenodd" clip-rule="evenodd"></rect>
    </g>
    <g>
      <rect width="29.58" height="146.84" x="1800.63" y="1011.32" fill="#4f8ecc" fill-rule="evenodd" clip-rule="evenodd"></rect>
    </g>
    <g>
      <rect width="29.58" height="146.84" x="1852.39" y="1011.32" fill="#eee5f4" fill-rule="evenodd" clip-rule="evenodd"></rect>
    </g>
    <g>
      <rect width="29.57" height="146.84" x="1904.16" y="1011.32" fill="#4f8ecc" fill-rule="evenodd" clip-rule="evenodd"></rect>
    </g>
    <g>
      <rect width="29.58" height="146.84" x="1955.92" y="1011.32" fill="#eee5f4" fill-rule="evenodd" clip-rule="evenodd"></rect>
    </g>
    <g>
      <rect width="29.58" height="146.84" x="2007.68" y="1011.32" fill="#4f8ecc" fill-rule="evenodd" clip-rule="evenodd"></rect>
    </g>
    <g>
      <rect width="686.65" height="277.19" x="1264.6" y="1235.72" fill="#1e77d1" fill-rule="evenodd" clip-rule="evenodd"></rect>
    </g>
    <g>
      <rect width="1041.58" height="253.83" x="1087.13" y="1235.72" fill="#4f8ecc" fill-rule="evenodd" clip-rule="evenodd"></rect>
    </g>
    <g>
      <path fill="#87bef5" fill-rule="evenodd" d="M1123.18,1252.15h969.5c9.82,0,17.87,8.57,17.87,19.06v182.86c0,10.48-8.04,19.06-17.87,19.06h-969.5
			c-9.83,0-17.88-8.58-17.88-19.06V1271.2C1105.3,1260.72,1113.35,1252.15,1123.18,1252.15z" clip-rule="evenodd"></path>
    </g>
    <g>
      <path fill="#eee5f4" fill-rule="evenodd" d="M1166.99,1308.81c12.11,0,21.93,9.81,21.93,21.92c0,12.11-9.82,21.93-21.93,21.93
			c-12.1,0-21.92-9.81-21.92-21.93C1145.07,1318.62,1154.89,1308.81,1166.99,1308.81L1166.99,1308.81z M1166.99,1372.63
			c12.11,0,21.93,9.81,21.93,21.92c0,12.1-9.82,21.92-21.93,21.92c-12.1,0-21.92-9.82-21.92-21.92
			C1145.07,1382.43,1154.89,1372.63,1166.99,1372.63L1166.99,1372.63z M1395.46,1372.63c12.1,0,21.92,9.81,21.92,21.92
			c0,12.1-9.82,21.92-21.92,21.92c-12.11,0-21.93-9.82-21.93-21.92C1373.53,1382.43,1383.35,1372.63,1395.46,1372.63
			L1395.46,1372.63z M1319.31,1372.63c12.1,0,21.92,9.81,21.92,21.92c0,12.1-9.82,21.92-21.92,21.92
			c-12.11,0-21.93-9.82-21.93-21.92C1297.38,1382.43,1307.19,1372.63,1319.31,1372.63L1319.31,1372.63z M1243.14,1372.63
			c12.11,0,21.93,9.81,21.93,21.92c0,12.1-9.82,21.92-21.93,21.92c-12.1,0-21.92-9.82-21.92-21.92
			C1221.22,1382.43,1231.04,1372.63,1243.14,1372.63L1243.14,1372.63z M1395.46,1308.81c12.1,0,21.92,9.81,21.92,21.92
			c0,12.11-9.82,21.93-21.92,21.93c-12.11,0-21.93-9.81-21.93-21.93C1373.53,1318.62,1383.35,1308.81,1395.46,1308.81
			L1395.46,1308.81z M1319.31,1308.81c12.1,0,21.92,9.81,21.92,21.92c0,12.11-9.82,21.93-21.92,21.93
			c-12.11,0-21.93-9.81-21.93-21.93C1297.38,1318.62,1307.19,1308.81,1319.31,1308.81L1319.31,1308.81z M1243.14,1308.81
			c12.11,0,21.93,9.81,21.93,21.92c0,12.11-9.82,21.93-21.93,21.93c-12.1,0-21.92-9.81-21.92-21.93
			C1221.22,1318.62,1231.04,1308.81,1243.14,1308.81z" clip-rule="evenodd"></path>
    </g>
    <g>
      <rect width="29.58" height="146.84" x="1490.05" y="1288.52" fill="#4f8ecc" fill-rule="evenodd" clip-rule="evenodd"></rect>
    </g>
    <g>
      <rect width="29.57" height="146.84" x="1541.82" y="1288.52" fill="#eee5f4" fill-rule="evenodd" clip-rule="evenodd"></rect>
    </g>
    <g>
      <rect width="29.57" height="146.84" x="1593.58" y="1288.52" fill="#4f8ecc" fill-rule="evenodd" clip-rule="evenodd"></rect>
    </g>
    <g>
      <rect width="29.58" height="146.84" x="1645.34" y="1288.52" fill="#eee5f4" fill-rule="evenodd" clip-rule="evenodd"></rect>
    </g>
    <g>
      <rect width="29.58" height="146.84" x="1697.1" y="1288.52" fill="#4f8ecc" fill-rule="evenodd" clip-rule="evenodd"></rect>
    </g>
    <g>
      <rect width="29.57" height="146.84" x="1748.87" y="1288.52" fill="#eee5f4" fill-rule="evenodd" clip-rule="evenodd"></rect>
    </g>
    <g>
      <rect width="29.58" height="146.84" x="1800.63" y="1288.52" fill="#4f8ecc" fill-rule="evenodd" clip-rule="evenodd"></rect>
    </g>
    <g>
      <rect width="29.58" height="146.84" x="1852.39" y="1288.52" fill="#eee5f4" fill-rule="evenodd" clip-rule="evenodd"></rect>
    </g>
    <g>
      <rect width="29.57" height="146.84" x="1904.16" y="1288.52" fill="#4f8ecc" fill-rule="evenodd" clip-rule="evenodd"></rect>
    </g>
    <g>
      <rect width="29.58" height="146.84" x="1955.92" y="1288.52" fill="#eee5f4" fill-rule="evenodd" clip-rule="evenodd"></rect>
    </g>
    <g>
      <rect width="29.58" height="146.84" x="2007.68" y="1288.52" fill="#4f8ecc" fill-rule="evenodd" clip-rule="evenodd"></rect>
    </g>
    <g>
      <rect width="686.65" height="277.2" x="1264.6" y="1512.91" fill="#1e77d1" fill-rule="evenodd" clip-rule="evenodd"></rect>
    </g>
    <g>
      <rect width="1041.58" height="253.83" x="1087.13" y="1512.91" fill="#4f8ecc" fill-rule="evenodd" clip-rule="evenodd"></rect>
    </g>
    <g>
      <path fill="#87bef5" fill-rule="evenodd" d="M1123.18,1529.35h969.5c9.82,0,17.87,8.57,17.87,19.06v182.86c0,10.48-8.04,19.06-17.87,19.06h-969.5
			c-9.83,0-17.88-8.57-17.88-19.06V1548.4C1105.3,1537.92,1113.35,1529.35,1123.18,1529.35z" clip-rule="evenodd"></path>
    </g>
    <g>
      <path fill="#eee5f4" fill-rule="evenodd" d="M1166.99,1586c12.11,0,21.93,9.81,21.93,21.92c0,12.11-9.82,21.92-21.93,21.92
			c-12.1,0-21.92-9.81-21.92-21.92C1145.07,1595.82,1154.89,1586,1166.99,1586L1166.99,1586z M1166.99,1649.81
			c12.11,0,21.93,9.82,21.93,21.93c0,12.1-9.82,21.92-21.93,21.92c-12.1,0-21.92-9.81-21.92-21.92
			C1145.07,1659.63,1154.89,1649.81,1166.99,1649.81L1166.99,1649.81z M1395.46,1649.81c12.1,0,21.92,9.82,21.92,21.93
			c0,12.1-9.82,21.92-21.92,21.92c-12.11,0-21.93-9.81-21.93-21.92C1373.53,1659.63,1383.35,1649.81,1395.46,1649.81
			L1395.46,1649.81z M1319.31,1649.81c12.1,0,21.92,9.82,21.92,21.93c0,12.1-9.82,21.92-21.92,21.92
			c-12.11,0-21.93-9.81-21.93-21.92C1297.38,1659.63,1307.19,1649.81,1319.31,1649.81L1319.31,1649.81z M1243.14,1649.81
			c12.11,0,21.93,9.82,21.93,21.93c0,12.1-9.82,21.92-21.93,21.92c-12.1,0-21.92-9.81-21.92-21.92
			C1221.22,1659.63,1231.04,1649.81,1243.14,1649.81L1243.14,1649.81z M1395.46,1586c12.1,0,21.92,9.81,21.92,21.92
			c0,12.11-9.82,21.92-21.92,21.92c-12.11,0-21.93-9.81-21.93-21.92C1373.53,1595.82,1383.35,1586,1395.46,1586L1395.46,1586z
			 M1319.31,1586c12.1,0,21.92,9.81,21.92,21.92c0,12.11-9.82,21.92-21.92,21.92c-12.11,0-21.93-9.81-21.93-21.92
			C1297.38,1595.82,1307.19,1586,1319.31,1586L1319.31,1586z M1243.14,1586c12.11,0,21.93,9.81,21.93,21.92
			c0,12.11-9.82,21.92-21.93,21.92c-12.1,0-21.92-9.81-21.92-21.92C1221.22,1595.82,1231.04,1586,1243.14,1586z" clip-rule="evenodd"></path>
    </g>
    <g>
      <rect width="29.58" height="146.83" x="1490.05" y="1565.71" fill="#4f8ecc" fill-rule="evenodd" clip-rule="evenodd"></rect>
    </g>
    <g>
      <rect width="29.57" height="146.83" x="1541.82" y="1565.71" fill="#eee5f4" fill-rule="evenodd" clip-rule="evenodd"></rect>
    </g>
    <g>
      <rect width="29.57" height="146.83" x="1593.58" y="1565.71" fill="#4f8ecc" fill-rule="evenodd" clip-rule="evenodd"></rect>
    </g>
    <g>
      <rect width="29.58" height="146.83" x="1645.34" y="1565.71" fill="#eee5f4" fill-rule="evenodd" clip-rule="evenodd"></rect>
    </g>
    <g>
      <rect width="29.58" height="146.83" x="1697.1" y="1565.71" fill="#4f8ecc" fill-rule="evenodd" clip-rule="evenodd"></rect>
    </g>
    <g>
      <rect width="29.57" height="146.83" x="1748.87" y="1565.71" fill="#eee5f4" fill-rule="evenodd" clip-rule="evenodd"></rect>
    </g>
    <g>
      <rect width="29.58" height="146.83" x="1800.63" y="1565.71" fill="#4f8ecc" fill-rule="evenodd" clip-rule="evenodd"></rect>
    </g>
    <g>
      <rect width="29.58" height="146.83" x="1852.39" y="1565.71" fill="#eee5f4" fill-rule="evenodd" clip-rule="evenodd"></rect>
    </g>
    <g>
      <rect width="29.57" height="146.83" x="1904.16" y="1565.71" fill="#4f8ecc" fill-rule="evenodd" clip-rule="evenodd"></rect>
    </g>
    <g>
      <rect width="29.58" height="146.83" x="1955.92" y="1565.71" fill="#eee5f4" fill-rule="evenodd" clip-rule="evenodd"></rect>
    </g>
    <g>
      <rect width="29.58" height="146.83" x="2007.68" y="1565.71" fill="#4f8ecc" fill-rule="evenodd" clip-rule="evenodd"></rect>
    </g>
  </g>
  <g>
    <g>
      <path fill="#f06a30" fill-rule="evenodd" d="M1003.09,1804.26h107.09l-61.6-300.36h152.02l61.61,300.36h106.75c15.04,0,31.85,12.19,37.52,27.25H986.1
			C980.42,1816.45,988.04,1804.26,1003.09,1804.26z" clip-rule="evenodd"></path>
    </g>
    <g>
      <path fill="#f57a44" fill-rule="evenodd" d="M674.43,1689.6l9.67-69.93l60.43-436.31c2.85-20.74,21.98-37.54,42.73-37.54h845.98h9.17
			c16.33,4.12,26.79,19.39,24.28,37.54l-70.08,506.24c-2.09,15.13-13.91,27.42-26.37,27.42H692.11l0.16-1.09
			C680.4,1715.93,672.41,1704.14,674.43,1689.6z" clip-rule="evenodd"></path>
    </g>
    <g>
      <polygon fill="#f57a44" fill-rule="evenodd" points="1090.99 1822.43 1243.02 1822.43 1177.67 1503.9 1025.65 1503.9" clip-rule="evenodd"></polygon>
    </g>
    <g>
      <path fill="#fc9774" fill-rule="evenodd" d="M657.1,1619.67l60.39-436.31c2.87-20.74,22-37.54,42.73-37.54h846c20.73,0,35.2,16.8,32.33,37.54
			l-60.4,436.31H657.1z" clip-rule="evenodd"></path>
    </g>
    <g>
      <path fill="#fc9774" fill-rule="evenodd" d="M1578.15,1619.67l-9.68,69.92c-2.01,14.55-13.25,26.34-25.12,26.34H665.23c-11.86,0-19.83-11.79-17.81-26.33
			l9.68-69.93H1578.15z" clip-rule="evenodd"></path>
    </g>
    <g>
      <path fill="#ffe2dc" fill-rule="evenodd" d="M681.27,1600.74l57.62-416.22c1.51-10.91,11.91-19.76,23.19-19.76h837.03c11.29,0,19.22,8.84,17.71,19.76
			l-57.61,416.22H681.27z" clip-rule="evenodd"></path>
    </g>
    <g>
      <g>
        <path fill="#ffe2dc" fill-rule="evenodd" d="M1493.98,1566.7H756.9c-14.05,0-23.83-11.54-21.83-25.76l44.01-315.61c1.97-14.23,14.96-25.77,29.01-25.77
				h737.08c14.05,0,23.81,11.54,21.83,25.77l-44,315.61c-1.99,14.22-14.99,25.76-29.02,25.76H1493.98z M1463.18,1279.84
				l-30.11,215.96h35.16l30.12-215.96H1463.18L1463.18,1279.84z M1421.71,1220.11l-38.42,275.68h35.13l38.45-275.68H1421.71
				L1421.71,1220.11z M1361.1,1302.64l-26.72,191.6h35.16l26.72-191.6H1361.1L1361.1,1302.64z M1316.58,1269.79l-31.29,224.45h35.16
				l31.28-224.45H1316.58L1316.58,1269.79z M1258.21,1336.34l-22.01,157.9h35.16l22.02-157.9H1258.21z" clip-rule="evenodd"></path>
      </g>
      <g>
        <polygon fill="#fbbfa8" fill-rule="evenodd" points="1418.42 1495.8 1383.28 1495.8 1421.71 1220.11 1456.87 1220.11" clip-rule="evenodd"></polygon>
      </g>
      <g>
        <polygon fill="#fbbfa8" fill-rule="evenodd" points="1369.54 1494.24 1334.38 1494.24 1361.1 1302.64 1396.26 1302.64" clip-rule="evenodd"></polygon>
      </g>
      <g>
        <polygon fill="#fbbfa8" fill-rule="evenodd" points="1468.23 1495.8 1433.08 1495.8 1463.18 1279.84 1498.35 1279.84" clip-rule="evenodd"></polygon>
      </g>
      <g>
        <polygon fill="#fbbfa8" fill-rule="evenodd" points="1320.45 1494.24 1285.29 1494.24 1316.58 1269.79 1351.74 1269.79" clip-rule="evenodd"></polygon>
      </g>
      <g>
        <polygon fill="#fbbfa8" fill-rule="evenodd" points="1271.36 1494.24 1236.2 1494.24 1258.21 1336.34 1293.38 1336.34" clip-rule="evenodd"></polygon>
      </g>
      <g>
        <polygon fill="#fff" fill-rule="evenodd" points="1418.42 1495.8 1383.28 1495.8 1413.07 1282.1 1448.23 1282.1" clip-rule="evenodd"></polygon>
      </g>
      <g>
        <polygon fill="#fff" fill-rule="evenodd" points="1369.54 1494.24 1334.38 1494.24 1354.94 1346.8 1390.1 1346.8" clip-rule="evenodd"></polygon>
      </g>
      <g>
        <polygon fill="#fff" fill-rule="evenodd" points="1468.23 1495.8 1433.08 1495.8 1456.47 1328.06 1491.63 1328.06" clip-rule="evenodd"></polygon>
      </g>
      <g>
        <polygon fill="#fff" fill-rule="evenodd" points="1320.45 1494.24 1285.29 1494.24 1309.39 1321.52 1344.52 1321.52" clip-rule="evenodd"></polygon>
      </g>
      <g>
        <polygon fill="#fff" fill-rule="evenodd" points="1271.36 1494.24 1236.2 1494.24 1253.14 1372.73 1288.29 1372.73" clip-rule="evenodd"></polygon>
      </g>
      <g>
        <polygon fill="#f57a44" fill-rule="evenodd" points="1510.07 1264.99 1479.02 1284.58 1488.14 1286.21 1423.47 1369.73 1397.77 1316.03 1320.21 1447.74 1292.58 1411.87 1259.19 1462.66 1247.72 1452 1219.1 1495.97 1226.49 1500.16 1248.65 1466.12 1260.09 1476.74 1292.45 1427.55 1320.53 1464.01 1396.36 1335.24 1420.99 1386.73 1495.07 1291.07 1499.4 1299.2" clip-rule="evenodd"></polygon>
      </g>
      <g>
        <path fill="#fbbfa8" fill-rule="evenodd" d="M807.41,1500.5h-9.11l6.61-47.48h9.12L807.41,1500.5L807.41,1500.5z M938.22,1504.87h-9.13l7.83-56.24h9.13
				L938.22,1504.87L938.22,1504.87z M922.79,1497.69h-9.12l5.84-41.86h9.13L922.79,1497.69L922.79,1497.69z M1004.31,1504.87h-9.12
				l7.84-56.24h9.12L1004.31,1504.87L1004.31,1504.87z M989.31,1494.55h-9.11l4.96-35.61h9.13L989.31,1494.55L989.31,1494.55z
				 M907.45,1489.86h-9.12l3.65-26.23h9.13L907.45,1489.86L907.45,1489.86z M890.37,1494.55h-9.11l4.96-35.61h9.13L890.37,1494.55
				L890.37,1494.55z M969.46,1509.55h-9.13l9.16-65.6h9.11L969.46,1509.55L969.46,1509.55z M951.45,1520.9l12.52-89.75h-9.13
				l-12.5,89.75H951.45L951.45,1520.9z M793.61,1487.07h-9.13l3.27-23.43h9.11L793.61,1487.07L793.61,1487.07z M1177.38,1483.42
				h-9.11l2.24-16.14h9.13L1177.38,1483.42L1177.38,1483.42z M1161.71,1489.01h-9.14l3.81-27.32h9.12L1161.71,1489.01
				L1161.71,1489.01z M1144.48,1502.06h-9.12l7.46-53.43h9.11L1144.48,1502.06L1144.48,1502.06z M1126.86,1522.36l12.73-91.21h-9.12
				l-12.72,91.21H1126.86L1126.86,1522.36z M1114.28,1504.87h-9.11l7.83-56.24h9.12L1114.28,1504.87L1114.28,1504.87z
				 M1099.58,1494.55h-9.1l4.95-35.61h9.13L1099.58,1494.55L1099.58,1494.55z M1080.48,1519.74l11.99-85.98h-9.12l-11.98,85.98
				H1080.48L1080.48,1519.74z M1068.44,1497.69h-9.13l5.85-41.86h9.13L1068.44,1497.69L1068.44,1497.69z M1054.74,1489.86h-9.11
				l3.64-26.23h9.12L1054.74,1489.86L1054.74,1489.86z M1037.37,1504.87h-9.12l7.84-56.24h9.11L1037.37,1504.87L1037.37,1504.87z
				 M1018.7,1520.9l12.52-89.75h-9.13l-12.5,89.75H1018.7L1018.7,1520.9z M871.86,1509.55h-9.13l9.16-65.6H881L871.86,1509.55
				L871.86,1509.55z M853.85,1520.9l12.52-89.75h-9.13l-12.52,89.75H853.85L853.85,1520.9z M840.27,1500.5h-9.12l6.62-47.48h9.13
				L840.27,1500.5L840.27,1500.5z M824.66,1494.55h-9.12l4.96-35.61h9.14L824.66,1494.55z" clip-rule="evenodd"></path>
      </g>
      <g>
        <path fill="#fff" fill-rule="evenodd" d="M959.59,1307.77c-6.32,45.32-47.69,82.04-92.42,82.04c-44.73,0-75.86-36.73-69.57-82.04
				c6.33-45.31,47.72-82.04,92.44-82.04C934.77,1225.73,965.91,1262.46,959.59,1307.77z" clip-rule="evenodd"></path>
      </g>
      <g>
        <path fill="#fbbfa8" fill-rule="evenodd" d="M1093.64,1389.64c-39.62-2.5-67.3-34.36-65.2-74.55h75.59L1093.64,1389.64L1093.64,1389.64z
				 M1029.35,1306.33c6.72-42.93,44.85-77.8,87.11-80.43l-11.21,80.43H1029.35z" clip-rule="evenodd"></path>
      </g>
      <g>
        <path fill="#fff" fill-rule="evenodd" d="M1115.37,1306.33l71.08-38.44c-9.74-23.73-31.81-40.22-59.85-41.99L1115.37,1306.33z" clip-rule="evenodd"></path>
      </g>
      <g>
        <path fill="#fff" fill-rule="evenodd" d="M1113.72,1318.18l-9.95,71.46c42.74-2.65,81.25-38.29,87.32-81.87c1.51-10.81,0.86-21.13-1.57-30.57
				L1113.72,1318.18z" clip-rule="evenodd"></path>
      </g>
    </g>
  </g>
  <g>
    <g>
      <g>
        <path fill="#ffb27d" fill-rule="evenodd" d="M631.23,1816.2c0.6-5.21-1.32-12.25-0.59-20.7c5.72-65.83,18.1-214.54,18.1-214.54s14-117.78,15.09-192.35
				c-15.09-1.34-29.86-3.95-44.45-7.6c-31.73-8.1-53.02-21.05-83.27-35.7c-16.51,60.83-47.08,172.5-47.08,172.5s0.06,23.8-31.6,23.8
				c-27.77,0-143.19,96.6-166.03,110.97c2.95,6.97,10.41,13.87,13.81,20.77c36.68-30,225.64-98.99,225.64-98.99l51.27-129.98
				c0,0,15.4,159.33,2.98,171.8c-12.43,12.38,22.04,190.94,22.04,200.03C607.14,1817.32,621.66,1815.99,631.23,1816.2z" clip-rule="evenodd"></path>
      </g>
      <g>
        <path fill="#3b5bb3" fill-rule="evenodd" d="M578.33,1410.51c0,0,11.05,176.16,5.51,186.51c-5.51,10.35-9.66,27.6-5.51,71.11
				c4.13,43.51,16.56,119.55,16.56,119.55l40.76,1.34l16.57-207.91l14.17-192.78l0.35-4.08l-55.27-41.47L578.33,1410.51z" clip-rule="evenodd"></path>
      </g>
      <g>
        <path fill="#4567c6" fill-rule="evenodd" d="M315.82,1624.62l17.96,32.46c0,0,162.73-53.58,196.87-78.71c13.14-9.65,67.71-141.59,67.71-141.59
				l43.05-51.11l0.45-28.37l-92.45-40.63c0,0-33.58,37.81-40.17,53.09c-16.45,38.09-27.62,163.69-27.62,163.69s1.36-4.86-29.7,3.45
				C420.83,1545.2,315.82,1624.62,315.82,1624.62z" clip-rule="evenodd"></path>
      </g>
      <g>
        <path fill="#284191" fill-rule="evenodd" d="M322.29,1663.34c0,0-10.88-7.04-12.16-11.05c-1.27-4.08,1.8-14.22-2.69-16.55
				c-4.5-2.39-33.25,7.11-37.54,10.35c-5.28,4.02-7.34,10.29-6.04,14.44c1.31,4.08,39.56,73.36,47.67,82.17
				c8.08,8.79,18.14-10.64,12.14-22.74C317.67,1707.84,324.62,1682.35,322.29,1663.34z" clip-rule="evenodd"></path>
      </g>
      <g>
        <path fill="#284191" fill-rule="evenodd" d="M633.06,1797.25c0,0-11.49,5.92-15.62,5.07c-4.15-0.92-11.47-8.59-15.72-5.85
				c-4.24,2.74-10.2,32.45-9.53,37.74c0.85,6.62,5.32,11.48,9.56,12.4c4.23,0.92,83.36,1.9,94.99-0.77
				c11.66-2.68-0.28-21.05-13.75-21.83C669.5,1823.23,650.78,1804.57,633.06,1797.25z" clip-rule="evenodd"></path>
      </g>
      <g>
        <path fill="#61a0e0" fill-rule="evenodd" d="M863.79,1235.97c-56.46,56.6-86.3,90.14-136.33,106.98c-10.84-9.61-18.05-23.35-21.67-41.21
				c-12.37,27.86-25.37,55.33-39,82.41c-28.26,9.18-69.82,6.58-124.64-7.82l-6.54-25.39c-4.01-2.87-16.23-2.6-24.41,2.61
				c-26.05-49-37.99-94.3-38.95-134.29c36.52-68.21,71.47-119.21,104.87-153.02c12.73-8.05,35.43-11.29,68.12-9.7
				c36.69,40.53,58.99,51.51,66.87,32.9c11.42,10.58,25.66,26.56,42.73,47.95c12.06,22.57,10.33,67.93-5.19,136.1
				c32.8-21.42,66.24-41.76,103.28-56.43C857.34,1220.81,861.56,1227.28,863.79,1235.97L863.79,1235.97z M535.12,1327.66
				c33.35-37.6,50.76-94.89,52.23-171.87c-21.56,28.41-43.47,56.07-65.7,82.96C529.08,1247.62,533.56,1277.26,535.12,1327.66z" clip-rule="evenodd"></path>
      </g>
      <g>
        <path fill="#4f8ecc" fill-rule="evenodd" d="M705.8,1301.74c17.79-42.47,30.18-78.29,37.14-107.48c-12.54,63.02-16.74,106.73-12.57,131.14
				c8.13,3.42,19.61,2.45,36.16-1.15c-12.53,7.79-25.2,14.35-39.07,18.69C716.62,1333.34,709.4,1319.61,705.8,1301.74z" clip-rule="evenodd"></path>
      </g>
      <g>
        <path fill="#4f8ecc" fill-rule="evenodd" d="M535.61,1350.93c0.34-7.21,0.18-14.96-0.49-23.27c33.35-37.6,50.76-94.89,52.23-171.87
				c14.14,76.49-2.62,143.44-50.28,200.82L535.61,1350.93z" clip-rule="evenodd"></path>
      </g>
      <g>
        <path fill="#4f8ecc" fill-rule="evenodd" d="M702.74,1227.85c-29.49-13.82-65.99-26.33-110.89-34.67c-0.64-12.21-2.13-24.67-4.49-37.39
				c70.45,17.24,118.75,36.12,144.9,56.63L702.74,1227.85L702.74,1227.85z M581.42,1277.26c5.58,1.41,11.38,3.04,17.39,4.91
				l-1.89,0.99l-21.9,11.44C577.41,1288.89,579.54,1283.12,581.42,1277.26L581.42,1277.26z M625.17,1336.43l36.97-19.32
				c11.63,5.28,21.33,10.83,29.08,16.64c-4.33,9.28-8.73,18.51-13.2,27.72C664.21,1352.77,646.58,1344.44,625.17,1336.43
				L625.17,1336.43z M643.96,1258.58l34.34-17.95c-26.12-10.22-54.88-18.05-86.31-23.48c-0.52,12.66-2.04,25.01-4.51,37.07
				c15.35,3.86,29.39,7.82,42.14,11.85L643.96,1258.58L643.96,1258.58z M732.91,1126.73c-26.87-17.96-60.35-31.71-100.41-41.26
				c8.01-5.79,16.92-10.55,26.72-14.24c26.55,26.37,43.69,33.4,51.38,21.1C719.99,1103.75,727.43,1115.21,732.91,1126.73
				L732.91,1126.73z M613.46,1102.56c-6.33,8.9-14.93,21.75-19.18,33.09c76.09,18.94,114.96,32.69,148.06,61.17
				c2.31-11.43,2.36-29.54,0.94-40.88C706.91,1130.21,661.89,1113.87,613.46,1102.56z" clip-rule="evenodd"></path>
      </g>
      <g>
        <path fill="#4f8ecc" fill-rule="evenodd" d="M662.53,1117.09c-10.61-20.19-16.74-38.8-18.39-55.83c4.93-5.3,11.75-10.11,15.82-10.88
				c12.52,22.86,20.85,35.99,29.8,45.03c0.05,0.05,0.11,0.11,0.16,0.15c0.27-0.44,0.53-0.88,0.81-1.33
				c5.39-8.84,12.45-18.87,17.19-29.46c4.05,4.9,4.39,10.77,5.67,16.92c1.21,13.19-1.08,27.86-6.87,43.99
				c-2.05-5.48-4.24-10.45-6.57-14.89c-3.15-6.03-6.57-11.1-10.23-15.22c-4.83,2.29-9.72,5.45-14.69,9.48
				C671.05,1108.44,666.81,1112.46,662.53,1117.09z" clip-rule="evenodd"></path>
      </g>
      <g>
        <path fill="#ffb27d" fill-rule="evenodd" d="M660.11,1050.53c3.6-2.63,7.09-6.48,10.44-11.58c-0.18-3.25-0.17-7.29,0.02-12.12
				c-15.4-18.68-15.2-29.11,0.6-31.29c2.36,2.4,4.43,8.29,6.21,17.65c3.37,0.84,2.57-8.75,5.25-11.52
				c0.05-14.91,4.56-18.2,5.87-27.13c13.6-11.3,38.45-8.62,66.66,3.76c-4.8,27.79-13.67,94.01-45.89,83.11l-1.2,3.51
				c-4.74,10.59-11.8,20.61-17.19,29.44l-0.97,1.19C680.97,1086.53,672.62,1073.4,660.11,1050.53z" clip-rule="evenodd"></path>
      </g>
      <g>
        <path fill="#284191" fill-rule="evenodd" d="M753.05,980.1c-28.22-12.37-50.96-16.84-64.55-5.54c-1.3,8.93-5.13,13.56-5.19,28.47
				c-2.67,2.77-2.56,11.01-5.93,10.17c-1.78-9.36-3.85-15.25-6.21-17.65c-15.8,2.17-16,12.61-0.6,31.29
				c-0.19,4.83-0.2,8.87-0.02,12.12c-28.17-28.67-29.99-80.26,6.53-94.39c16.82-37.81,63.81,13.71,98.01,3.11
				C781.88,966.74,762.02,982.34,753.05,980.1z" clip-rule="evenodd"></path>
      </g>
      <g>
        <path fill="#f08261" fill-rule="evenodd" d="M687.77,1052.67c4.98,2.94,15.22,7.27,21.5,8.75l-1.2,3.51c-0.92,2.06-1.92,4.08-2.99,6.1
				c-0.05-0.04-0.11-0.08-0.17-0.13C696.18,1064.95,690.47,1058.87,687.77,1052.67z" clip-rule="evenodd"></path>
      </g>
      <g>
        <path fill="#284191" fill-rule="evenodd" d="M670.25,957.31c3.86-3.25,5.01-6.66,3.44-10.26c-6.28-3.18-12.1-3.06-17.5,0.4
				C659.56,947.51,664.23,950.8,670.25,957.31z" clip-rule="evenodd"></path>
      </g>
      <g>
        <path fill="#284191" fill-rule="evenodd" d="M680.46,946.81c-3.57,2.33-6.27,2.33-8.11,0c0.15-6.17,2.35-11.04,6.62-14.6
				C677.78,935.05,678.28,939.91,680.46,946.81z" clip-rule="evenodd"></path>
      </g>
      <g>
        <path fill="#284191" fill-rule="evenodd" d="M732.9,972.41c2.55-8.48,7.25-12.7,14.13-12.67c9.49,7.89,13.33,17.39,11.52,28.46
				C756.12,982.83,747.57,977.57,732.9,972.41z" clip-rule="evenodd"></path>
      </g>
      <g>
        <path fill="#284191" fill-rule="evenodd" d="M721.35,937.03c0.32,3.99-2.66,8.28,2.18,10.77c-0.83,16.58,17.23-1.22,18.57-7.14
				C739.46,941.73,732.55,940.51,721.35,937.03z" clip-rule="evenodd"></path>
      </g>
      <g>
        <g>
          <path fill="#f57a44" fill-rule="evenodd" d="M1320.58,941.41c-48.24-92.3-162.15-128.01-254.45-79.77c-83.29,43.53-120.49,140.57-91.49,226.92
					l-1.29,0.67c-5.22,2.73-7.26,9.23-4.53,14.45l17.71,33.88c2.72,5.22,9.23,7.26,14.45,4.53l1.28-0.68
					c54.35,73.11,155.25,97.97,238.55,54.43C1333.11,1147.61,1368.82,1033.69,1320.58,941.41L1320.58,941.41z M1297.25,953.6
					c41.51,79.41,10.78,177.43-68.63,218.93c-79.4,41.5-177.42,10.77-218.92-68.63c-41.51-79.41-10.78-177.43,68.63-218.93
					C1157.73,843.47,1255.74,874.19,1297.25,953.6z" clip-rule="evenodd"></path>
        </g>
        <g>
          <rect width="96.21" height="38.23" x="886.94" y="1123.79" fill="#fc9774" fill-rule="evenodd" clip-rule="evenodd" transform="rotate(-27.593 935.036 1142.885)"></rect>
        </g>
        <g>
          <path fill="#f57a44" fill-rule="evenodd" d="M941.17,1161.27l-17.71-33.87c-2.72-5.22-9.23-7.27-14.45-4.53l-77.76,40.64l-0.12,0.07l-167.96,87.78
					l-0.03,0.01l-46.52,24.32l-167.98,87.8c-5.22,2.73-7.26,9.23-4.53,14.45l17.71,33.88c2.73,5.22,9.23,7.26,14.45,4.53
					l77.78-40.65l0.1-0.05l167.99-87.8l46.52-24.31l0.01-0.01l167.97-87.78C941.86,1173,943.9,1166.49,941.17,1161.27z" clip-rule="evenodd"></path>
        </g>
        <g>
          <path fill="#fff" fill-rule="evenodd" d="M1078.33,884.97c-79.41,41.5-110.14,139.51-68.63,218.93c41.51,79.41,139.52,110.13,218.92,68.63
					c79.41-41.51,110.14-139.53,68.63-218.93C1255.74,874.19,1157.73,843.47,1078.33,884.97z" clip-rule="evenodd"></path>
        </g>
        <g>
          <path fill="#fefefe" fill-rule="evenodd" d="M1079.43,1173.14L1315.71,1030c0.04-4.88-0.13-9.72-0.52-14.52l-248.37,150.47
					C1070.89,1168.52,1075.1,1170.93,1079.43,1173.14L1079.43,1173.14z M1017.77,1117.65c-13.97-21.3-22.99-45.95-25.7-72.13
					l251.01-152.05c21.65,14.36,39.47,33.69,52.03,56.16L1017.77,1117.65L1017.77,1117.65z M1056.69,1158.98
					c-7.8-5.81-15.04-12.29-21.65-19.35l271.57-164.52c3.18,9.07,5.58,18.49,7.12,28.15L1056.69,1158.98z" clip-rule="evenodd"></path>
        </g>
      </g>
      <g>
        <path fill="#ffb27d" fill-rule="evenodd" d="M513.92,1373.46L513.92,1373.46c-0.5-11.19-2.4-20.9-5.69-29.16c5.21-8.19,16.17-13.6,21.01-12.7
				l12.95,15.7c14.01,7.86,24.68,15.28,32,22.25c-8.53,2.28-15.15,1.28-19.85-2.98c4.8,8.38,6.92,13.64,6.35,15.77
				c-18.32,14.55-30.83,19.84-37.54,15.87C516.51,1387.49,513.43,1379.24,513.92,1373.46z" clip-rule="evenodd"></path>
      </g>
      <g>
        <path fill="#61a0e0" fill-rule="evenodd" d="M475.21,1251.04c5.05,31.68,16.62,66.07,35.99,102.5c6.23-4.26,21.62-14.33,26.37-11.81
				c-2.91-6.77-1.79-5.76-2.45-14.06c-1.14-36.64-3.82-62.31-8.05-77C513.55,1251.73,496.27,1251.85,475.21,1251.04z" clip-rule="evenodd"></path>
      </g>
      <g>
        <path fill="#ffb27d" fill-rule="evenodd" d="M863.77,1236c1.83-1.73,8.77-8.76,15.93-15.5c10.32-0.46,24.68-9.95,27.08-18.15
				c1.47-11.07,5.75-15.19-2.75-22.03c-3.28-0.28-10.64,3.94-18.01,12.57c0.44,7.82-7.86,10.28-13.17,13.07
				c-6.78,4.55-1.97,1.05-9.69,6.06c-3.41,2.85-8.16,4.5-9.92,6.1C857.67,1222.17,861.43,1227.21,863.77,1236z" clip-rule="evenodd"></path>
      </g>
    </g>
    <g>
      <g>
        <g>
          <path fill="#bbdbfa" fill-rule="evenodd" d="M711.52,989.6c-2.4-0.98-5.14,0.16-6.12,2.55c-0.99,2.4,0.15,5.14,2.55,6.12
					c2.39,0.99,5.14-0.15,6.12-2.55C715.05,993.32,713.91,990.58,711.52,989.6z" clip-rule="evenodd"></path>
        </g>
        <g>
          <path fill="#125aa3" fill-rule="evenodd" d="M707.95,998.27c-2.4-0.99-3.54-3.73-2.56-6.13c0.99-2.39,3.73-3.54,6.13-2.55c1,0.41,1.78,1.13,2.28,2.01
					l-0.31-0.18c-0.78-0.32-1.67,0.05-1.98,0.82c-0.32,0.78,0.05,1.67,0.83,1.99c0.77,0.32,1.66-0.05,1.98-0.83l0.06-0.17
					c0.13,0.81,0.03,1.66-0.31,2.48C713.08,998.12,710.34,999.26,707.95,998.27z" clip-rule="evenodd"></path>
        </g>
      </g>
      <g>
        <path fill="#125aa3" fill-rule="evenodd" d="M717.32,988.09c0.07,0.11,0.14,0.21,0.19,0.32c0.01-0.44-0.31-1.13-0.4-1.53c0.15,0.22,0.25,0.31,0.36,0.64
				c0.1,0.27,0.14,0.55,0.18,0.87c0.12-0.31,0.06-0.54,0.12-0.83c0.08,0.25,0.07,0.7,0.01,0.95c0.26-0.91,0.21-0.86,0.13-1.82
				c0.29,0.38,0.32,1.27,0.25,1.76c0.14-0.16,0.23-0.42,0.31-0.68c0.06,0.36,0.01,0.51-0.08,0.82l0.34-0.26
				c-0.1,0.2-0.19,0.24-0.27,0.39c0.55-0.2,1.69-1.12,1.78-1.75c-0.15,0.23-0.48,0.65-0.66,0.75c0.18-0.41,0.47-0.84,0.55-1.36
				c-0.22,0.27-0.31,0.71-0.51,1.03c-0.19,0.31-0.45,0.68-0.68,0.84c0.35-0.68,0.74-1.22,0.77-2.08l-0.08,0.19
				c-0.13,0.38-0.22,0.79-0.42,1.14c0.1-0.71,0.35-1.32-0.05-1.99c0.04,0.32,0.11,0.52,0.11,0.89c-0.21-0.41-0.16-1.01-0.64-1.22
				c0.14,0.32,0.3,0.55,0.42,0.99c0.1,0.34,0.22,0.9-0.01,1.22c0.05-1.34-0.46-2.19-1.23-2.67c0.2,0.19,0.75,0.93,0.72,1.25
				l-0.02,0.05c-0.15,0.31,0.04-0.31-0.03,0.07c0.13,0.17,0.23,0.5,0.28,0.74c0.02,0.14,0.04,0.32,0.04,0.49
				c0,0.07,0,0.21-0.02,0.28c-0.01,0.07-0.02,0.06-0.04,0.13l-0.04,0.07c0.01-0.9-0.13-1.43-0.55-2.07
				c-0.25-0.39-0.91-1.12-1.36-1.32c0.01,0.01,0.02,0.02,0.03,0.03l0.32,0.31c0.8,0.77,1.52,1.61,1.45,2.87
				c-0.03-0.06,0,0.01-0.05-0.13c-0.01-0.03-0.01-0.04-0.02-0.07c-0.1-0.41-0.2-0.83-0.39-1.21c-0.21-0.4-0.49-0.82-0.75-1.09
				c-0.35-0.36-1.55-1.29-2.26-1.41c0.21,0.05,1.37,0.81,1.56,0.97c0.42,0.33,0.94,0.79,1.15,1.37c-0.18-0.11-0.35-0.31-0.5-0.46
				c-1.02-0.89-2.84-2.28-4.09-2.59c0.71,0.39,1.69,1.05,2.17,1.55l-0.44-0.24c0.1,0.1,0.19,0.21,0.31,0.32
				c0.11,0.1,0.21,0.18,0.32,0.29c0.52,0.56,1.3,1.49,1.45,2.3c-0.11-0.22-0.29-0.45-0.44-0.67c-0.16-0.24-0.31-0.44-0.48-0.66
				c-0.31-0.41-0.67-0.86-1.05-1.21c-0.81-0.74-1.6-1.39-2.59-1.93c0.11,0.1,0.25,0.2,0.34,0.38c-0.86-0.3-2.06-1.42-4.2-2.16
				c0.41,0.3,1.17,0.59,1.64,0.91l0.43,0.32c-0.28-0.07-1.14-0.6-1.49-0.78c-1.75-0.9-2.83-1.49-4.86-2.08
				c-1.29-0.36-2.5-0.72-3.95-0.56c-0.94,0.11-1.86,0.29-2.7,0.66c-0.31,0.13-0.48,0.24-0.73,0.36c0.59-0.1,2.09-0.9,3.3-0.8
				c-2.07,0.51-3.73,1-5.36,2c0.39-0.11,0.99-0.42,1.44-0.6c0.52-0.2,1.02-0.36,1.54-0.52c0.93-0.28,2.4-0.62,3.47-0.57
				c-0.28,0.11-0.99,0.24-1.34,0.32c-2.54,0.58-5.05,1.38-7.43,2.41c-0.28,0.13-0.88,0.47-1.08,0.53c0.23-0.02,1.22-0.43,1.55-0.53
				c1.69-0.55,3.29-1.04,5.15-1.01c-0.55,0.22-4.04,0.54-5.28,1.16l3.08-0.56c0.92-0.14,2.48-0.31,3.4-0.17
				c-1.09-0.11-5.58,0.52-6.58,0.96c0.46-0.02,1.17-0.19,1.68-0.25c0.6-0.07,1.2-0.13,1.8-0.17c1.23-0.07,2.53-0.07,3.74,0.11
				c1.65,0.25,3.15,0.73,4.65,1.34c0.44,0.18,1,0.47,1.42,0.59c-0.21-0.22-0.95-0.5-1.22-0.63c-0.84-0.4-1.72-0.73-2.62-1
				c-0.36-0.11-1.13-0.25-1.41-0.38c1.16,0.04,1.97,0.39,2.92,0.55c-0.08-0.03-0.04-0.01-0.11-0.05c-0.08-0.06-0.04-0.03-0.09-0.1
				c0.59,0.11,1.63,0.65,2.12,0.94c0.57,0.34,1.69,1.2,1.76,1.23c-0.13-0.17-0.25-0.28-0.32-0.44l1.41,0.81l-1.66-1.24
				c0.35,0.14,0.79,0.5,1.14,0.7c0.42,0.25,1.26,0.74,1.63,1.02c0.43,0.34,1.3,0.72,1.8,0.89c-0.14-0.15-0.71-0.51-0.94-0.69
				l-0.91-0.66c-0.17-0.13-0.32-0.22-0.46-0.35c-0.4-0.4-0.84-0.72-1.27-1.06c-0.77-0.62-3.11-2.14-4.13-2.15
				c1.32-0.03,3.57,1.48,4.34,2.09l1.79,1.44c0.17,0.11,0.28,0.24,0.44,0.36c0.43,0.35,0.88,0.72,1.36,1.02v-0.13v-0.02
				c0,0,0-0.01,0-0.02c0-0.01,0-0.01,0-0.02c0.14,0.17,0.62,0.53,0.85,0.63c-0.35-0.6-1.47-1.36-1.71-2.08
				c0.38,0.27,0.77,0.78,1.08,1.15c0.11,0.14,0.24,0.23,0.35,0.35c-0.16-0.69-0.68-1.38-1.09-1.92l-0.49-0.53
				c0.49,0.18,0.94,0.84,1.21,1.27c0.28,0.45,0.49,0.94,0.69,1.43c0.03,0.05,0.02,0.05,0.05,0.11c0.04,0.08,0.02,0.04,0.08,0.08
				l-0.23-0.93c0.04,0.18,0.48,1,0.44,1.23c0.05-0.44-0.11-0.83-0.19-1.22l0.23,0.3c-0.22-0.94-1.18-1.84-1.73-2.55
				c0.67,0.28,1.64,1.63,1.9,2.4c0.13,0.38,0.17,0.8,0.29,1.11l-0.03-0.69c0.01,0.01,0.02,0.02,0.02,0.03l0.22,0.49
				c-0.03-0.85-0.29-1.39-0.6-2.02c0.2,0.11,0.3,0.3,0.43,0.5c0.1,0.19,0.2,0.39,0.27,0.62c0.15,0.45,0.25,0.93,0.29,1.45
				c0.08-0.19,0.06-0.56,0.05-0.81c0.13,0.08,0.03-0.01,0.13,0.11c0.18,0.21,0.22,0.56,0.29,0.8l0.06-0.5l0.19,0.56
				c0.05-0.45-0.01-0.73,0-1.13c0.2,0.26,0.22,0.63,0.25,1c0.08-0.14,0.09-0.4,0.09-0.59l0.25,0.49c0.06,0.15,0.11,0.34,0.16,0.48
				c0.02-0.45-0.11-0.72-0.18-1.09c0.31,0.37,0.34,0.78,0.5,1.29c0.06-0.5-0.07-1.32-0.25-1.68c0.41,0.2,0.33,1.4,0.47,1.69
				l0.14-0.49c0.02,0.04,0.01,0.02,0.05,0.1l0.11,0.56l0.16-0.63c0.11,0.22,0.08,0.43,0.13,0.71c0-0.03,0.17-0.51,0.15-0.84
				c0.07,0.07,0.02,0,0.1,0.13c0.14,0.24,0.13,0.52,0.24,0.76l-0.04-0.55c0.06,0.05,0.03,0.02,0.08,0.08L717.32,988.09z" clip-rule="evenodd"></path>
      </g>
      <g>
        <g>
          <path fill="#bbdbfa" fill-rule="evenodd" d="M742.77,997.76c2.4,0.98,3.54,3.72,2.56,6.12c-0.99,2.39-3.73,3.53-6.12,2.55
					c-2.4-0.98-3.54-3.73-2.56-6.12C737.64,997.92,740.38,996.77,742.77,997.76z" clip-rule="evenodd"></path>
        </g>
        <g>
          <path fill="#125aa3" fill-rule="evenodd" d="M739.2,1006.43c2.4,0.99,5.15-0.16,6.13-2.55c0.98-2.4-0.15-5.15-2.55-6.13
					c-1.01-0.41-2.08-0.45-3.05-0.18l0.35,0.1c0.77,0.31,1.15,1.21,0.83,1.98s-1.21,1.15-1.98,0.83c-0.77-0.31-1.15-1.21-0.83-1.98
					l0.07-0.16c-0.66,0.49-1.19,1.16-1.53,1.97C735.66,1002.7,736.81,1005.45,739.2,1006.43z" clip-rule="evenodd"></path>
        </g>
      </g>
      <g>
        <path fill="#125aa3" fill-rule="evenodd" d="M734.75,993.85c-0.13,0.06-0.22,0.11-0.32,0.18c0.23-0.38,0.85-0.79,1.12-1.08
				c-0.23,0.12-0.35,0.14-0.6,0.35c-0.22,0.18-0.4,0.39-0.6,0.64c0.07-0.32,0.24-0.49,0.36-0.76c-0.2,0.17-0.42,0.55-0.52,0.79
				c0.3-0.9,0.31-0.83,0.89-1.59c-0.42,0.16-0.93,0.9-1.13,1.35c-0.02-0.22,0.06-0.48,0.14-0.74c-0.24,0.27-0.28,0.42-0.38,0.73
				l-0.11-0.39c-0.02,0.22,0.01,0.29-0.01,0.46c-0.29-0.45-0.63-1.82-0.38-2.39c-0.01,0.28,0.01,0.8,0.08,0.98
				c0.08-0.44,0.1-0.95,0.32-1.43c0.01,0.35-0.16,0.76-0.19,1.13c-0.02,0.38-0.02,0.81,0.06,1.07c0.1-0.76,0.1-1.41,0.54-2.15
				l-0.04,0.2c-0.1,0.38-0.26,0.78-0.3,1.17c0.3-0.65,0.45-1.29,1.11-1.64c-0.2,0.25-0.36,0.38-0.55,0.68
				c0.36-0.23,0.65-0.76,1.12-0.69c-0.27,0.2-0.51,0.31-0.83,0.61c-0.25,0.24-0.65,0.66-0.66,1.03c0.69-1.14,1.53-1.6,2.35-1.61
				c-0.24,0.06-1.05,0.39-1.2,0.68l-0.01,0.05c-0.06,0.35,0.14-0.28-0.01,0.08c-0.19,0.07-0.44,0.29-0.6,0.47
				c-0.1,0.11-0.21,0.25-0.29,0.39c-0.04,0.06-0.11,0.19-0.14,0.25c-0.03,0.07-0.02,0.06-0.03,0.13l-0.01,0.08
				c0.47-0.75,0.87-1.14,1.51-1.44c0.4-0.2,1.27-0.47,1.71-0.41c-0.01,0.01-0.03,0.01-0.04,0.01l-0.41,0.08
				c-0.99,0.24-1.98,0.56-2.61,1.66c0.06-0.03,0,0.01,0.1-0.07c0.03-0.03,0.03-0.03,0.06-0.06c0.29-0.28,0.6-0.59,0.93-0.81
				c0.38-0.23,0.81-0.44,1.14-0.53c0.46-0.13,1.84-0.27,2.42-0.01c-0.18-0.06-1.44-0.02-1.66,0.01c-0.49,0.06-1.13,0.18-1.59,0.55
				c0.19,0,0.42-0.08,0.62-0.13c1.23-0.21,3.33-0.45,4.41-0.05c-0.73-0.04-1.81,0-2.43,0.18l0.46,0.02
				c-0.14,0.03-0.26,0.07-0.41,0.1c-0.15,0.03-0.25,0.04-0.4,0.08c-0.69,0.2-1.76,0.57-2.3,1.17c0.2-0.11,0.45-0.22,0.68-0.34
				c0.24-0.11,0.45-0.21,0.7-0.3c0.46-0.17,0.96-0.38,1.43-0.47c0.99-0.2,1.93-0.34,2.95-0.28c-0.15,0.02-0.3,0.03-0.45,0.15
				c0.78,0.19,2.28-0.13,4.25,0.35c-0.47,0.04-1.18-0.1-1.7-0.09l-0.49,0.06c0.26,0.07,1.17,0.08,1.53,0.11
				c1.78,0.15,2.9,0.21,4.7,0.76c1.15,0.35,2.22,0.68,3.22,1.57c0.64,0.57,1.2,1.21,1.64,1.95c0.16,0.27,0.22,0.45,0.34,0.69
				c-0.38-0.4-1.06-1.84-2-2.38c1.25,1.49,2.2,2.77,2.88,4.45c-0.24-0.29-0.51-0.87-0.75-1.24c-0.27-0.44-0.56-0.83-0.86-1.23
				c-0.53-0.73-1.44-1.76-2.25-2.29c0.15,0.25,0.6,0.72,0.82,0.97c1.55,1.81,2.98,3.77,4.18,5.87c0.14,0.25,0.39,0.85,0.51,1.01
				c-0.16-0.14-0.68-0.98-0.86-1.25c-0.96-1.34-1.87-2.57-3.26-3.52c0.29,0.47,2.68,2.55,3.28,3.71l-1.97-2.06
				c-0.6-0.6-1.65-1.55-2.41-1.91c0.86,0.48,3.83,3.33,4.34,4.22c-0.34-0.26-0.77-0.77-1.12-1.08c-0.39-0.38-0.8-0.73-1.23-1.08
				c-0.87-0.7-1.82-1.37-2.82-1.84c-1.36-0.65-2.71-1.02-4.14-1.29c-0.42-0.07-0.98-0.13-1.36-0.24c0.27-0.07,0.97,0.07,1.23,0.1
				c0.84,0.1,1.67,0.28,2.49,0.51c0.32,0.1,0.96,0.38,1.23,0.41c-0.88-0.56-1.67-0.68-2.45-1.05c0.07,0.02,0.03,0.02,0.1,0.01
				c0.1,0,0.06,0,0.12-0.02c-0.49-0.21-1.55-0.3-2.06-0.31c-0.6-0.02-1.89,0.14-1.95,0.13c0.17-0.07,0.32-0.1,0.47-0.19l-1.48-0.05
				l1.9-0.19c-0.34-0.05-0.85,0.01-1.22,0c-0.44-0.01-1.33-0.03-1.75,0.02c-0.49,0.05-1.34-0.07-1.8-0.19
				c0.2-0.06,0.8-0.07,1.06-0.1l1.02-0.08c0.2-0.02,0.35-0.02,0.52-0.06c0.5-0.12,1.01-0.17,1.51-0.23
				c0.91-0.11,3.46-0.19,4.21,0.34c-0.96-0.71-3.44-0.62-4.32-0.5l-2.1,0.29c-0.18,0.01-0.32,0.05-0.51,0.07
				c-0.5,0.07-1.04,0.16-1.55,0.16l0.06-0.1c0-0.01,0.01-0.02,0.01-0.02s0-0.01,0.01-0.02c0-0.01,0.01-0.01,0.01-0.02
				c-0.2,0.06-0.74,0.13-0.96,0.08c0.59-0.32,1.8-0.38,2.37-0.86c-0.42,0.03-0.98,0.26-1.41,0.41c-0.16,0.05-0.29,0.07-0.44,0.11
				c0.48-0.49,1.23-0.8,1.83-1.04l0.65-0.2c-0.46-0.1-1.14,0.22-1.59,0.45c-0.44,0.23-0.86,0.53-1.27,0.83
				c-0.04,0.04-0.03,0.03-0.08,0.06c-0.08,0.05-0.04,0.03-0.1,0.03l0.66-0.66c-0.13,0.13-0.89,0.6-0.98,0.81
				c0.2-0.4,0.54-0.65,0.79-0.93l-0.32,0.14c0.67-0.68,1.86-0.93,2.64-1.24c-0.65-0.11-2.08,0.52-2.7,1.03
				c-0.29,0.25-0.54,0.59-0.81,0.78l0.4-0.56c-0.01,0-0.02,0.01-0.03,0.01l-0.43,0.3c0.48-0.71,0.96-1.02,1.54-1.39
				c-0.2-0.01-0.39,0.09-0.57,0.2c-0.18,0.1-0.36,0.23-0.53,0.38c-0.35,0.3-0.69,0.65-0.99,1.06c0.03-0.2,0.25-0.51,0.39-0.71
				c-0.14,0.01-0.01-0.02-0.15,0.03c-0.23,0.08-0.46,0.35-0.64,0.52l0.23-0.44l-0.44,0.38c0.2-0.41,0.4-0.6,0.6-0.95
				c-0.29,0.12-0.51,0.42-0.73,0.71c0.01-0.15,0.15-0.38,0.25-0.54l-0.45,0.27c-0.13,0.1-0.25,0.23-0.36,0.33
				c0.22-0.39,0.46-0.55,0.71-0.83c-0.43,0.15-0.67,0.48-1.06,0.81c0.22-0.45,0.75-1.06,1.09-1.28c-0.41-0.04-1,1.01-1.26,1.19
				l0.17-0.48c-0.04,0.02-0.02,0-0.09,0.05l-0.39,0.42l0.22-0.62c-0.2,0.13-0.29,0.32-0.47,0.53c0.01-0.02,0.16-0.51,0.34-0.77
				c-0.1,0.02-0.02-0.02-0.15,0.05c-0.22,0.13-0.38,0.38-0.59,0.51l0.34-0.45c-0.07,0.02-0.03,0.01-0.1,0.03L734.75,993.85z" clip-rule="evenodd"></path>
      </g>
      <g>
        <path fill="#fff" fill-rule="evenodd" d="M729.31,1039.86c-10.77-0.06-10.35,0.29-17.85-2.77c-3.89-1.58-8.78-5.54-5.7-1.16
				C714.14,1047.84,729.5,1044.05,729.31,1039.86z" clip-rule="evenodd"></path>
      </g>
    </g>
  </g>
  <g>
    <g>
      <path fill="#fff" fill-rule="evenodd" d="M1309.15,1049.99c-10.76,85.73-88.99,146.52-174.72,135.75c-85.74-10.76-146.51-88.99-135.75-174.72
			c10.77-85.74,88.99-146.52,174.72-135.75C1259.14,886.03,1319.91,964.26,1309.15,1049.99z" clip-rule="evenodd"></path>
    </g>
    <g>
      <path fill="#fbbfa8" fill-rule="evenodd" d="M1209.99,937.14c-2.52,20.08-20.82,34.3-40.9,31.78c-20.07-2.52-34.3-20.82-31.79-40.9
			c2.53-20.07,20.84-34.3,40.91-31.78C1198.28,898.75,1212.51,917.07,1209.99,937.14z" clip-rule="evenodd"></path>
    </g>
    <g>
      <path fill="#fbbfa8" fill-rule="evenodd" d="M1149.61,1174.17l-51.01-6.78l37.22-155.27c-6.16-0.74-11.89-0.52-17.07,0.59
			c-5.21,1.14-10.49,3.72-15.86,7.81c3.4,2.67,5.89,6.07,7.48,10.11c1.6,4.05,2.14,7.96,1.64,11.71c-0.45,3.35-1.54,6.44-3.32,9.27
			c-1.74,2.87-3.98,5.3-6.63,7.3c-2.65,1.98-5.65,3.43-8.87,4.31c-3.27,0.89-6.58,1.13-9.93,0.68c-3.89-0.51-7.22-1.76-10.07-3.72
			c-2.84-2-5.12-4.43-6.86-7.38c-1.73-2.96-2.92-6.18-3.61-9.68c-0.64-3.5-0.72-7.08-0.23-10.72c0.89-6.69,3.14-12.82,6.73-18.36
			c3.64-5.52,8.25-10.44,13.88-14.72c5.63-4.23,12.08-7.89,19.38-10.88c7.25-2.95,15.01-5.29,23.2-7.02
			c8.23-1.67,16.71-2.63,25.48-2.91c8.76-0.29,17.48,0.15,26.19,1.3c3.01,0.4,6.02,0.88,8.96,1.48c2.99,0.56,5.96,1.22,8.94,1.91
			L1149.61,1174.17z" clip-rule="evenodd"></path>
    </g>
  </g>
</svg>
